G75*
%MOIN*%
%OFA0B0*%
%FSLAX25Y25*%
%IPPOS*%
%LPD*%
%AMOC8*
5,1,8,0,0,1.08239X$1,22.5*
%
%ADD10R,0.09370X0.06496*%
%ADD11C,0.00246*%
%ADD12C,0.05600*%
%ADD13R,0.04331X0.03937*%
%ADD14C,0.01000*%
D10*
X0031000Y0036000D03*
D11*
X0030385Y0029922D02*
X0029647Y0029922D01*
X0029647Y0031448D01*
X0030385Y0031448D01*
X0030385Y0029922D01*
X0030385Y0030167D02*
X0029647Y0030167D01*
X0029647Y0030412D02*
X0030385Y0030412D01*
X0030385Y0030657D02*
X0029647Y0030657D01*
X0029647Y0030902D02*
X0030385Y0030902D01*
X0030385Y0031147D02*
X0029647Y0031147D01*
X0029647Y0031392D02*
X0030385Y0031392D01*
X0031615Y0029922D02*
X0032353Y0029922D01*
X0031615Y0029922D02*
X0031615Y0031448D01*
X0032353Y0031448D01*
X0032353Y0029922D01*
X0032353Y0030167D02*
X0031615Y0030167D01*
X0031615Y0030412D02*
X0032353Y0030412D01*
X0032353Y0030657D02*
X0031615Y0030657D01*
X0031615Y0030902D02*
X0032353Y0030902D01*
X0032353Y0031147D02*
X0031615Y0031147D01*
X0031615Y0031392D02*
X0032353Y0031392D01*
X0033584Y0029922D02*
X0034322Y0029922D01*
X0033584Y0029922D02*
X0033584Y0031448D01*
X0034322Y0031448D01*
X0034322Y0029922D01*
X0034322Y0030167D02*
X0033584Y0030167D01*
X0033584Y0030412D02*
X0034322Y0030412D01*
X0034322Y0030657D02*
X0033584Y0030657D01*
X0033584Y0030902D02*
X0034322Y0030902D01*
X0034322Y0031147D02*
X0033584Y0031147D01*
X0033584Y0031392D02*
X0034322Y0031392D01*
X0028416Y0029922D02*
X0027678Y0029922D01*
X0027678Y0031448D01*
X0028416Y0031448D01*
X0028416Y0029922D01*
X0028416Y0030167D02*
X0027678Y0030167D01*
X0027678Y0030412D02*
X0028416Y0030412D01*
X0028416Y0030657D02*
X0027678Y0030657D01*
X0027678Y0030902D02*
X0028416Y0030902D01*
X0028416Y0031147D02*
X0027678Y0031147D01*
X0027678Y0031392D02*
X0028416Y0031392D01*
X0028416Y0040552D02*
X0027678Y0040552D01*
X0027678Y0042078D01*
X0028416Y0042078D01*
X0028416Y0040552D01*
X0028416Y0040797D02*
X0027678Y0040797D01*
X0027678Y0041042D02*
X0028416Y0041042D01*
X0028416Y0041287D02*
X0027678Y0041287D01*
X0027678Y0041532D02*
X0028416Y0041532D01*
X0028416Y0041777D02*
X0027678Y0041777D01*
X0027678Y0042022D02*
X0028416Y0042022D01*
X0029647Y0040552D02*
X0030385Y0040552D01*
X0029647Y0040552D02*
X0029647Y0042078D01*
X0030385Y0042078D01*
X0030385Y0040552D01*
X0030385Y0040797D02*
X0029647Y0040797D01*
X0029647Y0041042D02*
X0030385Y0041042D01*
X0030385Y0041287D02*
X0029647Y0041287D01*
X0029647Y0041532D02*
X0030385Y0041532D01*
X0030385Y0041777D02*
X0029647Y0041777D01*
X0029647Y0042022D02*
X0030385Y0042022D01*
X0031615Y0040552D02*
X0032353Y0040552D01*
X0031615Y0040552D02*
X0031615Y0042078D01*
X0032353Y0042078D01*
X0032353Y0040552D01*
X0032353Y0040797D02*
X0031615Y0040797D01*
X0031615Y0041042D02*
X0032353Y0041042D01*
X0032353Y0041287D02*
X0031615Y0041287D01*
X0031615Y0041532D02*
X0032353Y0041532D01*
X0032353Y0041777D02*
X0031615Y0041777D01*
X0031615Y0042022D02*
X0032353Y0042022D01*
X0033584Y0042078D02*
X0034322Y0042078D01*
X0034322Y0040552D01*
X0033584Y0040552D01*
X0033584Y0042078D01*
X0033584Y0040797D02*
X0034322Y0040797D01*
X0034322Y0041042D02*
X0033584Y0041042D01*
X0033584Y0041287D02*
X0034322Y0041287D01*
X0034322Y0041532D02*
X0033584Y0041532D01*
X0033584Y0041777D02*
X0034322Y0041777D01*
X0034322Y0042022D02*
X0033584Y0042022D01*
D12*
X0016000Y0013800D02*
X0016000Y0008200D01*
X0026000Y0008200D02*
X0026000Y0013800D01*
X0036000Y0013800D02*
X0036000Y0008200D01*
X0046000Y0008200D02*
X0046000Y0013800D01*
X0046000Y0063200D02*
X0046000Y0068800D01*
X0036000Y0068800D02*
X0036000Y0063200D01*
X0026000Y0063200D02*
X0026000Y0068800D01*
X0016000Y0068800D02*
X0016000Y0063200D01*
D13*
X0016000Y0054346D03*
X0016000Y0047654D03*
X0016000Y0039346D03*
X0016000Y0032654D03*
X0046000Y0032654D03*
X0046000Y0039346D03*
X0046000Y0047654D03*
X0046000Y0054346D03*
D14*
X0038346Y0054346D01*
X0036000Y0056693D01*
X0036000Y0066000D01*
X0044000Y0074000D02*
X0046000Y0072000D01*
X0046000Y0066000D01*
X0051000Y0066000D01*
X0054500Y0062500D01*
X0054500Y0048500D01*
X0053654Y0047654D01*
X0046000Y0047654D01*
X0046000Y0039346D01*
X0040654Y0039346D01*
X0038685Y0041315D01*
X0033953Y0041315D01*
X0031984Y0041315D02*
X0031984Y0047984D01*
X0038346Y0054346D01*
X0028047Y0047953D02*
X0028047Y0041315D01*
X0028047Y0038953D01*
X0031000Y0036000D01*
X0030016Y0036984D01*
X0030016Y0041315D01*
X0028047Y0047953D02*
X0021654Y0054346D01*
X0016000Y0054346D01*
X0016000Y0066000D01*
X0026000Y0066000D01*
X0012000Y0074000D02*
X0044000Y0074000D01*
X0016000Y0048000D02*
X0011000Y0048000D01*
X0008000Y0051000D01*
X0008000Y0070000D01*
X0012000Y0074000D01*
X0016000Y0048000D02*
X0016000Y0047654D01*
X0016000Y0039346D01*
X0016000Y0032654D02*
X0021346Y0032654D01*
X0023315Y0030685D01*
X0028047Y0030685D01*
X0030016Y0030685D02*
X0030016Y0025016D01*
X0026000Y0021000D01*
X0026000Y0011000D01*
X0016000Y0011000D02*
X0016000Y0032654D01*
X0031984Y0030685D02*
X0031984Y0025016D01*
X0036000Y0021000D01*
X0036000Y0011000D01*
X0046000Y0011000D02*
X0046000Y0032654D01*
X0040654Y0032654D01*
X0038685Y0030685D01*
X0033953Y0030685D01*
M02*
