G75*
%MOIN*%
%OFA0B0*%
%FSLAX25Y25*%
%IPPOS*%
%LPD*%
%AMOC8*
5,1,8,0,0,1.08239X$1,22.5*
%
%ADD10C,0.00800*%
%ADD11C,0.00600*%
%ADD12C,0.00400*%
D10*
X0025488Y0030488D02*
X0025488Y0041512D01*
X0036512Y0041512D02*
X0036512Y0030488D01*
D11*
X0012000Y0006000D02*
X0011000Y0007000D01*
X0011000Y0015000D01*
X0012000Y0016000D01*
X0020000Y0016000D01*
X0021000Y0015000D01*
X0022000Y0016000D01*
X0030000Y0016000D01*
X0031000Y0015000D01*
X0032000Y0016000D01*
X0040000Y0016000D01*
X0041000Y0015000D01*
X0042000Y0016000D01*
X0050000Y0016000D01*
X0051000Y0015000D01*
X0051000Y0007000D01*
X0050000Y0006000D01*
X0042000Y0006000D01*
X0041000Y0007000D01*
X0040000Y0006000D01*
X0032000Y0006000D01*
X0031000Y0007000D01*
X0030000Y0006000D01*
X0022000Y0006000D01*
X0021000Y0007000D01*
X0020000Y0006000D01*
X0012000Y0006000D01*
X0012000Y0061000D02*
X0020000Y0061000D01*
X0021000Y0062000D01*
X0022000Y0061000D01*
X0030000Y0061000D01*
X0031000Y0062000D01*
X0032000Y0061000D01*
X0040000Y0061000D01*
X0041000Y0062000D01*
X0042000Y0061000D01*
X0050000Y0061000D01*
X0051000Y0062000D01*
X0051000Y0070000D01*
X0050000Y0071000D01*
X0042000Y0071000D01*
X0041000Y0070000D01*
X0040000Y0071000D01*
X0032000Y0071000D01*
X0031000Y0070000D01*
X0030000Y0071000D01*
X0022000Y0071000D01*
X0021000Y0070000D01*
X0020000Y0071000D01*
X0012000Y0071000D01*
X0011000Y0070000D01*
X0011000Y0062000D01*
X0012000Y0061000D01*
D12*
X0013300Y0056373D02*
X0013300Y0053304D01*
X0013300Y0054839D02*
X0008696Y0054839D01*
X0010231Y0053304D01*
X0009463Y0051769D02*
X0008696Y0051002D01*
X0008696Y0049467D01*
X0009463Y0048700D01*
X0012533Y0048700D01*
X0013300Y0049467D01*
X0013300Y0051002D01*
X0012533Y0051769D01*
X0019463Y0037165D02*
X0020231Y0037165D01*
X0020998Y0036398D01*
X0021765Y0037165D01*
X0022533Y0037165D01*
X0023300Y0036398D01*
X0023300Y0034863D01*
X0022533Y0034096D01*
X0023300Y0032561D02*
X0021765Y0031027D01*
X0021765Y0031794D02*
X0021765Y0029492D01*
X0023300Y0029492D02*
X0018696Y0029492D01*
X0018696Y0031794D01*
X0019463Y0032561D01*
X0020998Y0032561D01*
X0021765Y0031794D01*
X0019463Y0034096D02*
X0018696Y0034863D01*
X0018696Y0036398D01*
X0019463Y0037165D01*
X0020998Y0036398D02*
X0020998Y0035631D01*
X0038696Y0036002D02*
X0038696Y0033700D01*
X0043300Y0033700D01*
X0041765Y0033700D02*
X0041765Y0036002D01*
X0040998Y0036769D01*
X0039463Y0036769D01*
X0038696Y0036002D01*
X0039463Y0038304D02*
X0038696Y0039071D01*
X0038696Y0040606D01*
X0039463Y0041373D01*
X0040231Y0041373D01*
X0043300Y0038304D01*
X0043300Y0041373D01*
X0043300Y0036769D02*
X0041765Y0035235D01*
X0048696Y0044492D02*
X0048696Y0046794D01*
X0049463Y0047561D01*
X0050998Y0047561D01*
X0051765Y0046794D01*
X0051765Y0044492D01*
X0051765Y0046027D02*
X0053300Y0047561D01*
X0053300Y0049096D02*
X0053300Y0052165D01*
X0053300Y0050631D02*
X0048696Y0050631D01*
X0050231Y0049096D01*
X0048696Y0044492D02*
X0053300Y0044492D01*
M02*
