G75*
%MOIN*%
%OFA0B0*%
%FSLAX25Y25*%
%IPPOS*%
%LPD*%
%AMOC8*
5,1,8,0,0,1.08239X$1,22.5*
%
%ADD10R,0.04724X0.04724*%
%ADD11R,0.04331X0.03937*%
%ADD12R,0.03937X0.04331*%
%ADD13R,0.05512X0.03937*%
%ADD14C,0.03937*%
%ADD15C,0.01600*%
%ADD16C,0.01000*%
D10*
X0044769Y0167985D03*
X0044769Y0177985D03*
X0044769Y0187985D03*
X0044769Y0197985D03*
X0044769Y0207985D03*
X0044517Y0259517D03*
X0044517Y0299517D03*
X0044517Y0344517D03*
X0044517Y0394517D03*
X0116800Y0394517D03*
X0116800Y0344517D03*
X0116800Y0299517D03*
X0116800Y0259517D03*
X0189083Y0259517D03*
X0189083Y0299517D03*
X0189083Y0344517D03*
X0189083Y0394517D03*
X0197906Y0054706D03*
X0174906Y0054706D03*
X0150906Y0054706D03*
X0297800Y0026800D03*
X0317800Y0026800D03*
X0337800Y0026800D03*
D11*
X0172800Y0170540D03*
X0172800Y0177233D03*
X0161800Y0246170D03*
X0161800Y0252863D03*
X0161800Y0286170D03*
X0161800Y0292863D03*
X0161800Y0331170D03*
X0161800Y0337863D03*
X0156800Y0376170D03*
X0156800Y0382863D03*
X0146800Y0391170D03*
X0146800Y0397863D03*
X0089517Y0337863D03*
X0089517Y0331170D03*
X0089517Y0292863D03*
X0089517Y0286170D03*
X0089517Y0252863D03*
X0089517Y0246170D03*
X0084517Y0376170D03*
X0084517Y0382863D03*
X0074517Y0391170D03*
X0074517Y0397863D03*
X0219083Y0397863D03*
X0219083Y0391170D03*
X0229083Y0382863D03*
X0229083Y0376170D03*
X0234083Y0337863D03*
X0234083Y0331170D03*
X0234083Y0292863D03*
X0234083Y0286170D03*
X0234083Y0252863D03*
X0234083Y0246170D03*
D12*
X0238737Y0263517D03*
X0245430Y0263517D03*
X0245430Y0303517D03*
X0238737Y0303517D03*
X0238737Y0349517D03*
X0245430Y0349517D03*
X0173146Y0349517D03*
X0166454Y0349517D03*
X0166454Y0303517D03*
X0173146Y0303517D03*
X0173146Y0263517D03*
X0166454Y0263517D03*
X0161146Y0208887D03*
X0154454Y0208887D03*
X0141146Y0208887D03*
X0134454Y0208887D03*
X0126146Y0194887D03*
X0119454Y0194887D03*
X0134454Y0158887D03*
X0141146Y0158887D03*
X0100863Y0263517D03*
X0094170Y0263517D03*
X0094170Y0303517D03*
X0100863Y0303517D03*
X0100863Y0349517D03*
X0094170Y0349517D03*
D13*
X0078847Y0338257D03*
X0078847Y0330776D03*
X0070186Y0334517D03*
X0068847Y0375776D03*
X0068847Y0383257D03*
X0060186Y0379517D03*
X0132469Y0379517D03*
X0141131Y0383257D03*
X0141131Y0375776D03*
X0151131Y0338257D03*
X0151131Y0330776D03*
X0142469Y0334517D03*
X0151131Y0293257D03*
X0151131Y0285776D03*
X0142469Y0289517D03*
X0151131Y0253257D03*
X0151131Y0245776D03*
X0142469Y0249517D03*
X0078847Y0253257D03*
X0078847Y0245776D03*
X0070186Y0249517D03*
X0078847Y0285776D03*
X0078847Y0293257D03*
X0070186Y0289517D03*
X0204753Y0379517D03*
X0213414Y0383257D03*
X0213414Y0375776D03*
X0223414Y0338257D03*
X0223414Y0330776D03*
X0214753Y0334517D03*
X0223414Y0293257D03*
X0223414Y0285776D03*
X0214753Y0289517D03*
X0223414Y0253257D03*
X0223414Y0245776D03*
X0214753Y0249517D03*
D14*
X0207083Y0249517D03*
X0228083Y0263517D03*
X0207083Y0289517D03*
X0228083Y0303517D03*
X0207083Y0334517D03*
X0228083Y0349517D03*
X0198083Y0379517D03*
X0219083Y0406017D03*
X0216800Y0421800D03*
X0196800Y0421800D03*
X0176800Y0421800D03*
X0156800Y0421800D03*
X0146800Y0406017D03*
X0136800Y0421800D03*
X0116800Y0421800D03*
X0096800Y0421800D03*
X0076800Y0421800D03*
X0074517Y0406017D03*
X0056800Y0421800D03*
X0053517Y0379517D03*
X0077300Y0371800D03*
X0083517Y0349517D03*
X0097300Y0337800D03*
X0083517Y0303517D03*
X0097300Y0292800D03*
X0083517Y0263517D03*
X0097300Y0252800D03*
X0062517Y0249517D03*
X0062517Y0289517D03*
X0063017Y0334517D03*
X0016800Y0341800D03*
X0016800Y0361800D03*
X0016800Y0381800D03*
X0016800Y0321800D03*
X0016800Y0301800D03*
X0016800Y0281800D03*
X0016800Y0261800D03*
X0016800Y0241800D03*
X0016800Y0221800D03*
X0016800Y0201800D03*
X0016800Y0181800D03*
X0016800Y0161800D03*
X0016800Y0141800D03*
X0016800Y0086800D03*
X0016800Y0066800D03*
X0016800Y0046800D03*
X0056800Y0016800D03*
X0076800Y0016800D03*
X0096800Y0016800D03*
X0116800Y0016800D03*
X0136800Y0016800D03*
X0156800Y0016800D03*
X0176800Y0016800D03*
X0196800Y0016800D03*
X0216800Y0016800D03*
X0236800Y0016800D03*
X0256800Y0016800D03*
X0276800Y0016800D03*
X0296800Y0016800D03*
X0316800Y0016800D03*
X0336800Y0016800D03*
X0331800Y0048600D03*
X0366800Y0056800D03*
X0366800Y0076800D03*
X0366800Y0096800D03*
X0366800Y0116800D03*
X0366800Y0136800D03*
X0366800Y0156800D03*
X0366800Y0176800D03*
X0366800Y0196800D03*
X0366800Y0216800D03*
X0366131Y0228335D03*
X0358257Y0228335D03*
X0350383Y0228335D03*
X0350383Y0220461D03*
X0342509Y0220461D03*
X0342509Y0212587D03*
X0342509Y0204713D03*
X0342509Y0196839D03*
X0342509Y0188965D03*
X0342509Y0181091D03*
X0342509Y0173217D03*
X0322824Y0173217D03*
X0322824Y0181091D03*
X0322824Y0188965D03*
X0322824Y0196839D03*
X0322824Y0204713D03*
X0322824Y0212587D03*
X0322824Y0220461D03*
X0314950Y0220461D03*
X0314950Y0228335D03*
X0307076Y0228335D03*
X0299202Y0228335D03*
X0291328Y0228335D03*
X0283454Y0228335D03*
X0275580Y0228335D03*
X0275580Y0236209D03*
X0275580Y0244083D03*
X0275580Y0251957D03*
X0275580Y0259831D03*
X0275580Y0267706D03*
X0275580Y0275580D03*
X0275580Y0283454D03*
X0275580Y0291328D03*
X0275580Y0299202D03*
X0275580Y0307076D03*
X0275580Y0314950D03*
X0275580Y0322824D03*
X0275580Y0330698D03*
X0275580Y0338572D03*
X0275580Y0346446D03*
X0275580Y0354320D03*
X0275580Y0362194D03*
X0275580Y0370068D03*
X0275580Y0377942D03*
X0275580Y0385816D03*
X0275580Y0393690D03*
X0275580Y0401564D03*
X0275580Y0409438D03*
X0275580Y0417312D03*
X0275580Y0425186D03*
X0256800Y0421800D03*
X0236800Y0421800D03*
X0169300Y0337800D03*
X0155800Y0349517D03*
X0135800Y0334517D03*
X0155800Y0303517D03*
X0169300Y0292800D03*
X0155800Y0263517D03*
X0170800Y0257800D03*
X0169300Y0252800D03*
X0134800Y0249517D03*
X0134800Y0289517D03*
X0143800Y0202800D03*
X0139800Y0194800D03*
X0149800Y0194800D03*
X0153800Y0202887D03*
X0153800Y0176800D03*
X0144800Y0176800D03*
X0146800Y0152887D03*
X0165800Y0140887D03*
X0171800Y0141800D03*
X0178300Y0141300D03*
X0182800Y0169887D03*
X0144800Y0120300D03*
X0137800Y0120300D03*
X0118300Y0157300D03*
X0123800Y0161300D03*
X0105800Y0186300D03*
X0113800Y0194887D03*
X0076800Y0184800D03*
X0125800Y0379517D03*
X0289800Y0173800D03*
X0289800Y0162800D03*
X0301800Y0173800D03*
X0266800Y0126800D03*
X0252454Y0113454D03*
X0252500Y0100000D03*
X0292200Y0055000D03*
D15*
X0013584Y0090724D02*
X0013584Y0013584D01*
X0372220Y0013584D01*
X0372220Y0233500D01*
X0280338Y0233500D01*
X0279262Y0233500D01*
X0278500Y0234262D01*
X0278500Y0427339D01*
X0013584Y0427339D01*
X0013584Y0137600D01*
X0132618Y0137600D01*
X0133663Y0136555D01*
X0133663Y0091770D01*
X0132618Y0090724D01*
X0013584Y0090724D01*
X0013584Y0090127D02*
X0213183Y0090127D01*
X0211585Y0091726D02*
X0133619Y0091726D01*
X0133663Y0093324D02*
X0209986Y0093324D01*
X0208388Y0094923D02*
X0133663Y0094923D01*
X0133663Y0096521D02*
X0206789Y0096521D01*
X0205191Y0098120D02*
X0133663Y0098120D01*
X0133663Y0099718D02*
X0203592Y0099718D01*
X0201994Y0101317D02*
X0133663Y0101317D01*
X0133663Y0102915D02*
X0200395Y0102915D01*
X0198797Y0104514D02*
X0133663Y0104514D01*
X0133663Y0106112D02*
X0197198Y0106112D01*
X0195600Y0107711D02*
X0133663Y0107711D01*
X0133663Y0109309D02*
X0194001Y0109309D01*
X0192403Y0110908D02*
X0133663Y0110908D01*
X0133663Y0112506D02*
X0190804Y0112506D01*
X0189206Y0114105D02*
X0133663Y0114105D01*
X0133663Y0115703D02*
X0187607Y0115703D01*
X0186009Y0117302D02*
X0146831Y0117302D01*
X0146814Y0117285D02*
X0147815Y0118286D01*
X0148356Y0119593D01*
X0148356Y0121007D01*
X0147815Y0122314D01*
X0147187Y0122941D01*
X0147187Y0141289D01*
X0137977Y0150499D01*
X0144159Y0150499D01*
X0144786Y0149872D01*
X0146093Y0149331D01*
X0147507Y0149331D01*
X0148814Y0149872D01*
X0149441Y0150499D01*
X0161789Y0150499D01*
X0175187Y0163898D01*
X0175187Y0166984D01*
X0175623Y0166984D01*
X0176553Y0167914D01*
X0176553Y0168153D01*
X0179669Y0168153D01*
X0179785Y0167872D01*
X0180786Y0166872D01*
X0182093Y0166331D01*
X0183507Y0166331D01*
X0184814Y0166872D01*
X0185815Y0167872D01*
X0186356Y0169179D01*
X0186356Y0170594D01*
X0185815Y0171901D01*
X0184814Y0172901D01*
X0183507Y0173443D01*
X0182093Y0173443D01*
X0180849Y0172928D01*
X0176553Y0172928D01*
X0176553Y0173166D01*
X0175803Y0173915D01*
X0175940Y0173994D01*
X0176236Y0174290D01*
X0176445Y0174652D01*
X0176553Y0175056D01*
X0176553Y0177049D01*
X0172984Y0177049D01*
X0172984Y0177417D01*
X0176553Y0177417D01*
X0176553Y0179411D01*
X0176445Y0179814D01*
X0176236Y0180176D01*
X0175940Y0180472D01*
X0175578Y0180681D01*
X0175174Y0180789D01*
X0172984Y0180789D01*
X0172984Y0177417D01*
X0172616Y0177417D01*
X0172616Y0177049D01*
X0169047Y0177049D01*
X0169047Y0175056D01*
X0169155Y0174652D01*
X0169364Y0174290D01*
X0169660Y0173994D01*
X0169797Y0173915D01*
X0169047Y0173166D01*
X0169047Y0167914D01*
X0169977Y0166984D01*
X0170413Y0166984D01*
X0170413Y0165876D01*
X0159811Y0155274D01*
X0149441Y0155274D01*
X0148814Y0155901D01*
X0147507Y0156443D01*
X0146093Y0156443D01*
X0144786Y0155901D01*
X0144159Y0155274D01*
X0143783Y0155274D01*
X0144090Y0155451D01*
X0144385Y0155747D01*
X0144594Y0156109D01*
X0144702Y0156512D01*
X0144702Y0158702D01*
X0141331Y0158702D01*
X0141331Y0159071D01*
X0144702Y0159071D01*
X0144702Y0161261D01*
X0144594Y0161665D01*
X0144385Y0162027D01*
X0144090Y0162322D01*
X0143728Y0162531D01*
X0143324Y0162639D01*
X0141331Y0162639D01*
X0141331Y0159071D01*
X0140962Y0159071D01*
X0140962Y0162639D01*
X0138969Y0162639D01*
X0138565Y0162531D01*
X0138203Y0162322D01*
X0137908Y0162027D01*
X0137829Y0161890D01*
X0137080Y0162639D01*
X0136841Y0162639D01*
X0136841Y0174222D01*
X0121841Y0189222D01*
X0121841Y0191134D01*
X0122080Y0191134D01*
X0122829Y0191883D01*
X0122908Y0191747D01*
X0123203Y0191451D01*
X0123565Y0191242D01*
X0123969Y0191134D01*
X0125962Y0191134D01*
X0125962Y0194702D01*
X0126331Y0194702D01*
X0126331Y0195071D01*
X0129702Y0195071D01*
X0129702Y0197261D01*
X0129594Y0197665D01*
X0129385Y0198027D01*
X0129090Y0198322D01*
X0128728Y0198531D01*
X0128324Y0198639D01*
X0126331Y0198639D01*
X0126331Y0195071D01*
X0125962Y0195071D01*
X0125962Y0198639D01*
X0123969Y0198639D01*
X0123565Y0198531D01*
X0123203Y0198322D01*
X0122908Y0198027D01*
X0122829Y0197890D01*
X0122080Y0198639D01*
X0121841Y0198639D01*
X0121841Y0199551D01*
X0128789Y0206499D01*
X0130898Y0206499D01*
X0130898Y0206064D01*
X0131828Y0205134D01*
X0132066Y0205134D01*
X0132066Y0204058D01*
X0133465Y0202659D01*
X0135711Y0200413D01*
X0141159Y0200413D01*
X0141786Y0199785D01*
X0143093Y0199244D01*
X0144507Y0199244D01*
X0145814Y0199785D01*
X0146815Y0200786D01*
X0147356Y0202093D01*
X0147356Y0203507D01*
X0146815Y0204814D01*
X0145814Y0205815D01*
X0144645Y0206299D01*
X0144702Y0206512D01*
X0144702Y0208702D01*
X0141331Y0208702D01*
X0141331Y0209071D01*
X0144702Y0209071D01*
X0144702Y0211261D01*
X0144594Y0211665D01*
X0144385Y0212027D01*
X0144090Y0212322D01*
X0143728Y0212531D01*
X0143324Y0212639D01*
X0141331Y0212639D01*
X0141331Y0209071D01*
X0140962Y0209071D01*
X0140962Y0212639D01*
X0138969Y0212639D01*
X0138565Y0212531D01*
X0138203Y0212322D01*
X0137908Y0212027D01*
X0137829Y0211890D01*
X0137080Y0212639D01*
X0131828Y0212639D01*
X0130898Y0211709D01*
X0130898Y0211274D01*
X0126811Y0211274D01*
X0125413Y0209876D01*
X0117066Y0201529D01*
X0117066Y0198639D01*
X0116828Y0198639D01*
X0115952Y0197764D01*
X0115814Y0197901D01*
X0114507Y0198443D01*
X0113093Y0198443D01*
X0111786Y0197901D01*
X0110785Y0196901D01*
X0110244Y0195594D01*
X0110244Y0194179D01*
X0110785Y0192872D01*
X0111786Y0191872D01*
X0113093Y0191331D01*
X0114507Y0191331D01*
X0115814Y0191872D01*
X0115952Y0192010D01*
X0116828Y0191134D01*
X0117066Y0191134D01*
X0117066Y0187244D01*
X0118465Y0185846D01*
X0132066Y0172244D01*
X0132066Y0162639D01*
X0131828Y0162639D01*
X0130898Y0161709D01*
X0130898Y0157579D01*
X0127356Y0161120D01*
X0127356Y0162007D01*
X0126815Y0163314D01*
X0125814Y0164315D01*
X0124507Y0164856D01*
X0123093Y0164856D01*
X0121786Y0164315D01*
X0120785Y0163314D01*
X0120244Y0162007D01*
X0120244Y0160593D01*
X0120391Y0160238D01*
X0120314Y0160315D01*
X0119007Y0160856D01*
X0117593Y0160856D01*
X0116286Y0160315D01*
X0115285Y0159314D01*
X0114744Y0158007D01*
X0114744Y0156593D01*
X0115285Y0155286D01*
X0116286Y0154285D01*
X0117593Y0153744D01*
X0118480Y0153744D01*
X0135413Y0136811D01*
X0135413Y0122941D01*
X0134785Y0122314D01*
X0134244Y0121007D01*
X0134244Y0119593D01*
X0134785Y0118286D01*
X0135786Y0117285D01*
X0137093Y0116744D01*
X0138507Y0116744D01*
X0139814Y0117285D01*
X0140815Y0118286D01*
X0141300Y0119458D01*
X0141785Y0118286D01*
X0142786Y0117285D01*
X0144093Y0116744D01*
X0145507Y0116744D01*
X0146814Y0117285D01*
X0148069Y0118900D02*
X0184410Y0118900D01*
X0182812Y0120499D02*
X0148356Y0120499D01*
X0147904Y0122097D02*
X0181213Y0122097D01*
X0179615Y0123696D02*
X0147187Y0123696D01*
X0147187Y0125294D02*
X0178016Y0125294D01*
X0176417Y0126893D02*
X0147187Y0126893D01*
X0147187Y0128491D02*
X0174819Y0128491D01*
X0173220Y0130090D02*
X0147187Y0130090D01*
X0147187Y0131688D02*
X0171622Y0131688D01*
X0170023Y0133287D02*
X0147187Y0133287D01*
X0147187Y0134885D02*
X0168425Y0134885D01*
X0166826Y0136484D02*
X0147187Y0136484D01*
X0147187Y0138082D02*
X0163575Y0138082D01*
X0163786Y0137872D02*
X0165093Y0137331D01*
X0165980Y0137331D01*
X0277499Y0025811D01*
X0278898Y0024413D01*
X0293850Y0024413D01*
X0293850Y0023780D01*
X0294780Y0022850D01*
X0300820Y0022850D01*
X0301750Y0023780D01*
X0301750Y0029820D01*
X0300820Y0030750D01*
X0294780Y0030750D01*
X0293850Y0029820D01*
X0293850Y0029187D01*
X0280875Y0029187D01*
X0171819Y0138244D01*
X0171980Y0138244D01*
X0264011Y0046213D01*
X0265989Y0046213D01*
X0329159Y0046213D01*
X0329786Y0045585D01*
X0331093Y0045044D01*
X0332507Y0045044D01*
X0333814Y0045585D01*
X0334815Y0046586D01*
X0335356Y0047893D01*
X0335356Y0049307D01*
X0334815Y0050614D01*
X0333814Y0051615D01*
X0332507Y0052156D01*
X0331093Y0052156D01*
X0329786Y0051615D01*
X0329159Y0050987D01*
X0265989Y0050987D01*
X0264364Y0052613D01*
X0289559Y0052613D01*
X0290186Y0051985D01*
X0291493Y0051444D01*
X0292907Y0051444D01*
X0294214Y0051985D01*
X0295215Y0052986D01*
X0295756Y0054293D01*
X0295756Y0055707D01*
X0295215Y0057014D01*
X0294214Y0058015D01*
X0292907Y0058556D01*
X0291493Y0058556D01*
X0290186Y0058015D01*
X0289559Y0057387D01*
X0265589Y0057387D01*
X0181856Y0141120D01*
X0181856Y0142007D01*
X0181315Y0143314D01*
X0180314Y0144315D01*
X0179007Y0144856D01*
X0177593Y0144856D01*
X0176286Y0144315D01*
X0175285Y0143314D01*
X0175154Y0142996D01*
X0174815Y0143814D01*
X0173814Y0144815D01*
X0172507Y0145356D01*
X0171093Y0145356D01*
X0169786Y0144815D01*
X0168785Y0143814D01*
X0168526Y0143189D01*
X0167814Y0143901D01*
X0166507Y0144443D01*
X0165093Y0144443D01*
X0163786Y0143901D01*
X0162785Y0142901D01*
X0162244Y0141594D01*
X0162244Y0140179D01*
X0162785Y0138872D01*
X0163786Y0137872D01*
X0162451Y0139681D02*
X0147187Y0139681D01*
X0147187Y0141279D02*
X0162244Y0141279D01*
X0162776Y0142878D02*
X0145598Y0142878D01*
X0144000Y0144476D02*
X0169448Y0144476D01*
X0171800Y0141800D02*
X0265000Y0048600D01*
X0331800Y0048600D01*
X0335356Y0048566D02*
X0372220Y0048566D01*
X0372220Y0050164D02*
X0335001Y0050164D01*
X0333456Y0051763D02*
X0372220Y0051763D01*
X0372220Y0053361D02*
X0295370Y0053361D01*
X0295756Y0054960D02*
X0372220Y0054960D01*
X0372220Y0056558D02*
X0295403Y0056558D01*
X0293871Y0058157D02*
X0372220Y0058157D01*
X0372220Y0059755D02*
X0263221Y0059755D01*
X0264819Y0058157D02*
X0290529Y0058157D01*
X0292200Y0055000D02*
X0264600Y0055000D01*
X0178300Y0141300D01*
X0181856Y0141279D02*
X0267213Y0141279D01*
X0267213Y0139681D02*
X0183295Y0139681D01*
X0184894Y0138082D02*
X0267213Y0138082D01*
X0267213Y0136484D02*
X0186492Y0136484D01*
X0188091Y0134885D02*
X0267213Y0134885D01*
X0267213Y0133287D02*
X0189689Y0133287D01*
X0191288Y0131688D02*
X0267213Y0131688D01*
X0267213Y0130589D02*
X0266980Y0130356D01*
X0266093Y0130356D01*
X0264786Y0129815D01*
X0263785Y0128814D01*
X0263244Y0127507D01*
X0263244Y0126093D01*
X0263785Y0124786D01*
X0264786Y0123785D01*
X0266093Y0123244D01*
X0267507Y0123244D01*
X0268814Y0123785D01*
X0269815Y0124786D01*
X0270356Y0126093D01*
X0270356Y0126980D01*
X0270589Y0127213D01*
X0271987Y0128611D01*
X0271987Y0362989D01*
X0270589Y0364387D01*
X0241419Y0393557D01*
X0222836Y0393557D01*
X0222836Y0393796D01*
X0222116Y0394517D01*
X0222836Y0395237D01*
X0222836Y0400489D01*
X0221906Y0401419D01*
X0221471Y0401419D01*
X0221471Y0403375D01*
X0222098Y0404002D01*
X0222639Y0405309D01*
X0222639Y0406724D01*
X0222098Y0408031D01*
X0221098Y0409031D01*
X0219791Y0409572D01*
X0218376Y0409572D01*
X0217069Y0409031D01*
X0216069Y0408031D01*
X0215528Y0406724D01*
X0215528Y0405309D01*
X0216069Y0404002D01*
X0216696Y0403375D01*
X0216696Y0401419D01*
X0216261Y0401419D01*
X0215331Y0400489D01*
X0215331Y0395237D01*
X0216051Y0394517D01*
X0215355Y0393821D01*
X0207272Y0401904D01*
X0182495Y0401904D01*
X0181096Y0400505D01*
X0174148Y0393557D01*
X0150553Y0393557D01*
X0150553Y0393796D01*
X0149832Y0394517D01*
X0150553Y0395237D01*
X0150553Y0400489D01*
X0149623Y0401419D01*
X0149187Y0401419D01*
X0149187Y0403375D01*
X0149815Y0404002D01*
X0150356Y0405309D01*
X0150356Y0406724D01*
X0149815Y0408031D01*
X0148814Y0409031D01*
X0147507Y0409572D01*
X0146093Y0409572D01*
X0144786Y0409031D01*
X0143785Y0408031D01*
X0143244Y0406724D01*
X0143244Y0405309D01*
X0143785Y0404002D01*
X0144413Y0403375D01*
X0144413Y0401419D01*
X0143977Y0401419D01*
X0143047Y0400489D01*
X0143047Y0395237D01*
X0143768Y0394517D01*
X0143372Y0394121D01*
X0135189Y0402304D01*
X0110211Y0402304D01*
X0108813Y0400905D01*
X0101465Y0393557D01*
X0078269Y0393557D01*
X0078269Y0393796D01*
X0077549Y0394517D01*
X0078269Y0395237D01*
X0078269Y0400489D01*
X0077339Y0401419D01*
X0076904Y0401419D01*
X0076904Y0403375D01*
X0077531Y0404002D01*
X0078072Y0405309D01*
X0078072Y0406724D01*
X0077531Y0408031D01*
X0076531Y0409031D01*
X0075224Y0409572D01*
X0073809Y0409572D01*
X0072502Y0409031D01*
X0071502Y0408031D01*
X0070961Y0406724D01*
X0070961Y0405309D01*
X0071502Y0404002D01*
X0072129Y0403375D01*
X0072129Y0401419D01*
X0071694Y0401419D01*
X0070764Y0400489D01*
X0070764Y0395237D01*
X0071484Y0394517D01*
X0070764Y0393796D01*
X0070764Y0389146D01*
X0064404Y0395505D01*
X0063005Y0396904D01*
X0048466Y0396904D01*
X0048466Y0397536D01*
X0047536Y0398466D01*
X0041497Y0398466D01*
X0040567Y0397536D01*
X0040567Y0391497D01*
X0041497Y0390567D01*
X0047536Y0390567D01*
X0048466Y0391497D01*
X0048466Y0392129D01*
X0061028Y0392129D01*
X0066344Y0386813D01*
X0065434Y0386813D01*
X0064504Y0385883D01*
X0064504Y0382168D01*
X0063599Y0383072D01*
X0056772Y0383072D01*
X0055881Y0382181D01*
X0055531Y0382531D01*
X0054224Y0383072D01*
X0052809Y0383072D01*
X0051502Y0382531D01*
X0050502Y0381531D01*
X0049961Y0380224D01*
X0049961Y0378809D01*
X0050502Y0377502D01*
X0051502Y0376502D01*
X0052809Y0375961D01*
X0054224Y0375961D01*
X0055531Y0376502D01*
X0055881Y0376852D01*
X0056772Y0375961D01*
X0063599Y0375961D01*
X0064504Y0376865D01*
X0064504Y0375961D01*
X0068663Y0375961D01*
X0068663Y0379332D01*
X0065882Y0379332D01*
X0065479Y0379224D01*
X0065117Y0379015D01*
X0064821Y0378720D01*
X0064612Y0378358D01*
X0064529Y0378048D01*
X0064529Y0380605D01*
X0065434Y0379701D01*
X0072261Y0379701D01*
X0073092Y0380532D01*
X0074313Y0379311D01*
X0074413Y0379211D01*
X0074513Y0379111D01*
X0074913Y0378711D01*
X0074913Y0374441D01*
X0074285Y0373814D01*
X0073744Y0372507D01*
X0073744Y0371093D01*
X0074285Y0369786D01*
X0075286Y0368785D01*
X0076593Y0368244D01*
X0078007Y0368244D01*
X0079314Y0368785D01*
X0080315Y0369786D01*
X0080856Y0371093D01*
X0080856Y0372507D01*
X0080315Y0373814D01*
X0079687Y0374441D01*
X0079687Y0380476D01*
X0080764Y0380476D01*
X0080764Y0380237D01*
X0081513Y0379488D01*
X0081376Y0379409D01*
X0081081Y0379113D01*
X0080872Y0378751D01*
X0080764Y0378348D01*
X0080764Y0376354D01*
X0084332Y0376354D01*
X0084332Y0375986D01*
X0080764Y0375986D01*
X0080764Y0373993D01*
X0080872Y0373589D01*
X0081081Y0373227D01*
X0081376Y0372931D01*
X0081738Y0372722D01*
X0082142Y0372614D01*
X0084332Y0372614D01*
X0084332Y0375986D01*
X0084701Y0375986D01*
X0084701Y0376354D01*
X0088269Y0376354D01*
X0088269Y0378348D01*
X0088161Y0378751D01*
X0087952Y0379113D01*
X0087657Y0379409D01*
X0087520Y0379488D01*
X0088269Y0380237D01*
X0088269Y0385489D01*
X0087339Y0386419D01*
X0081694Y0386419D01*
X0080764Y0385489D01*
X0080764Y0385250D01*
X0078159Y0385250D01*
X0077765Y0385644D01*
X0073191Y0385644D01*
X0073191Y0385883D01*
X0072261Y0386813D01*
X0071235Y0386813D01*
X0071235Y0388073D01*
X0071694Y0387614D01*
X0077339Y0387614D01*
X0078269Y0388544D01*
X0078269Y0388783D01*
X0103442Y0388783D01*
X0112189Y0397529D01*
X0112850Y0397529D01*
X0112850Y0391497D01*
X0113780Y0390567D01*
X0119820Y0390567D01*
X0120750Y0391497D01*
X0120750Y0392129D01*
X0133311Y0392129D01*
X0138628Y0386813D01*
X0137717Y0386813D01*
X0136787Y0385883D01*
X0136787Y0382168D01*
X0135883Y0383072D01*
X0129056Y0383072D01*
X0128164Y0382181D01*
X0127814Y0382531D01*
X0126507Y0383072D01*
X0125093Y0383072D01*
X0123786Y0382531D01*
X0122785Y0381531D01*
X0122244Y0380224D01*
X0122244Y0378809D01*
X0122785Y0377502D01*
X0123786Y0376502D01*
X0125093Y0375961D01*
X0126507Y0375961D01*
X0127814Y0376502D01*
X0128164Y0376852D01*
X0129056Y0375961D01*
X0135883Y0375961D01*
X0136787Y0376865D01*
X0136787Y0375961D01*
X0140946Y0375961D01*
X0140946Y0379332D01*
X0138166Y0379332D01*
X0137762Y0379224D01*
X0137400Y0379015D01*
X0137105Y0378720D01*
X0136896Y0378358D01*
X0136813Y0378048D01*
X0136813Y0380605D01*
X0137717Y0379701D01*
X0144544Y0379701D01*
X0145474Y0380631D01*
X0145474Y0380869D01*
X0148071Y0380869D01*
X0148465Y0380476D01*
X0153047Y0380476D01*
X0153047Y0380237D01*
X0153797Y0379488D01*
X0153660Y0379409D01*
X0153364Y0379113D01*
X0153155Y0378751D01*
X0153047Y0378348D01*
X0153047Y0376354D01*
X0156616Y0376354D01*
X0156616Y0375986D01*
X0156984Y0375986D01*
X0156984Y0372614D01*
X0159174Y0372614D01*
X0159578Y0372722D01*
X0159940Y0372931D01*
X0160236Y0373227D01*
X0160445Y0373589D01*
X0160553Y0373993D01*
X0160553Y0375986D01*
X0156984Y0375986D01*
X0156984Y0376354D01*
X0160553Y0376354D01*
X0160553Y0378348D01*
X0160445Y0378751D01*
X0160236Y0379113D01*
X0159940Y0379409D01*
X0159803Y0379488D01*
X0160553Y0380237D01*
X0160553Y0385489D01*
X0159623Y0386419D01*
X0153977Y0386419D01*
X0153047Y0385489D01*
X0153047Y0385250D01*
X0150442Y0385250D01*
X0150049Y0385644D01*
X0145474Y0385644D01*
X0145474Y0385883D01*
X0144544Y0386813D01*
X0143518Y0386813D01*
X0143518Y0388073D01*
X0143977Y0387614D01*
X0149623Y0387614D01*
X0150553Y0388544D01*
X0150553Y0388783D01*
X0176126Y0388783D01*
X0184472Y0397129D01*
X0185134Y0397129D01*
X0185134Y0391497D01*
X0186064Y0390567D01*
X0192103Y0390567D01*
X0193033Y0391497D01*
X0193033Y0392129D01*
X0205595Y0392129D01*
X0210911Y0386813D01*
X0210001Y0386813D01*
X0209071Y0385883D01*
X0209071Y0382168D01*
X0208166Y0383072D01*
X0201339Y0383072D01*
X0200448Y0382181D01*
X0200098Y0382531D01*
X0198791Y0383072D01*
X0197376Y0383072D01*
X0196069Y0382531D01*
X0195069Y0381531D01*
X0194528Y0380224D01*
X0194528Y0378809D01*
X0195069Y0377502D01*
X0196069Y0376502D01*
X0197376Y0375961D01*
X0198791Y0375961D01*
X0200098Y0376502D01*
X0200448Y0376852D01*
X0201339Y0375961D01*
X0208166Y0375961D01*
X0209071Y0376865D01*
X0209071Y0375961D01*
X0213230Y0375961D01*
X0213230Y0379332D01*
X0210449Y0379332D01*
X0210046Y0379224D01*
X0209684Y0379015D01*
X0209388Y0378720D01*
X0209179Y0378358D01*
X0209096Y0378048D01*
X0209096Y0380605D01*
X0210001Y0379701D01*
X0216828Y0379701D01*
X0217757Y0380631D01*
X0217757Y0380869D01*
X0220854Y0380869D01*
X0221248Y0380476D01*
X0225331Y0380476D01*
X0225331Y0380237D01*
X0226080Y0379488D01*
X0225943Y0379409D01*
X0225648Y0379113D01*
X0225439Y0378751D01*
X0225331Y0378348D01*
X0225331Y0376354D01*
X0228899Y0376354D01*
X0228899Y0375986D01*
X0225331Y0375986D01*
X0225331Y0373993D01*
X0225439Y0373589D01*
X0225648Y0373227D01*
X0225943Y0372931D01*
X0226305Y0372722D01*
X0226709Y0372614D01*
X0228899Y0372614D01*
X0228899Y0375986D01*
X0229268Y0375986D01*
X0229268Y0376354D01*
X0232836Y0376354D01*
X0232836Y0378348D01*
X0232728Y0378751D01*
X0232519Y0379113D01*
X0232223Y0379409D01*
X0232087Y0379488D01*
X0232836Y0380237D01*
X0232836Y0385489D01*
X0231906Y0386419D01*
X0226261Y0386419D01*
X0225331Y0385489D01*
X0225331Y0385250D01*
X0223226Y0385250D01*
X0222832Y0385644D01*
X0217757Y0385644D01*
X0217757Y0385883D01*
X0216828Y0386813D01*
X0215802Y0386813D01*
X0215802Y0388073D01*
X0216261Y0387614D01*
X0221906Y0387614D01*
X0222836Y0388544D01*
X0222836Y0388783D01*
X0239441Y0388783D01*
X0267213Y0361011D01*
X0267213Y0130589D01*
X0265450Y0130090D02*
X0192886Y0130090D01*
X0194485Y0128491D02*
X0263652Y0128491D01*
X0263244Y0126893D02*
X0196083Y0126893D01*
X0197682Y0125294D02*
X0263575Y0125294D01*
X0265002Y0123696D02*
X0199280Y0123696D01*
X0200879Y0122097D02*
X0372220Y0122097D01*
X0372220Y0120499D02*
X0202478Y0120499D01*
X0204076Y0118900D02*
X0372220Y0118900D01*
X0372220Y0117302D02*
X0205675Y0117302D01*
X0207273Y0115703D02*
X0249674Y0115703D01*
X0249439Y0115468D02*
X0248898Y0114161D01*
X0248898Y0112746D01*
X0249439Y0111439D01*
X0250066Y0110812D01*
X0250066Y0102595D01*
X0249485Y0102014D01*
X0248944Y0100707D01*
X0248944Y0099293D01*
X0249485Y0097986D01*
X0250486Y0096985D01*
X0251793Y0096444D01*
X0253207Y0096444D01*
X0254514Y0096985D01*
X0255515Y0097986D01*
X0256056Y0099293D01*
X0256056Y0100707D01*
X0255515Y0102014D01*
X0254841Y0102688D01*
X0254841Y0110812D01*
X0255468Y0111439D01*
X0256009Y0112746D01*
X0256009Y0114161D01*
X0255468Y0115468D01*
X0254468Y0116468D01*
X0253161Y0117009D01*
X0251746Y0117009D01*
X0250439Y0116468D01*
X0249439Y0115468D01*
X0248898Y0114105D02*
X0208872Y0114105D01*
X0210470Y0112506D02*
X0248997Y0112506D01*
X0249971Y0110908D02*
X0212069Y0110908D01*
X0213667Y0109309D02*
X0250066Y0109309D01*
X0250066Y0107711D02*
X0215266Y0107711D01*
X0216864Y0106112D02*
X0250066Y0106112D01*
X0250066Y0104514D02*
X0218463Y0104514D01*
X0220061Y0102915D02*
X0250066Y0102915D01*
X0249196Y0101317D02*
X0221660Y0101317D01*
X0223258Y0099718D02*
X0248944Y0099718D01*
X0249430Y0098120D02*
X0224857Y0098120D01*
X0226455Y0096521D02*
X0251607Y0096521D01*
X0253393Y0096521D02*
X0372220Y0096521D01*
X0372220Y0094923D02*
X0228054Y0094923D01*
X0229652Y0093324D02*
X0372220Y0093324D01*
X0372220Y0091726D02*
X0231251Y0091726D01*
X0232849Y0090127D02*
X0372220Y0090127D01*
X0372220Y0088529D02*
X0234448Y0088529D01*
X0236046Y0086930D02*
X0372220Y0086930D01*
X0372220Y0085332D02*
X0237645Y0085332D01*
X0239243Y0083733D02*
X0372220Y0083733D01*
X0372220Y0082134D02*
X0240842Y0082134D01*
X0242440Y0080536D02*
X0372220Y0080536D01*
X0372220Y0078937D02*
X0244039Y0078937D01*
X0245637Y0077339D02*
X0372220Y0077339D01*
X0372220Y0075740D02*
X0247236Y0075740D01*
X0248834Y0074142D02*
X0372220Y0074142D01*
X0372220Y0072543D02*
X0250433Y0072543D01*
X0252031Y0070945D02*
X0372220Y0070945D01*
X0372220Y0069346D02*
X0253630Y0069346D01*
X0255228Y0067748D02*
X0372220Y0067748D01*
X0372220Y0066149D02*
X0256827Y0066149D01*
X0258425Y0064551D02*
X0372220Y0064551D01*
X0372220Y0062952D02*
X0260024Y0062952D01*
X0261622Y0061354D02*
X0372220Y0061354D01*
X0372220Y0046967D02*
X0334973Y0046967D01*
X0333291Y0045369D02*
X0372220Y0045369D01*
X0372220Y0043770D02*
X0266293Y0043770D01*
X0267891Y0042172D02*
X0372220Y0042172D01*
X0372220Y0040573D02*
X0269490Y0040573D01*
X0271088Y0038975D02*
X0372220Y0038975D01*
X0372220Y0037376D02*
X0272687Y0037376D01*
X0274285Y0035778D02*
X0352099Y0035778D01*
X0351998Y0035736D02*
X0349281Y0033019D01*
X0347811Y0029469D01*
X0347811Y0025627D01*
X0349281Y0022077D01*
X0351998Y0019360D01*
X0355548Y0017890D01*
X0359390Y0017890D01*
X0362940Y0019360D01*
X0365657Y0022077D01*
X0367128Y0025627D01*
X0367128Y0029469D01*
X0365657Y0033019D01*
X0362940Y0035736D01*
X0359390Y0037206D01*
X0355548Y0037206D01*
X0351998Y0035736D01*
X0350442Y0034179D02*
X0275884Y0034179D01*
X0277482Y0032581D02*
X0349100Y0032581D01*
X0348438Y0030982D02*
X0279081Y0030982D01*
X0280679Y0029384D02*
X0293850Y0029384D01*
X0297800Y0026800D02*
X0279887Y0026800D01*
X0165800Y0140887D01*
X0171980Y0138082D02*
X0172141Y0138082D01*
X0173579Y0136484D02*
X0173740Y0136484D01*
X0175178Y0134885D02*
X0175338Y0134885D01*
X0176776Y0133287D02*
X0176937Y0133287D01*
X0178375Y0131688D02*
X0178535Y0131688D01*
X0179973Y0130090D02*
X0180134Y0130090D01*
X0181572Y0128491D02*
X0181732Y0128491D01*
X0183170Y0126893D02*
X0183331Y0126893D01*
X0184769Y0125294D02*
X0184929Y0125294D01*
X0186367Y0123696D02*
X0186528Y0123696D01*
X0187966Y0122097D02*
X0188126Y0122097D01*
X0189564Y0120499D02*
X0189725Y0120499D01*
X0191163Y0118900D02*
X0191323Y0118900D01*
X0192761Y0117302D02*
X0192922Y0117302D01*
X0194360Y0115703D02*
X0194520Y0115703D01*
X0195958Y0114105D02*
X0196119Y0114105D01*
X0197557Y0112506D02*
X0197717Y0112506D01*
X0199155Y0110908D02*
X0199316Y0110908D01*
X0200754Y0109309D02*
X0200915Y0109309D01*
X0202352Y0107711D02*
X0202513Y0107711D01*
X0203951Y0106112D02*
X0204112Y0106112D01*
X0205549Y0104514D02*
X0205710Y0104514D01*
X0207148Y0102915D02*
X0207309Y0102915D01*
X0208746Y0101317D02*
X0208907Y0101317D01*
X0210345Y0099718D02*
X0210506Y0099718D01*
X0211943Y0098120D02*
X0212104Y0098120D01*
X0213542Y0096521D02*
X0213703Y0096521D01*
X0215140Y0094923D02*
X0215301Y0094923D01*
X0216739Y0093324D02*
X0216900Y0093324D01*
X0218337Y0091726D02*
X0218498Y0091726D01*
X0219936Y0090127D02*
X0220097Y0090127D01*
X0221534Y0088529D02*
X0221695Y0088529D01*
X0223133Y0086930D02*
X0223294Y0086930D01*
X0224731Y0085332D02*
X0224892Y0085332D01*
X0226330Y0083733D02*
X0226491Y0083733D01*
X0227928Y0082134D02*
X0228089Y0082134D01*
X0229527Y0080536D02*
X0229688Y0080536D01*
X0231125Y0078937D02*
X0231286Y0078937D01*
X0232724Y0077339D02*
X0232885Y0077339D01*
X0234322Y0075740D02*
X0234483Y0075740D01*
X0235921Y0074142D02*
X0236082Y0074142D01*
X0237519Y0072543D02*
X0237680Y0072543D01*
X0239118Y0070945D02*
X0239279Y0070945D01*
X0240716Y0069346D02*
X0240877Y0069346D01*
X0242315Y0067748D02*
X0242476Y0067748D01*
X0243913Y0066149D02*
X0244074Y0066149D01*
X0245512Y0064551D02*
X0245673Y0064551D01*
X0247111Y0062952D02*
X0247271Y0062952D01*
X0248709Y0061354D02*
X0248870Y0061354D01*
X0250308Y0059755D02*
X0250468Y0059755D01*
X0251906Y0058157D02*
X0252067Y0058157D01*
X0253505Y0056558D02*
X0253665Y0056558D01*
X0255103Y0054960D02*
X0255264Y0054960D01*
X0256702Y0053361D02*
X0256862Y0053361D01*
X0258300Y0051763D02*
X0258461Y0051763D01*
X0259899Y0050164D02*
X0260059Y0050164D01*
X0261497Y0048566D02*
X0261658Y0048566D01*
X0263096Y0046967D02*
X0263256Y0046967D01*
X0264694Y0045369D02*
X0330309Y0045369D01*
X0330144Y0051763D02*
X0293677Y0051763D01*
X0290723Y0051763D02*
X0265213Y0051763D01*
X0257942Y0045369D02*
X0013584Y0045369D01*
X0013584Y0046967D02*
X0256343Y0046967D01*
X0254745Y0048566D02*
X0013584Y0048566D01*
X0013584Y0050164D02*
X0253146Y0050164D01*
X0251548Y0051763D02*
X0201856Y0051763D01*
X0201856Y0051686D02*
X0201856Y0057725D01*
X0200926Y0058655D01*
X0194887Y0058655D01*
X0193957Y0057725D01*
X0193957Y0051686D01*
X0194887Y0050756D01*
X0200926Y0050756D01*
X0201856Y0051686D01*
X0201856Y0053361D02*
X0249949Y0053361D01*
X0248351Y0054960D02*
X0201856Y0054960D01*
X0201856Y0056558D02*
X0246752Y0056558D01*
X0245153Y0058157D02*
X0201424Y0058157D01*
X0194388Y0058157D02*
X0178424Y0058157D01*
X0178856Y0057725D02*
X0177926Y0058655D01*
X0171887Y0058655D01*
X0170957Y0057725D01*
X0170957Y0051686D01*
X0171887Y0050756D01*
X0177926Y0050756D01*
X0178856Y0051686D01*
X0178856Y0057725D01*
X0178856Y0056558D02*
X0193957Y0056558D01*
X0193957Y0054960D02*
X0178856Y0054960D01*
X0178856Y0053361D02*
X0193957Y0053361D01*
X0193957Y0051763D02*
X0178856Y0051763D01*
X0170957Y0051763D02*
X0154756Y0051763D01*
X0154748Y0051731D02*
X0154856Y0052134D01*
X0154856Y0054705D01*
X0150906Y0054705D01*
X0150906Y0054705D01*
X0150906Y0050756D01*
X0148335Y0050756D01*
X0147931Y0050864D01*
X0147569Y0051073D01*
X0147274Y0051369D01*
X0147065Y0051731D01*
X0146957Y0052134D01*
X0146957Y0054705D01*
X0150906Y0054705D01*
X0150906Y0054706D01*
X0150906Y0058655D01*
X0148335Y0058655D01*
X0147931Y0058547D01*
X0147569Y0058338D01*
X0147274Y0058042D01*
X0147065Y0057680D01*
X0146957Y0057277D01*
X0146957Y0054706D01*
X0150906Y0054706D01*
X0150906Y0054706D01*
X0150906Y0058655D01*
X0153477Y0058655D01*
X0153881Y0058547D01*
X0154243Y0058338D01*
X0154539Y0058042D01*
X0154748Y0057680D01*
X0154856Y0057277D01*
X0154856Y0054706D01*
X0150906Y0054706D01*
X0150906Y0054705D01*
X0150906Y0050756D01*
X0153477Y0050756D01*
X0153881Y0050864D01*
X0154243Y0051073D01*
X0154539Y0051369D01*
X0154748Y0051731D01*
X0154856Y0053361D02*
X0170957Y0053361D01*
X0170957Y0054960D02*
X0154856Y0054960D01*
X0154856Y0056558D02*
X0170957Y0056558D01*
X0171388Y0058157D02*
X0154424Y0058157D01*
X0150906Y0058157D02*
X0150906Y0058157D01*
X0150906Y0056558D02*
X0150906Y0056558D01*
X0150906Y0054960D02*
X0150906Y0054960D01*
X0150906Y0053361D02*
X0150906Y0053361D01*
X0150906Y0051763D02*
X0150906Y0051763D01*
X0147056Y0051763D02*
X0013584Y0051763D01*
X0013584Y0053361D02*
X0146957Y0053361D01*
X0146957Y0054960D02*
X0013584Y0054960D01*
X0013584Y0056558D02*
X0146957Y0056558D01*
X0147388Y0058157D02*
X0013584Y0058157D01*
X0013584Y0059755D02*
X0243555Y0059755D01*
X0241956Y0061354D02*
X0013584Y0061354D01*
X0013584Y0062952D02*
X0240358Y0062952D01*
X0238759Y0064551D02*
X0013584Y0064551D01*
X0013584Y0066149D02*
X0237161Y0066149D01*
X0235562Y0067748D02*
X0013584Y0067748D01*
X0013584Y0069346D02*
X0233964Y0069346D01*
X0232365Y0070945D02*
X0013584Y0070945D01*
X0013584Y0072543D02*
X0230767Y0072543D01*
X0229168Y0074142D02*
X0013584Y0074142D01*
X0013584Y0075740D02*
X0227570Y0075740D01*
X0225971Y0077339D02*
X0013584Y0077339D01*
X0013584Y0078937D02*
X0224373Y0078937D01*
X0222774Y0080536D02*
X0013584Y0080536D01*
X0013584Y0082134D02*
X0221176Y0082134D01*
X0219577Y0083733D02*
X0013584Y0083733D01*
X0013584Y0085332D02*
X0217979Y0085332D01*
X0216380Y0086930D02*
X0013584Y0086930D01*
X0013584Y0088529D02*
X0214782Y0088529D01*
X0252454Y0100046D02*
X0252454Y0113454D01*
X0254937Y0110908D02*
X0372220Y0110908D01*
X0372220Y0112506D02*
X0255910Y0112506D01*
X0256009Y0114105D02*
X0372220Y0114105D01*
X0372220Y0115703D02*
X0255233Y0115703D01*
X0254841Y0109309D02*
X0372220Y0109309D01*
X0372220Y0107711D02*
X0254841Y0107711D01*
X0254841Y0106112D02*
X0372220Y0106112D01*
X0372220Y0104514D02*
X0254841Y0104514D01*
X0254841Y0102915D02*
X0372220Y0102915D01*
X0372220Y0101317D02*
X0255804Y0101317D01*
X0256056Y0099718D02*
X0372220Y0099718D01*
X0372220Y0098120D02*
X0255570Y0098120D01*
X0252500Y0100000D02*
X0252454Y0100046D01*
X0268598Y0123696D02*
X0372220Y0123696D01*
X0372220Y0125294D02*
X0270025Y0125294D01*
X0270356Y0126893D02*
X0372220Y0126893D01*
X0372220Y0128491D02*
X0271868Y0128491D01*
X0271987Y0130090D02*
X0372220Y0130090D01*
X0372220Y0131688D02*
X0271987Y0131688D01*
X0271987Y0133287D02*
X0372220Y0133287D01*
X0372220Y0134885D02*
X0271987Y0134885D01*
X0271987Y0136484D02*
X0372220Y0136484D01*
X0372220Y0138082D02*
X0271987Y0138082D01*
X0271987Y0139681D02*
X0372220Y0139681D01*
X0372220Y0141279D02*
X0271987Y0141279D01*
X0271987Y0142878D02*
X0372220Y0142878D01*
X0372220Y0144476D02*
X0271987Y0144476D01*
X0271987Y0146075D02*
X0372220Y0146075D01*
X0372220Y0147673D02*
X0271987Y0147673D01*
X0271987Y0149272D02*
X0372220Y0149272D01*
X0372220Y0150870D02*
X0271987Y0150870D01*
X0271987Y0152469D02*
X0372220Y0152469D01*
X0372220Y0154068D02*
X0271987Y0154068D01*
X0271987Y0155666D02*
X0372220Y0155666D01*
X0372220Y0157265D02*
X0271987Y0157265D01*
X0271987Y0158863D02*
X0372220Y0158863D01*
X0372220Y0160462D02*
X0271987Y0160462D01*
X0271987Y0162060D02*
X0372220Y0162060D01*
X0372220Y0163659D02*
X0271987Y0163659D01*
X0271987Y0165257D02*
X0372220Y0165257D01*
X0372220Y0166856D02*
X0271987Y0166856D01*
X0271987Y0168454D02*
X0372220Y0168454D01*
X0372220Y0170053D02*
X0271987Y0170053D01*
X0271987Y0171651D02*
X0372220Y0171651D01*
X0372220Y0173250D02*
X0271987Y0173250D01*
X0271987Y0174848D02*
X0372220Y0174848D01*
X0372220Y0176447D02*
X0271987Y0176447D01*
X0271987Y0178045D02*
X0372220Y0178045D01*
X0372220Y0179644D02*
X0271987Y0179644D01*
X0271987Y0181242D02*
X0372220Y0181242D01*
X0372220Y0182841D02*
X0271987Y0182841D01*
X0271987Y0184439D02*
X0372220Y0184439D01*
X0372220Y0186038D02*
X0271987Y0186038D01*
X0271987Y0187636D02*
X0372220Y0187636D01*
X0372220Y0189235D02*
X0271987Y0189235D01*
X0271987Y0190833D02*
X0372220Y0190833D01*
X0372220Y0192432D02*
X0271987Y0192432D01*
X0271987Y0194030D02*
X0372220Y0194030D01*
X0372220Y0195629D02*
X0271987Y0195629D01*
X0271987Y0197227D02*
X0372220Y0197227D01*
X0372220Y0198826D02*
X0271987Y0198826D01*
X0271987Y0200424D02*
X0372220Y0200424D01*
X0372220Y0202023D02*
X0271987Y0202023D01*
X0271987Y0203621D02*
X0372220Y0203621D01*
X0372220Y0205220D02*
X0271987Y0205220D01*
X0271987Y0206818D02*
X0372220Y0206818D01*
X0372220Y0208417D02*
X0271987Y0208417D01*
X0271987Y0210015D02*
X0372220Y0210015D01*
X0372220Y0211614D02*
X0271987Y0211614D01*
X0271987Y0213212D02*
X0372220Y0213212D01*
X0372220Y0214811D02*
X0271987Y0214811D01*
X0271987Y0216409D02*
X0372220Y0216409D01*
X0372220Y0218008D02*
X0271987Y0218008D01*
X0271987Y0219606D02*
X0372220Y0219606D01*
X0372220Y0221205D02*
X0271987Y0221205D01*
X0271987Y0222803D02*
X0372220Y0222803D01*
X0372220Y0224402D02*
X0271987Y0224402D01*
X0271987Y0226001D02*
X0372220Y0226001D01*
X0372220Y0227599D02*
X0271987Y0227599D01*
X0271987Y0229198D02*
X0372220Y0229198D01*
X0372220Y0230796D02*
X0271987Y0230796D01*
X0271987Y0232395D02*
X0372220Y0232395D01*
X0278768Y0233993D02*
X0271987Y0233993D01*
X0271987Y0235592D02*
X0278500Y0235592D01*
X0278500Y0237190D02*
X0271987Y0237190D01*
X0271987Y0238789D02*
X0278500Y0238789D01*
X0278500Y0240387D02*
X0271987Y0240387D01*
X0271987Y0241986D02*
X0278500Y0241986D01*
X0278500Y0243584D02*
X0271987Y0243584D01*
X0271987Y0245183D02*
X0278500Y0245183D01*
X0278500Y0246781D02*
X0271987Y0246781D01*
X0271987Y0248380D02*
X0278500Y0248380D01*
X0278500Y0249978D02*
X0271987Y0249978D01*
X0271987Y0251577D02*
X0278500Y0251577D01*
X0278500Y0253175D02*
X0271987Y0253175D01*
X0271987Y0254774D02*
X0278500Y0254774D01*
X0278500Y0256372D02*
X0271987Y0256372D01*
X0271987Y0257971D02*
X0278500Y0257971D01*
X0278500Y0259569D02*
X0271987Y0259569D01*
X0271987Y0261168D02*
X0278500Y0261168D01*
X0278500Y0262766D02*
X0271987Y0262766D01*
X0271987Y0264365D02*
X0278500Y0264365D01*
X0278500Y0265963D02*
X0271987Y0265963D01*
X0271987Y0267562D02*
X0278500Y0267562D01*
X0278500Y0269160D02*
X0271987Y0269160D01*
X0271987Y0270759D02*
X0278500Y0270759D01*
X0278500Y0272357D02*
X0271987Y0272357D01*
X0271987Y0273956D02*
X0278500Y0273956D01*
X0278500Y0275554D02*
X0271987Y0275554D01*
X0271987Y0277153D02*
X0278500Y0277153D01*
X0278500Y0278751D02*
X0271987Y0278751D01*
X0271987Y0280350D02*
X0278500Y0280350D01*
X0278500Y0281948D02*
X0271987Y0281948D01*
X0271987Y0283547D02*
X0278500Y0283547D01*
X0278500Y0285145D02*
X0271987Y0285145D01*
X0271987Y0286744D02*
X0278500Y0286744D01*
X0278500Y0288342D02*
X0271987Y0288342D01*
X0271987Y0289941D02*
X0278500Y0289941D01*
X0278500Y0291539D02*
X0271987Y0291539D01*
X0271987Y0293138D02*
X0278500Y0293138D01*
X0278500Y0294737D02*
X0271987Y0294737D01*
X0271987Y0296335D02*
X0278500Y0296335D01*
X0278500Y0297934D02*
X0271987Y0297934D01*
X0271987Y0299532D02*
X0278500Y0299532D01*
X0278500Y0301131D02*
X0271987Y0301131D01*
X0271987Y0302729D02*
X0278500Y0302729D01*
X0278500Y0304328D02*
X0271987Y0304328D01*
X0271987Y0305926D02*
X0278500Y0305926D01*
X0278500Y0307525D02*
X0271987Y0307525D01*
X0271987Y0309123D02*
X0278500Y0309123D01*
X0278500Y0310722D02*
X0271987Y0310722D01*
X0271987Y0312320D02*
X0278500Y0312320D01*
X0278500Y0313919D02*
X0271987Y0313919D01*
X0271987Y0315517D02*
X0278500Y0315517D01*
X0278500Y0317116D02*
X0271987Y0317116D01*
X0271987Y0318714D02*
X0278500Y0318714D01*
X0278500Y0320313D02*
X0271987Y0320313D01*
X0271987Y0321911D02*
X0278500Y0321911D01*
X0278500Y0323510D02*
X0271987Y0323510D01*
X0271987Y0325108D02*
X0278500Y0325108D01*
X0278500Y0326707D02*
X0271987Y0326707D01*
X0271987Y0328305D02*
X0278500Y0328305D01*
X0278500Y0329904D02*
X0271987Y0329904D01*
X0271987Y0331502D02*
X0278500Y0331502D01*
X0278500Y0333101D02*
X0271987Y0333101D01*
X0271987Y0334699D02*
X0278500Y0334699D01*
X0278500Y0336298D02*
X0271987Y0336298D01*
X0271987Y0337896D02*
X0278500Y0337896D01*
X0278500Y0339495D02*
X0271987Y0339495D01*
X0271987Y0341093D02*
X0278500Y0341093D01*
X0278500Y0342692D02*
X0271987Y0342692D01*
X0271987Y0344290D02*
X0278500Y0344290D01*
X0278500Y0345889D02*
X0271987Y0345889D01*
X0271987Y0347487D02*
X0278500Y0347487D01*
X0278500Y0349086D02*
X0271987Y0349086D01*
X0271987Y0350684D02*
X0278500Y0350684D01*
X0278500Y0352283D02*
X0271987Y0352283D01*
X0271987Y0353881D02*
X0278500Y0353881D01*
X0278500Y0355480D02*
X0271987Y0355480D01*
X0271987Y0357078D02*
X0278500Y0357078D01*
X0278500Y0358677D02*
X0271987Y0358677D01*
X0271987Y0360275D02*
X0278500Y0360275D01*
X0278500Y0361874D02*
X0271987Y0361874D01*
X0271504Y0363472D02*
X0278500Y0363472D01*
X0278500Y0365071D02*
X0269905Y0365071D01*
X0268307Y0366670D02*
X0278500Y0366670D01*
X0278500Y0368268D02*
X0266708Y0368268D01*
X0265110Y0369867D02*
X0278500Y0369867D01*
X0278500Y0371465D02*
X0263511Y0371465D01*
X0261913Y0373064D02*
X0278500Y0373064D01*
X0278500Y0374662D02*
X0260314Y0374662D01*
X0258716Y0376261D02*
X0278500Y0376261D01*
X0278500Y0377859D02*
X0257117Y0377859D01*
X0255519Y0379458D02*
X0278500Y0379458D01*
X0278500Y0381056D02*
X0253920Y0381056D01*
X0252322Y0382655D02*
X0278500Y0382655D01*
X0278500Y0384253D02*
X0250723Y0384253D01*
X0249125Y0385852D02*
X0278500Y0385852D01*
X0278500Y0387450D02*
X0247526Y0387450D01*
X0245928Y0389049D02*
X0278500Y0389049D01*
X0278500Y0390647D02*
X0244329Y0390647D01*
X0242731Y0392246D02*
X0278500Y0392246D01*
X0278500Y0393844D02*
X0222788Y0393844D01*
X0222836Y0395443D02*
X0278500Y0395443D01*
X0278500Y0397041D02*
X0222836Y0397041D01*
X0222836Y0398640D02*
X0278500Y0398640D01*
X0278500Y0400238D02*
X0222836Y0400238D01*
X0221471Y0401837D02*
X0278500Y0401837D01*
X0278500Y0403435D02*
X0221531Y0403435D01*
X0222525Y0405034D02*
X0278500Y0405034D01*
X0278500Y0406632D02*
X0222639Y0406632D01*
X0221898Y0408231D02*
X0278500Y0408231D01*
X0278500Y0409829D02*
X0037715Y0409829D01*
X0037052Y0408231D02*
X0071702Y0408231D01*
X0070961Y0406632D02*
X0035645Y0406632D01*
X0036917Y0407904D02*
X0038387Y0411454D01*
X0038387Y0415296D01*
X0036917Y0418846D01*
X0034200Y0421563D01*
X0030650Y0423033D01*
X0026808Y0423033D01*
X0023258Y0421563D01*
X0020541Y0418846D01*
X0019071Y0415296D01*
X0019071Y0411454D01*
X0020541Y0407904D01*
X0023258Y0405187D01*
X0026808Y0403717D01*
X0030650Y0403717D01*
X0034200Y0405187D01*
X0036917Y0407904D01*
X0038377Y0411428D02*
X0278500Y0411428D01*
X0278500Y0413026D02*
X0038387Y0413026D01*
X0038387Y0414625D02*
X0278500Y0414625D01*
X0278500Y0416223D02*
X0038003Y0416223D01*
X0037341Y0417822D02*
X0278500Y0417822D01*
X0278500Y0419420D02*
X0036342Y0419420D01*
X0034744Y0421019D02*
X0278500Y0421019D01*
X0278500Y0422617D02*
X0031654Y0422617D01*
X0025805Y0422617D02*
X0013584Y0422617D01*
X0013584Y0421019D02*
X0022714Y0421019D01*
X0021116Y0419420D02*
X0013584Y0419420D01*
X0013584Y0417822D02*
X0020117Y0417822D01*
X0019455Y0416223D02*
X0013584Y0416223D01*
X0013584Y0414625D02*
X0019071Y0414625D01*
X0019071Y0413026D02*
X0013584Y0413026D01*
X0013584Y0411428D02*
X0019082Y0411428D01*
X0019744Y0409829D02*
X0013584Y0409829D01*
X0013584Y0408231D02*
X0020406Y0408231D01*
X0021813Y0406632D02*
X0013584Y0406632D01*
X0013584Y0405034D02*
X0023628Y0405034D01*
X0033830Y0405034D02*
X0071075Y0405034D01*
X0072069Y0403435D02*
X0013584Y0403435D01*
X0013584Y0401837D02*
X0072129Y0401837D01*
X0070764Y0400238D02*
X0013584Y0400238D01*
X0013584Y0398640D02*
X0070764Y0398640D01*
X0070764Y0397041D02*
X0048466Y0397041D01*
X0044517Y0394517D02*
X0062017Y0394517D01*
X0068847Y0387686D01*
X0068847Y0383257D01*
X0076776Y0383257D01*
X0077170Y0382863D01*
X0077300Y0382733D01*
X0077300Y0371800D01*
X0073975Y0373064D02*
X0073006Y0373064D01*
X0073082Y0373195D02*
X0073191Y0373599D01*
X0073191Y0375592D01*
X0069032Y0375592D01*
X0069032Y0375961D01*
X0073191Y0375961D01*
X0073191Y0377954D01*
X0073082Y0378358D01*
X0072873Y0378720D01*
X0072578Y0379015D01*
X0072216Y0379224D01*
X0071812Y0379332D01*
X0069031Y0379332D01*
X0069031Y0375961D01*
X0068663Y0375961D01*
X0068663Y0375592D01*
X0069031Y0375592D01*
X0069031Y0372220D01*
X0071812Y0372220D01*
X0072216Y0372329D01*
X0072578Y0372538D01*
X0072873Y0372833D01*
X0073082Y0373195D01*
X0073191Y0374662D02*
X0074913Y0374662D01*
X0074913Y0376261D02*
X0073191Y0376261D01*
X0073191Y0377859D02*
X0074913Y0377859D01*
X0074166Y0379458D02*
X0064529Y0379458D01*
X0064504Y0382655D02*
X0064017Y0382655D01*
X0064504Y0384253D02*
X0013584Y0384253D01*
X0013584Y0382655D02*
X0051801Y0382655D01*
X0050305Y0381056D02*
X0013584Y0381056D01*
X0013584Y0379458D02*
X0049961Y0379458D01*
X0050354Y0377859D02*
X0013584Y0377859D01*
X0013584Y0376261D02*
X0052085Y0376261D01*
X0054948Y0376261D02*
X0056472Y0376261D01*
X0053517Y0379517D02*
X0060186Y0379517D01*
X0063899Y0376261D02*
X0064504Y0376261D01*
X0064504Y0375592D02*
X0064504Y0373599D01*
X0064612Y0373195D01*
X0064821Y0372833D01*
X0065117Y0372538D01*
X0065479Y0372329D01*
X0065882Y0372220D01*
X0068663Y0372220D01*
X0068663Y0375592D01*
X0064504Y0375592D01*
X0064504Y0374662D02*
X0013584Y0374662D01*
X0013584Y0373064D02*
X0064688Y0373064D01*
X0068663Y0373064D02*
X0069031Y0373064D01*
X0069031Y0374662D02*
X0068663Y0374662D01*
X0068663Y0376261D02*
X0069031Y0376261D01*
X0069031Y0377859D02*
X0068663Y0377859D01*
X0074000Y0383000D02*
X0076900Y0380100D01*
X0076900Y0383000D01*
X0074000Y0383000D01*
X0074345Y0382655D02*
X0076900Y0382655D01*
X0077170Y0382863D02*
X0084517Y0382863D01*
X0088269Y0382655D02*
X0124084Y0382655D01*
X0122589Y0381056D02*
X0088269Y0381056D01*
X0087572Y0379458D02*
X0122244Y0379458D01*
X0122638Y0377859D02*
X0088269Y0377859D01*
X0088269Y0375986D02*
X0084701Y0375986D01*
X0084701Y0372614D01*
X0086891Y0372614D01*
X0087295Y0372722D01*
X0087657Y0372931D01*
X0087952Y0373227D01*
X0088161Y0373589D01*
X0088269Y0373993D01*
X0088269Y0375986D01*
X0088269Y0374662D02*
X0136787Y0374662D01*
X0136787Y0375592D02*
X0136787Y0373599D01*
X0136896Y0373195D01*
X0137105Y0372833D01*
X0137400Y0372538D01*
X0137762Y0372329D01*
X0138166Y0372220D01*
X0140946Y0372220D01*
X0140946Y0375592D01*
X0136787Y0375592D01*
X0136787Y0376261D02*
X0136183Y0376261D01*
X0136813Y0379458D02*
X0153744Y0379458D01*
X0153047Y0377859D02*
X0145474Y0377859D01*
X0145474Y0377954D02*
X0145366Y0378358D01*
X0145157Y0378720D01*
X0144861Y0379015D01*
X0144499Y0379224D01*
X0144096Y0379332D01*
X0141315Y0379332D01*
X0141315Y0375961D01*
X0140946Y0375961D01*
X0140946Y0375592D01*
X0141315Y0375592D01*
X0141315Y0372220D01*
X0144096Y0372220D01*
X0144499Y0372329D01*
X0144861Y0372538D01*
X0145157Y0372833D01*
X0145366Y0373195D01*
X0145474Y0373599D01*
X0145474Y0375592D01*
X0141315Y0375592D01*
X0141315Y0375961D01*
X0145474Y0375961D01*
X0145474Y0377954D01*
X0145474Y0376261D02*
X0156616Y0376261D01*
X0156616Y0375986D02*
X0153047Y0375986D01*
X0153047Y0373993D01*
X0153155Y0373589D01*
X0153364Y0373227D01*
X0153660Y0372931D01*
X0154022Y0372722D01*
X0154426Y0372614D01*
X0156616Y0372614D01*
X0156616Y0375986D01*
X0156984Y0376261D02*
X0196652Y0376261D01*
X0194921Y0377859D02*
X0160553Y0377859D01*
X0159856Y0379458D02*
X0194528Y0379458D01*
X0194872Y0381056D02*
X0160553Y0381056D01*
X0160553Y0382655D02*
X0196367Y0382655D01*
X0199799Y0382655D02*
X0200922Y0382655D01*
X0198083Y0379517D02*
X0204753Y0379517D01*
X0209096Y0379458D02*
X0226028Y0379458D01*
X0225331Y0377859D02*
X0217757Y0377859D01*
X0217757Y0377954D02*
X0217649Y0378358D01*
X0217440Y0378720D01*
X0217145Y0379015D01*
X0216783Y0379224D01*
X0216379Y0379332D01*
X0213598Y0379332D01*
X0213598Y0375961D01*
X0213230Y0375961D01*
X0213230Y0375592D01*
X0213598Y0375592D01*
X0213598Y0372220D01*
X0216379Y0372220D01*
X0216783Y0372329D01*
X0217145Y0372538D01*
X0217440Y0372833D01*
X0217649Y0373195D01*
X0217757Y0373599D01*
X0217757Y0375592D01*
X0213598Y0375592D01*
X0213598Y0375961D01*
X0217757Y0375961D01*
X0217757Y0377954D01*
X0217757Y0376261D02*
X0228899Y0376261D01*
X0229268Y0376261D02*
X0251963Y0376261D01*
X0250365Y0377859D02*
X0232836Y0377859D01*
X0232139Y0379458D02*
X0248766Y0379458D01*
X0247168Y0381056D02*
X0232836Y0381056D01*
X0232836Y0382655D02*
X0245569Y0382655D01*
X0243971Y0384253D02*
X0232836Y0384253D01*
X0232474Y0385852D02*
X0242372Y0385852D01*
X0240774Y0387450D02*
X0215802Y0387450D01*
X0213414Y0387686D02*
X0213414Y0383257D01*
X0221843Y0383257D01*
X0222237Y0382863D01*
X0229083Y0382863D01*
X0225693Y0385852D02*
X0217757Y0385852D01*
X0213414Y0387686D02*
X0206583Y0394517D01*
X0189083Y0394517D01*
X0185134Y0393844D02*
X0181187Y0393844D01*
X0179589Y0392246D02*
X0185134Y0392246D01*
X0185983Y0390647D02*
X0177990Y0390647D01*
X0176392Y0389049D02*
X0208675Y0389049D01*
X0207077Y0390647D02*
X0192183Y0390647D01*
X0185134Y0395443D02*
X0182786Y0395443D01*
X0184384Y0397041D02*
X0185134Y0397041D01*
X0183483Y0399517D02*
X0206283Y0399517D01*
X0214683Y0391117D01*
X0219030Y0391117D01*
X0219083Y0391170D01*
X0240430Y0391170D01*
X0269600Y0362000D01*
X0269600Y0129600D01*
X0266800Y0126800D01*
X0267213Y0142878D02*
X0181495Y0142878D01*
X0179923Y0144476D02*
X0267213Y0144476D01*
X0267213Y0146075D02*
X0142401Y0146075D01*
X0140803Y0147673D02*
X0267213Y0147673D01*
X0267213Y0149272D02*
X0139204Y0149272D01*
X0136800Y0152887D02*
X0144800Y0152887D01*
X0146800Y0152887D02*
X0160800Y0152887D01*
X0172800Y0164887D01*
X0172800Y0170540D01*
X0182146Y0170540D01*
X0182800Y0169887D01*
X0186056Y0168454D02*
X0267213Y0168454D01*
X0267213Y0166856D02*
X0184774Y0166856D01*
X0186356Y0170053D02*
X0267213Y0170053D01*
X0267213Y0171651D02*
X0185918Y0171651D01*
X0183973Y0173250D02*
X0267213Y0173250D01*
X0267213Y0174848D02*
X0176497Y0174848D01*
X0176469Y0173250D02*
X0181627Y0173250D01*
X0176553Y0176447D02*
X0267213Y0176447D01*
X0267213Y0178045D02*
X0176553Y0178045D01*
X0176490Y0179644D02*
X0267213Y0179644D01*
X0267213Y0181242D02*
X0129821Y0181242D01*
X0131419Y0179644D02*
X0169110Y0179644D01*
X0169155Y0179814D02*
X0169047Y0179411D01*
X0169047Y0177417D01*
X0172616Y0177417D01*
X0172616Y0180789D01*
X0170426Y0180789D01*
X0170022Y0180681D01*
X0169660Y0180472D01*
X0169364Y0180176D01*
X0169155Y0179814D01*
X0169047Y0178045D02*
X0133018Y0178045D01*
X0134616Y0176447D02*
X0169047Y0176447D01*
X0169103Y0174848D02*
X0136215Y0174848D01*
X0136841Y0173250D02*
X0169131Y0173250D01*
X0169047Y0171651D02*
X0136841Y0171651D01*
X0136841Y0170053D02*
X0169047Y0170053D01*
X0169047Y0168454D02*
X0136841Y0168454D01*
X0136841Y0166856D02*
X0170413Y0166856D01*
X0169794Y0165257D02*
X0136841Y0165257D01*
X0136841Y0163659D02*
X0168196Y0163659D01*
X0166597Y0162060D02*
X0144352Y0162060D01*
X0144702Y0160462D02*
X0164999Y0160462D01*
X0163400Y0158863D02*
X0141331Y0158863D01*
X0141331Y0160462D02*
X0140962Y0160462D01*
X0140962Y0162060D02*
X0141331Y0162060D01*
X0137941Y0162060D02*
X0137659Y0162060D01*
X0134454Y0158887D02*
X0134454Y0155233D01*
X0136800Y0152887D01*
X0134454Y0158887D02*
X0134454Y0173233D01*
X0119454Y0188233D01*
X0119454Y0194887D01*
X0113800Y0194887D01*
X0111226Y0192432D02*
X0013584Y0192432D01*
X0013584Y0194030D02*
X0110306Y0194030D01*
X0110259Y0195629D02*
X0048718Y0195629D01*
X0048718Y0194965D02*
X0048718Y0201005D01*
X0047788Y0201935D01*
X0041749Y0201935D01*
X0040819Y0201005D01*
X0040819Y0194965D01*
X0041749Y0194035D01*
X0047788Y0194035D01*
X0048718Y0194965D01*
X0048718Y0197227D02*
X0111112Y0197227D01*
X0107814Y0189315D02*
X0106507Y0189856D01*
X0105093Y0189856D01*
X0103786Y0189315D01*
X0102785Y0188314D01*
X0102319Y0187187D01*
X0079441Y0187187D01*
X0078814Y0187815D01*
X0077507Y0188356D01*
X0076093Y0188356D01*
X0074786Y0187815D01*
X0073785Y0186814D01*
X0073244Y0185507D01*
X0073244Y0184093D01*
X0073785Y0182786D01*
X0074786Y0181785D01*
X0076093Y0181244D01*
X0077507Y0181244D01*
X0078814Y0181785D01*
X0079441Y0182413D01*
X0105289Y0182413D01*
X0105620Y0182744D01*
X0106507Y0182744D01*
X0107814Y0183285D01*
X0108815Y0184286D01*
X0109356Y0185593D01*
X0109356Y0187007D01*
X0108815Y0188314D01*
X0107814Y0189315D01*
X0107894Y0189235D02*
X0117066Y0189235D01*
X0117066Y0190833D02*
X0048718Y0190833D01*
X0048718Y0191005D02*
X0047788Y0191935D01*
X0041749Y0191935D01*
X0040819Y0191005D01*
X0040819Y0184965D01*
X0041749Y0184035D01*
X0047788Y0184035D01*
X0048718Y0184965D01*
X0048718Y0191005D01*
X0048718Y0189235D02*
X0103706Y0189235D01*
X0102505Y0187636D02*
X0078993Y0187636D01*
X0076800Y0184800D02*
X0104300Y0184800D01*
X0105800Y0186300D01*
X0109095Y0187636D02*
X0117066Y0187636D01*
X0118273Y0186038D02*
X0109356Y0186038D01*
X0108878Y0184439D02*
X0119871Y0184439D01*
X0121470Y0182841D02*
X0106741Y0182841D01*
X0121841Y0189235D02*
X0267213Y0189235D01*
X0267213Y0190833D02*
X0121841Y0190833D01*
X0123427Y0187636D02*
X0267213Y0187636D01*
X0267213Y0186038D02*
X0125025Y0186038D01*
X0126624Y0184439D02*
X0267213Y0184439D01*
X0267213Y0182841D02*
X0128222Y0182841D01*
X0124667Y0179644D02*
X0048718Y0179644D01*
X0048718Y0181005D02*
X0047788Y0181935D01*
X0041749Y0181935D01*
X0040819Y0181005D01*
X0040819Y0174965D01*
X0041749Y0174035D01*
X0047788Y0174035D01*
X0048718Y0174965D01*
X0048718Y0181005D01*
X0048481Y0181242D02*
X0123068Y0181242D01*
X0126265Y0178045D02*
X0048718Y0178045D01*
X0048718Y0176447D02*
X0127864Y0176447D01*
X0129462Y0174848D02*
X0048601Y0174848D01*
X0047788Y0171935D02*
X0048718Y0171005D01*
X0048718Y0164965D01*
X0047788Y0164035D01*
X0041749Y0164035D01*
X0040819Y0164965D01*
X0040819Y0171005D01*
X0041749Y0171935D01*
X0047788Y0171935D01*
X0048072Y0171651D02*
X0132066Y0171651D01*
X0132066Y0170053D02*
X0048718Y0170053D01*
X0048718Y0168454D02*
X0132066Y0168454D01*
X0132066Y0166856D02*
X0048718Y0166856D01*
X0048718Y0165257D02*
X0132066Y0165257D01*
X0132066Y0163659D02*
X0126470Y0163659D01*
X0127334Y0162060D02*
X0131248Y0162060D01*
X0130898Y0160462D02*
X0128015Y0160462D01*
X0129613Y0158863D02*
X0130898Y0158863D01*
X0123800Y0161300D02*
X0144800Y0140300D01*
X0144800Y0120300D01*
X0141531Y0118900D02*
X0141069Y0118900D01*
X0139831Y0117302D02*
X0142769Y0117302D01*
X0137800Y0120300D02*
X0137800Y0137800D01*
X0118300Y0157300D01*
X0114744Y0157265D02*
X0013584Y0157265D01*
X0013584Y0158863D02*
X0115099Y0158863D01*
X0116641Y0160462D02*
X0013584Y0160462D01*
X0013584Y0162060D02*
X0120266Y0162060D01*
X0120298Y0160462D02*
X0119959Y0160462D01*
X0121130Y0163659D02*
X0013584Y0163659D01*
X0013584Y0165257D02*
X0040819Y0165257D01*
X0040819Y0166856D02*
X0013584Y0166856D01*
X0013584Y0168454D02*
X0040819Y0168454D01*
X0040819Y0170053D02*
X0013584Y0170053D01*
X0013584Y0171651D02*
X0041465Y0171651D01*
X0040936Y0174848D02*
X0013584Y0174848D01*
X0013584Y0173250D02*
X0131061Y0173250D01*
X0144702Y0157265D02*
X0161802Y0157265D01*
X0160203Y0155666D02*
X0149049Y0155666D01*
X0144551Y0155666D02*
X0144305Y0155666D01*
X0130944Y0141279D02*
X0013584Y0141279D01*
X0013584Y0139681D02*
X0132543Y0139681D01*
X0134141Y0138082D02*
X0013584Y0138082D01*
X0013584Y0142878D02*
X0129346Y0142878D01*
X0127747Y0144476D02*
X0013584Y0144476D01*
X0013584Y0146075D02*
X0126149Y0146075D01*
X0124550Y0147673D02*
X0013584Y0147673D01*
X0013584Y0149272D02*
X0122952Y0149272D01*
X0121353Y0150870D02*
X0013584Y0150870D01*
X0013584Y0152469D02*
X0119755Y0152469D01*
X0116812Y0154068D02*
X0013584Y0154068D01*
X0013584Y0155666D02*
X0115128Y0155666D01*
X0133663Y0136484D02*
X0135413Y0136484D01*
X0135413Y0134885D02*
X0133663Y0134885D01*
X0133663Y0133287D02*
X0135413Y0133287D01*
X0135413Y0131688D02*
X0133663Y0131688D01*
X0133663Y0130090D02*
X0135413Y0130090D01*
X0135413Y0128491D02*
X0133663Y0128491D01*
X0133663Y0126893D02*
X0135413Y0126893D01*
X0135413Y0125294D02*
X0133663Y0125294D01*
X0133663Y0123696D02*
X0135413Y0123696D01*
X0134696Y0122097D02*
X0133663Y0122097D01*
X0133663Y0120499D02*
X0134244Y0120499D01*
X0134531Y0118900D02*
X0133663Y0118900D01*
X0133663Y0117302D02*
X0135769Y0117302D01*
X0162160Y0150870D02*
X0267213Y0150870D01*
X0267213Y0152469D02*
X0163759Y0152469D01*
X0165357Y0154068D02*
X0267213Y0154068D01*
X0267213Y0155666D02*
X0166956Y0155666D01*
X0168554Y0157265D02*
X0267213Y0157265D01*
X0267213Y0158863D02*
X0170153Y0158863D01*
X0171751Y0160462D02*
X0267213Y0160462D01*
X0267213Y0162060D02*
X0173350Y0162060D01*
X0174948Y0163659D02*
X0267213Y0163659D01*
X0267213Y0165257D02*
X0175187Y0165257D01*
X0175187Y0166856D02*
X0180825Y0166856D01*
X0172984Y0178045D02*
X0172616Y0178045D01*
X0172616Y0179644D02*
X0172984Y0179644D01*
X0155814Y0199872D02*
X0156815Y0200872D01*
X0157356Y0202179D01*
X0157356Y0203594D01*
X0156841Y0204837D01*
X0156841Y0205134D01*
X0157080Y0205134D01*
X0157829Y0205883D01*
X0157908Y0205747D01*
X0158203Y0205451D01*
X0158565Y0205242D01*
X0158969Y0205134D01*
X0160962Y0205134D01*
X0160962Y0208702D01*
X0161331Y0208702D01*
X0161331Y0209071D01*
X0164702Y0209071D01*
X0164702Y0211261D01*
X0164594Y0211665D01*
X0164385Y0212027D01*
X0164090Y0212322D01*
X0163728Y0212531D01*
X0163324Y0212639D01*
X0161331Y0212639D01*
X0161331Y0209071D01*
X0160962Y0209071D01*
X0160962Y0212639D01*
X0158969Y0212639D01*
X0158565Y0212531D01*
X0158203Y0212322D01*
X0157908Y0212027D01*
X0157829Y0211890D01*
X0157080Y0212639D01*
X0151828Y0212639D01*
X0150898Y0211709D01*
X0150898Y0206064D01*
X0151423Y0205538D01*
X0150785Y0204901D01*
X0150244Y0203594D01*
X0150244Y0202179D01*
X0150785Y0200872D01*
X0151786Y0199872D01*
X0153093Y0199331D01*
X0154507Y0199331D01*
X0155814Y0199872D01*
X0156367Y0200424D02*
X0267213Y0200424D01*
X0267213Y0198826D02*
X0121841Y0198826D01*
X0122714Y0200424D02*
X0135699Y0200424D01*
X0134101Y0202023D02*
X0124313Y0202023D01*
X0125911Y0203621D02*
X0132502Y0203621D01*
X0131741Y0205220D02*
X0127510Y0205220D01*
X0127800Y0208887D02*
X0134454Y0208887D01*
X0134454Y0205046D01*
X0136700Y0202800D01*
X0143800Y0202800D01*
X0146409Y0205220D02*
X0151104Y0205220D01*
X0150898Y0206818D02*
X0144702Y0206818D01*
X0144702Y0208417D02*
X0150898Y0208417D01*
X0150898Y0210015D02*
X0144702Y0210015D01*
X0144608Y0211614D02*
X0150898Y0211614D01*
X0154454Y0208887D02*
X0154454Y0203540D01*
X0153800Y0202887D01*
X0151233Y0200424D02*
X0146453Y0200424D01*
X0147327Y0202023D02*
X0150309Y0202023D01*
X0150255Y0203621D02*
X0147309Y0203621D01*
X0141331Y0210015D02*
X0140962Y0210015D01*
X0140962Y0211614D02*
X0141331Y0211614D01*
X0130898Y0211614D02*
X0048109Y0211614D01*
X0048105Y0211617D02*
X0047743Y0211826D01*
X0047340Y0211935D01*
X0044769Y0211935D01*
X0044769Y0207985D01*
X0048718Y0207985D01*
X0044769Y0207985D01*
X0044769Y0207985D01*
X0044769Y0204035D01*
X0047340Y0204035D01*
X0047743Y0204144D01*
X0048105Y0204353D01*
X0048401Y0204648D01*
X0048610Y0205010D01*
X0048718Y0205414D01*
X0048718Y0207985D01*
X0048718Y0210556D01*
X0048610Y0210960D01*
X0048401Y0211322D01*
X0048105Y0211617D01*
X0048718Y0210015D02*
X0125552Y0210015D01*
X0123954Y0208417D02*
X0048718Y0208417D01*
X0048718Y0206818D02*
X0122355Y0206818D01*
X0120757Y0205220D02*
X0048666Y0205220D01*
X0044769Y0205220D02*
X0044768Y0205220D01*
X0044768Y0204035D02*
X0044768Y0207985D01*
X0040819Y0207985D01*
X0040819Y0205414D01*
X0040927Y0205010D01*
X0041136Y0204648D01*
X0041432Y0204353D01*
X0041794Y0204144D01*
X0042197Y0204035D01*
X0044768Y0204035D01*
X0044768Y0206818D02*
X0044769Y0206818D01*
X0044768Y0207985D02*
X0044769Y0207985D01*
X0044768Y0207985D01*
X0044768Y0207985D01*
X0040819Y0207985D01*
X0040819Y0210556D01*
X0040927Y0210960D01*
X0041136Y0211322D01*
X0041432Y0211617D01*
X0041794Y0211826D01*
X0042197Y0211935D01*
X0044768Y0211935D01*
X0044768Y0207985D01*
X0044768Y0208417D02*
X0044769Y0208417D01*
X0044768Y0210015D02*
X0044769Y0210015D01*
X0044768Y0211614D02*
X0044769Y0211614D01*
X0041428Y0211614D02*
X0013584Y0211614D01*
X0013584Y0213212D02*
X0267213Y0213212D01*
X0267213Y0211614D02*
X0164608Y0211614D01*
X0164702Y0210015D02*
X0267213Y0210015D01*
X0267213Y0208417D02*
X0164702Y0208417D01*
X0164702Y0208702D02*
X0161331Y0208702D01*
X0161331Y0205134D01*
X0163324Y0205134D01*
X0163728Y0205242D01*
X0164090Y0205451D01*
X0164385Y0205747D01*
X0164594Y0206109D01*
X0164702Y0206512D01*
X0164702Y0208702D01*
X0164702Y0206818D02*
X0267213Y0206818D01*
X0267213Y0205220D02*
X0163645Y0205220D01*
X0161331Y0205220D02*
X0160962Y0205220D01*
X0160962Y0206818D02*
X0161331Y0206818D01*
X0161331Y0208417D02*
X0160962Y0208417D01*
X0160962Y0210015D02*
X0161331Y0210015D01*
X0161331Y0211614D02*
X0160962Y0211614D01*
X0158648Y0205220D02*
X0157166Y0205220D01*
X0157345Y0203621D02*
X0267213Y0203621D01*
X0267213Y0202023D02*
X0157291Y0202023D01*
X0129702Y0197227D02*
X0267213Y0197227D01*
X0267213Y0195629D02*
X0129702Y0195629D01*
X0129702Y0194702D02*
X0126331Y0194702D01*
X0126331Y0191134D01*
X0128324Y0191134D01*
X0128728Y0191242D01*
X0129090Y0191451D01*
X0129385Y0191747D01*
X0129594Y0192109D01*
X0129702Y0192512D01*
X0129702Y0194702D01*
X0129702Y0194030D02*
X0267213Y0194030D01*
X0267213Y0192432D02*
X0129681Y0192432D01*
X0126331Y0192432D02*
X0125962Y0192432D01*
X0125962Y0194030D02*
X0126331Y0194030D01*
X0126331Y0195629D02*
X0125962Y0195629D01*
X0125962Y0197227D02*
X0126331Y0197227D01*
X0119454Y0194887D02*
X0119454Y0200540D01*
X0127800Y0208887D01*
X0119158Y0203621D02*
X0013584Y0203621D01*
X0013584Y0202023D02*
X0117560Y0202023D01*
X0117066Y0200424D02*
X0048718Y0200424D01*
X0048718Y0198826D02*
X0117066Y0198826D01*
X0134093Y0245961D02*
X0135507Y0245961D01*
X0136814Y0246502D01*
X0137441Y0247129D01*
X0138126Y0247129D01*
X0138126Y0246891D01*
X0139056Y0245961D01*
X0145883Y0245961D01*
X0146787Y0246865D01*
X0146787Y0245961D01*
X0150946Y0245961D01*
X0150946Y0249332D01*
X0148166Y0249332D01*
X0147762Y0249224D01*
X0147400Y0249015D01*
X0147105Y0248720D01*
X0146896Y0248358D01*
X0146813Y0248048D01*
X0146813Y0250605D01*
X0147717Y0249701D01*
X0154544Y0249701D01*
X0155474Y0250631D01*
X0155474Y0250869D01*
X0155571Y0250869D01*
X0155965Y0250476D01*
X0158047Y0250476D01*
X0158047Y0250237D01*
X0158797Y0249488D01*
X0158660Y0249409D01*
X0158364Y0249113D01*
X0158155Y0248751D01*
X0158047Y0248348D01*
X0158047Y0246354D01*
X0161616Y0246354D01*
X0161616Y0245986D01*
X0161984Y0245986D01*
X0161984Y0242614D01*
X0164174Y0242614D01*
X0164578Y0242722D01*
X0164940Y0242931D01*
X0165236Y0243227D01*
X0165445Y0243589D01*
X0165553Y0243993D01*
X0165553Y0245986D01*
X0161984Y0245986D01*
X0161984Y0246354D01*
X0165553Y0246354D01*
X0165553Y0248348D01*
X0165445Y0248751D01*
X0165236Y0249113D01*
X0164940Y0249409D01*
X0164803Y0249488D01*
X0165553Y0250237D01*
X0165553Y0250776D01*
X0166296Y0250776D01*
X0167286Y0249785D01*
X0168593Y0249244D01*
X0170007Y0249244D01*
X0171314Y0249785D01*
X0172315Y0250786D01*
X0172856Y0252093D01*
X0172856Y0253507D01*
X0172398Y0254613D01*
X0172814Y0254785D01*
X0173815Y0255786D01*
X0174356Y0257093D01*
X0174356Y0257980D01*
X0175534Y0259158D01*
X0175534Y0259764D01*
X0175772Y0259764D01*
X0176702Y0260694D01*
X0176702Y0266339D01*
X0175772Y0267269D01*
X0175534Y0267269D01*
X0175534Y0299764D01*
X0175772Y0299764D01*
X0176702Y0300694D01*
X0176702Y0306339D01*
X0175772Y0307269D01*
X0175534Y0307269D01*
X0175534Y0345764D01*
X0175772Y0345764D01*
X0176702Y0346694D01*
X0176702Y0352339D01*
X0175772Y0353269D01*
X0175729Y0353269D01*
X0177372Y0354913D01*
X0241311Y0354913D01*
X0242954Y0353269D01*
X0242804Y0353269D01*
X0242083Y0352549D01*
X0241363Y0353269D01*
X0236111Y0353269D01*
X0235181Y0352339D01*
X0235181Y0351904D01*
X0230725Y0351904D01*
X0230098Y0352531D01*
X0228791Y0353072D01*
X0227376Y0353072D01*
X0226069Y0352531D01*
X0225069Y0351531D01*
X0224528Y0350224D01*
X0224528Y0348809D01*
X0225069Y0347502D01*
X0226069Y0346502D01*
X0227376Y0345961D01*
X0228791Y0345961D01*
X0230098Y0346502D01*
X0230725Y0347129D01*
X0235181Y0347129D01*
X0235181Y0346694D01*
X0236111Y0345764D01*
X0241363Y0345764D01*
X0242083Y0346484D01*
X0242804Y0345764D01*
X0243043Y0345764D01*
X0243043Y0307269D01*
X0242804Y0307269D01*
X0242083Y0306549D01*
X0241363Y0307269D01*
X0236111Y0307269D01*
X0235181Y0306339D01*
X0235181Y0305904D01*
X0230725Y0305904D01*
X0230098Y0306531D01*
X0228791Y0307072D01*
X0227376Y0307072D01*
X0226069Y0306531D01*
X0225069Y0305531D01*
X0224528Y0304224D01*
X0224528Y0302809D01*
X0225069Y0301502D01*
X0226069Y0300502D01*
X0227376Y0299961D01*
X0228791Y0299961D01*
X0230098Y0300502D01*
X0230725Y0301129D01*
X0235181Y0301129D01*
X0235181Y0300694D01*
X0236111Y0299764D01*
X0241363Y0299764D01*
X0242083Y0300484D01*
X0242804Y0299764D01*
X0243043Y0299764D01*
X0243043Y0267269D01*
X0242804Y0267269D01*
X0242083Y0266549D01*
X0241363Y0267269D01*
X0236111Y0267269D01*
X0235181Y0266339D01*
X0235181Y0265904D01*
X0230725Y0265904D01*
X0230098Y0266531D01*
X0228791Y0267072D01*
X0227376Y0267072D01*
X0226069Y0266531D01*
X0225069Y0265531D01*
X0224528Y0264224D01*
X0224528Y0262809D01*
X0225069Y0261502D01*
X0226069Y0260502D01*
X0227376Y0259961D01*
X0228791Y0259961D01*
X0230098Y0260502D01*
X0230725Y0261129D01*
X0235181Y0261129D01*
X0235181Y0260694D01*
X0236111Y0259764D01*
X0241363Y0259764D01*
X0242083Y0260484D01*
X0242804Y0259764D01*
X0248056Y0259764D01*
X0248986Y0260694D01*
X0248986Y0266339D01*
X0248056Y0267269D01*
X0247817Y0267269D01*
X0247817Y0299764D01*
X0248056Y0299764D01*
X0248986Y0300694D01*
X0248986Y0306339D01*
X0248056Y0307269D01*
X0247817Y0307269D01*
X0247817Y0345764D01*
X0248056Y0345764D01*
X0248986Y0346694D01*
X0248986Y0352339D01*
X0248056Y0353269D01*
X0247817Y0353269D01*
X0247817Y0355159D01*
X0244687Y0358289D01*
X0243289Y0359687D01*
X0103311Y0359687D01*
X0099874Y0356250D01*
X0098476Y0354852D01*
X0098476Y0353269D01*
X0098237Y0353269D01*
X0097517Y0352549D01*
X0096796Y0353269D01*
X0091544Y0353269D01*
X0090614Y0352339D01*
X0090614Y0351904D01*
X0086158Y0351904D01*
X0085531Y0352531D01*
X0084224Y0353072D01*
X0082809Y0353072D01*
X0081502Y0352531D01*
X0080502Y0351531D01*
X0079961Y0350224D01*
X0079961Y0348809D01*
X0080502Y0347502D01*
X0081502Y0346502D01*
X0082809Y0345961D01*
X0084224Y0345961D01*
X0085531Y0346502D01*
X0086158Y0347129D01*
X0090614Y0347129D01*
X0090614Y0346694D01*
X0091544Y0345764D01*
X0096796Y0345764D01*
X0097517Y0346484D01*
X0098237Y0345764D01*
X0098476Y0345764D01*
X0098476Y0341162D01*
X0098007Y0341356D01*
X0096593Y0341356D01*
X0095286Y0340815D01*
X0094422Y0339950D01*
X0093269Y0339950D01*
X0093269Y0340489D01*
X0092339Y0341419D01*
X0086694Y0341419D01*
X0085842Y0340567D01*
X0085765Y0340644D01*
X0083191Y0340644D01*
X0083191Y0340883D01*
X0082261Y0341813D01*
X0081235Y0341813D01*
X0081235Y0342675D01*
X0078404Y0345505D01*
X0077005Y0346904D01*
X0048466Y0346904D01*
X0048466Y0347536D01*
X0047536Y0348466D01*
X0041497Y0348466D01*
X0040567Y0347536D01*
X0040567Y0341497D01*
X0041497Y0340567D01*
X0047536Y0340567D01*
X0048466Y0341497D01*
X0048466Y0342129D01*
X0075028Y0342129D01*
X0075389Y0341768D01*
X0074504Y0340883D01*
X0074504Y0337168D01*
X0073599Y0338072D01*
X0066772Y0338072D01*
X0065843Y0337143D01*
X0065843Y0336904D01*
X0065658Y0336904D01*
X0065031Y0337531D01*
X0063724Y0338072D01*
X0062309Y0338072D01*
X0061002Y0337531D01*
X0060002Y0336531D01*
X0059461Y0335224D01*
X0059461Y0333809D01*
X0060002Y0332502D01*
X0061002Y0331502D01*
X0013584Y0331502D01*
X0013584Y0329904D02*
X0074504Y0329904D01*
X0074504Y0330592D02*
X0074504Y0328599D01*
X0074612Y0328195D01*
X0074821Y0327833D01*
X0075117Y0327538D01*
X0075479Y0327329D01*
X0075882Y0327220D01*
X0078663Y0327220D01*
X0078663Y0330592D01*
X0079031Y0330592D01*
X0079031Y0327220D01*
X0081812Y0327220D01*
X0082216Y0327329D01*
X0082578Y0327538D01*
X0082873Y0327833D01*
X0083082Y0328195D01*
X0083191Y0328599D01*
X0083191Y0330592D01*
X0079032Y0330592D01*
X0079032Y0330961D01*
X0083191Y0330961D01*
X0083191Y0332954D01*
X0083082Y0333358D01*
X0082873Y0333720D01*
X0082578Y0334015D01*
X0082216Y0334224D01*
X0081812Y0334332D01*
X0079031Y0334332D01*
X0079031Y0330961D01*
X0078663Y0330961D01*
X0078663Y0334332D01*
X0075882Y0334332D01*
X0075479Y0334224D01*
X0075117Y0334015D01*
X0074821Y0333720D01*
X0074612Y0333358D01*
X0074529Y0333048D01*
X0074529Y0335605D01*
X0075434Y0334701D01*
X0082261Y0334701D01*
X0083191Y0335631D01*
X0083191Y0335869D01*
X0083787Y0335869D01*
X0084181Y0335476D01*
X0085764Y0335476D01*
X0085764Y0335237D01*
X0086513Y0334488D01*
X0086376Y0334409D01*
X0086081Y0334113D01*
X0085872Y0333751D01*
X0085764Y0333348D01*
X0085764Y0331354D01*
X0089332Y0331354D01*
X0089332Y0330986D01*
X0085764Y0330986D01*
X0085764Y0328993D01*
X0085872Y0328589D01*
X0086081Y0328227D01*
X0086376Y0327931D01*
X0086738Y0327722D01*
X0087142Y0327614D01*
X0089332Y0327614D01*
X0089332Y0330986D01*
X0089701Y0330986D01*
X0089701Y0331354D01*
X0093269Y0331354D01*
X0093269Y0333348D01*
X0093161Y0333751D01*
X0092952Y0334113D01*
X0092657Y0334409D01*
X0092520Y0334488D01*
X0093269Y0335237D01*
X0093269Y0335776D01*
X0094296Y0335776D01*
X0095286Y0334785D01*
X0096593Y0334244D01*
X0098007Y0334244D01*
X0098476Y0334438D01*
X0098476Y0307269D01*
X0098237Y0307269D01*
X0097517Y0306549D01*
X0096796Y0307269D01*
X0091544Y0307269D01*
X0090614Y0306339D01*
X0090614Y0305904D01*
X0086158Y0305904D01*
X0085531Y0306531D01*
X0084224Y0307072D01*
X0082809Y0307072D01*
X0081502Y0306531D01*
X0080502Y0305531D01*
X0079961Y0304224D01*
X0079961Y0302809D01*
X0080502Y0301502D01*
X0081502Y0300502D01*
X0082809Y0299961D01*
X0084224Y0299961D01*
X0085531Y0300502D01*
X0086158Y0301129D01*
X0090614Y0301129D01*
X0090614Y0300694D01*
X0091544Y0299764D01*
X0096796Y0299764D01*
X0097517Y0300484D01*
X0098237Y0299764D01*
X0098476Y0299764D01*
X0098476Y0296162D01*
X0098007Y0296356D01*
X0096593Y0296356D01*
X0095286Y0295815D01*
X0094422Y0294950D01*
X0093269Y0294950D01*
X0093269Y0295489D01*
X0092339Y0296419D01*
X0086694Y0296419D01*
X0085764Y0295489D01*
X0085764Y0295250D01*
X0085659Y0295250D01*
X0085265Y0295644D01*
X0083191Y0295644D01*
X0083191Y0295883D01*
X0082261Y0296813D01*
X0081235Y0296813D01*
X0081235Y0297675D01*
X0077005Y0301904D01*
X0048466Y0301904D01*
X0048466Y0302536D01*
X0047536Y0303466D01*
X0041497Y0303466D01*
X0040567Y0302536D01*
X0040567Y0296497D01*
X0041497Y0295567D01*
X0047536Y0295567D01*
X0048466Y0296497D01*
X0048466Y0297129D01*
X0075028Y0297129D01*
X0075389Y0296768D01*
X0074504Y0295883D01*
X0074504Y0292168D01*
X0073599Y0293072D01*
X0066772Y0293072D01*
X0065843Y0292143D01*
X0065843Y0291904D01*
X0065158Y0291904D01*
X0064531Y0292531D01*
X0063224Y0293072D01*
X0061809Y0293072D01*
X0060502Y0292531D01*
X0059502Y0291531D01*
X0058961Y0290224D01*
X0058961Y0288809D01*
X0059502Y0287502D01*
X0060502Y0286502D01*
X0061809Y0285961D01*
X0063224Y0285961D01*
X0064531Y0286502D01*
X0065158Y0287129D01*
X0065843Y0287129D01*
X0065843Y0286891D01*
X0066772Y0285961D01*
X0073599Y0285961D01*
X0074504Y0286865D01*
X0074504Y0285961D01*
X0078663Y0285961D01*
X0078663Y0289332D01*
X0075882Y0289332D01*
X0075479Y0289224D01*
X0075117Y0289015D01*
X0074821Y0288720D01*
X0074612Y0288358D01*
X0074529Y0288048D01*
X0074529Y0290605D01*
X0075434Y0289701D01*
X0082261Y0289701D01*
X0083191Y0290631D01*
X0083191Y0290869D01*
X0083287Y0290869D01*
X0083681Y0290476D01*
X0085764Y0290476D01*
X0085764Y0290237D01*
X0086513Y0289488D01*
X0086376Y0289409D01*
X0086081Y0289113D01*
X0085872Y0288751D01*
X0085764Y0288348D01*
X0085764Y0286354D01*
X0089332Y0286354D01*
X0089332Y0285986D01*
X0085764Y0285986D01*
X0085764Y0283993D01*
X0085872Y0283589D01*
X0086081Y0283227D01*
X0086376Y0282931D01*
X0086738Y0282722D01*
X0087142Y0282614D01*
X0089332Y0282614D01*
X0089332Y0285986D01*
X0089701Y0285986D01*
X0089701Y0286354D01*
X0093269Y0286354D01*
X0093269Y0288348D01*
X0093161Y0288751D01*
X0092952Y0289113D01*
X0092657Y0289409D01*
X0092520Y0289488D01*
X0093269Y0290237D01*
X0093269Y0290776D01*
X0094296Y0290776D01*
X0095286Y0289785D01*
X0096593Y0289244D01*
X0098007Y0289244D01*
X0098476Y0289438D01*
X0098476Y0267269D01*
X0098237Y0267269D01*
X0097517Y0266549D01*
X0096796Y0267269D01*
X0091544Y0267269D01*
X0090614Y0266339D01*
X0090614Y0265904D01*
X0086158Y0265904D01*
X0085531Y0266531D01*
X0084224Y0267072D01*
X0082809Y0267072D01*
X0081502Y0266531D01*
X0080502Y0265531D01*
X0079961Y0264224D01*
X0079961Y0262809D01*
X0080502Y0261502D01*
X0081502Y0260502D01*
X0082809Y0259961D01*
X0084224Y0259961D01*
X0085531Y0260502D01*
X0086158Y0261129D01*
X0090614Y0261129D01*
X0090614Y0260694D01*
X0091544Y0259764D01*
X0096796Y0259764D01*
X0097517Y0260484D01*
X0098237Y0259764D01*
X0103489Y0259764D01*
X0104419Y0260694D01*
X0104419Y0266339D01*
X0103489Y0267269D01*
X0103250Y0267269D01*
X0103250Y0299764D01*
X0103489Y0299764D01*
X0104419Y0300694D01*
X0104419Y0306339D01*
X0103489Y0307269D01*
X0103250Y0307269D01*
X0103250Y0345764D01*
X0103489Y0345764D01*
X0104419Y0346694D01*
X0104419Y0352339D01*
X0103567Y0353191D01*
X0105289Y0354913D01*
X0169028Y0354913D01*
X0169211Y0354729D01*
X0170671Y0353269D01*
X0170520Y0353269D01*
X0169800Y0352549D01*
X0169080Y0353269D01*
X0163828Y0353269D01*
X0162898Y0352339D01*
X0162898Y0351904D01*
X0158441Y0351904D01*
X0157814Y0352531D01*
X0156507Y0353072D01*
X0155093Y0353072D01*
X0153786Y0352531D01*
X0152785Y0351531D01*
X0152244Y0350224D01*
X0152244Y0348809D01*
X0152785Y0347502D01*
X0153786Y0346502D01*
X0155093Y0345961D01*
X0156507Y0345961D01*
X0157814Y0346502D01*
X0158441Y0347129D01*
X0162898Y0347129D01*
X0162898Y0346694D01*
X0163828Y0345764D01*
X0169080Y0345764D01*
X0169800Y0346484D01*
X0170520Y0345764D01*
X0170759Y0345764D01*
X0170759Y0341045D01*
X0170007Y0341356D01*
X0168593Y0341356D01*
X0167286Y0340815D01*
X0166422Y0339950D01*
X0165553Y0339950D01*
X0165553Y0340489D01*
X0164623Y0341419D01*
X0158977Y0341419D01*
X0158047Y0340489D01*
X0158047Y0340250D01*
X0157942Y0340250D01*
X0157549Y0340644D01*
X0155474Y0340644D01*
X0155474Y0340883D01*
X0154544Y0341813D01*
X0153518Y0341813D01*
X0153518Y0342675D01*
X0150687Y0345505D01*
X0149289Y0346904D01*
X0120750Y0346904D01*
X0120750Y0347536D01*
X0119820Y0348466D01*
X0113780Y0348466D01*
X0112850Y0347536D01*
X0112850Y0341497D01*
X0113780Y0340567D01*
X0119820Y0340567D01*
X0120750Y0341497D01*
X0120750Y0342129D01*
X0147311Y0342129D01*
X0147672Y0341768D01*
X0146787Y0340883D01*
X0146787Y0337168D01*
X0145883Y0338072D01*
X0139056Y0338072D01*
X0138164Y0337181D01*
X0137814Y0337531D01*
X0136507Y0338072D01*
X0135093Y0338072D01*
X0133786Y0337531D01*
X0132785Y0336531D01*
X0132244Y0335224D01*
X0132244Y0333809D01*
X0132785Y0332502D01*
X0133786Y0331502D01*
X0135093Y0330961D01*
X0136507Y0330961D01*
X0137814Y0331502D01*
X0138164Y0331852D01*
X0139056Y0330961D01*
X0145883Y0330961D01*
X0146787Y0331865D01*
X0146787Y0330961D01*
X0150946Y0330961D01*
X0150946Y0334332D01*
X0148166Y0334332D01*
X0147762Y0334224D01*
X0147400Y0334015D01*
X0147105Y0333720D01*
X0146896Y0333358D01*
X0146813Y0333048D01*
X0146813Y0335605D01*
X0147717Y0334701D01*
X0154544Y0334701D01*
X0155474Y0335631D01*
X0155474Y0335869D01*
X0155571Y0335869D01*
X0155965Y0335476D01*
X0158047Y0335476D01*
X0158047Y0335237D01*
X0158797Y0334488D01*
X0158660Y0334409D01*
X0158364Y0334113D01*
X0158155Y0333751D01*
X0158047Y0333348D01*
X0158047Y0331354D01*
X0161616Y0331354D01*
X0161616Y0330986D01*
X0161984Y0330986D01*
X0161984Y0327614D01*
X0164174Y0327614D01*
X0164578Y0327722D01*
X0164940Y0327931D01*
X0165236Y0328227D01*
X0165445Y0328589D01*
X0165553Y0328993D01*
X0165553Y0330986D01*
X0161984Y0330986D01*
X0161984Y0331354D01*
X0165553Y0331354D01*
X0165553Y0333348D01*
X0165445Y0333751D01*
X0165236Y0334113D01*
X0164940Y0334409D01*
X0164803Y0334488D01*
X0165553Y0335237D01*
X0165553Y0335776D01*
X0166296Y0335776D01*
X0167286Y0334785D01*
X0168593Y0334244D01*
X0170007Y0334244D01*
X0170759Y0334555D01*
X0170759Y0307269D01*
X0170520Y0307269D01*
X0169800Y0306549D01*
X0169080Y0307269D01*
X0163828Y0307269D01*
X0162898Y0306339D01*
X0162898Y0305904D01*
X0158441Y0305904D01*
X0157814Y0306531D01*
X0156507Y0307072D01*
X0155093Y0307072D01*
X0153786Y0306531D01*
X0152785Y0305531D01*
X0152244Y0304224D01*
X0152244Y0302809D01*
X0152785Y0301502D01*
X0153786Y0300502D01*
X0155093Y0299961D01*
X0156507Y0299961D01*
X0157814Y0300502D01*
X0158441Y0301129D01*
X0162898Y0301129D01*
X0162898Y0300694D01*
X0163828Y0299764D01*
X0169080Y0299764D01*
X0169800Y0300484D01*
X0170520Y0299764D01*
X0170759Y0299764D01*
X0170759Y0296045D01*
X0170007Y0296356D01*
X0168593Y0296356D01*
X0167286Y0295815D01*
X0166422Y0294950D01*
X0165553Y0294950D01*
X0165553Y0295489D01*
X0164623Y0296419D01*
X0158977Y0296419D01*
X0158047Y0295489D01*
X0158047Y0295250D01*
X0157942Y0295250D01*
X0157549Y0295644D01*
X0155474Y0295644D01*
X0155474Y0295883D01*
X0154544Y0296813D01*
X0153518Y0296813D01*
X0153518Y0297675D01*
X0150687Y0300505D01*
X0150687Y0300505D01*
X0149289Y0301904D01*
X0120750Y0301904D01*
X0120750Y0302536D01*
X0119820Y0303466D01*
X0113780Y0303466D01*
X0112850Y0302536D01*
X0112850Y0296497D01*
X0113780Y0295567D01*
X0119820Y0295567D01*
X0120750Y0296497D01*
X0120750Y0297129D01*
X0147311Y0297129D01*
X0147672Y0296768D01*
X0146787Y0295883D01*
X0146787Y0292168D01*
X0145883Y0293072D01*
X0139056Y0293072D01*
X0138126Y0292143D01*
X0138126Y0291904D01*
X0137441Y0291904D01*
X0136814Y0292531D01*
X0135507Y0293072D01*
X0134093Y0293072D01*
X0132786Y0292531D01*
X0131785Y0291531D01*
X0131244Y0290224D01*
X0131244Y0288809D01*
X0131785Y0287502D01*
X0132786Y0286502D01*
X0134093Y0285961D01*
X0135507Y0285961D01*
X0136814Y0286502D01*
X0137441Y0287129D01*
X0138126Y0287129D01*
X0138126Y0286891D01*
X0139056Y0285961D01*
X0145883Y0285961D01*
X0146787Y0286865D01*
X0146787Y0285961D01*
X0150946Y0285961D01*
X0150946Y0289332D01*
X0148166Y0289332D01*
X0147762Y0289224D01*
X0147400Y0289015D01*
X0147105Y0288720D01*
X0146896Y0288358D01*
X0146813Y0288048D01*
X0146813Y0290605D01*
X0147717Y0289701D01*
X0154544Y0289701D01*
X0155474Y0290631D01*
X0155474Y0290869D01*
X0155571Y0290869D01*
X0155965Y0290476D01*
X0158047Y0290476D01*
X0158047Y0290237D01*
X0158797Y0289488D01*
X0158660Y0289409D01*
X0158364Y0289113D01*
X0158155Y0288751D01*
X0158047Y0288348D01*
X0158047Y0286354D01*
X0161616Y0286354D01*
X0161616Y0285986D01*
X0161984Y0285986D01*
X0161984Y0282614D01*
X0164174Y0282614D01*
X0164578Y0282722D01*
X0164940Y0282931D01*
X0165236Y0283227D01*
X0165445Y0283589D01*
X0165553Y0283993D01*
X0165553Y0285986D01*
X0161984Y0285986D01*
X0161984Y0286354D01*
X0165553Y0286354D01*
X0165553Y0288348D01*
X0165445Y0288751D01*
X0165236Y0289113D01*
X0164940Y0289409D01*
X0164803Y0289488D01*
X0165553Y0290237D01*
X0165553Y0290776D01*
X0166296Y0290776D01*
X0167286Y0289785D01*
X0168593Y0289244D01*
X0170007Y0289244D01*
X0170759Y0289555D01*
X0170759Y0267269D01*
X0170520Y0267269D01*
X0169800Y0266549D01*
X0169080Y0267269D01*
X0163828Y0267269D01*
X0162898Y0266339D01*
X0162898Y0265904D01*
X0158441Y0265904D01*
X0157814Y0266531D01*
X0156507Y0267072D01*
X0155093Y0267072D01*
X0153786Y0266531D01*
X0152785Y0265531D01*
X0152244Y0264224D01*
X0152244Y0262809D01*
X0152785Y0261502D01*
X0153786Y0260502D01*
X0155093Y0259961D01*
X0156507Y0259961D01*
X0157814Y0260502D01*
X0158441Y0261129D01*
X0162898Y0261129D01*
X0162898Y0260694D01*
X0163828Y0259764D01*
X0167765Y0259764D01*
X0167244Y0258507D01*
X0167244Y0257093D01*
X0167702Y0255987D01*
X0167286Y0255815D01*
X0166422Y0254950D01*
X0165553Y0254950D01*
X0165553Y0255489D01*
X0164623Y0256419D01*
X0158977Y0256419D01*
X0158047Y0255489D01*
X0158047Y0255250D01*
X0157942Y0255250D01*
X0157549Y0255644D01*
X0155474Y0255644D01*
X0155474Y0255883D01*
X0154544Y0256813D01*
X0153518Y0256813D01*
X0153518Y0257675D01*
X0150687Y0260505D01*
X0149289Y0261904D01*
X0120750Y0261904D01*
X0120750Y0262536D01*
X0119820Y0263466D01*
X0113780Y0263466D01*
X0112850Y0262536D01*
X0112850Y0256497D01*
X0113780Y0255567D01*
X0119820Y0255567D01*
X0120750Y0256497D01*
X0120750Y0257129D01*
X0147311Y0257129D01*
X0147672Y0256768D01*
X0146787Y0255883D01*
X0146787Y0252168D01*
X0145883Y0253072D01*
X0139056Y0253072D01*
X0138126Y0252143D01*
X0138126Y0251904D01*
X0137441Y0251904D01*
X0136814Y0252531D01*
X0135507Y0253072D01*
X0134093Y0253072D01*
X0132786Y0252531D01*
X0131785Y0251531D01*
X0131244Y0250224D01*
X0131244Y0248809D01*
X0131785Y0247502D01*
X0132786Y0246502D01*
X0134093Y0245961D01*
X0132507Y0246781D02*
X0093269Y0246781D01*
X0093269Y0246354D02*
X0093269Y0248348D01*
X0093161Y0248751D01*
X0092952Y0249113D01*
X0092657Y0249409D01*
X0092520Y0249488D01*
X0093269Y0250237D01*
X0093269Y0250776D01*
X0094296Y0250776D01*
X0095286Y0249785D01*
X0096593Y0249244D01*
X0098007Y0249244D01*
X0099314Y0249785D01*
X0100315Y0250786D01*
X0100856Y0252093D01*
X0100856Y0253507D01*
X0100315Y0254814D01*
X0099314Y0255815D01*
X0098007Y0256356D01*
X0096593Y0256356D01*
X0095286Y0255815D01*
X0094422Y0254950D01*
X0093269Y0254950D01*
X0093269Y0255489D01*
X0092339Y0256419D01*
X0086694Y0256419D01*
X0085764Y0255489D01*
X0085764Y0255250D01*
X0085659Y0255250D01*
X0085265Y0255644D01*
X0083191Y0255644D01*
X0083191Y0255883D01*
X0082261Y0256813D01*
X0081235Y0256813D01*
X0081235Y0257675D01*
X0078404Y0260505D01*
X0077005Y0261904D01*
X0048466Y0261904D01*
X0048466Y0262536D01*
X0047536Y0263466D01*
X0041497Y0263466D01*
X0040567Y0262536D01*
X0040567Y0256497D01*
X0041497Y0255567D01*
X0047536Y0255567D01*
X0048466Y0256497D01*
X0048466Y0257129D01*
X0075028Y0257129D01*
X0075389Y0256768D01*
X0074504Y0255883D01*
X0074504Y0252168D01*
X0073599Y0253072D01*
X0066772Y0253072D01*
X0065843Y0252143D01*
X0065843Y0251904D01*
X0065158Y0251904D01*
X0064531Y0252531D01*
X0063224Y0253072D01*
X0061809Y0253072D01*
X0060502Y0252531D01*
X0059502Y0251531D01*
X0058961Y0250224D01*
X0058961Y0248809D01*
X0059502Y0247502D01*
X0060502Y0246502D01*
X0061809Y0245961D01*
X0063224Y0245961D01*
X0064531Y0246502D01*
X0065158Y0247129D01*
X0065843Y0247129D01*
X0065843Y0246891D01*
X0066772Y0245961D01*
X0073599Y0245961D01*
X0074504Y0246865D01*
X0074504Y0245961D01*
X0078663Y0245961D01*
X0078663Y0249332D01*
X0075882Y0249332D01*
X0075479Y0249224D01*
X0075117Y0249015D01*
X0074821Y0248720D01*
X0074612Y0248358D01*
X0074529Y0248048D01*
X0074529Y0250605D01*
X0075434Y0249701D01*
X0082261Y0249701D01*
X0083191Y0250631D01*
X0083191Y0250869D01*
X0083287Y0250869D01*
X0083681Y0250476D01*
X0085764Y0250476D01*
X0085764Y0250237D01*
X0086513Y0249488D01*
X0086376Y0249409D01*
X0086081Y0249113D01*
X0085872Y0248751D01*
X0085764Y0248348D01*
X0085764Y0246354D01*
X0089332Y0246354D01*
X0089332Y0245986D01*
X0085764Y0245986D01*
X0085764Y0243993D01*
X0085872Y0243589D01*
X0086081Y0243227D01*
X0086376Y0242931D01*
X0086738Y0242722D01*
X0087142Y0242614D01*
X0089332Y0242614D01*
X0089332Y0245986D01*
X0089701Y0245986D01*
X0089701Y0246354D01*
X0093269Y0246354D01*
X0093269Y0245986D02*
X0089701Y0245986D01*
X0089701Y0242614D01*
X0091891Y0242614D01*
X0092295Y0242722D01*
X0092657Y0242931D01*
X0092952Y0243227D01*
X0093161Y0243589D01*
X0093269Y0243993D01*
X0093269Y0245986D01*
X0093269Y0245183D02*
X0146787Y0245183D01*
X0146787Y0245592D02*
X0146787Y0243599D01*
X0146896Y0243195D01*
X0147105Y0242833D01*
X0147400Y0242538D01*
X0147762Y0242329D01*
X0148166Y0242220D01*
X0150946Y0242220D01*
X0150946Y0245592D01*
X0146787Y0245592D01*
X0146787Y0246781D02*
X0146703Y0246781D01*
X0146813Y0248380D02*
X0146908Y0248380D01*
X0146813Y0249978D02*
X0147440Y0249978D01*
X0146787Y0253175D02*
X0100856Y0253175D01*
X0100642Y0251577D02*
X0131831Y0251577D01*
X0131244Y0249978D02*
X0099507Y0249978D01*
X0095093Y0249978D02*
X0093010Y0249978D01*
X0093261Y0248380D02*
X0131422Y0248380D01*
X0134800Y0249517D02*
X0142469Y0249517D01*
X0138235Y0246781D02*
X0137093Y0246781D01*
X0146791Y0243584D02*
X0093158Y0243584D01*
X0089701Y0243584D02*
X0089332Y0243584D01*
X0089332Y0245183D02*
X0089701Y0245183D01*
X0085764Y0245183D02*
X0083191Y0245183D01*
X0083191Y0245592D02*
X0079032Y0245592D01*
X0079032Y0245961D01*
X0083191Y0245961D01*
X0083191Y0247954D01*
X0083082Y0248358D01*
X0082873Y0248720D01*
X0082578Y0249015D01*
X0082216Y0249224D01*
X0081812Y0249332D01*
X0079031Y0249332D01*
X0079031Y0245961D01*
X0078663Y0245961D01*
X0078663Y0245592D01*
X0079031Y0245592D01*
X0079031Y0242220D01*
X0081812Y0242220D01*
X0082216Y0242329D01*
X0082578Y0242538D01*
X0082873Y0242833D01*
X0083082Y0243195D01*
X0083191Y0243599D01*
X0083191Y0245592D01*
X0083191Y0246781D02*
X0085764Y0246781D01*
X0085772Y0248380D02*
X0083070Y0248380D01*
X0082538Y0249978D02*
X0086023Y0249978D01*
X0084670Y0252863D02*
X0084276Y0253257D01*
X0078847Y0253257D01*
X0078847Y0256686D01*
X0076017Y0259517D01*
X0044517Y0259517D01*
X0040567Y0259569D02*
X0013584Y0259569D01*
X0013584Y0257971D02*
X0040567Y0257971D01*
X0040691Y0256372D02*
X0013584Y0256372D01*
X0013584Y0254774D02*
X0074504Y0254774D01*
X0074504Y0253175D02*
X0013584Y0253175D01*
X0013584Y0251577D02*
X0059548Y0251577D01*
X0058961Y0249978D02*
X0013584Y0249978D01*
X0013584Y0248380D02*
X0059139Y0248380D01*
X0060223Y0246781D02*
X0013584Y0246781D01*
X0013584Y0245183D02*
X0074504Y0245183D01*
X0074504Y0245592D02*
X0074504Y0243599D01*
X0074612Y0243195D01*
X0074821Y0242833D01*
X0075117Y0242538D01*
X0075479Y0242329D01*
X0075882Y0242220D01*
X0078663Y0242220D01*
X0078663Y0245592D01*
X0074504Y0245592D01*
X0074504Y0246781D02*
X0074420Y0246781D01*
X0074529Y0248380D02*
X0074625Y0248380D01*
X0074529Y0249978D02*
X0075156Y0249978D01*
X0078663Y0248380D02*
X0079031Y0248380D01*
X0079031Y0246781D02*
X0078663Y0246781D01*
X0078663Y0245183D02*
X0079031Y0245183D01*
X0079031Y0243584D02*
X0078663Y0243584D01*
X0074508Y0243584D02*
X0013584Y0243584D01*
X0013584Y0241986D02*
X0267213Y0241986D01*
X0267213Y0243584D02*
X0237725Y0243584D01*
X0237728Y0243589D02*
X0237836Y0243993D01*
X0237836Y0245986D01*
X0234268Y0245986D01*
X0234268Y0246354D01*
X0237836Y0246354D01*
X0237836Y0248348D01*
X0237728Y0248751D01*
X0237519Y0249113D01*
X0237223Y0249409D01*
X0237087Y0249488D01*
X0237836Y0250237D01*
X0237836Y0255489D01*
X0236906Y0256419D01*
X0231261Y0256419D01*
X0230331Y0255489D01*
X0230331Y0255250D01*
X0230226Y0255250D01*
X0229832Y0255644D01*
X0227757Y0255644D01*
X0227757Y0255883D01*
X0226828Y0256813D01*
X0225802Y0256813D01*
X0225802Y0257675D01*
X0222971Y0260505D01*
X0221572Y0261904D01*
X0193033Y0261904D01*
X0193033Y0262536D01*
X0192103Y0263466D01*
X0186064Y0263466D01*
X0185134Y0262536D01*
X0185134Y0256497D01*
X0186064Y0255567D01*
X0192103Y0255567D01*
X0193033Y0256497D01*
X0193033Y0257129D01*
X0219595Y0257129D01*
X0219956Y0256768D01*
X0219071Y0255883D01*
X0219071Y0252168D01*
X0218166Y0253072D01*
X0211339Y0253072D01*
X0210409Y0252143D01*
X0210409Y0251904D01*
X0209725Y0251904D01*
X0209098Y0252531D01*
X0207791Y0253072D01*
X0206376Y0253072D01*
X0205069Y0252531D01*
X0204069Y0251531D01*
X0203528Y0250224D01*
X0203528Y0248809D01*
X0204069Y0247502D01*
X0205069Y0246502D01*
X0206376Y0245961D01*
X0207791Y0245961D01*
X0209098Y0246502D01*
X0209725Y0247129D01*
X0210409Y0247129D01*
X0210409Y0246891D01*
X0211339Y0245961D01*
X0218166Y0245961D01*
X0219071Y0246865D01*
X0219071Y0245961D01*
X0223230Y0245961D01*
X0223230Y0249332D01*
X0220449Y0249332D01*
X0220046Y0249224D01*
X0219684Y0249015D01*
X0219388Y0248720D01*
X0219179Y0248358D01*
X0219096Y0248048D01*
X0219096Y0250605D01*
X0220001Y0249701D01*
X0226828Y0249701D01*
X0227757Y0250631D01*
X0227757Y0250869D01*
X0227854Y0250869D01*
X0228248Y0250476D01*
X0230331Y0250476D01*
X0230331Y0250237D01*
X0231080Y0249488D01*
X0230943Y0249409D01*
X0230648Y0249113D01*
X0230439Y0248751D01*
X0230331Y0248348D01*
X0230331Y0246354D01*
X0233899Y0246354D01*
X0233899Y0245986D01*
X0230331Y0245986D01*
X0230331Y0243993D01*
X0230439Y0243589D01*
X0230648Y0243227D01*
X0230943Y0242931D01*
X0231305Y0242722D01*
X0231709Y0242614D01*
X0233899Y0242614D01*
X0233899Y0245986D01*
X0234268Y0245986D01*
X0234268Y0242614D01*
X0236458Y0242614D01*
X0236862Y0242722D01*
X0237223Y0242931D01*
X0237519Y0243227D01*
X0237728Y0243589D01*
X0237836Y0245183D02*
X0267213Y0245183D01*
X0267213Y0246781D02*
X0237836Y0246781D01*
X0237828Y0248380D02*
X0267213Y0248380D01*
X0267213Y0249978D02*
X0237577Y0249978D01*
X0237836Y0251577D02*
X0267213Y0251577D01*
X0267213Y0253175D02*
X0237836Y0253175D01*
X0237836Y0254774D02*
X0267213Y0254774D01*
X0267213Y0256372D02*
X0236953Y0256372D01*
X0234083Y0252863D02*
X0229237Y0252863D01*
X0228843Y0253257D01*
X0223414Y0253257D01*
X0223414Y0256686D01*
X0220583Y0259517D01*
X0189083Y0259517D01*
X0185134Y0259569D02*
X0175534Y0259569D01*
X0176702Y0261168D02*
X0185134Y0261168D01*
X0185364Y0262766D02*
X0176702Y0262766D01*
X0176702Y0264365D02*
X0224586Y0264365D01*
X0224545Y0262766D02*
X0192803Y0262766D01*
X0192908Y0256372D02*
X0219560Y0256372D01*
X0219071Y0254774D02*
X0172786Y0254774D01*
X0172856Y0253175D02*
X0219071Y0253175D01*
X0219096Y0249978D02*
X0219723Y0249978D01*
X0219192Y0248380D02*
X0219096Y0248380D01*
X0219071Y0246781D02*
X0218987Y0246781D01*
X0219071Y0245592D02*
X0219071Y0243599D01*
X0219179Y0243195D01*
X0219388Y0242833D01*
X0219684Y0242538D01*
X0220046Y0242329D01*
X0220449Y0242220D01*
X0223230Y0242220D01*
X0223230Y0245592D01*
X0223598Y0245592D01*
X0223598Y0242220D01*
X0226379Y0242220D01*
X0226783Y0242329D01*
X0227145Y0242538D01*
X0227440Y0242833D01*
X0227649Y0243195D01*
X0227757Y0243599D01*
X0227757Y0245592D01*
X0223598Y0245592D01*
X0223598Y0245961D01*
X0223230Y0245961D01*
X0223230Y0245592D01*
X0219071Y0245592D01*
X0219071Y0245183D02*
X0165553Y0245183D01*
X0165553Y0246781D02*
X0204790Y0246781D01*
X0203705Y0248380D02*
X0165544Y0248380D01*
X0165294Y0249978D02*
X0167093Y0249978D01*
X0171507Y0249978D02*
X0203528Y0249978D01*
X0204115Y0251577D02*
X0172642Y0251577D01*
X0174057Y0256372D02*
X0185258Y0256372D01*
X0185134Y0257971D02*
X0174356Y0257971D01*
X0173146Y0260146D02*
X0170800Y0257800D01*
X0173146Y0260146D02*
X0173146Y0263517D01*
X0173146Y0357146D01*
X0173300Y0357300D01*
X0104300Y0357300D01*
X0100863Y0353863D01*
X0100863Y0349517D01*
X0100863Y0303517D01*
X0100863Y0263517D01*
X0104419Y0262766D02*
X0113080Y0262766D01*
X0112850Y0261168D02*
X0104419Y0261168D01*
X0104419Y0264365D02*
X0152302Y0264365D01*
X0152262Y0262766D02*
X0120520Y0262766D01*
X0116800Y0259517D02*
X0148300Y0259517D01*
X0151131Y0256686D01*
X0151131Y0253257D01*
X0156560Y0253257D01*
X0156954Y0252863D01*
X0161800Y0252863D01*
X0158306Y0249978D02*
X0154822Y0249978D01*
X0154499Y0249224D02*
X0154096Y0249332D01*
X0151315Y0249332D01*
X0151315Y0245961D01*
X0150946Y0245961D01*
X0150946Y0245592D01*
X0151315Y0245592D01*
X0151315Y0242220D01*
X0154096Y0242220D01*
X0154499Y0242329D01*
X0154861Y0242538D01*
X0155157Y0242833D01*
X0155366Y0243195D01*
X0155474Y0243599D01*
X0155474Y0245592D01*
X0151315Y0245592D01*
X0151315Y0245961D01*
X0155474Y0245961D01*
X0155474Y0247954D01*
X0155366Y0248358D01*
X0155157Y0248720D01*
X0154861Y0249015D01*
X0154499Y0249224D01*
X0155353Y0248380D02*
X0158056Y0248380D01*
X0158047Y0246781D02*
X0155474Y0246781D01*
X0155474Y0245183D02*
X0158047Y0245183D01*
X0158047Y0245986D02*
X0158047Y0243993D01*
X0158155Y0243589D01*
X0158364Y0243227D01*
X0158660Y0242931D01*
X0159022Y0242722D01*
X0159426Y0242614D01*
X0161616Y0242614D01*
X0161616Y0245986D01*
X0158047Y0245986D01*
X0158158Y0243584D02*
X0155470Y0243584D01*
X0151315Y0243584D02*
X0150946Y0243584D01*
X0150946Y0245183D02*
X0151315Y0245183D01*
X0151315Y0246781D02*
X0150946Y0246781D01*
X0150946Y0248380D02*
X0151315Y0248380D01*
X0146787Y0254774D02*
X0100331Y0254774D01*
X0092386Y0256372D02*
X0112975Y0256372D01*
X0112850Y0257971D02*
X0080939Y0257971D01*
X0079340Y0259569D02*
X0112850Y0259569D01*
X0120625Y0256372D02*
X0147277Y0256372D01*
X0151624Y0259569D02*
X0167684Y0259569D01*
X0167244Y0257971D02*
X0153222Y0257971D01*
X0154984Y0256372D02*
X0158930Y0256372D01*
X0164670Y0256372D02*
X0167543Y0256372D01*
X0166454Y0263517D02*
X0155800Y0263517D01*
X0153218Y0265963D02*
X0104419Y0265963D01*
X0103250Y0267562D02*
X0170759Y0267562D01*
X0170759Y0269160D02*
X0103250Y0269160D01*
X0103250Y0270759D02*
X0170759Y0270759D01*
X0170759Y0272357D02*
X0103250Y0272357D01*
X0103250Y0273956D02*
X0170759Y0273956D01*
X0170759Y0275554D02*
X0103250Y0275554D01*
X0103250Y0277153D02*
X0170759Y0277153D01*
X0170759Y0278751D02*
X0103250Y0278751D01*
X0103250Y0280350D02*
X0170759Y0280350D01*
X0170759Y0281948D02*
X0103250Y0281948D01*
X0103250Y0283547D02*
X0146801Y0283547D01*
X0146787Y0283599D02*
X0146896Y0283195D01*
X0147105Y0282833D01*
X0147400Y0282538D01*
X0147762Y0282329D01*
X0148166Y0282220D01*
X0150946Y0282220D01*
X0150946Y0285592D01*
X0146787Y0285592D01*
X0146787Y0283599D01*
X0146787Y0285145D02*
X0103250Y0285145D01*
X0103250Y0286744D02*
X0132544Y0286744D01*
X0131437Y0288342D02*
X0103250Y0288342D01*
X0103250Y0289941D02*
X0131244Y0289941D01*
X0131794Y0291539D02*
X0103250Y0291539D01*
X0103250Y0293138D02*
X0146787Y0293138D01*
X0146787Y0294737D02*
X0103250Y0294737D01*
X0103250Y0296335D02*
X0113012Y0296335D01*
X0112850Y0297934D02*
X0103250Y0297934D01*
X0103250Y0299532D02*
X0112850Y0299532D01*
X0112850Y0301131D02*
X0104419Y0301131D01*
X0104419Y0302729D02*
X0113043Y0302729D01*
X0116800Y0299517D02*
X0148300Y0299517D01*
X0151131Y0296686D01*
X0151131Y0293257D01*
X0156560Y0293257D01*
X0156954Y0292863D01*
X0161800Y0292863D01*
X0165257Y0289941D02*
X0167130Y0289941D01*
X0165553Y0288342D02*
X0170759Y0288342D01*
X0170759Y0286744D02*
X0165553Y0286744D01*
X0165553Y0285145D02*
X0170759Y0285145D01*
X0170759Y0283547D02*
X0165420Y0283547D01*
X0161984Y0283547D02*
X0161616Y0283547D01*
X0161616Y0282614D02*
X0161616Y0285986D01*
X0158047Y0285986D01*
X0158047Y0283993D01*
X0158155Y0283589D01*
X0158364Y0283227D01*
X0158660Y0282931D01*
X0159022Y0282722D01*
X0159426Y0282614D01*
X0161616Y0282614D01*
X0161616Y0285145D02*
X0161984Y0285145D01*
X0158047Y0285145D02*
X0155474Y0285145D01*
X0155474Y0285592D02*
X0151315Y0285592D01*
X0151315Y0282220D01*
X0154096Y0282220D01*
X0154499Y0282329D01*
X0154861Y0282538D01*
X0155157Y0282833D01*
X0155366Y0283195D01*
X0155474Y0283599D01*
X0155474Y0285592D01*
X0155474Y0285961D02*
X0155474Y0287954D01*
X0155366Y0288358D01*
X0155157Y0288720D01*
X0154861Y0289015D01*
X0154499Y0289224D01*
X0154096Y0289332D01*
X0151315Y0289332D01*
X0151315Y0285961D01*
X0150946Y0285961D01*
X0150946Y0285592D01*
X0151315Y0285592D01*
X0151315Y0285961D01*
X0155474Y0285961D01*
X0155474Y0286744D02*
X0158047Y0286744D01*
X0158047Y0288342D02*
X0155370Y0288342D01*
X0154784Y0289941D02*
X0158343Y0289941D01*
X0158180Y0283547D02*
X0155460Y0283547D01*
X0151315Y0283547D02*
X0150946Y0283547D01*
X0150946Y0285145D02*
X0151315Y0285145D01*
X0151315Y0286744D02*
X0150946Y0286744D01*
X0150946Y0288342D02*
X0151315Y0288342D01*
X0147477Y0289941D02*
X0146813Y0289941D01*
X0146813Y0288342D02*
X0146892Y0288342D01*
X0146787Y0286744D02*
X0146666Y0286744D01*
X0142469Y0289517D02*
X0134800Y0289517D01*
X0137056Y0286744D02*
X0138273Y0286744D01*
X0147240Y0296335D02*
X0120588Y0296335D01*
X0120557Y0302729D02*
X0152277Y0302729D01*
X0152287Y0304328D02*
X0104419Y0304328D01*
X0104419Y0305926D02*
X0153181Y0305926D01*
X0155800Y0303517D02*
X0166454Y0303517D01*
X0162898Y0305926D02*
X0158419Y0305926D01*
X0153157Y0301131D02*
X0150062Y0301131D01*
X0151661Y0299532D02*
X0170759Y0299532D01*
X0170759Y0297934D02*
X0153259Y0297934D01*
X0155022Y0296335D02*
X0158893Y0296335D01*
X0164707Y0296335D02*
X0168542Y0296335D01*
X0170058Y0296335D02*
X0170759Y0296335D01*
X0175534Y0296335D02*
X0185296Y0296335D01*
X0185134Y0296497D02*
X0186064Y0295567D01*
X0192103Y0295567D01*
X0193033Y0296497D01*
X0193033Y0297129D01*
X0219595Y0297129D01*
X0219956Y0296768D01*
X0219071Y0295883D01*
X0219071Y0292168D01*
X0218166Y0293072D01*
X0211339Y0293072D01*
X0210409Y0292143D01*
X0210409Y0291904D01*
X0209725Y0291904D01*
X0209098Y0292531D01*
X0207791Y0293072D01*
X0206376Y0293072D01*
X0205069Y0292531D01*
X0204069Y0291531D01*
X0203528Y0290224D01*
X0203528Y0288809D01*
X0204069Y0287502D01*
X0205069Y0286502D01*
X0206376Y0285961D01*
X0207791Y0285961D01*
X0209098Y0286502D01*
X0209725Y0287129D01*
X0210409Y0287129D01*
X0210409Y0286891D01*
X0211339Y0285961D01*
X0218166Y0285961D01*
X0219071Y0286865D01*
X0219071Y0285961D01*
X0223230Y0285961D01*
X0223230Y0289332D01*
X0220449Y0289332D01*
X0220046Y0289224D01*
X0219684Y0289015D01*
X0219388Y0288720D01*
X0219179Y0288358D01*
X0219096Y0288048D01*
X0219096Y0290605D01*
X0220001Y0289701D01*
X0226828Y0289701D01*
X0227757Y0290631D01*
X0227757Y0290869D01*
X0227854Y0290869D01*
X0228248Y0290476D01*
X0230331Y0290476D01*
X0230331Y0290237D01*
X0231080Y0289488D01*
X0230943Y0289409D01*
X0230648Y0289113D01*
X0230439Y0288751D01*
X0230331Y0288348D01*
X0230331Y0286354D01*
X0233899Y0286354D01*
X0233899Y0285986D01*
X0230331Y0285986D01*
X0230331Y0283993D01*
X0230439Y0283589D01*
X0230648Y0283227D01*
X0230943Y0282931D01*
X0231305Y0282722D01*
X0231709Y0282614D01*
X0233899Y0282614D01*
X0233899Y0285986D01*
X0234268Y0285986D01*
X0234268Y0286354D01*
X0237836Y0286354D01*
X0237836Y0288348D01*
X0237728Y0288751D01*
X0237519Y0289113D01*
X0237223Y0289409D01*
X0237087Y0289488D01*
X0237836Y0290237D01*
X0237836Y0295489D01*
X0236906Y0296419D01*
X0231261Y0296419D01*
X0230331Y0295489D01*
X0230331Y0295250D01*
X0230226Y0295250D01*
X0229832Y0295644D01*
X0227757Y0295644D01*
X0227757Y0295883D01*
X0226828Y0296813D01*
X0225802Y0296813D01*
X0225802Y0297675D01*
X0222971Y0300505D01*
X0221572Y0301904D01*
X0193033Y0301904D01*
X0193033Y0302536D01*
X0192103Y0303466D01*
X0186064Y0303466D01*
X0185134Y0302536D01*
X0185134Y0296497D01*
X0185134Y0297934D02*
X0175534Y0297934D01*
X0175534Y0299532D02*
X0185134Y0299532D01*
X0185134Y0301131D02*
X0176702Y0301131D01*
X0176702Y0302729D02*
X0185327Y0302729D01*
X0189083Y0299517D02*
X0220583Y0299517D01*
X0223414Y0296686D01*
X0223414Y0293257D01*
X0228843Y0293257D01*
X0229237Y0292863D01*
X0234083Y0292863D01*
X0237836Y0293138D02*
X0243043Y0293138D01*
X0243043Y0294737D02*
X0237836Y0294737D01*
X0236990Y0296335D02*
X0243043Y0296335D01*
X0243043Y0297934D02*
X0225543Y0297934D01*
X0223944Y0299532D02*
X0243043Y0299532D01*
X0245430Y0303517D02*
X0245430Y0349517D01*
X0245430Y0354170D01*
X0242300Y0357300D01*
X0173300Y0357300D01*
X0174563Y0355480D02*
X0171837Y0355480D01*
X0173200Y0354117D02*
X0170200Y0357117D01*
X0176200Y0357117D01*
X0173200Y0354117D01*
X0176341Y0353881D02*
X0242342Y0353881D01*
X0245898Y0357078D02*
X0267213Y0357078D01*
X0267213Y0355480D02*
X0247496Y0355480D01*
X0247817Y0353881D02*
X0267213Y0353881D01*
X0267213Y0352283D02*
X0248986Y0352283D01*
X0248986Y0350684D02*
X0267213Y0350684D01*
X0267213Y0349086D02*
X0248986Y0349086D01*
X0248986Y0347487D02*
X0267213Y0347487D01*
X0267213Y0345889D02*
X0248181Y0345889D01*
X0247817Y0344290D02*
X0267213Y0344290D01*
X0267213Y0342692D02*
X0247817Y0342692D01*
X0247817Y0341093D02*
X0267213Y0341093D01*
X0267213Y0339495D02*
X0247817Y0339495D01*
X0247817Y0337896D02*
X0267213Y0337896D01*
X0267213Y0336298D02*
X0247817Y0336298D01*
X0247817Y0334699D02*
X0267213Y0334699D01*
X0267213Y0333101D02*
X0247817Y0333101D01*
X0247817Y0331502D02*
X0267213Y0331502D01*
X0267213Y0329904D02*
X0247817Y0329904D01*
X0247817Y0328305D02*
X0267213Y0328305D01*
X0267213Y0326707D02*
X0247817Y0326707D01*
X0247817Y0325108D02*
X0267213Y0325108D01*
X0267213Y0323510D02*
X0247817Y0323510D01*
X0247817Y0321911D02*
X0267213Y0321911D01*
X0267213Y0320313D02*
X0247817Y0320313D01*
X0247817Y0318714D02*
X0267213Y0318714D01*
X0267213Y0317116D02*
X0247817Y0317116D01*
X0247817Y0315517D02*
X0267213Y0315517D01*
X0267213Y0313919D02*
X0247817Y0313919D01*
X0247817Y0312320D02*
X0267213Y0312320D01*
X0267213Y0310722D02*
X0247817Y0310722D01*
X0247817Y0309123D02*
X0267213Y0309123D01*
X0267213Y0307525D02*
X0247817Y0307525D01*
X0248986Y0305926D02*
X0267213Y0305926D01*
X0267213Y0304328D02*
X0248986Y0304328D01*
X0248986Y0302729D02*
X0267213Y0302729D01*
X0267213Y0301131D02*
X0248986Y0301131D01*
X0247817Y0299532D02*
X0267213Y0299532D01*
X0267213Y0297934D02*
X0247817Y0297934D01*
X0247817Y0296335D02*
X0267213Y0296335D01*
X0267213Y0294737D02*
X0247817Y0294737D01*
X0247817Y0293138D02*
X0267213Y0293138D01*
X0267213Y0291539D02*
X0247817Y0291539D01*
X0247817Y0289941D02*
X0267213Y0289941D01*
X0267213Y0288342D02*
X0247817Y0288342D01*
X0247817Y0286744D02*
X0267213Y0286744D01*
X0267213Y0285145D02*
X0247817Y0285145D01*
X0247817Y0283547D02*
X0267213Y0283547D01*
X0267213Y0281948D02*
X0247817Y0281948D01*
X0247817Y0280350D02*
X0267213Y0280350D01*
X0267213Y0278751D02*
X0247817Y0278751D01*
X0247817Y0277153D02*
X0267213Y0277153D01*
X0267213Y0275554D02*
X0247817Y0275554D01*
X0247817Y0273956D02*
X0267213Y0273956D01*
X0267213Y0272357D02*
X0247817Y0272357D01*
X0247817Y0270759D02*
X0267213Y0270759D01*
X0267213Y0269160D02*
X0247817Y0269160D01*
X0247817Y0267562D02*
X0267213Y0267562D01*
X0267213Y0265963D02*
X0248986Y0265963D01*
X0248986Y0264365D02*
X0267213Y0264365D01*
X0267213Y0262766D02*
X0248986Y0262766D01*
X0248986Y0261168D02*
X0267213Y0261168D01*
X0267213Y0259569D02*
X0223907Y0259569D01*
X0225403Y0261168D02*
X0222309Y0261168D01*
X0225506Y0257971D02*
X0267213Y0257971D01*
X0267213Y0240387D02*
X0013584Y0240387D01*
X0013584Y0238789D02*
X0267213Y0238789D01*
X0267213Y0237190D02*
X0013584Y0237190D01*
X0013584Y0235592D02*
X0267213Y0235592D01*
X0267213Y0233993D02*
X0013584Y0233993D01*
X0013584Y0232395D02*
X0267213Y0232395D01*
X0267213Y0230796D02*
X0013584Y0230796D01*
X0013584Y0229198D02*
X0267213Y0229198D01*
X0267213Y0227599D02*
X0013584Y0227599D01*
X0013584Y0226001D02*
X0267213Y0226001D01*
X0267213Y0224402D02*
X0013584Y0224402D01*
X0013584Y0222803D02*
X0267213Y0222803D01*
X0267213Y0221205D02*
X0013584Y0221205D01*
X0013584Y0219606D02*
X0267213Y0219606D01*
X0267213Y0218008D02*
X0013584Y0218008D01*
X0013584Y0216409D02*
X0267213Y0216409D01*
X0267213Y0214811D02*
X0013584Y0214811D01*
X0013584Y0210015D02*
X0040819Y0210015D01*
X0040819Y0208417D02*
X0013584Y0208417D01*
X0013584Y0206818D02*
X0040819Y0206818D01*
X0040871Y0205220D02*
X0013584Y0205220D01*
X0013584Y0200424D02*
X0040819Y0200424D01*
X0040819Y0198826D02*
X0013584Y0198826D01*
X0013584Y0197227D02*
X0040819Y0197227D01*
X0040819Y0195629D02*
X0013584Y0195629D01*
X0013584Y0190833D02*
X0040819Y0190833D01*
X0040819Y0189235D02*
X0013584Y0189235D01*
X0013584Y0187636D02*
X0040819Y0187636D01*
X0040819Y0186038D02*
X0013584Y0186038D01*
X0013584Y0184439D02*
X0041345Y0184439D01*
X0041056Y0181242D02*
X0013584Y0181242D01*
X0013584Y0179644D02*
X0040819Y0179644D01*
X0040819Y0178045D02*
X0013584Y0178045D01*
X0013584Y0176447D02*
X0040819Y0176447D01*
X0048192Y0184439D02*
X0073244Y0184439D01*
X0073464Y0186038D02*
X0048718Y0186038D01*
X0048718Y0187636D02*
X0074607Y0187636D01*
X0073763Y0182841D02*
X0013584Y0182841D01*
X0064810Y0246781D02*
X0065952Y0246781D01*
X0062517Y0249517D02*
X0070186Y0249517D01*
X0074993Y0256372D02*
X0048342Y0256372D01*
X0048236Y0262766D02*
X0079978Y0262766D01*
X0080019Y0264365D02*
X0013584Y0264365D01*
X0013584Y0265963D02*
X0080934Y0265963D01*
X0083517Y0263517D02*
X0094170Y0263517D01*
X0090614Y0265963D02*
X0086099Y0265963D01*
X0080836Y0261168D02*
X0077742Y0261168D01*
X0082701Y0256372D02*
X0086647Y0256372D01*
X0084670Y0252863D02*
X0089517Y0252863D01*
X0085875Y0243584D02*
X0083187Y0243584D01*
X0098476Y0267562D02*
X0013584Y0267562D01*
X0013584Y0269160D02*
X0098476Y0269160D01*
X0098476Y0270759D02*
X0013584Y0270759D01*
X0013584Y0272357D02*
X0098476Y0272357D01*
X0098476Y0273956D02*
X0013584Y0273956D01*
X0013584Y0275554D02*
X0098476Y0275554D01*
X0098476Y0277153D02*
X0013584Y0277153D01*
X0013584Y0278751D02*
X0098476Y0278751D01*
X0098476Y0280350D02*
X0013584Y0280350D01*
X0013584Y0281948D02*
X0098476Y0281948D01*
X0098476Y0283547D02*
X0093137Y0283547D01*
X0093161Y0283589D02*
X0093269Y0283993D01*
X0093269Y0285986D01*
X0089701Y0285986D01*
X0089701Y0282614D01*
X0091891Y0282614D01*
X0092295Y0282722D01*
X0092657Y0282931D01*
X0092952Y0283227D01*
X0093161Y0283589D01*
X0093269Y0285145D02*
X0098476Y0285145D01*
X0098476Y0286744D02*
X0093269Y0286744D01*
X0093269Y0288342D02*
X0098476Y0288342D01*
X0095130Y0289941D02*
X0092973Y0289941D01*
X0089517Y0292863D02*
X0084670Y0292863D01*
X0084276Y0293257D01*
X0078847Y0293257D01*
X0078847Y0296686D01*
X0076017Y0299517D01*
X0044517Y0299517D01*
X0040567Y0299532D02*
X0013584Y0299532D01*
X0013584Y0297934D02*
X0040567Y0297934D01*
X0040729Y0296335D02*
X0013584Y0296335D01*
X0013584Y0294737D02*
X0074504Y0294737D01*
X0074504Y0293138D02*
X0013584Y0293138D01*
X0013584Y0291539D02*
X0059511Y0291539D01*
X0058961Y0289941D02*
X0013584Y0289941D01*
X0013584Y0288342D02*
X0059154Y0288342D01*
X0060260Y0286744D02*
X0013584Y0286744D01*
X0013584Y0285145D02*
X0074504Y0285145D01*
X0074504Y0285592D02*
X0074504Y0283599D01*
X0074612Y0283195D01*
X0074821Y0282833D01*
X0075117Y0282538D01*
X0075479Y0282329D01*
X0075882Y0282220D01*
X0078663Y0282220D01*
X0078663Y0285592D01*
X0079031Y0285592D01*
X0079031Y0282220D01*
X0081812Y0282220D01*
X0082216Y0282329D01*
X0082578Y0282538D01*
X0082873Y0282833D01*
X0083082Y0283195D01*
X0083191Y0283599D01*
X0083191Y0285592D01*
X0079032Y0285592D01*
X0079032Y0285961D01*
X0083191Y0285961D01*
X0083191Y0287954D01*
X0083082Y0288358D01*
X0082873Y0288720D01*
X0082578Y0289015D01*
X0082216Y0289224D01*
X0081812Y0289332D01*
X0079031Y0289332D01*
X0079031Y0285961D01*
X0078663Y0285961D01*
X0078663Y0285592D01*
X0074504Y0285592D01*
X0074504Y0286744D02*
X0074383Y0286744D01*
X0074529Y0288342D02*
X0074608Y0288342D01*
X0074529Y0289941D02*
X0075194Y0289941D01*
X0078663Y0288342D02*
X0079031Y0288342D01*
X0079031Y0286744D02*
X0078663Y0286744D01*
X0078663Y0285145D02*
X0079031Y0285145D01*
X0079031Y0283547D02*
X0078663Y0283547D01*
X0074518Y0283547D02*
X0013584Y0283547D01*
X0013584Y0301131D02*
X0040567Y0301131D01*
X0040760Y0302729D02*
X0013584Y0302729D01*
X0013584Y0304328D02*
X0080004Y0304328D01*
X0079994Y0302729D02*
X0048273Y0302729D01*
X0048304Y0296335D02*
X0074956Y0296335D01*
X0079377Y0299532D02*
X0098476Y0299532D01*
X0098476Y0297934D02*
X0080976Y0297934D01*
X0082738Y0296335D02*
X0086610Y0296335D01*
X0080874Y0301131D02*
X0077779Y0301131D01*
X0080897Y0305926D02*
X0013584Y0305926D01*
X0013584Y0307525D02*
X0098476Y0307525D01*
X0098476Y0309123D02*
X0013584Y0309123D01*
X0013584Y0310722D02*
X0098476Y0310722D01*
X0098476Y0312320D02*
X0013584Y0312320D01*
X0013584Y0313919D02*
X0098476Y0313919D01*
X0098476Y0315517D02*
X0013584Y0315517D01*
X0013584Y0317116D02*
X0098476Y0317116D01*
X0098476Y0318714D02*
X0013584Y0318714D01*
X0013584Y0320313D02*
X0098476Y0320313D01*
X0098476Y0321911D02*
X0013584Y0321911D01*
X0013584Y0323510D02*
X0098476Y0323510D01*
X0098476Y0325108D02*
X0013584Y0325108D01*
X0013584Y0326707D02*
X0098476Y0326707D01*
X0098476Y0328305D02*
X0092997Y0328305D01*
X0092952Y0328227D02*
X0093161Y0328589D01*
X0093269Y0328993D01*
X0093269Y0330986D01*
X0089701Y0330986D01*
X0089701Y0327614D01*
X0091891Y0327614D01*
X0092295Y0327722D01*
X0092657Y0327931D01*
X0092952Y0328227D01*
X0093269Y0329904D02*
X0098476Y0329904D01*
X0098476Y0331502D02*
X0093269Y0331502D01*
X0093269Y0333101D02*
X0098476Y0333101D01*
X0095494Y0334699D02*
X0092732Y0334699D01*
X0089517Y0337863D02*
X0085170Y0337863D01*
X0084776Y0338257D01*
X0078847Y0338257D01*
X0078847Y0341686D01*
X0076017Y0344517D01*
X0044517Y0344517D01*
X0040567Y0344290D02*
X0013584Y0344290D01*
X0013584Y0342692D02*
X0040567Y0342692D01*
X0040970Y0341093D02*
X0013584Y0341093D01*
X0013584Y0339495D02*
X0074504Y0339495D01*
X0074504Y0337896D02*
X0073775Y0337896D01*
X0074529Y0334699D02*
X0086301Y0334699D01*
X0085764Y0333101D02*
X0083151Y0333101D01*
X0083191Y0331502D02*
X0085764Y0331502D01*
X0085764Y0329904D02*
X0083191Y0329904D01*
X0083112Y0328305D02*
X0086036Y0328305D01*
X0089332Y0328305D02*
X0089701Y0328305D01*
X0089701Y0329904D02*
X0089332Y0329904D01*
X0079031Y0329904D02*
X0078663Y0329904D01*
X0078663Y0330592D02*
X0074504Y0330592D01*
X0074504Y0330961D02*
X0078663Y0330961D01*
X0078663Y0330592D01*
X0078663Y0331502D02*
X0079031Y0331502D01*
X0079031Y0333101D02*
X0078663Y0333101D01*
X0074543Y0333101D02*
X0074529Y0333101D01*
X0074504Y0331865D02*
X0074504Y0330961D01*
X0074504Y0331502D02*
X0074141Y0331502D01*
X0074504Y0331865D02*
X0073599Y0330961D01*
X0066772Y0330961D01*
X0065843Y0331891D01*
X0065843Y0332129D01*
X0065658Y0332129D01*
X0065031Y0331502D01*
X0063724Y0330961D01*
X0062309Y0330961D01*
X0061002Y0331502D01*
X0059754Y0333101D02*
X0013584Y0333101D01*
X0013584Y0334699D02*
X0059461Y0334699D01*
X0059905Y0336298D02*
X0013584Y0336298D01*
X0013584Y0337896D02*
X0061884Y0337896D01*
X0064149Y0337896D02*
X0066596Y0337896D01*
X0063017Y0334517D02*
X0070186Y0334517D01*
X0066231Y0331502D02*
X0065031Y0331502D01*
X0074583Y0328305D02*
X0013584Y0328305D01*
X0013584Y0345889D02*
X0040567Y0345889D01*
X0040567Y0347487D02*
X0013584Y0347487D01*
X0013584Y0349086D02*
X0079961Y0349086D01*
X0080151Y0350684D02*
X0013584Y0350684D01*
X0013584Y0352283D02*
X0081254Y0352283D01*
X0083517Y0349517D02*
X0094170Y0349517D01*
X0090614Y0352283D02*
X0085779Y0352283D01*
X0091419Y0345889D02*
X0078020Y0345889D01*
X0079619Y0344290D02*
X0098476Y0344290D01*
X0098476Y0342692D02*
X0081218Y0342692D01*
X0082980Y0341093D02*
X0086368Y0341093D01*
X0092665Y0341093D02*
X0095959Y0341093D01*
X0096921Y0345889D02*
X0098112Y0345889D01*
X0103250Y0344290D02*
X0112850Y0344290D01*
X0112850Y0342692D02*
X0103250Y0342692D01*
X0103250Y0341093D02*
X0113254Y0341093D01*
X0112850Y0345889D02*
X0103614Y0345889D01*
X0104419Y0347487D02*
X0112850Y0347487D01*
X0116800Y0344517D02*
X0148300Y0344517D01*
X0151131Y0341686D01*
X0151131Y0338257D01*
X0156560Y0338257D01*
X0156954Y0337863D01*
X0161800Y0337863D01*
X0165015Y0334699D02*
X0167494Y0334699D01*
X0165553Y0333101D02*
X0170759Y0333101D01*
X0170759Y0331502D02*
X0165553Y0331502D01*
X0165553Y0329904D02*
X0170759Y0329904D01*
X0170759Y0328305D02*
X0165281Y0328305D01*
X0161984Y0328305D02*
X0161616Y0328305D01*
X0161616Y0327614D02*
X0161616Y0330986D01*
X0158047Y0330986D01*
X0158047Y0328993D01*
X0158155Y0328589D01*
X0158364Y0328227D01*
X0158660Y0327931D01*
X0159022Y0327722D01*
X0159426Y0327614D01*
X0161616Y0327614D01*
X0161616Y0329904D02*
X0161984Y0329904D01*
X0158047Y0329904D02*
X0155474Y0329904D01*
X0155474Y0330592D02*
X0151315Y0330592D01*
X0151315Y0327220D01*
X0154096Y0327220D01*
X0154499Y0327329D01*
X0154861Y0327538D01*
X0155157Y0327833D01*
X0155366Y0328195D01*
X0155474Y0328599D01*
X0155474Y0330592D01*
X0155474Y0330961D02*
X0155474Y0332954D01*
X0155366Y0333358D01*
X0155157Y0333720D01*
X0154861Y0334015D01*
X0154499Y0334224D01*
X0154096Y0334332D01*
X0151315Y0334332D01*
X0151315Y0330961D01*
X0150946Y0330961D01*
X0150946Y0330592D01*
X0146787Y0330592D01*
X0146787Y0328599D01*
X0146896Y0328195D01*
X0147105Y0327833D01*
X0147400Y0327538D01*
X0147762Y0327329D01*
X0148166Y0327220D01*
X0150946Y0327220D01*
X0150946Y0330592D01*
X0151315Y0330592D01*
X0151315Y0330961D01*
X0155474Y0330961D01*
X0155474Y0331502D02*
X0158047Y0331502D01*
X0158047Y0333101D02*
X0155435Y0333101D01*
X0158585Y0334699D02*
X0146813Y0334699D01*
X0146813Y0333101D02*
X0146827Y0333101D01*
X0146787Y0331502D02*
X0146424Y0331502D01*
X0146787Y0329904D02*
X0103250Y0329904D01*
X0103250Y0331502D02*
X0133785Y0331502D01*
X0132538Y0333101D02*
X0103250Y0333101D01*
X0103250Y0334699D02*
X0132244Y0334699D01*
X0132689Y0336298D02*
X0103250Y0336298D01*
X0103250Y0337896D02*
X0134667Y0337896D01*
X0136933Y0337896D02*
X0138880Y0337896D01*
X0135800Y0334517D02*
X0142469Y0334517D01*
X0146059Y0337896D02*
X0146787Y0337896D01*
X0146787Y0339495D02*
X0103250Y0339495D01*
X0104419Y0349086D02*
X0152244Y0349086D01*
X0152435Y0350684D02*
X0104419Y0350684D01*
X0104419Y0352283D02*
X0153538Y0352283D01*
X0155800Y0349517D02*
X0166454Y0349517D01*
X0162898Y0352283D02*
X0158062Y0352283D01*
X0163702Y0345889D02*
X0150304Y0345889D01*
X0151902Y0344290D02*
X0170759Y0344290D01*
X0170759Y0342692D02*
X0153501Y0342692D01*
X0155263Y0341093D02*
X0158652Y0341093D01*
X0164948Y0341093D02*
X0167959Y0341093D01*
X0170641Y0341093D02*
X0170759Y0341093D01*
X0175534Y0341093D02*
X0185537Y0341093D01*
X0185134Y0341497D02*
X0186064Y0340567D01*
X0192103Y0340567D01*
X0193033Y0341497D01*
X0193033Y0342129D01*
X0219595Y0342129D01*
X0219956Y0341768D01*
X0219071Y0340883D01*
X0219071Y0337168D01*
X0218166Y0338072D01*
X0211339Y0338072D01*
X0210409Y0337143D01*
X0210409Y0336904D01*
X0209725Y0336904D01*
X0209098Y0337531D01*
X0207791Y0338072D01*
X0206376Y0338072D01*
X0205069Y0337531D01*
X0204069Y0336531D01*
X0203528Y0335224D01*
X0203528Y0333809D01*
X0204069Y0332502D01*
X0205069Y0331502D01*
X0206376Y0330961D01*
X0207791Y0330961D01*
X0209098Y0331502D01*
X0210798Y0331502D01*
X0210409Y0331891D02*
X0211339Y0330961D01*
X0218166Y0330961D01*
X0219071Y0331865D01*
X0219071Y0330961D01*
X0223230Y0330961D01*
X0223230Y0334332D01*
X0220449Y0334332D01*
X0220046Y0334224D01*
X0219684Y0334015D01*
X0219388Y0333720D01*
X0219179Y0333358D01*
X0219096Y0333048D01*
X0219096Y0335605D01*
X0220001Y0334701D01*
X0226828Y0334701D01*
X0227757Y0335631D01*
X0227757Y0335869D01*
X0227854Y0335869D01*
X0228248Y0335476D01*
X0230331Y0335476D01*
X0230331Y0335237D01*
X0231080Y0334488D01*
X0230943Y0334409D01*
X0230648Y0334113D01*
X0230439Y0333751D01*
X0230331Y0333348D01*
X0230331Y0331354D01*
X0233899Y0331354D01*
X0233899Y0330986D01*
X0230331Y0330986D01*
X0230331Y0328993D01*
X0230439Y0328589D01*
X0230648Y0328227D01*
X0230943Y0327931D01*
X0231305Y0327722D01*
X0231709Y0327614D01*
X0233899Y0327614D01*
X0233899Y0330986D01*
X0234268Y0330986D01*
X0234268Y0331354D01*
X0237836Y0331354D01*
X0237836Y0333348D01*
X0237728Y0333751D01*
X0237519Y0334113D01*
X0237223Y0334409D01*
X0237087Y0334488D01*
X0237836Y0335237D01*
X0237836Y0340489D01*
X0236906Y0341419D01*
X0231261Y0341419D01*
X0230331Y0340489D01*
X0230331Y0340250D01*
X0230226Y0340250D01*
X0229832Y0340644D01*
X0227757Y0340644D01*
X0227757Y0340883D01*
X0226828Y0341813D01*
X0225802Y0341813D01*
X0225802Y0342675D01*
X0222971Y0345505D01*
X0221572Y0346904D01*
X0193033Y0346904D01*
X0193033Y0347536D01*
X0192103Y0348466D01*
X0186064Y0348466D01*
X0185134Y0347536D01*
X0185134Y0341497D01*
X0185134Y0342692D02*
X0175534Y0342692D01*
X0175534Y0344290D02*
X0185134Y0344290D01*
X0185134Y0345889D02*
X0175898Y0345889D01*
X0176702Y0347487D02*
X0185134Y0347487D01*
X0189083Y0344517D02*
X0220583Y0344517D01*
X0223414Y0341686D01*
X0223414Y0338257D01*
X0228843Y0338257D01*
X0229237Y0337863D01*
X0234083Y0337863D01*
X0237836Y0337896D02*
X0243043Y0337896D01*
X0243043Y0336298D02*
X0237836Y0336298D01*
X0237299Y0334699D02*
X0243043Y0334699D01*
X0243043Y0333101D02*
X0237836Y0333101D01*
X0237836Y0331502D02*
X0243043Y0331502D01*
X0243043Y0329904D02*
X0237836Y0329904D01*
X0237836Y0328993D02*
X0237836Y0330986D01*
X0234268Y0330986D01*
X0234268Y0327614D01*
X0236458Y0327614D01*
X0236862Y0327722D01*
X0237223Y0327931D01*
X0237519Y0328227D01*
X0237728Y0328589D01*
X0237836Y0328993D01*
X0237564Y0328305D02*
X0243043Y0328305D01*
X0243043Y0326707D02*
X0175534Y0326707D01*
X0175534Y0328305D02*
X0219150Y0328305D01*
X0219179Y0328195D02*
X0219388Y0327833D01*
X0219684Y0327538D01*
X0220046Y0327329D01*
X0220449Y0327220D01*
X0223230Y0327220D01*
X0223230Y0330592D01*
X0223598Y0330592D01*
X0223598Y0327220D01*
X0226379Y0327220D01*
X0226783Y0327329D01*
X0227145Y0327538D01*
X0227440Y0327833D01*
X0227649Y0328195D01*
X0227757Y0328599D01*
X0227757Y0330592D01*
X0223598Y0330592D01*
X0223598Y0330961D01*
X0223230Y0330961D01*
X0223230Y0330592D01*
X0219071Y0330592D01*
X0219071Y0328599D01*
X0219179Y0328195D01*
X0219071Y0329904D02*
X0175534Y0329904D01*
X0175534Y0331502D02*
X0205069Y0331502D01*
X0203821Y0333101D02*
X0175534Y0333101D01*
X0175534Y0334699D02*
X0203528Y0334699D01*
X0203972Y0336298D02*
X0175534Y0336298D01*
X0175534Y0337896D02*
X0205951Y0337896D01*
X0208216Y0337896D02*
X0211163Y0337896D01*
X0214753Y0334517D02*
X0207083Y0334517D01*
X0209725Y0332129D02*
X0209098Y0331502D01*
X0209725Y0332129D02*
X0210409Y0332129D01*
X0210409Y0331891D01*
X0218342Y0337896D02*
X0219071Y0337896D01*
X0219071Y0339495D02*
X0175534Y0339495D01*
X0170395Y0345889D02*
X0169205Y0345889D01*
X0173146Y0349517D02*
X0173146Y0303517D01*
X0173146Y0263517D01*
X0176702Y0265963D02*
X0225501Y0265963D01*
X0228083Y0263517D02*
X0238737Y0263517D01*
X0235181Y0265963D02*
X0230665Y0265963D01*
X0231214Y0256372D02*
X0227268Y0256372D01*
X0227105Y0249978D02*
X0230589Y0249978D01*
X0230339Y0248380D02*
X0227637Y0248380D01*
X0227649Y0248358D02*
X0227440Y0248720D01*
X0227145Y0249015D01*
X0226783Y0249224D01*
X0226379Y0249332D01*
X0223598Y0249332D01*
X0223598Y0245961D01*
X0227757Y0245961D01*
X0227757Y0247954D01*
X0227649Y0248358D01*
X0227757Y0246781D02*
X0230331Y0246781D01*
X0230331Y0245183D02*
X0227757Y0245183D01*
X0227754Y0243584D02*
X0230442Y0243584D01*
X0233899Y0243584D02*
X0234268Y0243584D01*
X0234268Y0245183D02*
X0233899Y0245183D01*
X0223598Y0245183D02*
X0223230Y0245183D01*
X0223230Y0246781D02*
X0223598Y0246781D01*
X0223598Y0248380D02*
X0223230Y0248380D01*
X0223230Y0243584D02*
X0223598Y0243584D01*
X0219075Y0243584D02*
X0165442Y0243584D01*
X0161984Y0243584D02*
X0161616Y0243584D01*
X0161616Y0245183D02*
X0161984Y0245183D01*
X0153120Y0261168D02*
X0150025Y0261168D01*
X0158382Y0265963D02*
X0162898Y0265963D01*
X0175534Y0267562D02*
X0243043Y0267562D01*
X0243043Y0269160D02*
X0175534Y0269160D01*
X0175534Y0270759D02*
X0243043Y0270759D01*
X0243043Y0272357D02*
X0175534Y0272357D01*
X0175534Y0273956D02*
X0243043Y0273956D01*
X0243043Y0275554D02*
X0175534Y0275554D01*
X0175534Y0277153D02*
X0243043Y0277153D01*
X0243043Y0278751D02*
X0175534Y0278751D01*
X0175534Y0280350D02*
X0243043Y0280350D01*
X0243043Y0281948D02*
X0175534Y0281948D01*
X0175534Y0283547D02*
X0219085Y0283547D01*
X0219071Y0283599D02*
X0219179Y0283195D01*
X0219388Y0282833D01*
X0219684Y0282538D01*
X0220046Y0282329D01*
X0220449Y0282220D01*
X0223230Y0282220D01*
X0223230Y0285592D01*
X0223598Y0285592D01*
X0223598Y0282220D01*
X0226379Y0282220D01*
X0226783Y0282329D01*
X0227145Y0282538D01*
X0227440Y0282833D01*
X0227649Y0283195D01*
X0227757Y0283599D01*
X0227757Y0285592D01*
X0223598Y0285592D01*
X0223598Y0285961D01*
X0223230Y0285961D01*
X0223230Y0285592D01*
X0219071Y0285592D01*
X0219071Y0283599D01*
X0219071Y0285145D02*
X0175534Y0285145D01*
X0175534Y0286744D02*
X0204827Y0286744D01*
X0203721Y0288342D02*
X0175534Y0288342D01*
X0175534Y0289941D02*
X0203528Y0289941D01*
X0204078Y0291539D02*
X0175534Y0291539D01*
X0175534Y0293138D02*
X0219071Y0293138D01*
X0219071Y0294737D02*
X0175534Y0294737D01*
X0176702Y0304328D02*
X0224571Y0304328D01*
X0224561Y0302729D02*
X0192840Y0302729D01*
X0192871Y0296335D02*
X0219523Y0296335D01*
X0222346Y0301131D02*
X0225441Y0301131D01*
X0228083Y0303517D02*
X0238737Y0303517D01*
X0235181Y0305926D02*
X0230703Y0305926D01*
X0225464Y0305926D02*
X0176702Y0305926D01*
X0175534Y0307525D02*
X0243043Y0307525D01*
X0243043Y0309123D02*
X0175534Y0309123D01*
X0175534Y0310722D02*
X0243043Y0310722D01*
X0243043Y0312320D02*
X0175534Y0312320D01*
X0175534Y0313919D02*
X0243043Y0313919D01*
X0243043Y0315517D02*
X0175534Y0315517D01*
X0175534Y0317116D02*
X0243043Y0317116D01*
X0243043Y0318714D02*
X0175534Y0318714D01*
X0175534Y0320313D02*
X0243043Y0320313D01*
X0243043Y0321911D02*
X0175534Y0321911D01*
X0175534Y0323510D02*
X0243043Y0323510D01*
X0243043Y0325108D02*
X0175534Y0325108D01*
X0170759Y0325108D02*
X0103250Y0325108D01*
X0103250Y0323510D02*
X0170759Y0323510D01*
X0170759Y0321911D02*
X0103250Y0321911D01*
X0103250Y0320313D02*
X0170759Y0320313D01*
X0170759Y0318714D02*
X0103250Y0318714D01*
X0103250Y0317116D02*
X0170759Y0317116D01*
X0170759Y0315517D02*
X0103250Y0315517D01*
X0103250Y0313919D02*
X0170759Y0313919D01*
X0170759Y0312320D02*
X0103250Y0312320D01*
X0103250Y0310722D02*
X0170759Y0310722D01*
X0170759Y0309123D02*
X0103250Y0309123D01*
X0103250Y0307525D02*
X0170759Y0307525D01*
X0170759Y0326707D02*
X0103250Y0326707D01*
X0103250Y0328305D02*
X0146866Y0328305D01*
X0150946Y0328305D02*
X0151315Y0328305D01*
X0151315Y0329904D02*
X0150946Y0329904D01*
X0150946Y0331502D02*
X0151315Y0331502D01*
X0151315Y0333101D02*
X0150946Y0333101D01*
X0155395Y0328305D02*
X0158319Y0328305D01*
X0146998Y0341093D02*
X0120346Y0341093D01*
X0120750Y0347487D02*
X0152800Y0347487D01*
X0138514Y0331502D02*
X0137815Y0331502D01*
X0170059Y0353881D02*
X0104258Y0353881D01*
X0100702Y0357078D02*
X0013584Y0357078D01*
X0013584Y0355480D02*
X0099104Y0355480D01*
X0098476Y0353881D02*
X0013584Y0353881D01*
X0013584Y0358677D02*
X0102301Y0358677D01*
X0087789Y0373064D02*
X0136972Y0373064D01*
X0140946Y0373064D02*
X0141315Y0373064D01*
X0141315Y0374662D02*
X0140946Y0374662D01*
X0140946Y0376261D02*
X0141315Y0376261D01*
X0141315Y0377859D02*
X0140946Y0377859D01*
X0141131Y0383257D02*
X0141131Y0387686D01*
X0134300Y0394517D01*
X0116800Y0394517D01*
X0112850Y0393844D02*
X0108504Y0393844D01*
X0106905Y0392246D02*
X0112850Y0392246D01*
X0113700Y0390647D02*
X0105307Y0390647D01*
X0103708Y0389049D02*
X0136392Y0389049D01*
X0137990Y0387450D02*
X0071235Y0387450D01*
X0073191Y0385852D02*
X0081126Y0385852D01*
X0076900Y0381056D02*
X0075944Y0381056D01*
X0079687Y0379458D02*
X0081461Y0379458D01*
X0080764Y0377859D02*
X0079687Y0377859D01*
X0079687Y0376261D02*
X0084332Y0376261D01*
X0084701Y0376261D02*
X0124369Y0376261D01*
X0127231Y0376261D02*
X0128756Y0376261D01*
X0125800Y0379517D02*
X0132469Y0379517D01*
X0128638Y0382655D02*
X0127516Y0382655D01*
X0136301Y0382655D02*
X0136787Y0382655D01*
X0136787Y0384253D02*
X0088269Y0384253D01*
X0087907Y0385852D02*
X0136787Y0385852D01*
X0141131Y0383257D02*
X0149060Y0383257D01*
X0149454Y0382863D01*
X0156800Y0382863D01*
X0160553Y0384253D02*
X0209071Y0384253D01*
X0209071Y0382655D02*
X0208584Y0382655D01*
X0209071Y0385852D02*
X0160190Y0385852D01*
X0153410Y0385852D02*
X0145474Y0385852D01*
X0143518Y0387450D02*
X0210274Y0387450D01*
X0215332Y0393844D02*
X0215379Y0393844D01*
X0215331Y0395443D02*
X0213734Y0395443D01*
X0215331Y0397041D02*
X0212135Y0397041D01*
X0210537Y0398640D02*
X0215331Y0398640D01*
X0215331Y0400238D02*
X0208938Y0400238D01*
X0207340Y0401837D02*
X0216696Y0401837D01*
X0216636Y0403435D02*
X0149248Y0403435D01*
X0149187Y0401837D02*
X0182427Y0401837D01*
X0180829Y0400238D02*
X0150553Y0400238D01*
X0150553Y0398640D02*
X0179230Y0398640D01*
X0177632Y0397041D02*
X0150553Y0397041D01*
X0150553Y0395443D02*
X0176033Y0395443D01*
X0174435Y0393844D02*
X0150505Y0393844D01*
X0146800Y0391170D02*
X0175137Y0391170D01*
X0183483Y0399517D01*
X0199515Y0376261D02*
X0201039Y0376261D01*
X0208466Y0376261D02*
X0209071Y0376261D01*
X0209071Y0375592D02*
X0209071Y0373599D01*
X0209179Y0373195D01*
X0209388Y0372833D01*
X0209684Y0372538D01*
X0210046Y0372329D01*
X0210449Y0372220D01*
X0213230Y0372220D01*
X0213230Y0375592D01*
X0209071Y0375592D01*
X0209071Y0374662D02*
X0160553Y0374662D01*
X0160072Y0373064D02*
X0209255Y0373064D01*
X0213230Y0373064D02*
X0213598Y0373064D01*
X0213598Y0374662D02*
X0213230Y0374662D01*
X0213230Y0376261D02*
X0213598Y0376261D01*
X0213598Y0377859D02*
X0213230Y0377859D01*
X0217757Y0374662D02*
X0225331Y0374662D01*
X0225811Y0373064D02*
X0217573Y0373064D01*
X0228899Y0373064D02*
X0229268Y0373064D01*
X0229268Y0372614D02*
X0231458Y0372614D01*
X0231862Y0372722D01*
X0232223Y0372931D01*
X0232519Y0373227D01*
X0232728Y0373589D01*
X0232836Y0373993D01*
X0232836Y0375986D01*
X0229268Y0375986D01*
X0229268Y0372614D01*
X0229268Y0374662D02*
X0228899Y0374662D01*
X0232356Y0373064D02*
X0255160Y0373064D01*
X0253562Y0374662D02*
X0232836Y0374662D01*
X0244299Y0358677D02*
X0267213Y0358677D01*
X0267213Y0360275D02*
X0013584Y0360275D01*
X0013584Y0361874D02*
X0266350Y0361874D01*
X0264751Y0363472D02*
X0013584Y0363472D01*
X0013584Y0365071D02*
X0263153Y0365071D01*
X0261554Y0366670D02*
X0013584Y0366670D01*
X0013584Y0368268D02*
X0076535Y0368268D01*
X0078065Y0368268D02*
X0259956Y0368268D01*
X0258357Y0369867D02*
X0080348Y0369867D01*
X0080856Y0371465D02*
X0256759Y0371465D01*
X0238737Y0349517D02*
X0228083Y0349517D01*
X0224718Y0350684D02*
X0176702Y0350684D01*
X0176702Y0349086D02*
X0224528Y0349086D01*
X0225084Y0347487D02*
X0193033Y0347487D01*
X0192630Y0341093D02*
X0219281Y0341093D01*
X0222587Y0345889D02*
X0235986Y0345889D01*
X0237232Y0341093D02*
X0243043Y0341093D01*
X0243043Y0339495D02*
X0237836Y0339495D01*
X0243043Y0342692D02*
X0225784Y0342692D01*
X0224186Y0344290D02*
X0243043Y0344290D01*
X0242679Y0345889D02*
X0241488Y0345889D01*
X0235181Y0352283D02*
X0230346Y0352283D01*
X0225821Y0352283D02*
X0176702Y0352283D01*
X0176162Y0357078D02*
X0170238Y0357078D01*
X0156984Y0373064D02*
X0156616Y0373064D01*
X0156616Y0374662D02*
X0156984Y0374662D01*
X0153528Y0373064D02*
X0145290Y0373064D01*
X0145474Y0374662D02*
X0153047Y0374662D01*
X0146746Y0391117D02*
X0143000Y0391117D01*
X0134200Y0399917D01*
X0111200Y0399917D01*
X0102454Y0391170D01*
X0074517Y0391170D01*
X0070764Y0390647D02*
X0069262Y0390647D01*
X0070764Y0392246D02*
X0067664Y0392246D01*
X0066065Y0393844D02*
X0070812Y0393844D01*
X0070764Y0395443D02*
X0064467Y0395443D01*
X0062510Y0390647D02*
X0047617Y0390647D01*
X0041417Y0390647D02*
X0013584Y0390647D01*
X0013584Y0389049D02*
X0064108Y0389049D01*
X0065707Y0387450D02*
X0013584Y0387450D01*
X0013584Y0385852D02*
X0064504Y0385852D01*
X0056355Y0382655D02*
X0055233Y0382655D01*
X0040567Y0392246D02*
X0013584Y0392246D01*
X0013584Y0393844D02*
X0040567Y0393844D01*
X0040567Y0395443D02*
X0013584Y0395443D01*
X0013584Y0397041D02*
X0040567Y0397041D01*
X0013584Y0371465D02*
X0073744Y0371465D01*
X0074252Y0369867D02*
X0013584Y0369867D01*
X0048466Y0347487D02*
X0080517Y0347487D01*
X0074715Y0341093D02*
X0048063Y0341093D01*
X0078663Y0328305D02*
X0079031Y0328305D01*
X0086136Y0305926D02*
X0090614Y0305926D01*
X0094170Y0303517D02*
X0083517Y0303517D01*
X0092423Y0296335D02*
X0096542Y0296335D01*
X0098058Y0296335D02*
X0098476Y0296335D01*
X0086060Y0289941D02*
X0082501Y0289941D01*
X0083086Y0288342D02*
X0085764Y0288342D01*
X0085764Y0286744D02*
X0083191Y0286744D01*
X0083191Y0285145D02*
X0085764Y0285145D01*
X0085896Y0283547D02*
X0083177Y0283547D01*
X0089332Y0283547D02*
X0089701Y0283547D01*
X0089701Y0285145D02*
X0089332Y0285145D01*
X0070186Y0289517D02*
X0062517Y0289517D01*
X0064773Y0286744D02*
X0065989Y0286744D01*
X0040797Y0262766D02*
X0013584Y0262766D01*
X0013584Y0261168D02*
X0040567Y0261168D01*
X0080625Y0373064D02*
X0081244Y0373064D01*
X0080764Y0374662D02*
X0079687Y0374662D01*
X0084332Y0374662D02*
X0084701Y0374662D01*
X0084701Y0373064D02*
X0084332Y0373064D01*
X0078221Y0393844D02*
X0101751Y0393844D01*
X0103350Y0395443D02*
X0078269Y0395443D01*
X0078269Y0397041D02*
X0104948Y0397041D01*
X0106547Y0398640D02*
X0078269Y0398640D01*
X0078269Y0400238D02*
X0108145Y0400238D01*
X0109744Y0401837D02*
X0076904Y0401837D01*
X0076964Y0403435D02*
X0144352Y0403435D01*
X0144413Y0401837D02*
X0135656Y0401837D01*
X0137255Y0400238D02*
X0143047Y0400238D01*
X0143047Y0398640D02*
X0138853Y0398640D01*
X0140452Y0397041D02*
X0143047Y0397041D01*
X0143047Y0395443D02*
X0142050Y0395443D01*
X0146800Y0397863D02*
X0146800Y0406017D01*
X0150242Y0405034D02*
X0215642Y0405034D01*
X0215528Y0406632D02*
X0150356Y0406632D01*
X0149615Y0408231D02*
X0216269Y0408231D01*
X0219083Y0406017D02*
X0219083Y0397863D01*
X0227547Y0341093D02*
X0230935Y0341093D01*
X0230868Y0334699D02*
X0219096Y0334699D01*
X0219096Y0333101D02*
X0219110Y0333101D01*
X0219071Y0331502D02*
X0218708Y0331502D01*
X0223230Y0331502D02*
X0223598Y0331502D01*
X0223598Y0330961D02*
X0223598Y0334332D01*
X0226379Y0334332D01*
X0226783Y0334224D01*
X0227145Y0334015D01*
X0227440Y0333720D01*
X0227649Y0333358D01*
X0227757Y0332954D01*
X0227757Y0330961D01*
X0223598Y0330961D01*
X0223598Y0329904D02*
X0223230Y0329904D01*
X0223230Y0328305D02*
X0223598Y0328305D01*
X0227679Y0328305D02*
X0230603Y0328305D01*
X0230331Y0329904D02*
X0227757Y0329904D01*
X0227757Y0331502D02*
X0230331Y0331502D01*
X0230331Y0333101D02*
X0227718Y0333101D01*
X0223598Y0333101D02*
X0223230Y0333101D01*
X0233899Y0329904D02*
X0234268Y0329904D01*
X0234268Y0328305D02*
X0233899Y0328305D01*
X0245430Y0303517D02*
X0245430Y0263517D01*
X0243043Y0283547D02*
X0237704Y0283547D01*
X0237728Y0283589D02*
X0237836Y0283993D01*
X0237836Y0285986D01*
X0234268Y0285986D01*
X0234268Y0282614D01*
X0236458Y0282614D01*
X0236862Y0282722D01*
X0237223Y0282931D01*
X0237519Y0283227D01*
X0237728Y0283589D01*
X0237836Y0285145D02*
X0243043Y0285145D01*
X0243043Y0286744D02*
X0237836Y0286744D01*
X0237836Y0288342D02*
X0243043Y0288342D01*
X0243043Y0289941D02*
X0237540Y0289941D01*
X0237836Y0291539D02*
X0243043Y0291539D01*
X0234268Y0285145D02*
X0233899Y0285145D01*
X0233899Y0283547D02*
X0234268Y0283547D01*
X0230463Y0283547D02*
X0227744Y0283547D01*
X0227757Y0285145D02*
X0230331Y0285145D01*
X0230331Y0286744D02*
X0227757Y0286744D01*
X0227757Y0285961D02*
X0227757Y0287954D01*
X0227649Y0288358D01*
X0227440Y0288720D01*
X0227145Y0289015D01*
X0226783Y0289224D01*
X0226379Y0289332D01*
X0223598Y0289332D01*
X0223598Y0285961D01*
X0227757Y0285961D01*
X0227653Y0288342D02*
X0230331Y0288342D01*
X0230627Y0289941D02*
X0227068Y0289941D01*
X0223598Y0288342D02*
X0223230Y0288342D01*
X0223230Y0286744D02*
X0223598Y0286744D01*
X0223598Y0285145D02*
X0223230Y0285145D01*
X0223230Y0283547D02*
X0223598Y0283547D01*
X0219071Y0286744D02*
X0218949Y0286744D01*
X0219096Y0288342D02*
X0219175Y0288342D01*
X0219096Y0289941D02*
X0219761Y0289941D01*
X0214753Y0289517D02*
X0207083Y0289517D01*
X0209340Y0286744D02*
X0210556Y0286744D01*
X0227305Y0296335D02*
X0231177Y0296335D01*
X0214753Y0249517D02*
X0207083Y0249517D01*
X0209377Y0246781D02*
X0210519Y0246781D01*
X0176677Y0144476D02*
X0174152Y0144476D01*
X0259540Y0043770D02*
X0013584Y0043770D01*
X0013584Y0042172D02*
X0261139Y0042172D01*
X0262737Y0040573D02*
X0013584Y0040573D01*
X0013584Y0038975D02*
X0264336Y0038975D01*
X0265934Y0037376D02*
X0031191Y0037376D01*
X0030650Y0037600D02*
X0034200Y0036130D01*
X0036917Y0033413D01*
X0038387Y0029863D01*
X0038387Y0026021D01*
X0036917Y0022471D01*
X0034200Y0019754D01*
X0030650Y0018283D01*
X0026808Y0018283D01*
X0023258Y0019754D01*
X0020541Y0022471D01*
X0019071Y0026021D01*
X0019071Y0029863D01*
X0020541Y0033413D01*
X0023258Y0036130D01*
X0026808Y0037600D01*
X0030650Y0037600D01*
X0026268Y0037376D02*
X0013584Y0037376D01*
X0013584Y0035778D02*
X0022906Y0035778D01*
X0021308Y0034179D02*
X0013584Y0034179D01*
X0013584Y0032581D02*
X0020197Y0032581D01*
X0019534Y0030982D02*
X0013584Y0030982D01*
X0013584Y0029384D02*
X0019071Y0029384D01*
X0019071Y0027785D02*
X0013584Y0027785D01*
X0013584Y0026187D02*
X0019071Y0026187D01*
X0019664Y0024588D02*
X0013584Y0024588D01*
X0013584Y0022990D02*
X0020326Y0022990D01*
X0021621Y0021391D02*
X0013584Y0021391D01*
X0013584Y0019793D02*
X0023219Y0019793D01*
X0034239Y0019793D02*
X0351566Y0019793D01*
X0349967Y0021391D02*
X0035837Y0021391D01*
X0037132Y0022990D02*
X0294641Y0022990D01*
X0300959Y0022990D02*
X0314641Y0022990D01*
X0314780Y0022850D02*
X0320820Y0022850D01*
X0321750Y0023780D01*
X0321750Y0029820D01*
X0320820Y0030750D01*
X0314780Y0030750D01*
X0313850Y0029820D01*
X0313850Y0023780D01*
X0314780Y0022850D01*
X0313850Y0024588D02*
X0301750Y0024588D01*
X0301750Y0026187D02*
X0313850Y0026187D01*
X0313850Y0027785D02*
X0301750Y0027785D01*
X0301750Y0029384D02*
X0313850Y0029384D01*
X0321750Y0029384D02*
X0333850Y0029384D01*
X0333850Y0029820D02*
X0333850Y0023780D01*
X0334780Y0022850D01*
X0340820Y0022850D01*
X0341750Y0023780D01*
X0341750Y0029820D01*
X0340820Y0030750D01*
X0334780Y0030750D01*
X0333850Y0029820D01*
X0333850Y0027785D02*
X0321750Y0027785D01*
X0321750Y0026187D02*
X0333850Y0026187D01*
X0333850Y0024588D02*
X0321750Y0024588D01*
X0320959Y0022990D02*
X0334641Y0022990D01*
X0340959Y0022990D02*
X0348903Y0022990D01*
X0348241Y0024588D02*
X0341750Y0024588D01*
X0341750Y0026187D02*
X0347811Y0026187D01*
X0347811Y0027785D02*
X0341750Y0027785D01*
X0341750Y0029384D02*
X0347811Y0029384D01*
X0354814Y0018194D02*
X0013584Y0018194D01*
X0013584Y0016596D02*
X0372220Y0016596D01*
X0372220Y0018194D02*
X0360125Y0018194D01*
X0363373Y0019793D02*
X0372220Y0019793D01*
X0372220Y0021391D02*
X0364971Y0021391D01*
X0366035Y0022990D02*
X0372220Y0022990D01*
X0372220Y0024588D02*
X0366697Y0024588D01*
X0367128Y0026187D02*
X0372220Y0026187D01*
X0372220Y0027785D02*
X0367128Y0027785D01*
X0367128Y0029384D02*
X0372220Y0029384D01*
X0372220Y0030982D02*
X0366501Y0030982D01*
X0365839Y0032581D02*
X0372220Y0032581D01*
X0372220Y0034179D02*
X0364497Y0034179D01*
X0362839Y0035778D02*
X0372220Y0035778D01*
X0372220Y0014997D02*
X0013584Y0014997D01*
X0037794Y0024588D02*
X0278722Y0024588D01*
X0277499Y0025811D02*
X0277499Y0025811D01*
X0277124Y0026187D02*
X0038387Y0026187D01*
X0038387Y0027785D02*
X0275525Y0027785D01*
X0273927Y0029384D02*
X0038387Y0029384D01*
X0037924Y0030982D02*
X0272328Y0030982D01*
X0270730Y0032581D02*
X0037262Y0032581D01*
X0036151Y0034179D02*
X0269131Y0034179D01*
X0267533Y0035778D02*
X0034552Y0035778D01*
X0119900Y0390647D02*
X0134793Y0390647D01*
X0146746Y0391117D02*
X0146800Y0391170D01*
X0143358Y0405034D02*
X0077958Y0405034D01*
X0078072Y0406632D02*
X0143244Y0406632D01*
X0143985Y0408231D02*
X0077331Y0408231D01*
X0074517Y0406017D02*
X0074517Y0397863D01*
X0110102Y0395443D02*
X0112850Y0395443D01*
X0112850Y0397041D02*
X0111701Y0397041D01*
X0013584Y0424216D02*
X0278500Y0424216D01*
X0278500Y0425814D02*
X0013584Y0425814D01*
D16*
X0089517Y0337863D02*
X0097237Y0337863D01*
X0097300Y0337800D01*
X0097237Y0292863D02*
X0089517Y0292863D01*
X0097237Y0292863D02*
X0097300Y0292800D01*
X0097237Y0252863D02*
X0089517Y0252863D01*
X0097237Y0252863D02*
X0097300Y0252800D01*
X0161800Y0252863D02*
X0169237Y0252863D01*
X0169300Y0252800D01*
X0169300Y0292800D02*
X0169237Y0292863D01*
X0161800Y0292863D01*
X0161800Y0337863D02*
X0169237Y0337863D01*
X0169300Y0337800D01*
X0146800Y0152887D02*
X0144800Y0152887D01*
M02*
