%
M48
M72
T01C0.02362
T02C0.03150
T03C0.15748
%
T01
X16800Y46800
X16800Y66800
X16800Y86800
X16800Y141800
X16800Y161800
X16800Y181800
X16800Y201800
X16800Y221800
X16800Y241800
X16800Y261800
X16800Y281800
X16800Y301800
X16800Y321800
X16800Y341800
X16800Y361800
X16800Y381800
X53517Y379517
X74517Y406017
X76800Y421800
X96800Y421800
X116800Y421800
X136800Y421800
X146800Y406017
X156800Y421800
X176800Y421800
X196800Y421800
X216800Y421800
X219083Y406017
X236800Y421800
X256800Y421800
X275580Y425186
X275580Y417312
X275580Y409438
X275580Y401564
X275580Y393690
X275580Y385816
X275580Y377942
X275580Y370068
X275580Y362194
X275580Y354320
X275580Y346446
X275580Y338572
X275580Y330698
X275580Y322824
X275580Y314950
X275580Y307076
X275580Y299202
X275580Y291328
X275580Y283454
X275580Y275580
X275580Y267706
X275580Y259831
X275580Y251957
X275580Y244083
X275580Y236209
X275580Y228335
X283454Y228335
X291328Y228335
X299202Y228335
X307076Y228335
X314950Y228335
X314950Y220461
X322824Y220461
X322824Y212587
X322824Y204713
X322824Y196839
X322824Y188965
X322824Y181091
X322824Y173217
X342509Y173217
X342509Y181091
X342509Y188965
X342509Y196839
X342509Y204713
X342509Y212587
X342509Y220461
X350383Y220461
X350383Y228335
X358257Y228335
X366131Y228335
X366800Y216800
X366800Y196800
X366800Y176800
X366800Y156800
X366800Y136800
X366800Y116800
X366800Y96800
X366800Y76800
X366800Y56800
X331800Y48600
X336800Y16800
X316800Y16800
X296800Y16800
X276800Y16800
X256800Y16800
X236800Y16800
X216800Y16800
X196800Y16800
X176800Y16800
X156800Y16800
X136800Y16800
X116800Y16800
X96800Y16800
X76800Y16800
X56800Y16800
X137800Y120300
X144800Y120300
X165800Y140887
X171800Y141800
X178300Y141300
X182800Y169887
X153800Y176800
X144800Y176800
X139800Y194800
X143800Y202800
X149800Y194800
X153800Y202887
X134800Y249517
X155800Y263517
X170800Y257800
X169300Y252800
X207083Y249517
X228083Y263517
X207083Y289517
X228083Y303517
X207083Y334517
X228083Y349517
X198083Y379517
X169300Y337800
X155800Y349517
X135800Y334517
X155800Y303517
X169300Y292800
X134800Y289517
X97300Y292800
X83517Y303517
X62517Y289517
X83517Y263517
X97300Y252800
X62517Y249517
X113800Y194887
X105800Y186300
X123800Y161300
X118300Y157300
X146800Y152887
X76800Y184800
X63017Y334517
X83517Y349517
X97300Y337800
X77300Y371800
X125800Y379517
X56800Y421800
X289800Y173800
X289800Y162800
X301800Y173800
X266800Y126800
X252454Y113454
X252500Y100000
X292200Y55000
T02
X297800Y26800
X317800Y26800
X337800Y26800
X197906Y54706
X174906Y54706
X150906Y54706
X44769Y167985
X44769Y177985
X44769Y187985
X44769Y197985
X44769Y207985
X44517Y259517
X44517Y299517
X44517Y344517
X44517Y394517
X116800Y394517
X116800Y344517
X116800Y299517
X116800Y259517
X189083Y259517
X189083Y299517
X189083Y344517
X189083Y394517
T03
X28729Y27942
X357469Y27548
X357469Y413375
X28729Y413375
M30
