G75*
%MOIN*%
%OFA0B0*%
%FSLAX25Y25*%
%IPPOS*%
%LPD*%
%AMOC8*
5,1,8,0,0,1.08239X$1,22.5*
%
%ADD10C,0.00600*%
%ADD11C,0.00500*%
%ADD12C,0.00400*%
%ADD13C,0.00787*%
%ADD14C,0.00800*%
D10*
X0142100Y0040168D02*
X0143168Y0039100D01*
X0145303Y0039100D01*
X0146370Y0040168D01*
X0146370Y0042303D01*
X0144235Y0042303D01*
X0142100Y0044438D02*
X0142100Y0040168D01*
X0142100Y0044438D02*
X0143168Y0045505D01*
X0145303Y0045505D01*
X0146370Y0044438D01*
X0148545Y0045505D02*
X0148545Y0039100D01*
X0152816Y0039100D02*
X0152816Y0045505D01*
X0154991Y0045505D02*
X0158194Y0045505D01*
X0159261Y0044438D01*
X0159261Y0040168D01*
X0158194Y0039100D01*
X0154991Y0039100D01*
X0154991Y0045505D01*
X0148545Y0045505D02*
X0152816Y0039100D01*
X0166100Y0042303D02*
X0170370Y0042303D01*
X0172545Y0042303D02*
X0174681Y0043370D01*
X0175748Y0043370D01*
X0176816Y0042303D01*
X0176816Y0040168D01*
X0175748Y0039100D01*
X0173613Y0039100D01*
X0172545Y0040168D01*
X0172545Y0042303D02*
X0172545Y0045505D01*
X0176816Y0045505D01*
X0178991Y0045505D02*
X0178991Y0041235D01*
X0181126Y0039100D01*
X0183261Y0041235D01*
X0183261Y0045505D01*
X0188100Y0042303D02*
X0192370Y0042303D01*
X0190235Y0044438D02*
X0190235Y0040168D01*
X0194545Y0040168D02*
X0195613Y0039100D01*
X0197748Y0039100D01*
X0198816Y0040168D01*
X0198816Y0041235D01*
X0197748Y0042303D01*
X0196681Y0042303D01*
X0197748Y0042303D02*
X0198816Y0043370D01*
X0198816Y0044438D01*
X0197748Y0045505D01*
X0195613Y0045505D01*
X0194545Y0044438D01*
X0200991Y0045505D02*
X0200991Y0041235D01*
X0203126Y0039100D01*
X0205261Y0041235D01*
X0205261Y0045505D01*
X0207436Y0044438D02*
X0208504Y0045505D01*
X0210639Y0045505D01*
X0211707Y0044438D01*
X0211707Y0043370D01*
X0210639Y0042303D01*
X0211707Y0041235D01*
X0211707Y0040168D01*
X0210639Y0039100D01*
X0208504Y0039100D01*
X0207436Y0040168D01*
X0209572Y0042303D02*
X0210639Y0042303D01*
X0168235Y0044438D02*
X0168235Y0040168D01*
D11*
X0171906Y0049706D02*
X0177906Y0049706D01*
X0179906Y0051706D01*
X0179906Y0057706D01*
X0177906Y0059706D01*
X0171906Y0059706D01*
X0169906Y0057706D01*
X0169906Y0051706D01*
X0171906Y0049706D01*
X0155906Y0051706D02*
X0153906Y0049706D01*
X0147906Y0049706D01*
X0145906Y0051706D01*
X0145906Y0057706D01*
X0147906Y0059706D01*
X0153906Y0059706D01*
X0155906Y0057706D01*
X0155906Y0051706D01*
X0192906Y0051706D02*
X0192906Y0057706D01*
X0194906Y0059706D01*
X0200906Y0059706D01*
X0202906Y0057706D01*
X0202906Y0051706D01*
X0200906Y0049706D01*
X0194906Y0049706D01*
X0192906Y0051706D01*
X0190800Y0109800D02*
X0182800Y0109800D01*
X0182800Y0123800D01*
X0190800Y0123800D01*
X0190800Y0109800D01*
X0180800Y0109800D02*
X0180800Y0123800D01*
X0172800Y0123800D01*
X0172800Y0109800D01*
X0180800Y0109800D01*
X0180300Y0156300D02*
X0194300Y0156300D01*
X0194300Y0164300D01*
X0180300Y0164300D01*
X0180300Y0156300D01*
X0169071Y0176927D02*
X0169071Y0190846D01*
X0148192Y0211725D01*
X0120353Y0183887D01*
X0148192Y0156048D01*
X0169071Y0176927D01*
X0206152Y0191616D02*
X0220071Y0205535D01*
X0189448Y0236158D01*
X0175529Y0222238D01*
X0206152Y0191616D01*
X0219710Y0209140D02*
X0229610Y0219039D01*
X0223953Y0224696D01*
X0214053Y0214797D01*
X0219710Y0209140D01*
X0198710Y0231108D02*
X0208610Y0241008D01*
X0202953Y0246665D01*
X0193053Y0236765D01*
X0198710Y0231108D01*
X0192083Y0254517D02*
X0186083Y0254517D01*
X0184083Y0256517D01*
X0184083Y0262517D01*
X0186083Y0264517D01*
X0192083Y0264517D01*
X0194083Y0262517D01*
X0194083Y0256517D01*
X0192083Y0254517D01*
X0215083Y0252517D02*
X0215083Y0266517D01*
X0223083Y0266517D01*
X0223083Y0252517D01*
X0215083Y0252517D01*
X0215083Y0292517D02*
X0215083Y0306517D01*
X0223083Y0306517D01*
X0223083Y0292517D01*
X0215083Y0292517D01*
X0194083Y0296517D02*
X0192083Y0294517D01*
X0186083Y0294517D01*
X0184083Y0296517D01*
X0184083Y0302517D01*
X0186083Y0304517D01*
X0192083Y0304517D01*
X0194083Y0302517D01*
X0194083Y0296517D01*
X0192083Y0339517D02*
X0186083Y0339517D01*
X0184083Y0341517D01*
X0184083Y0347517D01*
X0186083Y0349517D01*
X0192083Y0349517D01*
X0194083Y0347517D01*
X0194083Y0341517D01*
X0192083Y0339517D01*
X0215083Y0337517D02*
X0215083Y0351517D01*
X0223083Y0351517D01*
X0223083Y0337517D01*
X0215083Y0337517D01*
X0206485Y0381524D02*
X0232863Y0381524D01*
X0232863Y0401997D01*
X0226957Y0407902D01*
X0206485Y0407902D01*
X0206485Y0381524D01*
X0194083Y0391517D02*
X0194083Y0397517D01*
X0192083Y0399517D01*
X0186083Y0399517D01*
X0184083Y0397517D01*
X0184083Y0391517D01*
X0186083Y0389517D01*
X0192083Y0389517D01*
X0194083Y0391517D01*
X0163335Y0416170D02*
X0158611Y0416170D01*
X0160973Y0418532D02*
X0160973Y0413808D01*
X0154674Y0407902D02*
X0134202Y0407902D01*
X0134202Y0381524D01*
X0160580Y0381524D01*
X0160580Y0401997D01*
X0154674Y0407902D01*
X0121800Y0397517D02*
X0121800Y0391517D01*
X0119800Y0389517D01*
X0113800Y0389517D01*
X0111800Y0391517D01*
X0111800Y0397517D01*
X0113800Y0399517D01*
X0119800Y0399517D01*
X0121800Y0397517D01*
X0088296Y0401997D02*
X0088296Y0381524D01*
X0061918Y0381524D01*
X0061918Y0407902D01*
X0082391Y0407902D01*
X0088296Y0401997D01*
X0088690Y0413808D02*
X0088690Y0418532D01*
X0091052Y0416170D02*
X0086328Y0416170D01*
X0049517Y0397517D02*
X0049517Y0391517D01*
X0047517Y0389517D01*
X0041517Y0389517D01*
X0039517Y0391517D01*
X0039517Y0397517D01*
X0041517Y0399517D01*
X0047517Y0399517D01*
X0049517Y0397517D01*
X0070517Y0351517D02*
X0070517Y0337517D01*
X0078517Y0337517D01*
X0078517Y0351517D01*
X0070517Y0351517D01*
X0049517Y0347517D02*
X0049517Y0341517D01*
X0047517Y0339517D01*
X0041517Y0339517D01*
X0039517Y0341517D01*
X0039517Y0347517D01*
X0041517Y0349517D01*
X0047517Y0349517D01*
X0049517Y0347517D01*
X0070517Y0306517D02*
X0070517Y0292517D01*
X0078517Y0292517D01*
X0078517Y0306517D01*
X0070517Y0306517D01*
X0049517Y0302517D02*
X0049517Y0296517D01*
X0047517Y0294517D01*
X0041517Y0294517D01*
X0039517Y0296517D01*
X0039517Y0302517D01*
X0041517Y0304517D01*
X0047517Y0304517D01*
X0049517Y0302517D01*
X0047517Y0264517D02*
X0041517Y0264517D01*
X0039517Y0262517D01*
X0039517Y0256517D01*
X0041517Y0254517D01*
X0047517Y0254517D01*
X0049517Y0256517D01*
X0049517Y0262517D01*
X0047517Y0264517D01*
X0070517Y0266517D02*
X0070517Y0252517D01*
X0078517Y0252517D01*
X0078517Y0266517D01*
X0070517Y0266517D01*
X0111800Y0262517D02*
X0111800Y0256517D01*
X0113800Y0254517D01*
X0119800Y0254517D01*
X0121800Y0256517D01*
X0121800Y0262517D01*
X0119800Y0264517D01*
X0113800Y0264517D01*
X0111800Y0262517D01*
X0113800Y0294517D02*
X0111800Y0296517D01*
X0111800Y0302517D01*
X0113800Y0304517D01*
X0119800Y0304517D01*
X0121800Y0302517D01*
X0121800Y0296517D01*
X0119800Y0294517D01*
X0113800Y0294517D01*
X0142800Y0292517D02*
X0142800Y0306517D01*
X0150800Y0306517D01*
X0150800Y0292517D01*
X0142800Y0292517D01*
X0142800Y0266517D02*
X0142800Y0252517D01*
X0150800Y0252517D01*
X0150800Y0266517D01*
X0142800Y0266517D01*
X0142800Y0337517D02*
X0142800Y0351517D01*
X0150800Y0351517D01*
X0150800Y0337517D01*
X0142800Y0337517D01*
X0121800Y0341517D02*
X0119800Y0339517D01*
X0113800Y0339517D01*
X0111800Y0341517D01*
X0111800Y0347517D01*
X0113800Y0349517D01*
X0119800Y0349517D01*
X0121800Y0347517D01*
X0121800Y0341517D01*
X0230894Y0416170D02*
X0235619Y0416170D01*
X0233257Y0418532D02*
X0233257Y0413808D01*
X0321957Y0328331D02*
X0321957Y0229906D01*
X0341643Y0229906D01*
X0341643Y0328331D01*
X0321957Y0328331D01*
X0283800Y0190800D02*
X0269800Y0190800D01*
X0269800Y0182800D01*
X0283800Y0182800D01*
X0283800Y0190800D01*
X0283800Y0175800D02*
X0269800Y0175800D01*
X0269800Y0167800D01*
X0283800Y0167800D01*
X0283800Y0175800D01*
X0283800Y0160800D02*
X0269800Y0160800D01*
X0269800Y0152800D01*
X0283800Y0152800D01*
X0283800Y0160800D01*
X0283800Y0145800D02*
X0269800Y0145800D01*
X0269800Y0137800D01*
X0283800Y0137800D01*
X0283800Y0145800D01*
X0283800Y0130800D02*
X0269800Y0130800D01*
X0269800Y0122800D01*
X0283800Y0122800D01*
X0283800Y0130800D01*
X0283800Y0115800D02*
X0269800Y0115800D01*
X0269800Y0107800D01*
X0283800Y0107800D01*
X0283800Y0115800D01*
X0283800Y0100800D02*
X0269800Y0100800D01*
X0269800Y0092800D01*
X0283800Y0092800D01*
X0283800Y0100800D01*
X0296800Y0067300D02*
X0296800Y0159800D01*
X0346800Y0159800D01*
X0346800Y0059800D01*
X0304800Y0059800D01*
X0296800Y0067300D01*
X0294800Y0031800D02*
X0300800Y0031800D01*
X0302800Y0029800D01*
X0302800Y0023800D01*
X0300800Y0021800D01*
X0294800Y0021800D01*
X0292800Y0023800D01*
X0292800Y0029800D01*
X0294800Y0031800D01*
X0312800Y0029800D02*
X0312800Y0023800D01*
X0314800Y0021800D01*
X0320800Y0021800D01*
X0322800Y0023800D01*
X0322800Y0029800D01*
X0320800Y0031800D01*
X0314800Y0031800D01*
X0312800Y0029800D01*
X0332800Y0029800D02*
X0332800Y0023800D01*
X0334800Y0021800D01*
X0340800Y0021800D01*
X0342800Y0023800D01*
X0342800Y0029800D01*
X0340800Y0031800D01*
X0334800Y0031800D01*
X0332800Y0029800D01*
X0250800Y0109800D02*
X0250800Y0123800D01*
X0242800Y0123800D01*
X0242800Y0109800D01*
X0250800Y0109800D01*
X0240800Y0109800D02*
X0240800Y0123800D01*
X0232800Y0123800D01*
X0232800Y0109800D01*
X0240800Y0109800D01*
X0073769Y0165985D02*
X0065769Y0165985D01*
X0065769Y0179985D01*
X0073769Y0179985D01*
X0073769Y0165985D01*
X0073769Y0180985D02*
X0065769Y0180985D01*
X0065769Y0194985D01*
X0073769Y0194985D01*
X0073769Y0180985D01*
X0051019Y0181735D02*
X0051019Y0174235D01*
X0049769Y0172985D01*
X0051019Y0171735D01*
X0051019Y0164235D01*
X0049769Y0162985D01*
X0039769Y0162985D01*
X0038519Y0164235D01*
X0038519Y0171735D01*
X0039769Y0172985D01*
X0038519Y0174235D01*
X0038519Y0181735D01*
X0039769Y0182985D01*
X0038519Y0184235D01*
X0038519Y0191735D01*
X0039769Y0192985D01*
X0038519Y0194235D01*
X0038519Y0201735D01*
X0039769Y0202985D01*
X0038519Y0204235D01*
X0038519Y0211735D01*
X0039769Y0212985D01*
X0049769Y0212985D01*
X0051019Y0211735D01*
X0051019Y0204235D01*
X0049769Y0202985D01*
X0051019Y0201735D01*
X0051019Y0194235D01*
X0049769Y0192985D01*
X0051019Y0191735D01*
X0051019Y0184235D01*
X0049769Y0182985D01*
X0051019Y0181735D01*
D12*
X0130006Y0066710D02*
X0130006Y0062106D01*
X0133075Y0062106D02*
X0133075Y0066710D01*
X0136144Y0066710D01*
X0137679Y0065943D02*
X0137679Y0065176D01*
X0138446Y0064408D01*
X0139981Y0064408D01*
X0140748Y0063641D01*
X0140748Y0062874D01*
X0139981Y0062106D01*
X0138446Y0062106D01*
X0137679Y0062874D01*
X0136144Y0062106D02*
X0133075Y0062106D01*
X0133075Y0064408D02*
X0134609Y0064408D01*
X0137679Y0065943D02*
X0138446Y0066710D01*
X0139981Y0066710D01*
X0140748Y0065943D01*
X0142283Y0066710D02*
X0145352Y0066710D01*
X0143817Y0066710D02*
X0143817Y0062106D01*
X0146887Y0062106D02*
X0149956Y0062106D01*
X0148421Y0062106D02*
X0148421Y0066710D01*
X0146887Y0065176D01*
X0151491Y0065176D02*
X0151491Y0065943D01*
X0152258Y0066710D01*
X0153792Y0066710D01*
X0154560Y0065943D01*
X0154560Y0065176D01*
X0153792Y0064408D01*
X0152258Y0064408D01*
X0151491Y0065176D01*
X0152258Y0064408D02*
X0151491Y0063641D01*
X0151491Y0062874D01*
X0152258Y0062106D01*
X0153792Y0062106D01*
X0154560Y0062874D01*
X0154560Y0063641D01*
X0153792Y0064408D01*
X0158471Y0066710D02*
X0161540Y0066710D01*
X0160006Y0066710D02*
X0160006Y0062106D01*
X0163075Y0062106D02*
X0163075Y0066710D01*
X0166144Y0066710D01*
X0167679Y0065943D02*
X0167679Y0065176D01*
X0168446Y0064408D01*
X0169981Y0064408D01*
X0170748Y0063641D01*
X0170748Y0062874D01*
X0169981Y0062106D01*
X0168446Y0062106D01*
X0167679Y0062874D01*
X0166144Y0062106D02*
X0163075Y0062106D01*
X0163075Y0064408D02*
X0164609Y0064408D01*
X0167679Y0065943D02*
X0168446Y0066710D01*
X0169981Y0066710D01*
X0170748Y0065943D01*
X0172283Y0066710D02*
X0175352Y0066710D01*
X0173817Y0066710D02*
X0173817Y0062106D01*
X0176887Y0062106D02*
X0179956Y0062106D01*
X0181491Y0062106D02*
X0181491Y0062874D01*
X0184560Y0065943D01*
X0184560Y0066710D01*
X0181491Y0066710D01*
X0178421Y0066710D02*
X0178421Y0062106D01*
X0176887Y0065176D02*
X0178421Y0066710D01*
X0186471Y0066710D02*
X0189540Y0066710D01*
X0188006Y0066710D02*
X0188006Y0062106D01*
X0191075Y0062106D02*
X0194144Y0062106D01*
X0195679Y0062874D02*
X0196446Y0062106D01*
X0197981Y0062106D01*
X0198748Y0062874D01*
X0198748Y0063641D01*
X0197981Y0064408D01*
X0196446Y0064408D01*
X0195679Y0065176D01*
X0195679Y0065943D01*
X0196446Y0066710D01*
X0197981Y0066710D01*
X0198748Y0065943D01*
X0200283Y0066710D02*
X0203352Y0066710D01*
X0201817Y0066710D02*
X0201817Y0062106D01*
X0204887Y0062106D02*
X0207956Y0062106D01*
X0206421Y0062106D02*
X0206421Y0066710D01*
X0204887Y0065176D01*
X0209491Y0064408D02*
X0211792Y0064408D01*
X0212560Y0063641D01*
X0212560Y0062874D01*
X0211792Y0062106D01*
X0210258Y0062106D01*
X0209491Y0062874D01*
X0209491Y0064408D01*
X0211025Y0065943D01*
X0212560Y0066710D01*
X0194144Y0066710D02*
X0191075Y0066710D01*
X0191075Y0062106D01*
X0191075Y0064408D02*
X0192609Y0064408D01*
X0208559Y0096713D02*
X0210094Y0096713D01*
X0210861Y0097481D01*
X0210861Y0101317D01*
X0212396Y0099783D02*
X0213931Y0101317D01*
X0213931Y0096713D01*
X0215465Y0096713D02*
X0212396Y0096713D01*
X0208559Y0096713D02*
X0207792Y0097481D01*
X0207792Y0101317D01*
X0190934Y0107337D02*
X0187865Y0104267D01*
X0187865Y0103500D01*
X0186330Y0104267D02*
X0185563Y0103500D01*
X0184028Y0103500D01*
X0183261Y0104267D01*
X0183261Y0107337D01*
X0184028Y0108104D01*
X0185563Y0108104D01*
X0186330Y0107337D01*
X0187865Y0108104D02*
X0190934Y0108104D01*
X0190934Y0107337D01*
X0180167Y0125500D02*
X0178632Y0125500D01*
X0177865Y0126267D01*
X0177865Y0127035D01*
X0178632Y0127802D01*
X0180167Y0127802D01*
X0180934Y0127035D01*
X0180934Y0126267D01*
X0180167Y0125500D01*
X0180167Y0127802D02*
X0180934Y0128569D01*
X0180934Y0129337D01*
X0180167Y0130104D01*
X0178632Y0130104D01*
X0177865Y0129337D01*
X0177865Y0128569D01*
X0178632Y0127802D01*
X0176330Y0129337D02*
X0175563Y0130104D01*
X0174028Y0130104D01*
X0173261Y0129337D01*
X0173261Y0126267D01*
X0174028Y0125500D01*
X0175563Y0125500D01*
X0176330Y0126267D01*
X0154885Y0143442D02*
X0151815Y0143442D01*
X0153350Y0143442D02*
X0153350Y0148046D01*
X0151815Y0146511D01*
X0150281Y0147279D02*
X0149513Y0148046D01*
X0147979Y0148046D01*
X0147211Y0147279D01*
X0147211Y0144209D01*
X0147979Y0143442D01*
X0149513Y0143442D01*
X0150281Y0144209D01*
X0145677Y0143442D02*
X0144142Y0143442D01*
X0144909Y0143442D02*
X0144909Y0148046D01*
X0144142Y0148046D02*
X0145677Y0148046D01*
X0149811Y0095620D02*
X0152880Y0091016D01*
X0154415Y0091016D02*
X0157484Y0094085D01*
X0157484Y0094852D01*
X0156717Y0095620D01*
X0155182Y0095620D01*
X0154415Y0094852D01*
X0152880Y0095620D02*
X0149811Y0091016D01*
X0154415Y0091016D02*
X0157484Y0091016D01*
X0131540Y0066710D02*
X0128471Y0066710D01*
X0074142Y0159717D02*
X0071072Y0159717D01*
X0069538Y0159717D02*
X0068003Y0161251D01*
X0068770Y0161251D02*
X0066469Y0161251D01*
X0066469Y0159717D02*
X0066469Y0164320D01*
X0068770Y0164320D01*
X0069538Y0163553D01*
X0069538Y0162018D01*
X0068770Y0161251D01*
X0071072Y0162786D02*
X0072607Y0164320D01*
X0072607Y0159717D01*
X0071840Y0196654D02*
X0071072Y0197421D01*
X0071840Y0196654D02*
X0073374Y0196654D01*
X0074142Y0197421D01*
X0074142Y0198188D01*
X0073374Y0198955D01*
X0072607Y0198955D01*
X0073374Y0198955D02*
X0074142Y0199723D01*
X0074142Y0200490D01*
X0073374Y0201257D01*
X0071840Y0201257D01*
X0071072Y0200490D01*
X0069538Y0200490D02*
X0068770Y0201257D01*
X0067236Y0201257D01*
X0066469Y0200490D01*
X0066469Y0197421D01*
X0067236Y0196654D01*
X0068770Y0196654D01*
X0069538Y0197421D01*
X0030899Y0170289D02*
X0030899Y0165685D01*
X0029365Y0165685D02*
X0032434Y0165685D01*
X0029365Y0168754D02*
X0030899Y0170289D01*
X0027830Y0170289D02*
X0024761Y0165685D01*
X0027830Y0165685D02*
X0024761Y0170289D01*
X0071217Y0247217D02*
X0073518Y0247217D01*
X0074286Y0247984D01*
X0074286Y0251053D01*
X0073518Y0251820D01*
X0071217Y0251820D01*
X0071217Y0247217D01*
X0075820Y0247984D02*
X0076588Y0247217D01*
X0078122Y0247217D01*
X0078890Y0247984D01*
X0078890Y0251053D01*
X0078122Y0251820D01*
X0076588Y0251820D01*
X0075820Y0251053D01*
X0075820Y0250286D01*
X0076588Y0249518D01*
X0078890Y0249518D01*
X0057202Y0267484D02*
X0056434Y0266717D01*
X0054900Y0266717D01*
X0054132Y0267484D01*
X0055667Y0269018D02*
X0056434Y0269018D01*
X0057202Y0268251D01*
X0057202Y0267484D01*
X0056434Y0269018D02*
X0057202Y0269786D01*
X0057202Y0270553D01*
X0056434Y0271320D01*
X0054900Y0271320D01*
X0054132Y0270553D01*
X0052598Y0271320D02*
X0049528Y0271320D01*
X0051063Y0271320D02*
X0051063Y0266717D01*
X0047994Y0267484D02*
X0047226Y0266717D01*
X0045692Y0266717D01*
X0044924Y0267484D01*
X0043390Y0266717D02*
X0040320Y0266717D01*
X0040320Y0271320D01*
X0043390Y0271320D01*
X0044924Y0270553D02*
X0044924Y0269786D01*
X0045692Y0269018D01*
X0047226Y0269018D01*
X0047994Y0268251D01*
X0047994Y0267484D01*
X0047994Y0270553D02*
X0047226Y0271320D01*
X0045692Y0271320D01*
X0044924Y0270553D01*
X0041855Y0269018D02*
X0040320Y0269018D01*
X0038786Y0271320D02*
X0035717Y0271320D01*
X0037251Y0271320D02*
X0037251Y0266717D01*
X0071217Y0287217D02*
X0073518Y0287217D01*
X0074286Y0287984D01*
X0074286Y0291053D01*
X0073518Y0291820D01*
X0071217Y0291820D01*
X0071217Y0287217D01*
X0075820Y0287984D02*
X0075820Y0288751D01*
X0076588Y0289518D01*
X0078122Y0289518D01*
X0078890Y0288751D01*
X0078890Y0287984D01*
X0078122Y0287217D01*
X0076588Y0287217D01*
X0075820Y0287984D01*
X0076588Y0289518D02*
X0075820Y0290286D01*
X0075820Y0291053D01*
X0076588Y0291820D01*
X0078122Y0291820D01*
X0078890Y0291053D01*
X0078890Y0290286D01*
X0078122Y0289518D01*
X0057202Y0306717D02*
X0054132Y0306717D01*
X0057202Y0309786D01*
X0057202Y0310553D01*
X0056434Y0311320D01*
X0054900Y0311320D01*
X0054132Y0310553D01*
X0052598Y0311320D02*
X0049528Y0311320D01*
X0051063Y0311320D02*
X0051063Y0306717D01*
X0047994Y0307484D02*
X0047226Y0306717D01*
X0045692Y0306717D01*
X0044924Y0307484D01*
X0043390Y0306717D02*
X0040320Y0306717D01*
X0040320Y0311320D01*
X0043390Y0311320D01*
X0044924Y0310553D02*
X0044924Y0309786D01*
X0045692Y0309018D01*
X0047226Y0309018D01*
X0047994Y0308251D01*
X0047994Y0307484D01*
X0047994Y0310553D02*
X0047226Y0311320D01*
X0045692Y0311320D01*
X0044924Y0310553D01*
X0041855Y0309018D02*
X0040320Y0309018D01*
X0038786Y0311320D02*
X0035717Y0311320D01*
X0037251Y0311320D02*
X0037251Y0306717D01*
X0071217Y0332217D02*
X0073518Y0332217D01*
X0074286Y0332984D01*
X0074286Y0336053D01*
X0073518Y0336820D01*
X0071217Y0336820D01*
X0071217Y0332217D01*
X0075820Y0332217D02*
X0075820Y0332984D01*
X0078890Y0336053D01*
X0078890Y0336820D01*
X0075820Y0336820D01*
X0057202Y0351717D02*
X0054132Y0351717D01*
X0055667Y0351717D02*
X0055667Y0356320D01*
X0054132Y0354786D01*
X0052598Y0356320D02*
X0049528Y0356320D01*
X0051063Y0356320D02*
X0051063Y0351717D01*
X0047994Y0352484D02*
X0047226Y0351717D01*
X0045692Y0351717D01*
X0044924Y0352484D01*
X0043390Y0351717D02*
X0040320Y0351717D01*
X0040320Y0356320D01*
X0043390Y0356320D01*
X0044924Y0355553D02*
X0044924Y0354786D01*
X0045692Y0354018D01*
X0047226Y0354018D01*
X0047994Y0353251D01*
X0047994Y0352484D01*
X0047994Y0355553D02*
X0047226Y0356320D01*
X0045692Y0356320D01*
X0044924Y0355553D01*
X0041855Y0354018D02*
X0040320Y0354018D01*
X0038786Y0356320D02*
X0035717Y0356320D01*
X0037251Y0356320D02*
X0037251Y0351717D01*
X0067063Y0369803D02*
X0069365Y0369803D01*
X0070132Y0370570D01*
X0070132Y0371338D01*
X0069365Y0372105D01*
X0067063Y0372105D01*
X0067063Y0369803D02*
X0067063Y0374407D01*
X0069365Y0374407D01*
X0070132Y0373640D01*
X0070132Y0372872D01*
X0069365Y0372105D01*
X0071667Y0370570D02*
X0071667Y0374407D01*
X0074736Y0374407D02*
X0074736Y0370570D01*
X0073969Y0369803D01*
X0072434Y0369803D01*
X0071667Y0370570D01*
X0076271Y0370570D02*
X0076271Y0369803D01*
X0079340Y0369803D01*
X0080875Y0370570D02*
X0081642Y0369803D01*
X0083177Y0369803D01*
X0083944Y0370570D01*
X0083944Y0371338D01*
X0083177Y0372105D01*
X0082409Y0372105D01*
X0083177Y0372105D02*
X0083944Y0372872D01*
X0083944Y0373640D01*
X0083177Y0374407D01*
X0081642Y0374407D01*
X0080875Y0373640D01*
X0079340Y0373640D02*
X0076271Y0370570D01*
X0076271Y0374407D02*
X0079340Y0374407D01*
X0079340Y0373640D01*
X0055038Y0402717D02*
X0053503Y0402717D01*
X0052736Y0403484D01*
X0055805Y0406553D01*
X0055805Y0403484D01*
X0055038Y0402717D01*
X0052736Y0403484D02*
X0052736Y0406553D01*
X0053503Y0407320D01*
X0055038Y0407320D01*
X0055805Y0406553D01*
X0051202Y0402717D02*
X0048132Y0402717D01*
X0049667Y0402717D02*
X0049667Y0407320D01*
X0048132Y0405786D01*
X0046598Y0407320D02*
X0043528Y0407320D01*
X0045063Y0407320D02*
X0045063Y0402717D01*
X0041994Y0403484D02*
X0041226Y0402717D01*
X0039692Y0402717D01*
X0038924Y0403484D01*
X0037390Y0402717D02*
X0034320Y0402717D01*
X0034320Y0407320D01*
X0037390Y0407320D01*
X0038924Y0406553D02*
X0038924Y0405786D01*
X0039692Y0405018D01*
X0041226Y0405018D01*
X0041994Y0404251D01*
X0041994Y0403484D01*
X0041994Y0406553D02*
X0041226Y0407320D01*
X0039692Y0407320D01*
X0038924Y0406553D01*
X0035855Y0405018D02*
X0034320Y0405018D01*
X0032786Y0407320D02*
X0029717Y0407320D01*
X0031251Y0407320D02*
X0031251Y0402717D01*
X0102937Y0406320D02*
X0106006Y0406320D01*
X0104472Y0406320D02*
X0104472Y0401717D01*
X0107541Y0401717D02*
X0107541Y0406320D01*
X0110610Y0406320D01*
X0112145Y0405553D02*
X0112145Y0404786D01*
X0112912Y0404018D01*
X0114447Y0404018D01*
X0115214Y0403251D01*
X0115214Y0402484D01*
X0114447Y0401717D01*
X0112912Y0401717D01*
X0112145Y0402484D01*
X0110610Y0401717D02*
X0107541Y0401717D01*
X0107541Y0404018D02*
X0109076Y0404018D01*
X0112145Y0405553D02*
X0112912Y0406320D01*
X0114447Y0406320D01*
X0115214Y0405553D01*
X0116749Y0406320D02*
X0119818Y0406320D01*
X0118283Y0406320D02*
X0118283Y0401717D01*
X0121353Y0401717D02*
X0124422Y0401717D01*
X0125957Y0401717D02*
X0129026Y0401717D01*
X0127491Y0401717D02*
X0127491Y0406320D01*
X0125957Y0404786D01*
X0122887Y0406320D02*
X0122887Y0401717D01*
X0121353Y0404786D02*
X0122887Y0406320D01*
X0139346Y0374407D02*
X0141648Y0374407D01*
X0142416Y0373640D01*
X0142416Y0372872D01*
X0141648Y0372105D01*
X0139346Y0372105D01*
X0139346Y0369803D02*
X0139346Y0374407D01*
X0141648Y0372105D02*
X0142416Y0371338D01*
X0142416Y0370570D01*
X0141648Y0369803D01*
X0139346Y0369803D01*
X0143950Y0370570D02*
X0143950Y0374407D01*
X0147020Y0374407D02*
X0147020Y0370570D01*
X0146252Y0369803D01*
X0144718Y0369803D01*
X0143950Y0370570D01*
X0148554Y0370570D02*
X0148554Y0369803D01*
X0151624Y0369803D01*
X0153158Y0369803D02*
X0156228Y0372872D01*
X0156228Y0373640D01*
X0155460Y0374407D01*
X0153926Y0374407D01*
X0153158Y0373640D01*
X0151624Y0373640D02*
X0148554Y0370570D01*
X0148554Y0374407D02*
X0151624Y0374407D01*
X0151624Y0373640D01*
X0153158Y0369803D02*
X0156228Y0369803D01*
X0178283Y0356320D02*
X0181353Y0356320D01*
X0182887Y0356320D02*
X0182887Y0351717D01*
X0185957Y0351717D01*
X0187491Y0352484D02*
X0188259Y0351717D01*
X0189793Y0351717D01*
X0190561Y0352484D01*
X0190561Y0353251D01*
X0189793Y0354018D01*
X0188259Y0354018D01*
X0187491Y0354786D01*
X0187491Y0355553D01*
X0188259Y0356320D01*
X0189793Y0356320D01*
X0190561Y0355553D01*
X0192095Y0356320D02*
X0195165Y0356320D01*
X0196699Y0356320D02*
X0199768Y0356320D01*
X0199768Y0355553D01*
X0196699Y0352484D01*
X0196699Y0351717D01*
X0193630Y0351717D02*
X0193630Y0356320D01*
X0185957Y0356320D02*
X0182887Y0356320D01*
X0182887Y0354018D02*
X0184422Y0354018D01*
X0179818Y0351717D02*
X0179818Y0356320D01*
X0149639Y0336820D02*
X0149639Y0332217D01*
X0151173Y0332217D02*
X0148104Y0332217D01*
X0146569Y0332984D02*
X0146569Y0336053D01*
X0145802Y0336820D01*
X0143500Y0336820D01*
X0143500Y0332217D01*
X0145802Y0332217D01*
X0146569Y0332984D01*
X0148104Y0335286D02*
X0149639Y0336820D01*
X0126718Y0351717D02*
X0126718Y0356320D01*
X0124416Y0354018D01*
X0127485Y0354018D01*
X0122881Y0356320D02*
X0119812Y0356320D01*
X0121346Y0356320D02*
X0121346Y0351717D01*
X0118277Y0352484D02*
X0117510Y0351717D01*
X0115975Y0351717D01*
X0115208Y0352484D01*
X0115975Y0354018D02*
X0117510Y0354018D01*
X0118277Y0353251D01*
X0118277Y0352484D01*
X0115975Y0354018D02*
X0115208Y0354786D01*
X0115208Y0355553D01*
X0115975Y0356320D01*
X0117510Y0356320D01*
X0118277Y0355553D01*
X0113673Y0356320D02*
X0110604Y0356320D01*
X0110604Y0351717D01*
X0113673Y0351717D01*
X0112139Y0354018D02*
X0110604Y0354018D01*
X0109069Y0356320D02*
X0106000Y0356320D01*
X0107535Y0356320D02*
X0107535Y0351717D01*
X0107535Y0311320D02*
X0107535Y0306717D01*
X0110604Y0306717D02*
X0113673Y0306717D01*
X0115208Y0307484D02*
X0115975Y0306717D01*
X0117510Y0306717D01*
X0118277Y0307484D01*
X0118277Y0308251D01*
X0117510Y0309018D01*
X0115975Y0309018D01*
X0115208Y0309786D01*
X0115208Y0310553D01*
X0115975Y0311320D01*
X0117510Y0311320D01*
X0118277Y0310553D01*
X0119812Y0311320D02*
X0122881Y0311320D01*
X0121346Y0311320D02*
X0121346Y0306717D01*
X0124416Y0307484D02*
X0125183Y0306717D01*
X0126718Y0306717D01*
X0127485Y0307484D01*
X0127485Y0309018D01*
X0126718Y0309786D01*
X0125950Y0309786D01*
X0124416Y0309018D01*
X0124416Y0311320D01*
X0127485Y0311320D01*
X0113673Y0311320D02*
X0110604Y0311320D01*
X0110604Y0306717D01*
X0110604Y0309018D02*
X0112139Y0309018D01*
X0109069Y0311320D02*
X0106000Y0311320D01*
X0106000Y0271320D02*
X0109069Y0271320D01*
X0107535Y0271320D02*
X0107535Y0266717D01*
X0110604Y0266717D02*
X0113673Y0266717D01*
X0115208Y0267484D02*
X0115975Y0266717D01*
X0117510Y0266717D01*
X0118277Y0267484D01*
X0118277Y0268251D01*
X0117510Y0269018D01*
X0115975Y0269018D01*
X0115208Y0269786D01*
X0115208Y0270553D01*
X0115975Y0271320D01*
X0117510Y0271320D01*
X0118277Y0270553D01*
X0119812Y0271320D02*
X0122881Y0271320D01*
X0121346Y0271320D02*
X0121346Y0266717D01*
X0124416Y0267484D02*
X0124416Y0269018D01*
X0126718Y0269018D01*
X0127485Y0268251D01*
X0127485Y0267484D01*
X0126718Y0266717D01*
X0125183Y0266717D01*
X0124416Y0267484D01*
X0124416Y0269018D02*
X0125950Y0270553D01*
X0127485Y0271320D01*
X0113673Y0271320D02*
X0110604Y0271320D01*
X0110604Y0266717D01*
X0110604Y0269018D02*
X0112139Y0269018D01*
X0143500Y0251820D02*
X0143500Y0247217D01*
X0145802Y0247217D01*
X0146569Y0247984D01*
X0146569Y0251053D01*
X0145802Y0251820D01*
X0143500Y0251820D01*
X0148104Y0251053D02*
X0148871Y0251820D01*
X0150406Y0251820D01*
X0151173Y0251053D01*
X0151173Y0250286D01*
X0150406Y0249518D01*
X0151173Y0248751D01*
X0151173Y0247984D01*
X0150406Y0247217D01*
X0148871Y0247217D01*
X0148104Y0247984D01*
X0149639Y0249518D02*
X0150406Y0249518D01*
X0179818Y0266717D02*
X0179818Y0271320D01*
X0178283Y0271320D02*
X0181353Y0271320D01*
X0182887Y0271320D02*
X0182887Y0266717D01*
X0185957Y0266717D01*
X0187491Y0267484D02*
X0188259Y0266717D01*
X0189793Y0266717D01*
X0190561Y0267484D01*
X0190561Y0268251D01*
X0189793Y0269018D01*
X0188259Y0269018D01*
X0187491Y0269786D01*
X0187491Y0270553D01*
X0188259Y0271320D01*
X0189793Y0271320D01*
X0190561Y0270553D01*
X0192095Y0271320D02*
X0195165Y0271320D01*
X0193630Y0271320D02*
X0193630Y0266717D01*
X0196699Y0267484D02*
X0197466Y0266717D01*
X0199001Y0266717D01*
X0199768Y0267484D01*
X0199768Y0270553D01*
X0199001Y0271320D01*
X0197466Y0271320D01*
X0196699Y0270553D01*
X0196699Y0269786D01*
X0197466Y0269018D01*
X0199768Y0269018D01*
X0185957Y0271320D02*
X0182887Y0271320D01*
X0182887Y0269018D02*
X0184422Y0269018D01*
X0215783Y0251820D02*
X0215783Y0247217D01*
X0218085Y0247217D01*
X0218853Y0247984D01*
X0218853Y0251053D01*
X0218085Y0251820D01*
X0215783Y0251820D01*
X0220387Y0249518D02*
X0222689Y0249518D01*
X0223457Y0248751D01*
X0223457Y0247984D01*
X0222689Y0247217D01*
X0221155Y0247217D01*
X0220387Y0247984D01*
X0220387Y0249518D01*
X0221922Y0251053D01*
X0223457Y0251820D01*
X0212559Y0235407D02*
X0211025Y0235407D01*
X0210257Y0234640D01*
X0208723Y0234640D02*
X0207955Y0235407D01*
X0206421Y0235407D01*
X0205653Y0234640D01*
X0205653Y0231570D01*
X0206421Y0230803D01*
X0207955Y0230803D01*
X0208723Y0231570D01*
X0210257Y0230803D02*
X0213327Y0233872D01*
X0213327Y0234640D01*
X0212559Y0235407D01*
X0213327Y0230803D02*
X0210257Y0230803D01*
X0227370Y0212955D02*
X0227370Y0209885D01*
X0228137Y0209118D01*
X0229672Y0209118D01*
X0230439Y0209885D01*
X0231974Y0209118D02*
X0235043Y0209118D01*
X0233509Y0209118D02*
X0233509Y0213722D01*
X0231974Y0212187D01*
X0230439Y0212955D02*
X0229672Y0213722D01*
X0228137Y0213722D01*
X0227370Y0212955D01*
X0211483Y0188251D02*
X0209948Y0186716D01*
X0208414Y0187484D02*
X0208414Y0188251D01*
X0208414Y0187484D02*
X0206879Y0185949D01*
X0206879Y0183647D01*
X0206879Y0185949D02*
X0205344Y0187484D01*
X0205344Y0188251D01*
X0209948Y0183647D02*
X0213018Y0183647D01*
X0211483Y0183647D02*
X0211483Y0188251D01*
X0203874Y0162604D02*
X0202340Y0162604D01*
X0201572Y0161837D01*
X0200038Y0161837D02*
X0200038Y0160302D01*
X0199270Y0159535D01*
X0196969Y0159535D01*
X0198503Y0159535D02*
X0200038Y0158000D01*
X0201572Y0158767D02*
X0202340Y0158000D01*
X0203874Y0158000D01*
X0204642Y0158767D01*
X0204642Y0159535D01*
X0203874Y0160302D01*
X0203107Y0160302D01*
X0203874Y0160302D02*
X0204642Y0161069D01*
X0204642Y0161837D01*
X0203874Y0162604D01*
X0200038Y0161837D02*
X0199270Y0162604D01*
X0196969Y0162604D01*
X0196969Y0158000D01*
X0240657Y0129423D02*
X0240657Y0126354D01*
X0241424Y0125587D01*
X0242959Y0125587D01*
X0243726Y0126354D01*
X0245261Y0125587D02*
X0248330Y0125587D01*
X0246795Y0125587D02*
X0246795Y0130191D01*
X0245261Y0128656D01*
X0243726Y0129423D02*
X0242959Y0130191D01*
X0241424Y0130191D01*
X0240657Y0129423D01*
X0249865Y0129423D02*
X0250632Y0130191D01*
X0252167Y0130191D01*
X0252934Y0129423D01*
X0249865Y0126354D01*
X0250632Y0125587D01*
X0252167Y0125587D01*
X0252934Y0126354D01*
X0252934Y0129423D01*
X0249865Y0129423D02*
X0249865Y0126354D01*
X0257292Y0124500D02*
X0260361Y0124500D01*
X0261896Y0124500D02*
X0264965Y0124500D01*
X0263431Y0124500D02*
X0263431Y0129104D01*
X0261896Y0127569D01*
X0257292Y0129104D02*
X0257292Y0124500D01*
X0257022Y0114104D02*
X0255487Y0114104D01*
X0254720Y0113337D01*
X0254720Y0110267D01*
X0255487Y0109500D01*
X0257022Y0109500D01*
X0257789Y0110267D01*
X0259324Y0109500D02*
X0262393Y0109500D01*
X0260858Y0109500D02*
X0260858Y0114104D01*
X0259324Y0112569D01*
X0257789Y0113337D02*
X0257022Y0114104D01*
X0263928Y0113337D02*
X0264695Y0114104D01*
X0266230Y0114104D01*
X0266997Y0113337D01*
X0266997Y0112569D01*
X0266230Y0111802D01*
X0266997Y0111035D01*
X0266997Y0110267D01*
X0266230Y0109500D01*
X0264695Y0109500D01*
X0263928Y0110267D01*
X0265462Y0111802D02*
X0266230Y0111802D01*
X0266997Y0099104D02*
X0263928Y0099104D01*
X0263928Y0096802D01*
X0265462Y0097569D01*
X0266230Y0097569D01*
X0266997Y0096802D01*
X0266997Y0095267D01*
X0266230Y0094500D01*
X0264695Y0094500D01*
X0263928Y0095267D01*
X0262393Y0094500D02*
X0259324Y0094500D01*
X0260858Y0094500D02*
X0260858Y0099104D01*
X0259324Y0097569D01*
X0257789Y0098337D02*
X0257022Y0099104D01*
X0255487Y0099104D01*
X0254720Y0098337D01*
X0254720Y0095267D01*
X0255487Y0094500D01*
X0257022Y0094500D01*
X0257789Y0095267D01*
X0239934Y0104606D02*
X0239934Y0107675D01*
X0239167Y0108443D01*
X0237632Y0108443D01*
X0236865Y0107675D01*
X0236865Y0106908D01*
X0237632Y0106141D01*
X0239934Y0106141D01*
X0239934Y0104606D02*
X0239167Y0103839D01*
X0237632Y0103839D01*
X0236865Y0104606D01*
X0235330Y0104606D02*
X0234563Y0103839D01*
X0233028Y0103839D01*
X0232261Y0104606D01*
X0232261Y0107675D01*
X0233028Y0108443D01*
X0234563Y0108443D01*
X0235330Y0107675D01*
X0256487Y0139500D02*
X0258022Y0139500D01*
X0258789Y0140267D01*
X0260324Y0139500D02*
X0263393Y0139500D01*
X0261858Y0139500D02*
X0261858Y0144104D01*
X0260324Y0142569D01*
X0258789Y0143337D02*
X0258022Y0144104D01*
X0256487Y0144104D01*
X0255720Y0143337D01*
X0255720Y0140267D01*
X0256487Y0139500D01*
X0264928Y0141802D02*
X0267997Y0141802D01*
X0267230Y0144104D02*
X0264928Y0141802D01*
X0267230Y0139500D02*
X0267230Y0144104D01*
X0267230Y0154500D02*
X0267997Y0155267D01*
X0267997Y0156035D01*
X0267230Y0156802D01*
X0264928Y0156802D01*
X0264928Y0155267D01*
X0265695Y0154500D01*
X0267230Y0154500D01*
X0264928Y0156802D02*
X0266462Y0158337D01*
X0267997Y0159104D01*
X0261858Y0159104D02*
X0261858Y0154500D01*
X0260324Y0154500D02*
X0263393Y0154500D01*
X0260324Y0157569D02*
X0261858Y0159104D01*
X0258789Y0158337D02*
X0258022Y0159104D01*
X0256487Y0159104D01*
X0255720Y0158337D01*
X0255720Y0155267D01*
X0256487Y0154500D01*
X0258022Y0154500D01*
X0258789Y0155267D01*
X0259343Y0169469D02*
X0262412Y0169469D01*
X0263946Y0169469D02*
X0267016Y0172538D01*
X0267016Y0173305D01*
X0266248Y0174072D01*
X0264714Y0174072D01*
X0263946Y0173305D01*
X0263946Y0169469D02*
X0267016Y0169469D01*
X0259343Y0169469D02*
X0259343Y0174072D01*
X0259500Y0184500D02*
X0259500Y0189104D01*
X0261802Y0189104D01*
X0262569Y0188337D01*
X0262569Y0186802D01*
X0261802Y0186035D01*
X0259500Y0186035D01*
X0261035Y0186035D02*
X0262569Y0184500D01*
X0264104Y0184500D02*
X0267173Y0187569D01*
X0267173Y0188337D01*
X0266406Y0189104D01*
X0264871Y0189104D01*
X0264104Y0188337D01*
X0264104Y0184500D02*
X0267173Y0184500D01*
X0346859Y0243913D02*
X0349928Y0248517D01*
X0351463Y0247750D02*
X0352230Y0248517D01*
X0353765Y0248517D01*
X0354532Y0247750D01*
X0354532Y0246983D01*
X0353765Y0246215D01*
X0354532Y0245448D01*
X0354532Y0244681D01*
X0353765Y0243913D01*
X0352230Y0243913D01*
X0351463Y0244681D01*
X0349928Y0243913D02*
X0346859Y0248517D01*
X0352998Y0246215D02*
X0353765Y0246215D01*
X0354792Y0114604D02*
X0354792Y0110767D01*
X0355559Y0110000D01*
X0357094Y0110000D01*
X0357861Y0110767D01*
X0357861Y0114604D01*
X0359396Y0113837D02*
X0360163Y0114604D01*
X0361698Y0114604D01*
X0362465Y0113837D01*
X0362465Y0113069D01*
X0359396Y0110000D01*
X0362465Y0110000D01*
X0350322Y0038604D02*
X0348787Y0038604D01*
X0348020Y0037837D01*
X0349554Y0036302D02*
X0350322Y0036302D01*
X0351089Y0035535D01*
X0351089Y0034767D01*
X0350322Y0034000D01*
X0348787Y0034000D01*
X0348020Y0034767D01*
X0346485Y0034000D02*
X0343416Y0034000D01*
X0344950Y0034000D02*
X0344950Y0038604D01*
X0343416Y0037069D01*
X0341881Y0038604D02*
X0338812Y0038604D01*
X0340346Y0038604D02*
X0340346Y0034000D01*
X0337277Y0034767D02*
X0336510Y0034000D01*
X0334975Y0034000D01*
X0334208Y0034767D01*
X0332673Y0034000D02*
X0329604Y0034000D01*
X0329604Y0038604D01*
X0332673Y0038604D01*
X0334208Y0037837D02*
X0334208Y0037069D01*
X0334975Y0036302D01*
X0336510Y0036302D01*
X0337277Y0035535D01*
X0337277Y0034767D01*
X0337277Y0037837D02*
X0336510Y0038604D01*
X0334975Y0038604D01*
X0334208Y0037837D01*
X0331139Y0036302D02*
X0329604Y0036302D01*
X0328069Y0038604D02*
X0325000Y0038604D01*
X0326535Y0038604D02*
X0326535Y0034000D01*
X0324950Y0019604D02*
X0324950Y0015000D01*
X0323416Y0015000D02*
X0326485Y0015000D01*
X0328020Y0017302D02*
X0331089Y0017302D01*
X0330322Y0015000D02*
X0330322Y0019604D01*
X0328020Y0017302D01*
X0324950Y0019604D02*
X0323416Y0018069D01*
X0321881Y0019604D02*
X0318812Y0019604D01*
X0320346Y0019604D02*
X0320346Y0015000D01*
X0317277Y0015767D02*
X0316510Y0015000D01*
X0314975Y0015000D01*
X0314208Y0015767D01*
X0312673Y0015000D02*
X0309604Y0015000D01*
X0309604Y0019604D01*
X0312673Y0019604D01*
X0314208Y0018837D02*
X0314208Y0018069D01*
X0314975Y0017302D01*
X0316510Y0017302D01*
X0317277Y0016535D01*
X0317277Y0015767D01*
X0317277Y0018837D02*
X0316510Y0019604D01*
X0314975Y0019604D01*
X0314208Y0018837D01*
X0311139Y0017302D02*
X0309604Y0017302D01*
X0308069Y0019604D02*
X0305000Y0019604D01*
X0306535Y0019604D02*
X0306535Y0015000D01*
X0306787Y0034000D02*
X0306020Y0034767D01*
X0306787Y0034000D02*
X0308322Y0034000D01*
X0309089Y0034767D01*
X0309089Y0036302D01*
X0308322Y0037069D01*
X0307554Y0037069D01*
X0306020Y0036302D01*
X0306020Y0038604D01*
X0309089Y0038604D01*
X0304485Y0034000D02*
X0301416Y0034000D01*
X0302950Y0034000D02*
X0302950Y0038604D01*
X0301416Y0037069D01*
X0299881Y0038604D02*
X0296812Y0038604D01*
X0298346Y0038604D02*
X0298346Y0034000D01*
X0295277Y0034767D02*
X0294510Y0034000D01*
X0292975Y0034000D01*
X0292208Y0034767D01*
X0290673Y0034000D02*
X0287604Y0034000D01*
X0287604Y0038604D01*
X0290673Y0038604D01*
X0292208Y0037837D02*
X0292208Y0037069D01*
X0292975Y0036302D01*
X0294510Y0036302D01*
X0295277Y0035535D01*
X0295277Y0034767D01*
X0295277Y0037837D02*
X0294510Y0038604D01*
X0292975Y0038604D01*
X0292208Y0037837D01*
X0289139Y0036302D02*
X0287604Y0036302D01*
X0286069Y0038604D02*
X0283000Y0038604D01*
X0284535Y0038604D02*
X0284535Y0034000D01*
X0350322Y0036302D02*
X0351089Y0037069D01*
X0351089Y0037837D01*
X0350322Y0038604D01*
X0222689Y0287217D02*
X0221155Y0287217D01*
X0220387Y0287984D01*
X0218853Y0287984D02*
X0218853Y0291053D01*
X0218085Y0291820D01*
X0215783Y0291820D01*
X0215783Y0287217D01*
X0218085Y0287217D01*
X0218853Y0287984D01*
X0220387Y0289518D02*
X0221922Y0290286D01*
X0222689Y0290286D01*
X0223457Y0289518D01*
X0223457Y0287984D01*
X0222689Y0287217D01*
X0220387Y0289518D02*
X0220387Y0291820D01*
X0223457Y0291820D01*
X0199768Y0307484D02*
X0199001Y0306717D01*
X0197466Y0306717D01*
X0196699Y0307484D01*
X0196699Y0308251D01*
X0197466Y0309018D01*
X0199001Y0309018D01*
X0199768Y0308251D01*
X0199768Y0307484D01*
X0199001Y0309018D02*
X0199768Y0309786D01*
X0199768Y0310553D01*
X0199001Y0311320D01*
X0197466Y0311320D01*
X0196699Y0310553D01*
X0196699Y0309786D01*
X0197466Y0309018D01*
X0195165Y0311320D02*
X0192095Y0311320D01*
X0193630Y0311320D02*
X0193630Y0306717D01*
X0190561Y0307484D02*
X0189793Y0306717D01*
X0188259Y0306717D01*
X0187491Y0307484D01*
X0185957Y0306717D02*
X0182887Y0306717D01*
X0182887Y0311320D01*
X0185957Y0311320D01*
X0187491Y0310553D02*
X0187491Y0309786D01*
X0188259Y0309018D01*
X0189793Y0309018D01*
X0190561Y0308251D01*
X0190561Y0307484D01*
X0190561Y0310553D02*
X0189793Y0311320D01*
X0188259Y0311320D01*
X0187491Y0310553D01*
X0184422Y0309018D02*
X0182887Y0309018D01*
X0181353Y0311320D02*
X0178283Y0311320D01*
X0179818Y0311320D02*
X0179818Y0306717D01*
X0151173Y0291053D02*
X0150406Y0291820D01*
X0148871Y0291820D01*
X0148104Y0291053D01*
X0146569Y0291053D02*
X0145802Y0291820D01*
X0143500Y0291820D01*
X0143500Y0287217D01*
X0145802Y0287217D01*
X0146569Y0287984D01*
X0146569Y0291053D01*
X0148104Y0287217D02*
X0151173Y0290286D01*
X0151173Y0291053D01*
X0151173Y0287217D02*
X0148104Y0287217D01*
X0215783Y0332217D02*
X0218085Y0332217D01*
X0218853Y0332984D01*
X0218853Y0336053D01*
X0218085Y0336820D01*
X0215783Y0336820D01*
X0215783Y0332217D01*
X0220387Y0334518D02*
X0223457Y0334518D01*
X0222689Y0332217D02*
X0222689Y0336820D01*
X0220387Y0334518D01*
X0220838Y0369803D02*
X0223907Y0369803D01*
X0225442Y0369803D02*
X0228511Y0369803D01*
X0226976Y0369803D02*
X0226976Y0374407D01*
X0225442Y0372872D01*
X0223907Y0373640D02*
X0220838Y0370570D01*
X0220838Y0369803D01*
X0219303Y0370570D02*
X0219303Y0374407D01*
X0220838Y0374407D02*
X0223907Y0374407D01*
X0223907Y0373640D01*
X0219303Y0370570D02*
X0218536Y0369803D01*
X0217001Y0369803D01*
X0216234Y0370570D01*
X0216234Y0374407D01*
X0214699Y0373640D02*
X0214699Y0372872D01*
X0213932Y0372105D01*
X0211630Y0372105D01*
X0211630Y0369803D02*
X0211630Y0374407D01*
X0213932Y0374407D01*
X0214699Y0373640D01*
X0213932Y0372105D02*
X0214699Y0371338D01*
X0214699Y0370570D01*
X0213932Y0369803D01*
X0211630Y0369803D01*
X0200309Y0401717D02*
X0197240Y0401717D01*
X0200309Y0404786D01*
X0200309Y0405553D01*
X0199542Y0406320D01*
X0198007Y0406320D01*
X0197240Y0405553D01*
X0194171Y0406320D02*
X0194171Y0401717D01*
X0195705Y0401717D02*
X0192636Y0401717D01*
X0192636Y0404786D02*
X0194171Y0406320D01*
X0191102Y0406320D02*
X0188032Y0406320D01*
X0189567Y0406320D02*
X0189567Y0401717D01*
X0186498Y0402484D02*
X0185730Y0401717D01*
X0184196Y0401717D01*
X0183428Y0402484D01*
X0181894Y0401717D02*
X0178824Y0401717D01*
X0178824Y0406320D01*
X0181894Y0406320D01*
X0183428Y0405553D02*
X0183428Y0404786D01*
X0184196Y0404018D01*
X0185730Y0404018D01*
X0186498Y0403251D01*
X0186498Y0402484D01*
X0186498Y0405553D02*
X0185730Y0406320D01*
X0184196Y0406320D01*
X0183428Y0405553D01*
X0180359Y0404018D02*
X0178824Y0404018D01*
X0177290Y0406320D02*
X0174220Y0406320D01*
X0175755Y0406320D02*
X0175755Y0401717D01*
D13*
X0177541Y0183887D02*
X0177543Y0184014D01*
X0177549Y0184141D01*
X0177559Y0184267D01*
X0177573Y0184393D01*
X0177590Y0184519D01*
X0177612Y0184644D01*
X0177638Y0184768D01*
X0177667Y0184891D01*
X0177701Y0185014D01*
X0177738Y0185135D01*
X0177779Y0185255D01*
X0177823Y0185374D01*
X0177871Y0185491D01*
X0177923Y0185607D01*
X0177979Y0185721D01*
X0178038Y0185833D01*
X0178101Y0185943D01*
X0178167Y0186052D01*
X0178236Y0186158D01*
X0178309Y0186262D01*
X0178384Y0186364D01*
X0178463Y0186463D01*
X0178545Y0186560D01*
X0178630Y0186654D01*
X0178718Y0186745D01*
X0178809Y0186834D01*
X0178903Y0186920D01*
X0178999Y0187002D01*
X0179097Y0187082D01*
X0179198Y0187159D01*
X0179302Y0187232D01*
X0179408Y0187302D01*
X0179515Y0187369D01*
X0179625Y0187433D01*
X0179737Y0187493D01*
X0179851Y0187549D01*
X0179966Y0187602D01*
X0180083Y0187651D01*
X0180201Y0187697D01*
X0180321Y0187738D01*
X0180442Y0187777D01*
X0180564Y0187811D01*
X0180687Y0187841D01*
X0180811Y0187868D01*
X0180936Y0187890D01*
X0181061Y0187909D01*
X0181187Y0187924D01*
X0181314Y0187935D01*
X0181440Y0187942D01*
X0181567Y0187945D01*
X0181694Y0187944D01*
X0181821Y0187939D01*
X0181947Y0187930D01*
X0182074Y0187917D01*
X0182199Y0187900D01*
X0182324Y0187880D01*
X0182449Y0187855D01*
X0182573Y0187826D01*
X0182695Y0187794D01*
X0182817Y0187758D01*
X0182937Y0187718D01*
X0183056Y0187674D01*
X0183174Y0187627D01*
X0183290Y0187576D01*
X0183404Y0187521D01*
X0183517Y0187463D01*
X0183628Y0187401D01*
X0183737Y0187336D01*
X0183844Y0187268D01*
X0183948Y0187196D01*
X0184050Y0187121D01*
X0184150Y0187043D01*
X0184248Y0186961D01*
X0184342Y0186877D01*
X0184435Y0186790D01*
X0184524Y0186700D01*
X0184610Y0186607D01*
X0184694Y0186512D01*
X0184774Y0186414D01*
X0184852Y0186313D01*
X0184926Y0186210D01*
X0184997Y0186105D01*
X0185065Y0185998D01*
X0185129Y0185888D01*
X0185190Y0185777D01*
X0185247Y0185664D01*
X0185301Y0185549D01*
X0185351Y0185433D01*
X0185398Y0185315D01*
X0185440Y0185195D01*
X0185479Y0185074D01*
X0185515Y0184953D01*
X0185546Y0184830D01*
X0185574Y0184706D01*
X0185597Y0184581D01*
X0185617Y0184456D01*
X0185633Y0184330D01*
X0185645Y0184204D01*
X0185653Y0184077D01*
X0185657Y0183950D01*
X0185657Y0183824D01*
X0185653Y0183697D01*
X0185645Y0183570D01*
X0185633Y0183444D01*
X0185617Y0183318D01*
X0185597Y0183193D01*
X0185574Y0183068D01*
X0185546Y0182944D01*
X0185515Y0182821D01*
X0185479Y0182700D01*
X0185440Y0182579D01*
X0185398Y0182459D01*
X0185351Y0182341D01*
X0185301Y0182225D01*
X0185247Y0182110D01*
X0185190Y0181997D01*
X0185129Y0181886D01*
X0185065Y0181776D01*
X0184997Y0181669D01*
X0184926Y0181564D01*
X0184852Y0181461D01*
X0184774Y0181360D01*
X0184694Y0181262D01*
X0184610Y0181167D01*
X0184524Y0181074D01*
X0184435Y0180984D01*
X0184342Y0180897D01*
X0184248Y0180813D01*
X0184150Y0180731D01*
X0184050Y0180653D01*
X0183948Y0180578D01*
X0183844Y0180506D01*
X0183737Y0180438D01*
X0183628Y0180373D01*
X0183517Y0180311D01*
X0183404Y0180253D01*
X0183290Y0180198D01*
X0183174Y0180147D01*
X0183056Y0180100D01*
X0182937Y0180056D01*
X0182817Y0180016D01*
X0182695Y0179980D01*
X0182573Y0179948D01*
X0182449Y0179919D01*
X0182324Y0179894D01*
X0182199Y0179874D01*
X0182074Y0179857D01*
X0181947Y0179844D01*
X0181821Y0179835D01*
X0181694Y0179830D01*
X0181567Y0179829D01*
X0181440Y0179832D01*
X0181314Y0179839D01*
X0181187Y0179850D01*
X0181061Y0179865D01*
X0180936Y0179884D01*
X0180811Y0179906D01*
X0180687Y0179933D01*
X0180564Y0179963D01*
X0180442Y0179997D01*
X0180321Y0180036D01*
X0180201Y0180077D01*
X0180083Y0180123D01*
X0179966Y0180172D01*
X0179851Y0180225D01*
X0179737Y0180281D01*
X0179625Y0180341D01*
X0179515Y0180405D01*
X0179408Y0180472D01*
X0179302Y0180542D01*
X0179198Y0180615D01*
X0179097Y0180692D01*
X0178999Y0180772D01*
X0178903Y0180854D01*
X0178809Y0180940D01*
X0178718Y0181029D01*
X0178630Y0181120D01*
X0178545Y0181214D01*
X0178463Y0181311D01*
X0178384Y0181410D01*
X0178309Y0181512D01*
X0178236Y0181616D01*
X0178167Y0181722D01*
X0178101Y0181831D01*
X0178038Y0181941D01*
X0177979Y0182053D01*
X0177923Y0182167D01*
X0177871Y0182283D01*
X0177823Y0182400D01*
X0177779Y0182519D01*
X0177738Y0182639D01*
X0177701Y0182760D01*
X0177667Y0182883D01*
X0177638Y0183006D01*
X0177612Y0183130D01*
X0177590Y0183255D01*
X0177573Y0183381D01*
X0177559Y0183507D01*
X0177549Y0183633D01*
X0177543Y0183760D01*
X0177541Y0183887D01*
X0134351Y0129753D02*
X0132383Y0131131D01*
X0134351Y0129753D02*
X0134351Y0127587D01*
X0132383Y0127587D01*
X0132383Y0102391D01*
X0134351Y0102391D01*
X0134351Y0100225D01*
X0132383Y0098847D01*
X0134351Y0100225D02*
X0154036Y0100225D01*
X0154036Y0129753D01*
X0134351Y0129753D01*
X0134351Y0127587D02*
X0134351Y0102391D01*
D14*
X0204800Y0103898D02*
X0204800Y0129702D01*
X0218800Y0129702D01*
X0218800Y0103898D01*
X0204800Y0103898D01*
M02*
