G75*
%MOIN*%
%OFA0B0*%
%FSLAX25Y25*%
%IPPOS*%
%LPD*%
%AMOC8*
5,1,8,0,0,1.08239X$1,22.5*
%
%ADD10C,0.00600*%
%ADD11R,0.00300X0.00050*%
%ADD12R,0.00450X0.00050*%
%ADD13R,0.00150X0.00050*%
%ADD14R,0.01450X0.00050*%
%ADD15R,0.00550X0.00050*%
%ADD16R,0.02200X0.00050*%
%ADD17R,0.00600X0.00050*%
%ADD18R,0.02750X0.00050*%
%ADD19R,0.00700X0.00050*%
%ADD20R,0.00400X0.00050*%
%ADD21R,0.00650X0.00050*%
%ADD22R,0.03150X0.00050*%
%ADD23R,0.00500X0.00050*%
%ADD24R,0.03600X0.00050*%
%ADD25R,0.03950X0.00050*%
%ADD26R,0.00750X0.00050*%
%ADD27R,0.04300X0.00050*%
%ADD28R,0.01700X0.00050*%
%ADD29R,0.01600X0.00050*%
%ADD30R,0.01500X0.00050*%
%ADD31R,0.01400X0.00050*%
%ADD32R,0.01350X0.00050*%
%ADD33R,0.01250X0.00050*%
%ADD34R,0.01300X0.00050*%
%ADD35R,0.01150X0.00050*%
%ADD36R,0.01200X0.00050*%
%ADD37R,0.01100X0.00050*%
%ADD38R,0.01000X0.00050*%
%ADD39R,0.01050X0.00050*%
%ADD40R,0.00950X0.00050*%
%ADD41R,0.00900X0.00050*%
%ADD42R,0.00800X0.00050*%
%ADD43R,0.00850X0.00050*%
%ADD44R,0.00350X0.00050*%
%ADD45R,0.00200X0.00050*%
%ADD46R,0.00250X0.00050*%
%ADD47R,0.01850X0.00050*%
%ADD48R,0.00050X0.00050*%
%ADD49R,0.00100X0.00050*%
%ADD50R,0.01650X0.00050*%
%ADD51R,0.02300X0.00050*%
%ADD52R,0.02400X0.00050*%
%ADD53R,0.02550X0.00050*%
%ADD54R,0.02650X0.00050*%
%ADD55R,0.01950X0.00050*%
%ADD56R,0.01800X0.00050*%
%ADD57R,0.01550X0.00050*%
%ADD58R,0.01750X0.00050*%
%ADD59R,0.01900X0.00050*%
%ADD60R,0.02000X0.00050*%
%ADD61R,0.02150X0.00050*%
%ADD62R,0.02250X0.00050*%
%ADD63R,0.02100X0.00050*%
%ADD64R,0.02450X0.00050*%
%ADD65R,0.03850X0.00050*%
%ADD66R,0.03900X0.00050*%
%ADD67R,0.05000X0.00050*%
%ADD68R,0.06000X0.00050*%
%ADD69R,0.05950X0.00050*%
%ADD70R,0.05850X0.00050*%
%ADD71R,0.05800X0.00050*%
%ADD72R,0.05700X0.00050*%
%ADD73R,0.05600X0.00050*%
%ADD74R,0.05500X0.00050*%
%ADD75R,0.05450X0.00050*%
%ADD76R,0.05300X0.00050*%
%ADD77R,0.04250X0.00050*%
%ADD78R,0.03800X0.00050*%
%ADD79R,0.03750X0.00050*%
%ADD80R,0.04050X0.00050*%
%ADD81R,0.04100X0.00050*%
%ADD82R,0.04700X0.00050*%
%ADD83R,0.04750X0.00050*%
%ADD84R,0.04850X0.00050*%
%ADD85R,0.04900X0.00050*%
%ADD86R,0.05050X0.00050*%
%ADD87R,0.05100X0.00050*%
%ADD88R,0.05150X0.00050*%
%ADD89R,0.05200X0.00050*%
%ADD90R,0.05250X0.00050*%
%ADD91R,0.04800X0.00050*%
%ADD92R,0.04950X0.00050*%
%ADD93R,0.05350X0.00050*%
%ADD94R,0.05400X0.00050*%
%ADD95R,0.05550X0.00050*%
%ADD96R,0.05650X0.00050*%
%ADD97R,0.02800X0.00050*%
%ADD98R,0.05750X0.00050*%
%ADD99R,0.03250X0.00050*%
%ADD100R,0.03400X0.00050*%
%ADD101R,0.05900X0.00050*%
%ADD102R,0.03450X0.00050*%
%ADD103R,0.06050X0.00050*%
%ADD104R,0.06100X0.00050*%
%ADD105R,0.06200X0.00050*%
%ADD106R,0.06250X0.00050*%
%ADD107R,0.06350X0.00050*%
%ADD108R,0.06450X0.00050*%
%ADD109R,0.06500X0.00050*%
%ADD110R,0.06600X0.00050*%
%ADD111R,0.06700X0.00050*%
%ADD112R,0.06650X0.00050*%
%ADD113R,0.06800X0.00050*%
%ADD114R,0.06750X0.00050*%
%ADD115R,0.06900X0.00050*%
%ADD116R,0.06850X0.00050*%
%ADD117R,0.07050X0.00050*%
%ADD118R,0.07000X0.00050*%
%ADD119R,0.07150X0.00050*%
%ADD120R,0.07250X0.00050*%
%ADD121R,0.07400X0.00050*%
%ADD122R,0.07450X0.00050*%
%ADD123R,0.07600X0.00050*%
%ADD124R,0.07750X0.00050*%
%ADD125R,0.07900X0.00050*%
%ADD126R,0.08100X0.00050*%
%ADD127R,0.08150X0.00050*%
%ADD128R,0.08350X0.00050*%
%ADD129R,0.08650X0.00050*%
%ADD130R,0.08700X0.00050*%
%ADD131R,0.18850X0.00050*%
%ADD132R,0.11150X0.00050*%
%ADD133R,0.07650X0.00050*%
%ADD134R,0.10950X0.00050*%
%ADD135R,0.07550X0.00050*%
%ADD136R,0.10800X0.00050*%
%ADD137R,0.07500X0.00050*%
%ADD138R,0.10600X0.00050*%
%ADD139R,0.10500X0.00050*%
%ADD140R,0.10450X0.00050*%
%ADD141R,0.09200X0.00050*%
%ADD142R,0.07950X0.00050*%
%ADD143R,0.09150X0.00050*%
%ADD144R,0.09050X0.00050*%
%ADD145R,0.09100X0.00050*%
%ADD146R,0.09000X0.00050*%
%ADD147R,0.08950X0.00050*%
%ADD148R,0.08900X0.00050*%
%ADD149R,0.08850X0.00050*%
%ADD150R,0.08800X0.00050*%
%ADD151R,0.08450X0.00050*%
%ADD152R,0.08250X0.00050*%
%ADD153R,0.09250X0.00050*%
%ADD154R,0.06300X0.00050*%
%ADD155R,0.09300X0.00050*%
%ADD156R,0.06150X0.00050*%
%ADD157R,0.06550X0.00050*%
%ADD158R,0.06400X0.00050*%
%ADD159R,0.04400X0.00050*%
%ADD160R,0.04350X0.00050*%
%ADD161R,0.04450X0.00050*%
%ADD162R,0.04550X0.00050*%
%ADD163R,0.04600X0.00050*%
%ADD164R,0.04150X0.00050*%
%ADD165R,0.04000X0.00050*%
%ADD166R,0.03650X0.00050*%
%ADD167R,0.03200X0.00050*%
%ADD168R,0.02950X0.00050*%
%ADD169R,0.02350X0.00050*%
%ADD170R,0.03100X0.00050*%
%ADD171R,0.03550X0.00050*%
%ADD172R,0.03700X0.00050*%
%ADD173R,0.04650X0.00050*%
%ADD174R,0.04500X0.00050*%
%ADD175R,0.03350X0.00050*%
%ADD176R,0.02850X0.00050*%
%ADD177C,0.00500*%
%ADD178C,0.00400*%
D10*
X0071918Y0243918D02*
X0075115Y0243918D01*
X0071918Y0243918D02*
X0071918Y0246115D01*
X0071918Y0252918D02*
X0071918Y0255115D01*
X0075115Y0255115D01*
X0075115Y0283918D02*
X0071918Y0283918D01*
X0071918Y0286115D01*
X0071918Y0292918D02*
X0071918Y0295115D01*
X0075115Y0295115D01*
X0075115Y0328918D02*
X0071918Y0328918D01*
X0071918Y0331115D01*
X0071918Y0337918D02*
X0071918Y0340115D01*
X0075115Y0340115D01*
X0065115Y0373918D02*
X0061918Y0373918D01*
X0061918Y0376115D01*
X0061918Y0382918D02*
X0061918Y0385115D01*
X0065115Y0385115D01*
X0134202Y0385115D02*
X0134202Y0382918D01*
X0134202Y0385115D02*
X0137398Y0385115D01*
X0134202Y0376115D02*
X0134202Y0373918D01*
X0137398Y0373918D01*
X0144202Y0340115D02*
X0144202Y0337918D01*
X0144202Y0340115D02*
X0147398Y0340115D01*
X0144202Y0331115D02*
X0144202Y0328918D01*
X0147398Y0328918D01*
X0147398Y0295115D02*
X0144202Y0295115D01*
X0144202Y0292918D01*
X0144202Y0286115D02*
X0144202Y0283918D01*
X0147398Y0283918D01*
X0147398Y0255115D02*
X0144202Y0255115D01*
X0144202Y0252918D01*
X0144202Y0246115D02*
X0144202Y0243918D01*
X0147398Y0243918D01*
X0216485Y0243918D02*
X0219682Y0243918D01*
X0216485Y0243918D02*
X0216485Y0246115D01*
X0216485Y0252918D02*
X0216485Y0255115D01*
X0219682Y0255115D01*
X0219682Y0283918D02*
X0216485Y0283918D01*
X0216485Y0286115D01*
X0216485Y0292918D02*
X0216485Y0295115D01*
X0219682Y0295115D01*
X0219682Y0328918D02*
X0216485Y0328918D01*
X0216485Y0331115D01*
X0216485Y0337918D02*
X0216485Y0340115D01*
X0219682Y0340115D01*
X0209682Y0373918D02*
X0206485Y0373918D01*
X0206485Y0376115D01*
X0206485Y0382918D02*
X0206485Y0385115D01*
X0209682Y0385115D01*
X0299591Y0153320D02*
X0300658Y0153320D01*
X0302794Y0151185D01*
X0302794Y0149050D02*
X0302794Y0153320D01*
X0304969Y0152253D02*
X0304969Y0151185D01*
X0309239Y0151185D01*
X0309239Y0150118D02*
X0309239Y0152253D01*
X0308171Y0153320D01*
X0306036Y0153320D01*
X0304969Y0152253D01*
X0306036Y0149050D02*
X0308171Y0149050D01*
X0309239Y0150118D01*
X0311401Y0149050D02*
X0313536Y0149050D01*
X0312468Y0149050D02*
X0312468Y0155455D01*
X0313536Y0155455D01*
X0315711Y0155455D02*
X0315711Y0149050D01*
X0318914Y0149050D01*
X0319982Y0150118D01*
X0319982Y0152253D01*
X0318914Y0153320D01*
X0315711Y0153320D01*
X0322157Y0152253D02*
X0322157Y0149050D01*
X0322157Y0152253D02*
X0323224Y0153320D01*
X0326427Y0153320D01*
X0326427Y0149050D01*
X0328602Y0151185D02*
X0332873Y0151185D01*
X0332873Y0150118D02*
X0332873Y0152253D01*
X0331805Y0153320D01*
X0329670Y0153320D01*
X0328602Y0152253D01*
X0328602Y0151185D01*
X0329670Y0149050D02*
X0331805Y0149050D01*
X0332873Y0150118D01*
X0335048Y0149050D02*
X0335048Y0155455D01*
X0339318Y0155455D02*
X0339318Y0149050D01*
X0337183Y0151185D01*
X0335048Y0149050D01*
X0337196Y0144955D02*
X0341467Y0144955D01*
X0339331Y0144955D02*
X0339331Y0138550D01*
X0335021Y0139618D02*
X0335021Y0141753D01*
X0333953Y0142820D01*
X0331818Y0142820D01*
X0330751Y0141753D01*
X0330751Y0140685D01*
X0335021Y0140685D01*
X0335021Y0139618D02*
X0333953Y0138550D01*
X0331818Y0138550D01*
X0328576Y0138550D02*
X0326440Y0138550D01*
X0327508Y0138550D02*
X0327508Y0144955D01*
X0328576Y0144955D01*
X0324279Y0141753D02*
X0323211Y0142820D01*
X0321076Y0142820D01*
X0320008Y0141753D01*
X0320008Y0140685D01*
X0324279Y0140685D01*
X0324279Y0139618D02*
X0324279Y0141753D01*
X0324279Y0139618D02*
X0323211Y0138550D01*
X0321076Y0138550D01*
X0317833Y0138550D02*
X0314630Y0138550D01*
X0313563Y0139618D01*
X0314630Y0140685D01*
X0316765Y0140685D01*
X0317833Y0141753D01*
X0316765Y0142820D01*
X0313563Y0142820D01*
X0311388Y0140685D02*
X0308185Y0142820D01*
X0306016Y0141753D02*
X0306016Y0139618D01*
X0304949Y0138550D01*
X0302814Y0138550D01*
X0301746Y0139618D01*
X0301746Y0141753D01*
X0302814Y0142820D01*
X0304949Y0142820D01*
X0306016Y0141753D01*
X0308185Y0138550D02*
X0311388Y0140685D01*
X0311388Y0138550D02*
X0311388Y0144955D01*
X0312468Y0135523D02*
X0312468Y0134455D01*
X0312468Y0132320D02*
X0312468Y0128050D01*
X0311401Y0128050D02*
X0313536Y0128050D01*
X0315698Y0128050D02*
X0316765Y0129118D01*
X0316765Y0133388D01*
X0315698Y0132320D02*
X0317833Y0132320D01*
X0320008Y0131253D02*
X0320008Y0128050D01*
X0323211Y0128050D01*
X0324279Y0129118D01*
X0323211Y0130185D01*
X0320008Y0130185D01*
X0320008Y0131253D02*
X0321076Y0132320D01*
X0323211Y0132320D01*
X0326440Y0132320D02*
X0328576Y0132320D01*
X0327508Y0133388D02*
X0327508Y0129118D01*
X0326440Y0128050D01*
X0325359Y0123955D02*
X0323224Y0123955D01*
X0322157Y0122888D01*
X0326427Y0118618D01*
X0325359Y0117550D01*
X0323224Y0117550D01*
X0322157Y0118618D01*
X0322157Y0122888D01*
X0319982Y0121820D02*
X0317846Y0123955D01*
X0317846Y0117550D01*
X0315711Y0117550D02*
X0319982Y0117550D01*
X0325359Y0123955D02*
X0326427Y0122888D01*
X0326427Y0118618D01*
X0328602Y0117550D02*
X0332873Y0117550D01*
X0328602Y0121820D01*
X0328602Y0122888D01*
X0329670Y0123955D01*
X0331805Y0123955D01*
X0332873Y0122888D01*
X0335028Y0118618D02*
X0335028Y0117550D01*
X0336095Y0117550D01*
X0336095Y0118618D01*
X0335028Y0118618D01*
X0338270Y0122888D02*
X0342541Y0118618D01*
X0342541Y0117550D01*
X0344716Y0118618D02*
X0345784Y0117550D01*
X0347919Y0117550D01*
X0348986Y0118618D01*
X0344716Y0122888D01*
X0344716Y0118618D01*
X0344716Y0122888D02*
X0345784Y0123955D01*
X0347919Y0123955D01*
X0348986Y0122888D01*
X0348986Y0118618D01*
X0351141Y0118618D02*
X0351141Y0117550D01*
X0352209Y0117550D01*
X0352209Y0118618D01*
X0351141Y0118618D01*
X0354384Y0118618D02*
X0355452Y0117550D01*
X0357587Y0117550D01*
X0358655Y0118618D01*
X0360830Y0118618D02*
X0360830Y0122888D01*
X0365100Y0118618D01*
X0364032Y0117550D01*
X0361897Y0117550D01*
X0360830Y0118618D01*
X0360830Y0122888D02*
X0361897Y0123955D01*
X0364032Y0123955D01*
X0365100Y0122888D01*
X0365100Y0118618D01*
X0358655Y0122888D02*
X0357587Y0123955D01*
X0355452Y0123955D01*
X0354384Y0122888D01*
X0354384Y0121820D01*
X0355452Y0120753D01*
X0354384Y0119685D01*
X0354384Y0118618D01*
X0355452Y0120753D02*
X0356519Y0120753D01*
X0357587Y0128050D02*
X0354384Y0128050D01*
X0354384Y0131253D01*
X0355452Y0132320D01*
X0357587Y0132320D01*
X0357587Y0130185D02*
X0354384Y0130185D01*
X0352209Y0129118D02*
X0351141Y0128050D01*
X0347939Y0128050D01*
X0347939Y0132320D01*
X0345764Y0132320D02*
X0342561Y0132320D01*
X0341493Y0131253D01*
X0341493Y0129118D01*
X0342561Y0128050D01*
X0345764Y0128050D01*
X0345764Y0125915D02*
X0345764Y0132320D01*
X0352209Y0132320D02*
X0352209Y0129118D01*
X0357587Y0130185D02*
X0358655Y0129118D01*
X0357587Y0128050D01*
X0360830Y0128050D02*
X0360830Y0134455D01*
X0360830Y0131253D02*
X0365100Y0131253D01*
X0365100Y0134455D02*
X0365100Y0128050D01*
X0365100Y0138550D02*
X0362965Y0138550D01*
X0364032Y0138550D02*
X0364032Y0144955D01*
X0362965Y0144955D02*
X0365100Y0144955D01*
X0364032Y0149050D02*
X0362965Y0149050D01*
X0361897Y0150118D01*
X0361897Y0155455D01*
X0360830Y0155455D02*
X0362965Y0155455D01*
X0365100Y0150118D02*
X0364032Y0149050D01*
X0360803Y0144955D02*
X0357600Y0144955D01*
X0356533Y0143888D01*
X0356533Y0141753D01*
X0357600Y0140685D01*
X0360803Y0140685D01*
X0360803Y0138550D02*
X0360803Y0144955D01*
X0357587Y0149050D02*
X0358655Y0150118D01*
X0357587Y0151185D01*
X0354384Y0151185D01*
X0354384Y0152253D02*
X0354384Y0149050D01*
X0357587Y0149050D01*
X0357587Y0153320D02*
X0355452Y0153320D01*
X0354384Y0152253D01*
X0352209Y0153320D02*
X0349006Y0153320D01*
X0347939Y0152253D01*
X0347939Y0149050D01*
X0352209Y0149050D02*
X0352209Y0153320D01*
X0352222Y0144955D02*
X0350087Y0142820D01*
X0350087Y0138550D01*
X0350087Y0141753D02*
X0354358Y0141753D01*
X0354358Y0142820D02*
X0352222Y0144955D01*
X0354358Y0142820D02*
X0354358Y0138550D01*
X0342541Y0123955D02*
X0338270Y0123955D01*
X0338270Y0122888D01*
X0337183Y0128050D02*
X0338250Y0129118D01*
X0338250Y0133388D01*
X0337183Y0132320D02*
X0339318Y0132320D01*
X0335021Y0131253D02*
X0333953Y0132320D01*
X0330751Y0132320D01*
X0331818Y0130185D02*
X0333953Y0130185D01*
X0335021Y0131253D01*
X0335021Y0128050D02*
X0331818Y0128050D01*
X0330751Y0129118D01*
X0331818Y0130185D01*
X0313536Y0132320D02*
X0312468Y0132320D01*
X0309239Y0131253D02*
X0309239Y0129118D01*
X0308171Y0128050D01*
X0306036Y0128050D01*
X0304969Y0129118D01*
X0304969Y0131253D01*
X0306036Y0132320D01*
X0308171Y0132320D01*
X0309239Y0131253D01*
X0302794Y0132320D02*
X0302794Y0128050D01*
X0302794Y0132320D02*
X0299591Y0132320D01*
X0298523Y0131253D01*
X0298523Y0128050D01*
X0299571Y0136415D02*
X0299571Y0142820D01*
X0296368Y0142820D01*
X0295300Y0141753D01*
X0295300Y0139618D01*
X0296368Y0138550D01*
X0299571Y0138550D01*
X0289903Y0134455D02*
X0289903Y0130185D01*
X0287767Y0128050D01*
X0285632Y0130185D01*
X0285632Y0134455D01*
X0283457Y0133388D02*
X0282389Y0134455D01*
X0280254Y0134455D01*
X0279187Y0133388D01*
X0279187Y0132320D01*
X0283457Y0128050D01*
X0279187Y0128050D01*
X0309266Y0122888D02*
X0309266Y0121820D01*
X0310333Y0120753D01*
X0312468Y0120753D01*
X0313536Y0121820D01*
X0313536Y0122888D01*
X0312468Y0123955D01*
X0310333Y0123955D01*
X0309266Y0122888D01*
X0310333Y0120753D02*
X0309266Y0119685D01*
X0309266Y0118618D01*
X0310333Y0117550D01*
X0312468Y0117550D01*
X0313536Y0118618D01*
X0313536Y0119685D01*
X0312468Y0120753D01*
D11*
X0317725Y0092900D03*
X0317725Y0090200D03*
X0317725Y0090150D03*
X0317725Y0090100D03*
X0317725Y0090050D03*
X0317725Y0090000D03*
X0317725Y0089950D03*
X0317725Y0089900D03*
X0317725Y0089850D03*
X0317725Y0089800D03*
X0317725Y0089750D03*
X0317725Y0089700D03*
X0317725Y0089650D03*
X0317725Y0089600D03*
X0317725Y0089550D03*
X0318225Y0081650D03*
X0318225Y0081600D03*
X0318225Y0081550D03*
X0318225Y0081500D03*
X0318425Y0080850D03*
X0317675Y0079200D03*
X0317675Y0079150D03*
X0317675Y0079100D03*
X0316975Y0079100D03*
X0316975Y0079150D03*
X0316975Y0079050D03*
X0316975Y0079000D03*
X0316925Y0078750D03*
X0316925Y0078700D03*
X0316925Y0078650D03*
X0316925Y0078600D03*
X0316925Y0078550D03*
X0316925Y0078500D03*
X0316875Y0078200D03*
X0316875Y0078150D03*
X0316775Y0077300D03*
X0316775Y0077250D03*
X0316775Y0077200D03*
X0316775Y0077150D03*
X0316775Y0077100D03*
X0316775Y0077050D03*
X0316775Y0077000D03*
X0316775Y0076950D03*
X0316775Y0076900D03*
X0316775Y0076850D03*
X0316775Y0076800D03*
X0316775Y0076750D03*
X0316775Y0076700D03*
X0315175Y0076200D03*
X0315175Y0076150D03*
X0315175Y0076100D03*
X0315225Y0076000D03*
X0315225Y0075950D03*
X0315125Y0076300D03*
X0315125Y0076350D03*
X0315125Y0076400D03*
X0315525Y0074550D03*
X0319225Y0077250D03*
X0319275Y0077200D03*
X0319125Y0077450D03*
X0319875Y0078150D03*
X0319875Y0078200D03*
X0319975Y0079000D03*
X0319975Y0079050D03*
X0319925Y0079150D03*
X0319875Y0079300D03*
X0318375Y0078500D03*
X0318375Y0078450D03*
X0299775Y0078650D03*
X0299725Y0078600D03*
X0299675Y0078500D03*
X0299625Y0078450D03*
X0299575Y0078350D03*
X0299525Y0078300D03*
X0299525Y0078250D03*
X0299475Y0078200D03*
X0299425Y0078100D03*
X0299375Y0078000D03*
X0299275Y0077800D03*
X0298625Y0076000D03*
X0296675Y0075950D03*
X0296675Y0076150D03*
X0296425Y0076450D03*
X0296375Y0077500D03*
X0296875Y0077500D03*
X0296875Y0077450D03*
X0296875Y0077400D03*
X0297125Y0082250D03*
X0297125Y0083350D03*
D12*
X0300900Y0081200D03*
X0301250Y0078800D03*
X0301300Y0078700D03*
X0298550Y0075900D03*
X0298400Y0074700D03*
X0296700Y0075850D03*
X0295100Y0078500D03*
X0295050Y0078550D03*
X0291400Y0077600D03*
X0296600Y0089950D03*
X0296650Y0095950D03*
X0311700Y0085000D03*
X0311750Y0084950D03*
X0311800Y0084900D03*
X0311850Y0084850D03*
X0311950Y0084700D03*
X0312000Y0084650D03*
X0312050Y0084600D03*
X0312600Y0083800D03*
X0312600Y0083750D03*
X0312650Y0083650D03*
X0315750Y0081650D03*
X0315750Y0081600D03*
X0315700Y0081550D03*
X0315650Y0081500D03*
X0315650Y0081450D03*
X0315600Y0081400D03*
X0315550Y0081350D03*
X0315550Y0081300D03*
X0315500Y0081250D03*
X0315450Y0081150D03*
X0315400Y0081050D03*
X0315350Y0081000D03*
X0315800Y0081700D03*
X0315850Y0081800D03*
X0315900Y0081850D03*
X0315950Y0081950D03*
X0316050Y0082100D03*
X0316150Y0082250D03*
X0317700Y0080150D03*
X0317700Y0079300D03*
X0319150Y0079750D03*
X0319100Y0079900D03*
X0319050Y0080050D03*
X0319200Y0079600D03*
X0318950Y0080900D03*
X0318950Y0080950D03*
X0319900Y0077950D03*
X0319900Y0077900D03*
X0320250Y0076950D03*
X0319700Y0076850D03*
X0319700Y0076600D03*
X0319800Y0075550D03*
X0315500Y0074600D03*
X0315350Y0075500D03*
X0315300Y0075800D03*
X0315150Y0076500D03*
X0313400Y0077800D03*
X0313450Y0077900D03*
X0313500Y0077950D03*
X0313200Y0077500D03*
X0312500Y0077850D03*
X0312450Y0077800D03*
X0312400Y0077750D03*
X0312350Y0077650D03*
X0312300Y0077600D03*
X0312300Y0077550D03*
X0312250Y0077500D03*
X0312200Y0077450D03*
X0312200Y0077400D03*
X0312150Y0077350D03*
X0312100Y0077300D03*
X0312050Y0077250D03*
X0312000Y0077150D03*
X0311950Y0077100D03*
X0311900Y0077050D03*
X0311700Y0076800D03*
X0311650Y0076750D03*
X0313250Y0080000D03*
X0317700Y0086800D03*
X0317700Y0086850D03*
X0317700Y0086900D03*
X0317750Y0091800D03*
X0317750Y0092750D03*
D13*
X0317750Y0093700D03*
X0317750Y0093750D03*
X0317750Y0093800D03*
X0317750Y0093850D03*
X0317750Y0093900D03*
X0317750Y0093950D03*
X0317750Y0094000D03*
X0317750Y0094050D03*
X0317750Y0094100D03*
X0317750Y0094150D03*
X0317750Y0094200D03*
X0317750Y0094250D03*
X0317750Y0094300D03*
X0317750Y0094350D03*
X0317750Y0094400D03*
X0317750Y0094450D03*
X0317750Y0094500D03*
X0317750Y0094550D03*
X0317750Y0094600D03*
X0317750Y0094650D03*
X0317750Y0094700D03*
X0317750Y0094750D03*
X0317750Y0094800D03*
X0317750Y0094850D03*
X0317750Y0094900D03*
X0317750Y0094950D03*
X0320150Y0078600D03*
X0320000Y0078500D03*
X0320050Y0078400D03*
X0319750Y0078500D03*
X0319500Y0078400D03*
X0319500Y0078300D03*
X0319550Y0078200D03*
X0319700Y0078050D03*
X0320100Y0078050D03*
X0320150Y0078100D03*
X0319250Y0077350D03*
X0319200Y0077400D03*
X0319000Y0077600D03*
X0319000Y0077650D03*
X0318950Y0077800D03*
X0318450Y0077250D03*
X0318350Y0077100D03*
X0318350Y0076950D03*
X0318300Y0076750D03*
X0318500Y0076700D03*
X0300500Y0080150D03*
X0298400Y0081050D03*
X0295800Y0077600D03*
X0295800Y0077550D03*
X0295750Y0077500D03*
X0295750Y0077450D03*
X0298400Y0074650D03*
X0297200Y0085450D03*
X0297200Y0085500D03*
X0297200Y0085550D03*
X0297200Y0085600D03*
X0297200Y0085650D03*
X0297200Y0085700D03*
X0297250Y0086650D03*
X0297250Y0086700D03*
X0295800Y0089400D03*
X0295800Y0089900D03*
X0295800Y0089950D03*
D14*
X0296450Y0077750D03*
X0307100Y0074650D03*
X0315450Y0077300D03*
X0317600Y0079350D03*
X0317600Y0079400D03*
X0317550Y0079450D03*
X0317550Y0079500D03*
X0318050Y0079900D03*
X0318150Y0082550D03*
X0318150Y0082600D03*
X0317550Y0083450D03*
X0319850Y0077150D03*
D15*
X0319700Y0076500D03*
X0319700Y0076450D03*
X0319700Y0076400D03*
X0319700Y0076350D03*
X0319700Y0076300D03*
X0319700Y0076250D03*
X0315400Y0075350D03*
X0315400Y0075300D03*
X0315300Y0075650D03*
X0315300Y0075700D03*
X0315200Y0076550D03*
X0315500Y0074650D03*
X0313150Y0077400D03*
X0312600Y0077950D03*
X0311600Y0076700D03*
X0311450Y0076550D03*
X0311400Y0076500D03*
X0311350Y0076450D03*
X0311300Y0076400D03*
X0311250Y0076350D03*
X0311200Y0076300D03*
X0311150Y0076250D03*
X0313300Y0079900D03*
X0314200Y0079200D03*
X0314250Y0079250D03*
X0314350Y0079400D03*
X0314400Y0079450D03*
X0314450Y0079550D03*
X0314500Y0079600D03*
X0314550Y0079700D03*
X0314600Y0079750D03*
X0314650Y0079850D03*
X0314700Y0079900D03*
X0314700Y0079950D03*
X0314750Y0080000D03*
X0314800Y0080050D03*
X0314800Y0080100D03*
X0314850Y0080150D03*
X0314900Y0080200D03*
X0314900Y0080250D03*
X0314950Y0080300D03*
X0315300Y0080850D03*
X0317700Y0080850D03*
X0317700Y0080900D03*
X0317700Y0080950D03*
X0317700Y0081000D03*
X0317700Y0081050D03*
X0317700Y0081100D03*
X0317700Y0081150D03*
X0317700Y0081200D03*
X0317700Y0081250D03*
X0317700Y0081300D03*
X0317700Y0081350D03*
X0317700Y0081400D03*
X0317700Y0081450D03*
X0317700Y0081500D03*
X0317700Y0081550D03*
X0317700Y0081600D03*
X0317700Y0081650D03*
X0317700Y0081700D03*
X0317700Y0081750D03*
X0317700Y0081800D03*
X0317700Y0081850D03*
X0317700Y0081900D03*
X0317700Y0080800D03*
X0317700Y0080750D03*
X0317700Y0080700D03*
X0318900Y0081200D03*
X0318900Y0081250D03*
X0318900Y0081300D03*
X0317700Y0083750D03*
X0317700Y0083800D03*
X0317700Y0083850D03*
X0317700Y0083900D03*
X0317700Y0083950D03*
X0317700Y0084000D03*
X0317700Y0084050D03*
X0317700Y0084100D03*
X0317700Y0084150D03*
X0317700Y0084200D03*
X0317700Y0084250D03*
X0317700Y0084300D03*
X0317700Y0084350D03*
X0317700Y0084400D03*
X0317700Y0084450D03*
X0317700Y0084500D03*
X0317700Y0084550D03*
X0317700Y0084600D03*
X0317700Y0084650D03*
X0317700Y0084700D03*
X0317700Y0084750D03*
X0317700Y0084800D03*
X0317700Y0084850D03*
X0317700Y0084900D03*
X0317700Y0084950D03*
X0317700Y0085000D03*
X0317700Y0085050D03*
X0317700Y0085100D03*
X0317700Y0085150D03*
X0317700Y0085200D03*
X0317700Y0085250D03*
X0317700Y0085300D03*
X0317700Y0085350D03*
X0317700Y0085400D03*
X0317700Y0085450D03*
X0317700Y0085500D03*
X0317700Y0085550D03*
X0317700Y0085600D03*
X0317700Y0085650D03*
X0317700Y0085700D03*
X0317700Y0085750D03*
X0317700Y0085800D03*
X0317700Y0085850D03*
X0317700Y0085900D03*
X0317700Y0085950D03*
X0317700Y0086000D03*
X0317700Y0086050D03*
X0317700Y0086100D03*
X0317700Y0086150D03*
X0317700Y0086650D03*
X0317700Y0086700D03*
X0317750Y0090700D03*
X0311400Y0085300D03*
X0311350Y0085350D03*
X0311300Y0085400D03*
X0311250Y0085450D03*
X0312550Y0083900D03*
X0301050Y0079300D03*
X0298900Y0079500D03*
X0298650Y0079300D03*
X0298600Y0079250D03*
X0298550Y0079200D03*
X0298300Y0079000D03*
X0298250Y0078950D03*
X0298200Y0078900D03*
X0298150Y0078850D03*
X0298000Y0078750D03*
X0297950Y0078700D03*
X0297900Y0078650D03*
X0297850Y0078600D03*
X0297550Y0078350D03*
X0296650Y0076300D03*
X0296700Y0075350D03*
X0296700Y0075300D03*
X0296700Y0075250D03*
X0296700Y0075200D03*
X0296700Y0075150D03*
X0296700Y0075100D03*
X0296700Y0075050D03*
X0296700Y0075000D03*
X0296700Y0074950D03*
X0296700Y0074900D03*
X0298400Y0074750D03*
X0298550Y0075850D03*
X0295000Y0078650D03*
X0294900Y0078700D03*
X0294850Y0078750D03*
X0294300Y0079200D03*
X0294250Y0079250D03*
X0294200Y0079300D03*
X0294150Y0079350D03*
X0294000Y0079450D03*
X0293050Y0079300D03*
X0292850Y0079100D03*
X0292750Y0079000D03*
X0292700Y0078950D03*
X0292650Y0078900D03*
X0292600Y0078850D03*
X0292550Y0078800D03*
X0292500Y0078750D03*
X0292450Y0078700D03*
X0292400Y0078650D03*
X0292350Y0078600D03*
X0292300Y0078550D03*
X0292250Y0078500D03*
X0292200Y0078450D03*
X0292150Y0078400D03*
X0292100Y0078350D03*
X0292050Y0078300D03*
X0292000Y0078250D03*
X0291950Y0078200D03*
X0291900Y0078150D03*
X0291850Y0078100D03*
X0291800Y0078050D03*
X0291750Y0078000D03*
X0291700Y0077950D03*
X0291650Y0077900D03*
X0291600Y0077850D03*
X0291550Y0077800D03*
X0291500Y0077750D03*
X0291100Y0077350D03*
X0296500Y0082200D03*
X0296500Y0082250D03*
X0296500Y0082300D03*
X0296500Y0082350D03*
X0296500Y0082400D03*
X0296500Y0082450D03*
X0296500Y0082500D03*
X0296500Y0082550D03*
X0296500Y0082600D03*
X0296500Y0082650D03*
X0296500Y0082700D03*
X0296500Y0082750D03*
X0296500Y0082800D03*
X0296500Y0082850D03*
X0296500Y0082900D03*
X0296500Y0082950D03*
X0296500Y0083000D03*
X0296500Y0083050D03*
X0296500Y0083100D03*
X0296500Y0083150D03*
X0296500Y0083200D03*
X0296500Y0083250D03*
X0296500Y0083300D03*
X0296500Y0083350D03*
X0296500Y0083400D03*
X0296500Y0083450D03*
X0296500Y0083500D03*
X0296500Y0083550D03*
X0296500Y0083600D03*
X0296500Y0083650D03*
X0296500Y0083700D03*
X0296500Y0083750D03*
X0296500Y0083800D03*
X0296500Y0083850D03*
X0296500Y0083900D03*
X0296500Y0083950D03*
X0296500Y0084000D03*
X0296500Y0084050D03*
X0296500Y0084100D03*
X0296500Y0084150D03*
X0296500Y0084200D03*
X0296500Y0084250D03*
X0296500Y0084300D03*
X0296500Y0084350D03*
X0296500Y0084400D03*
X0296500Y0084450D03*
X0296500Y0084500D03*
X0296500Y0084550D03*
X0296500Y0084600D03*
X0296500Y0084650D03*
X0296500Y0084700D03*
X0296500Y0084750D03*
X0296500Y0084800D03*
X0296500Y0084850D03*
X0296500Y0084900D03*
X0296500Y0084950D03*
X0296500Y0085000D03*
X0296500Y0085050D03*
X0296500Y0085100D03*
X0296550Y0089300D03*
X0296650Y0096000D03*
D16*
X0307125Y0074700D03*
D17*
X0310875Y0076050D03*
X0311025Y0076150D03*
X0311075Y0076200D03*
X0312975Y0076600D03*
X0313175Y0077300D03*
X0313175Y0077350D03*
X0314775Y0077700D03*
X0314825Y0077650D03*
X0315425Y0075250D03*
X0315525Y0074700D03*
X0319775Y0075600D03*
X0319775Y0075650D03*
X0319725Y0076000D03*
X0319725Y0076050D03*
X0319725Y0076100D03*
X0319725Y0076150D03*
X0319725Y0076200D03*
X0319625Y0076950D03*
X0318875Y0081350D03*
X0318875Y0081400D03*
X0318825Y0081450D03*
X0318825Y0081500D03*
X0315275Y0080800D03*
X0313325Y0079850D03*
X0312575Y0083950D03*
X0312725Y0084600D03*
X0311225Y0085500D03*
X0317775Y0090750D03*
X0317775Y0092650D03*
X0302675Y0076600D03*
X0302725Y0076550D03*
X0302775Y0076500D03*
X0302825Y0076450D03*
X0298575Y0075800D03*
X0298575Y0075750D03*
X0298525Y0075650D03*
X0298525Y0075600D03*
X0298475Y0075500D03*
X0298475Y0075450D03*
X0297475Y0078300D03*
X0297625Y0078400D03*
X0297675Y0078450D03*
X0297725Y0078500D03*
X0297775Y0078550D03*
X0298075Y0078800D03*
X0295525Y0078200D03*
X0295275Y0078400D03*
X0295225Y0078450D03*
X0294825Y0078800D03*
X0294775Y0078850D03*
X0294575Y0079000D03*
X0294475Y0079050D03*
X0294425Y0079100D03*
X0294375Y0079150D03*
X0294075Y0079400D03*
X0293225Y0079450D03*
X0293175Y0079400D03*
X0293125Y0079350D03*
X0293025Y0079250D03*
X0292975Y0079200D03*
X0292925Y0079150D03*
X0292825Y0079050D03*
X0291075Y0077300D03*
X0290825Y0076600D03*
X0296525Y0089350D03*
D18*
X0299800Y0095850D03*
X0307100Y0074750D03*
D19*
X0310625Y0075850D03*
X0310675Y0075900D03*
X0313125Y0077050D03*
X0313125Y0077100D03*
X0313125Y0077150D03*
X0312775Y0078100D03*
X0314475Y0078000D03*
X0314525Y0077950D03*
X0314575Y0077900D03*
X0314625Y0077850D03*
X0313375Y0079750D03*
X0312575Y0084000D03*
X0312575Y0084050D03*
X0312775Y0084750D03*
X0312825Y0084850D03*
X0312825Y0084900D03*
X0317675Y0086450D03*
X0317675Y0086600D03*
X0317775Y0090800D03*
X0318775Y0081650D03*
X0318425Y0080050D03*
X0316975Y0076500D03*
X0315475Y0075100D03*
X0315475Y0075050D03*
X0315525Y0074850D03*
X0315525Y0074800D03*
X0315525Y0074750D03*
X0303425Y0075950D03*
X0303275Y0076050D03*
X0303225Y0076100D03*
X0303175Y0076150D03*
X0302575Y0076650D03*
X0301775Y0077550D03*
X0300625Y0078650D03*
X0300575Y0078700D03*
X0300525Y0078750D03*
X0300775Y0081250D03*
X0296475Y0089400D03*
X0296475Y0089900D03*
X0296725Y0096100D03*
X0295275Y0081450D03*
X0295225Y0081400D03*
X0295175Y0081350D03*
X0293675Y0079850D03*
X0293625Y0079800D03*
X0294675Y0078950D03*
X0294725Y0078900D03*
X0291025Y0077200D03*
X0290975Y0077150D03*
X0290975Y0077100D03*
X0298425Y0075200D03*
X0298425Y0075150D03*
X0298425Y0075100D03*
X0298425Y0075050D03*
X0298425Y0075000D03*
X0298425Y0074950D03*
X0298425Y0074900D03*
D20*
X0296725Y0074800D03*
X0296675Y0075900D03*
X0296675Y0076200D03*
X0300975Y0080150D03*
X0300925Y0080600D03*
X0300925Y0080650D03*
X0300925Y0080700D03*
X0300925Y0080750D03*
X0300925Y0080800D03*
X0300925Y0080850D03*
X0300925Y0080900D03*
X0300925Y0080950D03*
X0300925Y0081000D03*
X0300925Y0081050D03*
X0300925Y0081100D03*
X0300925Y0081150D03*
X0296625Y0090000D03*
X0296625Y0095850D03*
X0296625Y0095900D03*
X0291375Y0077550D03*
X0312375Y0077700D03*
X0313375Y0077750D03*
X0313425Y0077850D03*
X0312925Y0076550D03*
X0315125Y0076450D03*
X0316825Y0076600D03*
X0316775Y0077350D03*
X0316925Y0078050D03*
X0317025Y0079250D03*
X0317075Y0079300D03*
X0319075Y0079950D03*
X0319075Y0080000D03*
X0319125Y0079850D03*
X0319125Y0079800D03*
X0319175Y0079700D03*
X0319175Y0079650D03*
X0319225Y0079550D03*
X0319225Y0079500D03*
X0319275Y0079400D03*
X0319275Y0079350D03*
X0319325Y0079200D03*
X0319375Y0079050D03*
X0319425Y0078900D03*
X0319475Y0078800D03*
X0319475Y0078750D03*
X0319525Y0078700D03*
X0319525Y0078650D03*
X0319875Y0078250D03*
X0319725Y0076650D03*
X0315825Y0081750D03*
X0315925Y0081900D03*
X0315975Y0082000D03*
X0316025Y0082050D03*
X0316075Y0082150D03*
X0316125Y0082200D03*
X0316175Y0082300D03*
X0316225Y0082350D03*
X0316225Y0082400D03*
X0316275Y0082450D03*
X0316325Y0082500D03*
X0316325Y0082550D03*
X0316375Y0082600D03*
X0316425Y0082650D03*
X0316425Y0082700D03*
X0316475Y0082750D03*
X0316525Y0082800D03*
X0316575Y0082900D03*
X0316625Y0082950D03*
X0316675Y0083000D03*
X0316725Y0083100D03*
X0316775Y0083150D03*
X0313175Y0082150D03*
X0313175Y0082100D03*
X0313125Y0082350D03*
X0313075Y0082500D03*
X0313075Y0082550D03*
X0313025Y0082700D03*
X0313025Y0082750D03*
X0312975Y0082850D03*
X0312975Y0082900D03*
X0312925Y0083000D03*
X0312875Y0083100D03*
X0312875Y0083150D03*
X0312825Y0083250D03*
X0312775Y0083350D03*
X0312775Y0083400D03*
X0312725Y0083450D03*
X0312725Y0083500D03*
X0312675Y0083550D03*
X0312675Y0083600D03*
X0312625Y0083700D03*
X0313225Y0081850D03*
X0313225Y0081800D03*
X0313275Y0081500D03*
X0313275Y0081450D03*
X0313275Y0081400D03*
X0313275Y0080400D03*
X0313275Y0080350D03*
X0313275Y0080050D03*
X0317675Y0086950D03*
X0317675Y0087000D03*
X0317675Y0087050D03*
X0317675Y0087100D03*
X0317675Y0087150D03*
X0317675Y0087200D03*
X0317675Y0087250D03*
X0317675Y0087300D03*
X0317675Y0087350D03*
X0317675Y0087400D03*
X0317675Y0087450D03*
X0317675Y0087500D03*
X0317725Y0090250D03*
X0317725Y0090300D03*
X0317725Y0090350D03*
X0317775Y0091900D03*
X0317775Y0092800D03*
D21*
X0317700Y0086400D03*
X0317700Y0086350D03*
X0317700Y0086300D03*
X0317700Y0086250D03*
X0317700Y0086200D03*
X0317700Y0083700D03*
X0318800Y0081600D03*
X0318800Y0081550D03*
X0315300Y0080750D03*
X0313350Y0079800D03*
X0312700Y0078050D03*
X0312650Y0078000D03*
X0313150Y0077250D03*
X0313150Y0077200D03*
X0313000Y0076650D03*
X0314650Y0077800D03*
X0314700Y0077750D03*
X0315250Y0076600D03*
X0315450Y0075200D03*
X0315450Y0075150D03*
X0318200Y0076500D03*
X0319750Y0075950D03*
X0319750Y0075900D03*
X0319750Y0075850D03*
X0319750Y0075800D03*
X0319750Y0075750D03*
X0319750Y0075700D03*
X0320000Y0077850D03*
X0310950Y0076100D03*
X0310800Y0076000D03*
X0310750Y0075950D03*
X0303100Y0076200D03*
X0303050Y0076250D03*
X0303000Y0076300D03*
X0302950Y0076350D03*
X0302900Y0076400D03*
X0301000Y0079350D03*
X0298550Y0075700D03*
X0298500Y0075550D03*
X0298450Y0075400D03*
X0298450Y0075350D03*
X0298450Y0075300D03*
X0298450Y0075250D03*
X0298400Y0074850D03*
X0298400Y0074800D03*
X0296650Y0076350D03*
X0296650Y0076400D03*
X0295600Y0078150D03*
X0295400Y0078250D03*
X0295350Y0078300D03*
X0295300Y0078350D03*
X0293750Y0079950D03*
X0293800Y0080000D03*
X0293850Y0080050D03*
X0293900Y0080100D03*
X0293950Y0080150D03*
X0294000Y0080200D03*
X0294050Y0080250D03*
X0294100Y0080300D03*
X0294150Y0080350D03*
X0294200Y0080400D03*
X0294250Y0080450D03*
X0294300Y0080500D03*
X0294350Y0080550D03*
X0294400Y0080600D03*
X0294450Y0080650D03*
X0294500Y0080700D03*
X0294550Y0080750D03*
X0294600Y0080800D03*
X0294650Y0080850D03*
X0294700Y0080900D03*
X0294750Y0080950D03*
X0294800Y0081000D03*
X0294850Y0081050D03*
X0294900Y0081100D03*
X0294950Y0081150D03*
X0295000Y0081200D03*
X0295050Y0081250D03*
X0295100Y0081300D03*
X0296500Y0082150D03*
X0293700Y0079900D03*
X0291050Y0077250D03*
X0296700Y0096050D03*
X0312800Y0084800D03*
X0312750Y0084700D03*
X0312750Y0084650D03*
D22*
X0307100Y0074800D03*
D23*
X0311525Y0076600D03*
X0311575Y0076650D03*
X0311725Y0076850D03*
X0311775Y0076900D03*
X0311825Y0076950D03*
X0311875Y0077000D03*
X0312025Y0077200D03*
X0312525Y0077900D03*
X0313175Y0077450D03*
X0313525Y0078000D03*
X0313575Y0078050D03*
X0313625Y0078100D03*
X0314275Y0079300D03*
X0314325Y0079350D03*
X0314425Y0079500D03*
X0314525Y0079650D03*
X0314625Y0079800D03*
X0315325Y0080900D03*
X0315325Y0080950D03*
X0315425Y0081100D03*
X0315475Y0081200D03*
X0317675Y0080650D03*
X0317675Y0080600D03*
X0317675Y0080550D03*
X0317675Y0080500D03*
X0317675Y0080450D03*
X0317675Y0080400D03*
X0317675Y0080350D03*
X0317675Y0080300D03*
X0317675Y0080250D03*
X0317675Y0080200D03*
X0317675Y0080100D03*
X0317675Y0080050D03*
X0318925Y0080850D03*
X0318925Y0081000D03*
X0318925Y0081050D03*
X0318925Y0081100D03*
X0318925Y0081150D03*
X0319875Y0078350D03*
X0319875Y0078300D03*
X0319875Y0078000D03*
X0319675Y0076900D03*
X0319675Y0076550D03*
X0318275Y0076550D03*
X0316875Y0076550D03*
X0317675Y0078100D03*
X0315325Y0075750D03*
X0315325Y0075600D03*
X0315325Y0075550D03*
X0315375Y0075450D03*
X0315375Y0075400D03*
X0313275Y0079950D03*
X0312575Y0083850D03*
X0311925Y0084750D03*
X0311875Y0084800D03*
X0311675Y0085050D03*
X0311625Y0085100D03*
X0311575Y0085150D03*
X0311525Y0085200D03*
X0311475Y0085250D03*
X0317725Y0086750D03*
X0317725Y0090400D03*
X0317725Y0090450D03*
X0317725Y0090500D03*
X0317725Y0090550D03*
X0317725Y0090600D03*
X0317725Y0090650D03*
X0317775Y0092700D03*
X0301125Y0079200D03*
X0301125Y0079150D03*
X0301125Y0079100D03*
X0301175Y0079050D03*
X0301175Y0079000D03*
X0301175Y0078950D03*
X0301225Y0078900D03*
X0301225Y0078850D03*
X0301275Y0078750D03*
X0301325Y0078650D03*
X0301075Y0079250D03*
X0298825Y0079450D03*
X0298775Y0079400D03*
X0298725Y0079350D03*
X0298475Y0079150D03*
X0298425Y0079100D03*
X0298375Y0079050D03*
X0296675Y0076250D03*
X0296675Y0075800D03*
X0296675Y0075750D03*
X0296675Y0075700D03*
X0296675Y0075650D03*
X0296675Y0075600D03*
X0296675Y0075550D03*
X0296675Y0075500D03*
X0296675Y0075450D03*
X0296675Y0075400D03*
X0296725Y0074850D03*
X0295025Y0078600D03*
X0291425Y0077700D03*
X0291425Y0077650D03*
X0291225Y0077500D03*
X0291175Y0077450D03*
X0291125Y0077400D03*
X0296525Y0085150D03*
X0296525Y0085200D03*
X0296525Y0085250D03*
X0296525Y0085300D03*
X0296525Y0085350D03*
X0296525Y0085400D03*
X0296525Y0085450D03*
X0296525Y0085500D03*
X0296525Y0085550D03*
X0296525Y0085600D03*
X0296525Y0085650D03*
X0296525Y0085700D03*
X0296525Y0085750D03*
X0296525Y0085800D03*
X0296525Y0085850D03*
X0296525Y0085900D03*
X0296525Y0085950D03*
X0296525Y0086000D03*
X0296525Y0086050D03*
X0296525Y0086100D03*
X0296525Y0086150D03*
X0296525Y0086200D03*
X0296525Y0086250D03*
X0296525Y0086300D03*
X0296525Y0086350D03*
X0296525Y0086400D03*
X0296525Y0086450D03*
X0296525Y0086500D03*
X0296525Y0086550D03*
X0296525Y0086600D03*
X0296525Y0086650D03*
X0296525Y0086700D03*
X0296525Y0086750D03*
X0296525Y0086800D03*
X0296525Y0086850D03*
X0296525Y0086900D03*
X0296525Y0086950D03*
X0296525Y0087000D03*
X0296525Y0087050D03*
X0296525Y0087100D03*
X0296525Y0087150D03*
X0296525Y0087200D03*
X0296525Y0087250D03*
X0296525Y0087300D03*
X0296525Y0087350D03*
X0296525Y0087400D03*
X0296525Y0087450D03*
X0296525Y0087500D03*
X0296525Y0087550D03*
X0296525Y0087600D03*
X0296525Y0087650D03*
X0296525Y0087700D03*
X0296525Y0087750D03*
X0296525Y0087800D03*
X0296525Y0087850D03*
X0296525Y0087900D03*
X0296525Y0087950D03*
X0296525Y0088000D03*
X0296525Y0088050D03*
X0296525Y0088100D03*
X0296525Y0088150D03*
X0296525Y0088200D03*
X0296525Y0088250D03*
X0296525Y0088300D03*
X0296525Y0088350D03*
X0296525Y0088400D03*
X0296525Y0088450D03*
X0296525Y0088500D03*
X0296525Y0088550D03*
X0296525Y0088600D03*
X0296525Y0088650D03*
X0296525Y0088700D03*
X0296525Y0088750D03*
X0296525Y0088800D03*
X0296525Y0088850D03*
X0296525Y0088900D03*
X0296525Y0088950D03*
X0296525Y0089000D03*
X0296525Y0089050D03*
X0296525Y0089100D03*
X0296525Y0089150D03*
X0296525Y0089200D03*
X0296525Y0089250D03*
D24*
X0307075Y0074850D03*
X0312375Y0085750D03*
X0317125Y0092350D03*
X0319275Y0091950D03*
D25*
X0307050Y0074900D03*
X0299300Y0082250D03*
X0299550Y0083050D03*
X0299550Y0083100D03*
X0299550Y0083150D03*
D26*
X0297800Y0081100D03*
X0297850Y0081050D03*
X0298650Y0080550D03*
X0298700Y0080500D03*
X0298750Y0080450D03*
X0298800Y0080400D03*
X0298850Y0080350D03*
X0298900Y0080300D03*
X0298950Y0080250D03*
X0299000Y0080200D03*
X0299050Y0080150D03*
X0299200Y0080050D03*
X0299250Y0080000D03*
X0299300Y0079950D03*
X0300100Y0079150D03*
X0300150Y0079100D03*
X0301700Y0077650D03*
X0301750Y0077600D03*
X0301800Y0077500D03*
X0303350Y0076000D03*
X0303500Y0075900D03*
X0303550Y0075850D03*
X0303650Y0075800D03*
X0310300Y0075650D03*
X0310450Y0075750D03*
X0310550Y0075800D03*
X0313000Y0076700D03*
X0313050Y0076750D03*
X0313100Y0076900D03*
X0313100Y0076950D03*
X0313100Y0077000D03*
X0312800Y0078150D03*
X0314400Y0078100D03*
X0314450Y0078050D03*
X0315300Y0076650D03*
X0315500Y0075000D03*
X0315500Y0074950D03*
X0315500Y0074900D03*
X0317650Y0078050D03*
X0320000Y0077800D03*
X0320000Y0077750D03*
X0315300Y0080700D03*
X0312550Y0084100D03*
X0307850Y0087900D03*
X0300300Y0095500D03*
X0296450Y0089450D03*
X0296500Y0082100D03*
X0293600Y0079750D03*
X0290950Y0077050D03*
X0290800Y0076650D03*
D27*
X0299525Y0083400D03*
X0307025Y0074950D03*
X0295475Y0099150D03*
D28*
X0313525Y0078700D03*
X0313525Y0078650D03*
X0316825Y0077750D03*
X0317575Y0076400D03*
X0305575Y0075000D03*
D29*
X0308575Y0075000D03*
X0313525Y0078750D03*
X0313525Y0078800D03*
X0313525Y0078850D03*
X0313625Y0079100D03*
X0313625Y0079150D03*
X0317475Y0079650D03*
X0318225Y0082050D03*
X0318225Y0082100D03*
X0318225Y0082150D03*
X0318225Y0082200D03*
X0317575Y0076350D03*
X0312675Y0085450D03*
X0311125Y0094000D03*
X0298675Y0089600D03*
D30*
X0305375Y0075050D03*
X0313575Y0079000D03*
X0315475Y0080400D03*
X0317525Y0079550D03*
X0317175Y0077850D03*
X0318175Y0082400D03*
X0318175Y0082450D03*
X0318175Y0082500D03*
X0317775Y0092450D03*
D31*
X0312725Y0085400D03*
X0317825Y0083150D03*
X0318125Y0082700D03*
X0318125Y0082650D03*
X0317325Y0077950D03*
X0317275Y0077900D03*
X0319875Y0077100D03*
X0308825Y0075050D03*
X0299375Y0079550D03*
X0296425Y0077700D03*
D32*
X0305150Y0075100D03*
X0314100Y0078150D03*
X0315450Y0080450D03*
X0318100Y0080000D03*
X0318100Y0079950D03*
X0318850Y0080200D03*
X0318100Y0082750D03*
X0318100Y0082800D03*
X0317550Y0083500D03*
X0317350Y0078000D03*
X0317600Y0076300D03*
X0319900Y0077050D03*
X0320200Y0091850D03*
D33*
X0317550Y0083550D03*
X0318050Y0082950D03*
X0315400Y0080500D03*
X0319900Y0077000D03*
X0309000Y0075100D03*
X0300950Y0078600D03*
X0299400Y0079600D03*
X0293600Y0079500D03*
X0300200Y0095550D03*
D34*
X0312775Y0085350D03*
X0317925Y0083100D03*
X0317975Y0083050D03*
X0318025Y0083000D03*
X0318075Y0082900D03*
X0318075Y0082850D03*
X0318875Y0080250D03*
X0315375Y0077250D03*
X0314075Y0078200D03*
X0304975Y0075150D03*
X0317775Y0092500D03*
D35*
X0312450Y0084550D03*
X0312450Y0084500D03*
X0315400Y0080550D03*
X0309200Y0075150D03*
X0304700Y0075250D03*
X0302250Y0076750D03*
X0302200Y0076800D03*
X0302150Y0076850D03*
X0302100Y0076900D03*
X0301100Y0078400D03*
X0301050Y0078500D03*
X0299400Y0079650D03*
X0297850Y0081350D03*
X0293600Y0079550D03*
X0296300Y0089550D03*
X0296300Y0089600D03*
X0296300Y0089650D03*
X0296300Y0089700D03*
X0296300Y0089750D03*
X0296300Y0089800D03*
D36*
X0300975Y0078550D03*
X0304825Y0075200D03*
X0314075Y0078250D03*
X0318875Y0080300D03*
D37*
X0318875Y0080350D03*
X0318675Y0080150D03*
X0318675Y0080100D03*
X0317525Y0083600D03*
X0312825Y0085300D03*
X0317775Y0091000D03*
X0317775Y0091050D03*
X0317775Y0092550D03*
X0314075Y0078300D03*
X0315325Y0077200D03*
X0309475Y0075250D03*
X0309325Y0075200D03*
X0304575Y0075300D03*
X0302075Y0076950D03*
X0302025Y0077000D03*
X0301075Y0078450D03*
X0300275Y0078800D03*
X0300075Y0079350D03*
D38*
X0300775Y0079550D03*
X0300725Y0079700D03*
X0300725Y0079750D03*
X0300675Y0079850D03*
X0300675Y0079900D03*
X0301225Y0078250D03*
X0301275Y0078200D03*
X0301925Y0077200D03*
X0301975Y0077150D03*
X0301975Y0077100D03*
X0298025Y0081000D03*
X0297825Y0081150D03*
X0297775Y0081250D03*
X0297775Y0081300D03*
X0309625Y0075300D03*
X0313375Y0079200D03*
X0315375Y0080600D03*
X0316725Y0079900D03*
X0318875Y0080450D03*
X0318575Y0081800D03*
X0320025Y0077450D03*
X0320025Y0077400D03*
X0320075Y0077300D03*
X0315325Y0076900D03*
X0315325Y0076850D03*
X0315275Y0077150D03*
X0312475Y0084400D03*
X0312875Y0085250D03*
X0317775Y0091200D03*
X0317775Y0091250D03*
X0317825Y0091350D03*
D39*
X0317750Y0091150D03*
X0317750Y0091100D03*
X0317750Y0090950D03*
X0317750Y0090900D03*
X0312450Y0084450D03*
X0317600Y0076250D03*
X0320050Y0077200D03*
X0320050Y0077250D03*
X0318900Y0080400D03*
X0318600Y0081700D03*
X0318600Y0081750D03*
X0318550Y0081850D03*
X0318550Y0081900D03*
X0304450Y0075350D03*
X0302000Y0077050D03*
X0301200Y0078300D03*
X0301150Y0078350D03*
X0300250Y0078850D03*
X0300750Y0079500D03*
X0300700Y0079800D03*
X0299400Y0079700D03*
X0297800Y0081200D03*
X0293600Y0079600D03*
D40*
X0296700Y0081450D03*
X0298100Y0080950D03*
X0298150Y0080900D03*
X0299400Y0079750D03*
X0300050Y0079300D03*
X0300250Y0078900D03*
X0300750Y0079600D03*
X0300750Y0079650D03*
X0300700Y0079950D03*
X0300700Y0080000D03*
X0301300Y0078150D03*
X0301350Y0078100D03*
X0301900Y0077250D03*
X0304150Y0075500D03*
X0304250Y0075450D03*
X0304350Y0075400D03*
X0309700Y0075350D03*
X0313350Y0079250D03*
X0313350Y0079300D03*
X0315300Y0076950D03*
X0315350Y0076800D03*
X0320000Y0077500D03*
X0320000Y0077550D03*
X0320050Y0077350D03*
X0318900Y0080500D03*
X0317600Y0083650D03*
X0312850Y0085200D03*
X0312500Y0084350D03*
X0312500Y0084300D03*
X0317800Y0091300D03*
D41*
X0317775Y0092600D03*
X0317575Y0086550D03*
X0317575Y0086500D03*
X0312875Y0085150D03*
X0312525Y0084250D03*
X0315975Y0080300D03*
X0316125Y0080200D03*
X0316225Y0080150D03*
X0316325Y0080100D03*
X0316575Y0079950D03*
X0318825Y0080650D03*
X0318875Y0080550D03*
X0318775Y0080800D03*
X0319975Y0077600D03*
X0315325Y0076750D03*
X0315275Y0077000D03*
X0315225Y0077050D03*
X0315225Y0077100D03*
X0312975Y0078300D03*
X0310025Y0075500D03*
X0309925Y0075450D03*
X0309825Y0075400D03*
X0304075Y0075550D03*
X0303975Y0075600D03*
X0301875Y0077300D03*
X0301825Y0077400D03*
X0301425Y0078000D03*
X0301375Y0078050D03*
X0300225Y0078950D03*
X0300075Y0079250D03*
X0299375Y0079800D03*
X0298475Y0080650D03*
X0298425Y0080700D03*
X0298375Y0080750D03*
X0296675Y0081000D03*
X0296675Y0081050D03*
X0296675Y0081100D03*
X0296675Y0081150D03*
X0296675Y0081200D03*
X0296675Y0081250D03*
X0296675Y0081300D03*
X0296675Y0081350D03*
X0296675Y0081400D03*
X0296625Y0078450D03*
X0296625Y0078400D03*
X0296625Y0078350D03*
X0296625Y0078300D03*
X0296625Y0077650D03*
X0293575Y0079650D03*
X0290875Y0076900D03*
X0290825Y0076800D03*
X0290825Y0076750D03*
X0300725Y0080050D03*
X0294175Y0100200D03*
D42*
X0296425Y0089850D03*
X0295375Y0081500D03*
X0296625Y0080750D03*
X0296625Y0080700D03*
X0296625Y0080650D03*
X0296625Y0080600D03*
X0296625Y0080550D03*
X0296625Y0080500D03*
X0296625Y0080000D03*
X0296625Y0079950D03*
X0296625Y0079900D03*
X0296625Y0079850D03*
X0296625Y0079800D03*
X0296625Y0079750D03*
X0296625Y0079700D03*
X0296625Y0079650D03*
X0296625Y0079600D03*
X0296625Y0079550D03*
X0296625Y0079500D03*
X0296625Y0079450D03*
X0296625Y0079400D03*
X0296625Y0079350D03*
X0296625Y0079300D03*
X0296625Y0079250D03*
X0296625Y0079200D03*
X0296625Y0079150D03*
X0296625Y0079100D03*
X0296625Y0079050D03*
X0296625Y0079000D03*
X0296625Y0077550D03*
X0299125Y0080100D03*
X0299325Y0079900D03*
X0299775Y0079500D03*
X0300075Y0079200D03*
X0300175Y0079050D03*
X0301575Y0077800D03*
X0301625Y0077750D03*
X0301675Y0077700D03*
X0302475Y0076700D03*
X0303725Y0075750D03*
X0310125Y0075550D03*
X0310225Y0075600D03*
X0310375Y0075700D03*
X0313075Y0076800D03*
X0313075Y0076850D03*
X0312875Y0078200D03*
X0313325Y0079400D03*
X0313325Y0079450D03*
X0313325Y0079500D03*
X0313375Y0079550D03*
X0313375Y0079700D03*
X0312825Y0084950D03*
X0312825Y0085000D03*
X0298575Y0080600D03*
X0290925Y0077000D03*
D43*
X0290900Y0076950D03*
X0290850Y0076850D03*
X0290800Y0076700D03*
X0293600Y0079700D03*
X0295500Y0081550D03*
X0296650Y0080950D03*
X0296650Y0080900D03*
X0296650Y0080850D03*
X0296650Y0080800D03*
X0296650Y0080450D03*
X0296650Y0080400D03*
X0296650Y0080350D03*
X0296650Y0080300D03*
X0296650Y0080250D03*
X0296650Y0080200D03*
X0296650Y0080150D03*
X0296650Y0080100D03*
X0296650Y0080050D03*
X0296600Y0078950D03*
X0296600Y0078900D03*
X0296600Y0078850D03*
X0296600Y0078800D03*
X0296600Y0078750D03*
X0296600Y0078700D03*
X0296600Y0078650D03*
X0296600Y0078600D03*
X0296600Y0078550D03*
X0296600Y0078500D03*
X0296650Y0077600D03*
X0299350Y0079850D03*
X0300200Y0079000D03*
X0300750Y0080100D03*
X0301450Y0077950D03*
X0301500Y0077900D03*
X0301550Y0077850D03*
X0301800Y0077450D03*
X0301850Y0077350D03*
X0303800Y0075700D03*
X0303900Y0075650D03*
X0298300Y0080800D03*
X0298250Y0080850D03*
X0296450Y0089500D03*
X0296750Y0096150D03*
X0312850Y0085100D03*
X0312850Y0085050D03*
X0312550Y0084200D03*
X0312550Y0084150D03*
X0315350Y0080650D03*
X0316050Y0080250D03*
X0316400Y0080050D03*
X0316500Y0080000D03*
X0318800Y0080700D03*
X0318800Y0080750D03*
X0318850Y0080600D03*
X0320000Y0077700D03*
X0320000Y0077650D03*
X0315300Y0076700D03*
X0312900Y0078250D03*
X0313350Y0079350D03*
X0313400Y0079600D03*
X0313400Y0079650D03*
X0317750Y0090850D03*
D44*
X0317750Y0091850D03*
X0317750Y0092850D03*
X0317700Y0089500D03*
X0317700Y0089450D03*
X0317700Y0089400D03*
X0317700Y0089350D03*
X0317700Y0089300D03*
X0317700Y0089250D03*
X0317700Y0089200D03*
X0317700Y0089150D03*
X0317700Y0089100D03*
X0317700Y0089050D03*
X0317700Y0089000D03*
X0317700Y0088950D03*
X0317700Y0088900D03*
X0317700Y0088850D03*
X0317700Y0088800D03*
X0317700Y0088750D03*
X0317700Y0088700D03*
X0317700Y0088650D03*
X0317700Y0088600D03*
X0317700Y0088550D03*
X0317700Y0088500D03*
X0317700Y0088450D03*
X0317700Y0088400D03*
X0317700Y0088350D03*
X0317700Y0088300D03*
X0317700Y0088250D03*
X0317700Y0088200D03*
X0317700Y0088150D03*
X0317700Y0088100D03*
X0317700Y0088050D03*
X0317700Y0088000D03*
X0317700Y0087950D03*
X0317700Y0087900D03*
X0317700Y0087850D03*
X0317700Y0087800D03*
X0317700Y0087750D03*
X0317700Y0087700D03*
X0317700Y0087650D03*
X0317700Y0087600D03*
X0317700Y0087550D03*
X0316700Y0083050D03*
X0316550Y0082850D03*
X0313150Y0082300D03*
X0313150Y0082250D03*
X0313150Y0082200D03*
X0313200Y0082050D03*
X0313200Y0082000D03*
X0313200Y0081950D03*
X0313200Y0081900D03*
X0313250Y0081750D03*
X0313250Y0081700D03*
X0313250Y0081650D03*
X0313250Y0081600D03*
X0313250Y0081550D03*
X0313300Y0081350D03*
X0313300Y0081300D03*
X0313300Y0081250D03*
X0313300Y0081200D03*
X0313300Y0081150D03*
X0313300Y0081100D03*
X0313300Y0081050D03*
X0313300Y0081000D03*
X0313300Y0080950D03*
X0313300Y0080900D03*
X0313300Y0080850D03*
X0313300Y0080800D03*
X0313300Y0080750D03*
X0313300Y0080700D03*
X0313300Y0080650D03*
X0313300Y0080600D03*
X0313300Y0080550D03*
X0313300Y0080500D03*
X0313300Y0080450D03*
X0313250Y0080300D03*
X0313250Y0080250D03*
X0313250Y0080200D03*
X0313250Y0080150D03*
X0313250Y0080100D03*
X0313100Y0082400D03*
X0313100Y0082450D03*
X0313050Y0082600D03*
X0313050Y0082650D03*
X0313000Y0082800D03*
X0312950Y0082950D03*
X0312900Y0083050D03*
X0312850Y0083200D03*
X0312800Y0083300D03*
X0313350Y0077700D03*
X0313300Y0077650D03*
X0313300Y0077600D03*
X0313250Y0077550D03*
X0315250Y0075900D03*
X0315250Y0075850D03*
X0316800Y0076650D03*
X0316900Y0078100D03*
X0317650Y0078150D03*
X0317700Y0079250D03*
X0317000Y0079200D03*
X0319250Y0079450D03*
X0319300Y0079300D03*
X0319300Y0079250D03*
X0319350Y0079150D03*
X0319350Y0079100D03*
X0319400Y0079000D03*
X0319400Y0078950D03*
X0319450Y0078850D03*
X0319500Y0078600D03*
X0319700Y0076800D03*
X0319700Y0076750D03*
X0319700Y0076700D03*
X0300950Y0080200D03*
X0300950Y0080250D03*
X0300950Y0080300D03*
X0300950Y0080350D03*
X0300950Y0080400D03*
X0300950Y0080450D03*
X0300950Y0080500D03*
X0300950Y0080550D03*
X0299850Y0078750D03*
X0299800Y0078700D03*
X0299700Y0078550D03*
X0298600Y0075950D03*
X0297150Y0083400D03*
X0296600Y0090050D03*
X0296600Y0090100D03*
X0296600Y0090150D03*
X0296600Y0090200D03*
X0296600Y0090250D03*
X0296600Y0090300D03*
X0296600Y0090350D03*
X0296600Y0090400D03*
X0296600Y0090450D03*
X0296600Y0090500D03*
X0296600Y0090550D03*
X0296600Y0090600D03*
X0296600Y0090650D03*
X0296600Y0090700D03*
X0296600Y0090750D03*
X0296600Y0090800D03*
X0296600Y0090850D03*
X0296600Y0090900D03*
X0296600Y0090950D03*
X0296600Y0091000D03*
X0296600Y0091050D03*
X0296600Y0091100D03*
X0296600Y0091150D03*
X0296600Y0091200D03*
X0296600Y0091250D03*
X0296600Y0091300D03*
X0296600Y0091350D03*
X0296600Y0091400D03*
X0296600Y0091450D03*
X0296600Y0091500D03*
X0296600Y0091550D03*
X0296600Y0091600D03*
X0296600Y0091650D03*
X0296600Y0091700D03*
X0296600Y0091750D03*
X0296600Y0091800D03*
X0296600Y0091850D03*
X0296600Y0091900D03*
X0296600Y0091950D03*
X0296600Y0092000D03*
X0296600Y0092050D03*
X0296600Y0092100D03*
X0296600Y0092150D03*
X0296600Y0092200D03*
X0296600Y0092250D03*
X0296600Y0092300D03*
X0296600Y0092350D03*
X0296600Y0092400D03*
X0296600Y0092450D03*
X0296600Y0092500D03*
X0296600Y0092550D03*
X0296600Y0092600D03*
X0296600Y0092650D03*
X0296600Y0092700D03*
X0296600Y0092750D03*
X0296600Y0092800D03*
X0296600Y0092850D03*
X0296600Y0092900D03*
X0296600Y0092950D03*
X0296600Y0093000D03*
X0296600Y0093050D03*
X0296600Y0093100D03*
X0296600Y0093150D03*
X0296600Y0093200D03*
X0296600Y0093250D03*
X0296600Y0093300D03*
X0296600Y0093350D03*
X0296600Y0093400D03*
X0296600Y0093450D03*
X0296600Y0093500D03*
X0296600Y0093550D03*
X0296600Y0093600D03*
X0296600Y0093650D03*
X0296600Y0093700D03*
X0296600Y0093750D03*
X0296600Y0093800D03*
X0296600Y0093850D03*
X0296600Y0093900D03*
X0296600Y0093950D03*
X0296600Y0094000D03*
X0296600Y0094050D03*
X0296600Y0094100D03*
X0296600Y0094150D03*
X0296600Y0094200D03*
X0296600Y0094250D03*
X0296600Y0094300D03*
X0296600Y0094350D03*
X0296600Y0094400D03*
X0296600Y0094450D03*
X0296600Y0094500D03*
X0296600Y0094550D03*
X0296600Y0094600D03*
X0296600Y0094650D03*
X0296600Y0094700D03*
X0296600Y0094750D03*
X0296600Y0094800D03*
X0296600Y0094850D03*
X0296600Y0094900D03*
X0296600Y0094950D03*
X0296600Y0095000D03*
X0296600Y0095050D03*
X0296600Y0095100D03*
X0296600Y0095150D03*
X0296600Y0095200D03*
X0296600Y0095250D03*
X0296600Y0095300D03*
X0296600Y0095350D03*
X0296600Y0095400D03*
X0296600Y0095450D03*
X0296600Y0095500D03*
X0296600Y0095550D03*
X0296600Y0095600D03*
X0296600Y0095650D03*
X0296600Y0095700D03*
X0296600Y0095750D03*
X0296600Y0095800D03*
D45*
X0295425Y0100050D03*
X0295825Y0089850D03*
X0295825Y0089500D03*
X0295825Y0089450D03*
X0297225Y0086600D03*
X0297225Y0086550D03*
X0297225Y0086500D03*
X0297225Y0086450D03*
X0297225Y0086400D03*
X0297225Y0086350D03*
X0297225Y0086300D03*
X0297225Y0086250D03*
X0297225Y0086200D03*
X0297225Y0086150D03*
X0297225Y0086100D03*
X0297225Y0086050D03*
X0297225Y0086000D03*
X0297225Y0085950D03*
X0297225Y0085900D03*
X0297225Y0085850D03*
X0297225Y0085800D03*
X0297225Y0085750D03*
X0297175Y0085400D03*
X0297175Y0085350D03*
X0297175Y0085300D03*
X0297175Y0085250D03*
X0297175Y0085200D03*
X0297175Y0085150D03*
X0297175Y0085100D03*
X0297175Y0085050D03*
X0297175Y0085000D03*
X0297175Y0084950D03*
X0297175Y0084900D03*
X0297175Y0084850D03*
X0297175Y0084800D03*
X0297175Y0084750D03*
X0297175Y0084700D03*
X0297175Y0084650D03*
X0297175Y0084600D03*
X0297075Y0082900D03*
X0297075Y0082850D03*
X0297075Y0082800D03*
X0297075Y0082750D03*
X0297075Y0082700D03*
X0297075Y0082650D03*
X0297075Y0082600D03*
X0297075Y0082550D03*
X0296375Y0077400D03*
X0296375Y0077350D03*
X0296375Y0077300D03*
X0296375Y0077250D03*
X0296375Y0077200D03*
X0296375Y0077150D03*
X0296375Y0077100D03*
X0296375Y0077050D03*
X0296375Y0077000D03*
X0296375Y0076950D03*
X0296375Y0076900D03*
X0296375Y0076850D03*
X0296375Y0076800D03*
X0296375Y0076750D03*
X0296375Y0076700D03*
X0296375Y0076650D03*
X0296375Y0076600D03*
X0296875Y0076600D03*
X0296875Y0076650D03*
X0296875Y0076700D03*
X0296875Y0076750D03*
X0296875Y0076800D03*
X0296875Y0076850D03*
X0296875Y0076900D03*
X0296675Y0076050D03*
X0296675Y0076000D03*
X0295725Y0077000D03*
X0295775Y0077350D03*
X0295775Y0077400D03*
X0298825Y0076700D03*
X0298875Y0076850D03*
X0298925Y0077000D03*
X0299025Y0077250D03*
X0299175Y0077600D03*
X0298775Y0076500D03*
X0298725Y0076350D03*
X0317675Y0076200D03*
X0318325Y0076800D03*
X0318375Y0076850D03*
X0318375Y0076900D03*
X0318375Y0077000D03*
X0318375Y0077050D03*
X0318425Y0077300D03*
X0318425Y0077350D03*
X0318425Y0077400D03*
X0319025Y0077550D03*
X0319075Y0077500D03*
X0318925Y0078000D03*
X0319475Y0078450D03*
X0319775Y0078450D03*
X0319975Y0078800D03*
X0320125Y0078650D03*
X0319725Y0079650D03*
X0319675Y0079750D03*
X0319625Y0079850D03*
X0319575Y0079950D03*
X0319525Y0080050D03*
X0319475Y0080150D03*
X0318675Y0079750D03*
X0318725Y0079650D03*
X0318725Y0079600D03*
X0318725Y0079550D03*
X0318725Y0079500D03*
X0318725Y0079450D03*
X0318775Y0079250D03*
X0318775Y0079200D03*
X0318775Y0079150D03*
X0318825Y0078900D03*
X0318825Y0078850D03*
X0318325Y0079000D03*
X0318325Y0079050D03*
X0318275Y0079200D03*
X0317675Y0079050D03*
X0317675Y0079000D03*
X0317675Y0078950D03*
X0317675Y0078900D03*
X0317675Y0078850D03*
X0317675Y0078800D03*
X0317675Y0078750D03*
X0317675Y0078700D03*
X0317675Y0078650D03*
X0317675Y0078600D03*
X0318475Y0076650D03*
X0317725Y0092950D03*
X0317725Y0093000D03*
X0317725Y0093050D03*
X0317725Y0093100D03*
X0317725Y0093150D03*
X0317725Y0093200D03*
X0317725Y0093400D03*
X0317725Y0093450D03*
X0317725Y0093500D03*
X0317725Y0093550D03*
X0317725Y0093600D03*
X0317725Y0093650D03*
D46*
X0317750Y0093350D03*
X0317750Y0093300D03*
X0317750Y0093250D03*
X0318250Y0081450D03*
X0318250Y0081400D03*
X0318250Y0081350D03*
X0318250Y0081300D03*
X0318300Y0081250D03*
X0318300Y0081200D03*
X0318300Y0081150D03*
X0318300Y0081100D03*
X0318350Y0081050D03*
X0318350Y0081000D03*
X0318400Y0080950D03*
X0318400Y0080900D03*
X0318650Y0079800D03*
X0318700Y0079700D03*
X0318750Y0079400D03*
X0318750Y0079350D03*
X0318750Y0079300D03*
X0318800Y0079100D03*
X0318800Y0079050D03*
X0318800Y0079000D03*
X0318800Y0078950D03*
X0318850Y0078800D03*
X0318850Y0078750D03*
X0318850Y0078700D03*
X0318850Y0078650D03*
X0318850Y0078600D03*
X0318900Y0078550D03*
X0318900Y0078500D03*
X0318900Y0078450D03*
X0318900Y0078400D03*
X0318900Y0078350D03*
X0318900Y0078300D03*
X0318950Y0078250D03*
X0318950Y0078200D03*
X0318950Y0078150D03*
X0318950Y0078100D03*
X0318950Y0078050D03*
X0318400Y0078050D03*
X0318400Y0078100D03*
X0318400Y0078150D03*
X0318400Y0078200D03*
X0318400Y0078250D03*
X0318400Y0078300D03*
X0318400Y0078350D03*
X0318400Y0078400D03*
X0318350Y0078550D03*
X0318350Y0078600D03*
X0318350Y0078650D03*
X0318350Y0078700D03*
X0318350Y0078750D03*
X0318350Y0078800D03*
X0318350Y0078850D03*
X0318350Y0078900D03*
X0318350Y0078950D03*
X0318300Y0079100D03*
X0318300Y0079150D03*
X0318250Y0079250D03*
X0318250Y0079300D03*
X0317650Y0078550D03*
X0317650Y0078500D03*
X0317650Y0078450D03*
X0317650Y0078400D03*
X0317650Y0078350D03*
X0317650Y0078300D03*
X0317650Y0078250D03*
X0317650Y0078200D03*
X0316900Y0078250D03*
X0316900Y0078300D03*
X0316900Y0078350D03*
X0316900Y0078400D03*
X0316900Y0078450D03*
X0316950Y0078800D03*
X0316950Y0078850D03*
X0316950Y0078900D03*
X0316950Y0078950D03*
X0318400Y0078000D03*
X0318400Y0077950D03*
X0318400Y0077900D03*
X0318400Y0077850D03*
X0318400Y0077800D03*
X0318400Y0077750D03*
X0318400Y0077700D03*
X0318400Y0077650D03*
X0318400Y0077600D03*
X0318400Y0077550D03*
X0318400Y0077500D03*
X0318400Y0077450D03*
X0318450Y0076600D03*
X0319250Y0077300D03*
X0319750Y0078400D03*
X0319500Y0078500D03*
X0319500Y0078550D03*
X0320050Y0078700D03*
X0320050Y0078750D03*
X0320000Y0078850D03*
X0320000Y0078900D03*
X0320000Y0078950D03*
X0319950Y0079100D03*
X0319900Y0079200D03*
X0319900Y0079250D03*
X0319850Y0079350D03*
X0319850Y0079400D03*
X0319800Y0079450D03*
X0319800Y0079500D03*
X0319750Y0079550D03*
X0319750Y0079600D03*
X0319700Y0079700D03*
X0319650Y0079800D03*
X0319600Y0079900D03*
X0319550Y0080000D03*
X0319500Y0080100D03*
X0315150Y0076250D03*
X0315200Y0076050D03*
X0299600Y0078400D03*
X0299450Y0078150D03*
X0299400Y0078050D03*
X0299350Y0077950D03*
X0299300Y0077900D03*
X0299300Y0077850D03*
X0299250Y0077750D03*
X0299200Y0077700D03*
X0299200Y0077650D03*
X0299150Y0077550D03*
X0299150Y0077500D03*
X0299100Y0077450D03*
X0299100Y0077400D03*
X0299050Y0077350D03*
X0299050Y0077300D03*
X0299000Y0077200D03*
X0299000Y0077150D03*
X0298950Y0077100D03*
X0298950Y0077050D03*
X0298900Y0076950D03*
X0298900Y0076900D03*
X0298850Y0076800D03*
X0298850Y0076750D03*
X0298800Y0076650D03*
X0298800Y0076600D03*
X0298800Y0076550D03*
X0298750Y0076450D03*
X0298750Y0076400D03*
X0298700Y0076300D03*
X0298700Y0076250D03*
X0298700Y0076200D03*
X0298700Y0076150D03*
X0298650Y0076100D03*
X0298650Y0076050D03*
X0296850Y0076450D03*
X0296850Y0076500D03*
X0296850Y0076550D03*
X0296900Y0076950D03*
X0296900Y0077000D03*
X0296900Y0077050D03*
X0296900Y0077100D03*
X0296900Y0077150D03*
X0296900Y0077200D03*
X0296900Y0077250D03*
X0296900Y0077300D03*
X0296900Y0077350D03*
X0296400Y0077450D03*
X0295850Y0077650D03*
X0295750Y0077300D03*
X0295750Y0077250D03*
X0295750Y0077200D03*
X0295750Y0077150D03*
X0295750Y0077100D03*
X0295750Y0077050D03*
X0296400Y0076550D03*
X0296400Y0076500D03*
X0296700Y0076100D03*
X0297100Y0082300D03*
X0297100Y0082350D03*
X0297100Y0082400D03*
X0297100Y0082450D03*
X0297100Y0082500D03*
X0297100Y0082950D03*
X0297100Y0083000D03*
X0297100Y0083050D03*
X0297100Y0083100D03*
X0297100Y0083150D03*
X0297100Y0083200D03*
X0297100Y0083250D03*
X0297100Y0083300D03*
X0297200Y0084500D03*
X0297200Y0084550D03*
D47*
X0300350Y0079450D03*
X0313550Y0078550D03*
X0317600Y0076450D03*
X0300100Y0095650D03*
D48*
X0295800Y0090000D03*
X0295800Y0089350D03*
X0298300Y0081100D03*
X0298400Y0081100D03*
X0295400Y0078500D03*
X0295350Y0078550D03*
X0314400Y0091750D03*
X0317750Y0095800D03*
X0317750Y0096000D03*
X0317750Y0096050D03*
X0317750Y0096100D03*
X0317750Y0096150D03*
X0317750Y0096200D03*
X0317750Y0096250D03*
X0317750Y0096300D03*
X0317750Y0096350D03*
X0317750Y0096400D03*
X0317750Y0096450D03*
X0317750Y0096500D03*
X0317750Y0096550D03*
X0317750Y0096600D03*
X0317750Y0096650D03*
X0317750Y0096700D03*
X0317750Y0096750D03*
X0317750Y0096800D03*
X0317750Y0096850D03*
X0317750Y0096900D03*
X0317750Y0096950D03*
X0317750Y0097000D03*
X0317750Y0097050D03*
X0317750Y0097100D03*
X0317750Y0097150D03*
X0320150Y0078800D03*
X0319950Y0078650D03*
X0320000Y0078600D03*
X0320000Y0078550D03*
X0320100Y0078550D03*
X0320200Y0078550D03*
X0320250Y0078450D03*
X0320250Y0078400D03*
X0320250Y0078350D03*
X0320250Y0078300D03*
X0320250Y0078200D03*
X0320150Y0078450D03*
X0319750Y0078600D03*
X0319650Y0078150D03*
X0319650Y0078100D03*
X0319550Y0078100D03*
X0319550Y0078150D03*
X0319550Y0078050D03*
X0319550Y0078000D03*
X0319550Y0077950D03*
X0319150Y0077750D03*
X0319150Y0077700D03*
X0319150Y0077650D03*
X0319200Y0077600D03*
X0319200Y0077550D03*
X0319050Y0077750D03*
X0318950Y0077750D03*
X0319100Y0077900D03*
X0319100Y0077950D03*
X0319050Y0077350D03*
X0318500Y0077200D03*
X0318500Y0076950D03*
X0318550Y0076800D03*
X0318550Y0076750D03*
X0318300Y0076700D03*
X0318300Y0076650D03*
X0318200Y0076650D03*
X0318150Y0076600D03*
D49*
X0318325Y0077150D03*
X0319025Y0077400D03*
X0318975Y0077700D03*
X0318925Y0077850D03*
X0318925Y0077900D03*
X0318925Y0077950D03*
X0319125Y0077850D03*
X0319125Y0077800D03*
X0319575Y0077850D03*
X0319575Y0077900D03*
X0319525Y0078250D03*
X0319475Y0078350D03*
X0319875Y0078100D03*
X0320225Y0078150D03*
X0320225Y0078250D03*
X0320225Y0078500D03*
X0320025Y0078450D03*
X0317725Y0095000D03*
X0317725Y0095050D03*
X0317725Y0095100D03*
X0317725Y0095150D03*
X0317725Y0095200D03*
X0317725Y0095250D03*
X0317725Y0095300D03*
X0317725Y0095350D03*
X0317725Y0095400D03*
X0317725Y0095450D03*
X0317725Y0095500D03*
X0317725Y0095550D03*
X0317725Y0095600D03*
X0317725Y0095650D03*
X0317725Y0095700D03*
X0317725Y0095750D03*
X0317725Y0095850D03*
X0317725Y0095900D03*
X0317725Y0095950D03*
X0295725Y0076950D03*
D50*
X0296450Y0077850D03*
X0300300Y0081300D03*
X0300150Y0095600D03*
X0317550Y0083350D03*
X0318250Y0082000D03*
X0318250Y0081950D03*
X0315500Y0080350D03*
X0317000Y0077800D03*
X0315550Y0077350D03*
D51*
X0315825Y0077400D03*
X0315825Y0077450D03*
X0299975Y0081500D03*
D52*
X0299925Y0081350D03*
X0315825Y0077500D03*
D53*
X0315850Y0077550D03*
X0319800Y0091900D03*
X0299900Y0095800D03*
X0297450Y0081500D03*
D54*
X0294550Y0099950D03*
X0315900Y0077600D03*
D55*
X0316400Y0077650D03*
X0313550Y0078450D03*
X0294300Y0100050D03*
D56*
X0300375Y0079400D03*
X0313525Y0078600D03*
X0316625Y0077700D03*
X0317575Y0083250D03*
X0312625Y0085500D03*
D57*
X0317550Y0083400D03*
X0318200Y0082350D03*
X0318200Y0082300D03*
X0318200Y0082250D03*
X0317500Y0079600D03*
X0313600Y0079050D03*
X0313550Y0078950D03*
X0313550Y0078900D03*
X0296950Y0078250D03*
X0296900Y0078200D03*
X0296850Y0078150D03*
X0296450Y0077800D03*
X0294300Y0100150D03*
D58*
X0296450Y0077900D03*
X0317450Y0079700D03*
X0317550Y0083300D03*
D59*
X0317575Y0083200D03*
X0317425Y0079750D03*
X0313575Y0078500D03*
X0296425Y0077950D03*
X0294325Y0100100D03*
D60*
X0296425Y0078000D03*
X0313575Y0078400D03*
X0317425Y0079800D03*
X0317675Y0092400D03*
D61*
X0303500Y0094000D03*
X0300000Y0095700D03*
X0296450Y0078050D03*
D62*
X0296450Y0078100D03*
D63*
X0313575Y0078350D03*
X0318175Y0091400D03*
D64*
X0317550Y0079850D03*
X0294500Y0100000D03*
D65*
X0299500Y0082900D03*
X0299500Y0082850D03*
X0299500Y0082800D03*
X0299350Y0082300D03*
X0299200Y0081400D03*
D66*
X0299175Y0081450D03*
X0299525Y0082950D03*
X0299525Y0083000D03*
X0295125Y0099450D03*
D67*
X0296375Y0098400D03*
X0296425Y0098350D03*
X0297975Y0097200D03*
X0298025Y0097150D03*
X0300125Y0084850D03*
X0299375Y0083850D03*
X0299375Y0083800D03*
X0298625Y0081550D03*
D68*
X0298125Y0081600D03*
X0310625Y0093300D03*
X0310625Y0093350D03*
D69*
X0310650Y0093400D03*
X0310650Y0093450D03*
X0300650Y0085750D03*
X0298200Y0081700D03*
X0298150Y0081650D03*
D70*
X0298250Y0081750D03*
X0310650Y0093500D03*
D71*
X0303475Y0093700D03*
X0300575Y0085650D03*
X0298275Y0081800D03*
D72*
X0298325Y0081850D03*
X0300525Y0085550D03*
X0317325Y0092150D03*
D73*
X0310725Y0093600D03*
X0298375Y0081900D03*
D74*
X0298425Y0081950D03*
X0300425Y0085400D03*
X0303475Y0093750D03*
D75*
X0300400Y0085350D03*
X0300350Y0085300D03*
X0298500Y0082000D03*
X0317100Y0092200D03*
D76*
X0300275Y0085150D03*
X0298575Y0082050D03*
D77*
X0299100Y0082100D03*
X0299100Y0082150D03*
X0299100Y0082200D03*
X0295400Y0099200D03*
D78*
X0295075Y0099500D03*
X0299475Y0082750D03*
X0299475Y0082700D03*
X0299475Y0082650D03*
X0299425Y0082450D03*
X0299375Y0082350D03*
X0312425Y0085800D03*
D79*
X0299450Y0082600D03*
X0299450Y0082550D03*
X0299450Y0082500D03*
X0299400Y0082400D03*
D80*
X0299550Y0083200D03*
X0299550Y0083250D03*
D81*
X0299575Y0083300D03*
X0299575Y0083350D03*
X0295275Y0099300D03*
D82*
X0295875Y0098800D03*
X0299325Y0083450D03*
D83*
X0299350Y0083500D03*
X0299350Y0083550D03*
X0299950Y0084500D03*
X0296000Y0098700D03*
X0295950Y0098750D03*
D84*
X0296100Y0098600D03*
X0298350Y0096900D03*
X0298400Y0096850D03*
X0298650Y0096550D03*
X0298650Y0096500D03*
X0300050Y0084700D03*
X0299350Y0083650D03*
X0299350Y0083600D03*
X0316900Y0091750D03*
D85*
X0312875Y0085850D03*
X0300075Y0084750D03*
X0299375Y0083750D03*
X0299375Y0083700D03*
X0298775Y0096200D03*
X0298725Y0096250D03*
X0298725Y0096300D03*
X0298725Y0096350D03*
X0298675Y0096400D03*
X0298675Y0096450D03*
X0296175Y0098550D03*
D86*
X0296500Y0098300D03*
X0296550Y0098250D03*
X0296700Y0098150D03*
X0297700Y0097400D03*
X0297800Y0097350D03*
X0297850Y0097300D03*
X0297900Y0097250D03*
X0303450Y0093800D03*
X0300150Y0084900D03*
X0299400Y0083900D03*
D87*
X0299425Y0083950D03*
X0299425Y0084000D03*
X0300175Y0084950D03*
X0297625Y0097450D03*
X0297575Y0097500D03*
X0297525Y0097550D03*
X0297425Y0097600D03*
X0297375Y0097650D03*
X0297225Y0097750D03*
X0297175Y0097800D03*
X0297025Y0097900D03*
X0296975Y0097950D03*
X0296825Y0098050D03*
X0296775Y0098100D03*
X0296625Y0098200D03*
X0316975Y0092250D03*
D88*
X0318200Y0092050D03*
X0310800Y0093700D03*
X0300200Y0085050D03*
X0300200Y0085000D03*
X0299500Y0084150D03*
X0299450Y0084100D03*
X0299450Y0084050D03*
X0297300Y0097700D03*
X0297100Y0097850D03*
X0296900Y0098000D03*
D89*
X0299675Y0084450D03*
X0299575Y0084300D03*
X0299525Y0084250D03*
X0299525Y0084200D03*
D90*
X0299600Y0084350D03*
X0299650Y0084400D03*
X0300250Y0085100D03*
X0317800Y0091550D03*
D91*
X0300025Y0084650D03*
X0300025Y0084600D03*
X0299975Y0084550D03*
X0298625Y0096600D03*
X0298575Y0096650D03*
X0298575Y0096700D03*
X0298525Y0096750D03*
X0298475Y0096800D03*
X0296075Y0098650D03*
D92*
X0296250Y0098500D03*
X0296300Y0098450D03*
X0298100Y0097100D03*
X0298150Y0097050D03*
X0298250Y0097000D03*
X0298300Y0096950D03*
X0300100Y0084800D03*
X0310850Y0093750D03*
D93*
X0300300Y0085200D03*
D94*
X0300325Y0085250D03*
X0310725Y0093650D03*
D95*
X0317700Y0092100D03*
X0313150Y0085900D03*
X0300450Y0085450D03*
D96*
X0300500Y0085500D03*
D97*
X0312275Y0085550D03*
D98*
X0310650Y0093550D03*
X0300550Y0085600D03*
D99*
X0299600Y0096000D03*
X0294800Y0099750D03*
X0312400Y0085600D03*
D100*
X0312425Y0085650D03*
X0318025Y0091450D03*
X0299525Y0096050D03*
D101*
X0300625Y0085700D03*
X0313225Y0085950D03*
X0317775Y0091600D03*
D102*
X0312400Y0085700D03*
X0294900Y0099650D03*
D103*
X0303500Y0093650D03*
X0310600Y0092350D03*
X0310600Y0092300D03*
X0310600Y0092250D03*
X0310600Y0092200D03*
X0300700Y0085800D03*
D104*
X0300725Y0085850D03*
X0310625Y0089600D03*
X0310625Y0089650D03*
X0310625Y0091400D03*
X0310625Y0091450D03*
X0310625Y0091500D03*
X0310625Y0091550D03*
X0310625Y0091600D03*
X0310625Y0091650D03*
X0310625Y0091700D03*
X0310625Y0091750D03*
X0310625Y0091800D03*
X0310625Y0091850D03*
X0310625Y0091900D03*
X0310625Y0091950D03*
X0310625Y0092000D03*
X0310625Y0092050D03*
X0310625Y0092100D03*
X0310625Y0092150D03*
X0310625Y0093000D03*
X0310575Y0093050D03*
X0310575Y0093100D03*
X0310575Y0093150D03*
X0310575Y0093200D03*
X0310575Y0093250D03*
X0313225Y0086000D03*
D105*
X0313225Y0086050D03*
X0310625Y0089200D03*
X0310625Y0089250D03*
X0310625Y0089300D03*
X0310625Y0089350D03*
X0310625Y0089400D03*
X0310625Y0089450D03*
X0310575Y0090300D03*
X0310575Y0090350D03*
X0310575Y0091250D03*
X0310575Y0092500D03*
X0300775Y0085900D03*
D106*
X0300800Y0085950D03*
X0303500Y0093600D03*
X0310550Y0092550D03*
X0310650Y0092850D03*
X0310550Y0091200D03*
X0310550Y0090450D03*
X0310550Y0090400D03*
X0310650Y0089100D03*
D107*
X0310500Y0090600D03*
X0310500Y0090650D03*
X0310500Y0090700D03*
X0310500Y0091050D03*
X0310500Y0091100D03*
X0310600Y0092700D03*
X0310600Y0092750D03*
X0310600Y0092800D03*
X0303550Y0093550D03*
X0300850Y0086000D03*
X0313200Y0086100D03*
D108*
X0303550Y0093500D03*
X0300900Y0086050D03*
D109*
X0300925Y0086100D03*
X0303625Y0089700D03*
X0303625Y0089750D03*
X0303625Y0089800D03*
X0303625Y0089850D03*
X0303625Y0089900D03*
X0303625Y0089950D03*
X0303625Y0090000D03*
X0313175Y0086150D03*
D110*
X0317675Y0091700D03*
X0303625Y0091700D03*
X0303625Y0091750D03*
X0303625Y0091800D03*
X0303625Y0091850D03*
X0303625Y0091900D03*
X0303625Y0091950D03*
X0303625Y0092000D03*
X0303625Y0092050D03*
X0303625Y0091650D03*
X0303625Y0091600D03*
X0303625Y0091550D03*
X0303625Y0091500D03*
X0303625Y0091450D03*
X0303625Y0091400D03*
X0303625Y0091350D03*
X0303625Y0090500D03*
X0303625Y0090450D03*
X0303625Y0090400D03*
X0303575Y0089600D03*
X0303625Y0093350D03*
X0303625Y0093400D03*
X0300975Y0086150D03*
D111*
X0301025Y0086200D03*
X0303675Y0090600D03*
X0303675Y0091250D03*
X0303625Y0092400D03*
X0303625Y0092450D03*
X0303675Y0093250D03*
D112*
X0303650Y0093300D03*
X0303600Y0092350D03*
X0303600Y0092300D03*
X0303600Y0092250D03*
X0303600Y0092200D03*
X0303600Y0092150D03*
X0303600Y0092100D03*
X0303650Y0091300D03*
X0303650Y0090550D03*
X0313150Y0086200D03*
D113*
X0303725Y0090750D03*
X0303725Y0090800D03*
X0303725Y0090850D03*
X0303725Y0090900D03*
X0303725Y0090950D03*
X0303725Y0091000D03*
X0303725Y0091050D03*
X0303725Y0091100D03*
X0303675Y0092500D03*
X0303675Y0093150D03*
X0303675Y0093200D03*
X0301075Y0086250D03*
D114*
X0303700Y0090650D03*
X0303700Y0090700D03*
X0303700Y0091150D03*
X0303700Y0091200D03*
X0313100Y0086250D03*
D115*
X0303725Y0092600D03*
X0303725Y0092650D03*
X0303725Y0092700D03*
X0303725Y0092750D03*
X0303675Y0092800D03*
X0303575Y0092900D03*
X0303575Y0092950D03*
X0303575Y0093000D03*
X0303625Y0093050D03*
X0301125Y0086300D03*
D116*
X0303700Y0092550D03*
X0303600Y0092850D03*
X0303650Y0093100D03*
X0313050Y0086300D03*
D117*
X0301200Y0086350D03*
D118*
X0313025Y0086350D03*
D119*
X0312950Y0086400D03*
X0301250Y0086400D03*
D120*
X0301300Y0086450D03*
X0312900Y0086450D03*
D121*
X0301375Y0086500D03*
D122*
X0312850Y0086500D03*
D123*
X0312775Y0086550D03*
X0301475Y0086550D03*
D124*
X0301550Y0086600D03*
X0312700Y0086600D03*
D125*
X0312625Y0086650D03*
X0311475Y0089000D03*
X0301625Y0086650D03*
D126*
X0301725Y0086700D03*
D127*
X0312500Y0086700D03*
D128*
X0312400Y0086750D03*
X0301850Y0086750D03*
D129*
X0302000Y0086800D03*
X0311850Y0088850D03*
D130*
X0311875Y0088800D03*
X0312225Y0086800D03*
D131*
X0307150Y0086850D03*
X0307150Y0086900D03*
X0307150Y0086950D03*
X0307150Y0087000D03*
X0307150Y0087050D03*
X0307150Y0087100D03*
X0307150Y0087150D03*
X0307150Y0087200D03*
D132*
X0303300Y0087250D03*
D133*
X0312750Y0087250D03*
X0312750Y0087850D03*
D134*
X0303200Y0087300D03*
D135*
X0312800Y0087300D03*
X0312800Y0087800D03*
D136*
X0303125Y0087350D03*
D137*
X0312825Y0087350D03*
X0312825Y0087400D03*
X0312825Y0087450D03*
X0312825Y0087500D03*
X0312825Y0087550D03*
X0312825Y0087600D03*
X0312825Y0087650D03*
X0312825Y0087700D03*
X0312825Y0087750D03*
D138*
X0303025Y0087400D03*
D139*
X0302975Y0087450D03*
X0302975Y0087500D03*
D140*
X0302950Y0087550D03*
X0302950Y0087600D03*
X0302950Y0087650D03*
X0302950Y0087700D03*
X0302950Y0087750D03*
X0302950Y0087800D03*
X0302950Y0087850D03*
D141*
X0302325Y0087900D03*
X0302325Y0088150D03*
X0302275Y0088950D03*
X0302275Y0089000D03*
X0302275Y0089300D03*
X0302275Y0089350D03*
D142*
X0312600Y0087900D03*
D143*
X0302300Y0087950D03*
X0302300Y0088000D03*
X0302300Y0088050D03*
X0302300Y0088100D03*
X0302300Y0088200D03*
X0302300Y0088250D03*
X0302300Y0088300D03*
X0302300Y0088850D03*
X0302300Y0088900D03*
X0302300Y0089400D03*
X0302300Y0089450D03*
D144*
X0312050Y0088350D03*
X0312050Y0088300D03*
X0312050Y0088250D03*
X0312050Y0088200D03*
X0312050Y0088150D03*
X0312050Y0088100D03*
X0312050Y0088050D03*
X0312050Y0088000D03*
X0312050Y0087950D03*
D145*
X0302325Y0088350D03*
X0302325Y0088400D03*
X0302325Y0088450D03*
X0302325Y0088500D03*
X0302325Y0088550D03*
X0302325Y0088600D03*
X0302325Y0088650D03*
X0302325Y0088700D03*
X0302325Y0088750D03*
X0302325Y0088800D03*
X0302325Y0089500D03*
X0302325Y0089550D03*
D146*
X0312025Y0088500D03*
X0312025Y0088450D03*
X0312025Y0088400D03*
D147*
X0312000Y0088550D03*
X0312000Y0088600D03*
D148*
X0311975Y0088650D03*
D149*
X0311950Y0088700D03*
D150*
X0311925Y0088750D03*
D151*
X0311800Y0088900D03*
D152*
X0311700Y0088950D03*
D153*
X0302250Y0089050D03*
X0302250Y0089250D03*
D154*
X0310525Y0090500D03*
X0310525Y0090550D03*
X0310525Y0091150D03*
X0310575Y0092600D03*
X0310575Y0092650D03*
X0310675Y0089050D03*
D155*
X0302225Y0089100D03*
X0302225Y0089150D03*
X0302225Y0089200D03*
D156*
X0310600Y0089700D03*
X0310600Y0089750D03*
X0310600Y0089800D03*
X0310600Y0089850D03*
X0310600Y0089900D03*
X0310600Y0089950D03*
X0310600Y0090000D03*
X0310600Y0090050D03*
X0310600Y0090100D03*
X0310600Y0090150D03*
X0310600Y0090200D03*
X0310600Y0090250D03*
X0310650Y0089550D03*
X0310650Y0089500D03*
X0310650Y0089150D03*
X0310600Y0091300D03*
X0310600Y0091350D03*
X0310600Y0092400D03*
X0310600Y0092450D03*
X0310650Y0092900D03*
X0310650Y0092950D03*
D157*
X0303600Y0093450D03*
X0303600Y0090350D03*
X0303600Y0090300D03*
X0303600Y0090250D03*
X0303600Y0090200D03*
X0303600Y0090150D03*
X0303600Y0090100D03*
X0303600Y0090050D03*
X0303600Y0089650D03*
D158*
X0310475Y0090750D03*
X0310475Y0090800D03*
X0310475Y0090850D03*
X0310475Y0090900D03*
X0310475Y0090950D03*
X0310475Y0091000D03*
X0317775Y0091650D03*
D159*
X0317875Y0091500D03*
X0295575Y0099050D03*
X0295525Y0099100D03*
D160*
X0318800Y0092000D03*
D161*
X0317000Y0092300D03*
D162*
X0310900Y0093800D03*
X0295700Y0098950D03*
D163*
X0303475Y0093850D03*
D164*
X0310950Y0093850D03*
X0295350Y0099250D03*
D165*
X0295225Y0099350D03*
X0295175Y0099400D03*
X0303475Y0093900D03*
D166*
X0311000Y0093900D03*
X0295000Y0099550D03*
D167*
X0303475Y0093950D03*
D168*
X0299750Y0095900D03*
X0294650Y0099850D03*
X0311050Y0093950D03*
D169*
X0299950Y0095750D03*
D170*
X0299675Y0095950D03*
X0294725Y0099800D03*
D171*
X0294950Y0099600D03*
X0299450Y0096100D03*
D172*
X0299375Y0096150D03*
D173*
X0295800Y0098850D03*
X0295750Y0098900D03*
D174*
X0295625Y0099000D03*
D175*
X0294850Y0099700D03*
D176*
X0294600Y0099900D03*
D177*
X0144800Y0154887D02*
X0130800Y0154887D01*
X0130800Y0162887D01*
X0144800Y0162887D01*
X0144800Y0154887D01*
X0168800Y0166887D02*
X0176800Y0166887D01*
X0176800Y0180887D01*
X0168800Y0180887D01*
X0168800Y0166887D01*
X0164800Y0204887D02*
X0150800Y0204887D01*
X0150800Y0212887D01*
X0164800Y0212887D01*
X0164800Y0204887D01*
X0144800Y0204887D02*
X0130800Y0204887D01*
X0130800Y0212887D01*
X0144800Y0212887D01*
X0144800Y0204887D01*
X0129800Y0198887D02*
X0129800Y0190887D01*
X0115800Y0190887D01*
X0115800Y0198887D01*
X0129800Y0198887D01*
X0157800Y0242517D02*
X0157800Y0256517D01*
X0165800Y0256517D01*
X0165800Y0242517D01*
X0157800Y0242517D01*
X0162800Y0259517D02*
X0176800Y0259517D01*
X0176800Y0267517D01*
X0162800Y0267517D01*
X0162800Y0259517D01*
X0165800Y0282517D02*
X0157800Y0282517D01*
X0157800Y0296517D01*
X0165800Y0296517D01*
X0165800Y0282517D01*
X0162800Y0299517D02*
X0176800Y0299517D01*
X0176800Y0307517D01*
X0162800Y0307517D01*
X0162800Y0299517D01*
X0165800Y0327517D02*
X0157800Y0327517D01*
X0157800Y0341517D01*
X0165800Y0341517D01*
X0165800Y0327517D01*
X0162800Y0345517D02*
X0176800Y0345517D01*
X0176800Y0353517D01*
X0162800Y0353517D01*
X0162800Y0345517D01*
X0160800Y0372517D02*
X0152800Y0372517D01*
X0152800Y0386517D01*
X0160800Y0386517D01*
X0160800Y0372517D01*
X0150800Y0387517D02*
X0150800Y0401517D01*
X0142800Y0401517D01*
X0142800Y0387517D01*
X0150800Y0387517D01*
X0104517Y0353517D02*
X0104517Y0345517D01*
X0090517Y0345517D01*
X0090517Y0353517D01*
X0104517Y0353517D01*
X0093517Y0341517D02*
X0085517Y0341517D01*
X0085517Y0327517D01*
X0093517Y0327517D01*
X0093517Y0341517D01*
X0088517Y0372517D02*
X0080517Y0372517D01*
X0080517Y0386517D01*
X0088517Y0386517D01*
X0088517Y0372517D01*
X0078517Y0387517D02*
X0078517Y0401517D01*
X0070517Y0401517D01*
X0070517Y0387517D01*
X0078517Y0387517D01*
X0090517Y0307517D02*
X0104517Y0307517D01*
X0104517Y0299517D01*
X0090517Y0299517D01*
X0090517Y0307517D01*
X0093517Y0296517D02*
X0085517Y0296517D01*
X0085517Y0282517D01*
X0093517Y0282517D01*
X0093517Y0296517D01*
X0090517Y0267517D02*
X0104517Y0267517D01*
X0104517Y0259517D01*
X0090517Y0259517D01*
X0090517Y0267517D01*
X0093517Y0256517D02*
X0085517Y0256517D01*
X0085517Y0242517D01*
X0093517Y0242517D01*
X0093517Y0256517D01*
X0215083Y0387517D02*
X0215083Y0401517D01*
X0223083Y0401517D01*
X0223083Y0387517D01*
X0215083Y0387517D01*
X0225083Y0386517D02*
X0225083Y0372517D01*
X0233083Y0372517D01*
X0233083Y0386517D01*
X0225083Y0386517D01*
X0235083Y0353517D02*
X0249083Y0353517D01*
X0249083Y0345517D01*
X0235083Y0345517D01*
X0235083Y0353517D01*
X0238083Y0341517D02*
X0230083Y0341517D01*
X0230083Y0327517D01*
X0238083Y0327517D01*
X0238083Y0341517D01*
X0235083Y0307517D02*
X0249083Y0307517D01*
X0249083Y0299517D01*
X0235083Y0299517D01*
X0235083Y0307517D01*
X0238083Y0296517D02*
X0230083Y0296517D01*
X0230083Y0282517D01*
X0238083Y0282517D01*
X0238083Y0296517D01*
X0235083Y0267517D02*
X0249083Y0267517D01*
X0249083Y0259517D01*
X0235083Y0259517D01*
X0235083Y0267517D01*
X0238083Y0256517D02*
X0230083Y0256517D01*
X0230083Y0242517D01*
X0238083Y0242517D01*
X0238083Y0256517D01*
D178*
X0240842Y0251820D02*
X0240075Y0251053D01*
X0240075Y0250286D01*
X0240842Y0249518D01*
X0240075Y0248751D01*
X0240075Y0247984D01*
X0240842Y0247217D01*
X0242377Y0247217D01*
X0243144Y0247984D01*
X0244679Y0247217D02*
X0247748Y0247217D01*
X0246213Y0247217D02*
X0246213Y0251820D01*
X0247748Y0250286D01*
X0249283Y0251053D02*
X0249283Y0249518D01*
X0250050Y0248751D01*
X0252352Y0248751D01*
X0252352Y0247217D02*
X0252352Y0251820D01*
X0250050Y0251820D01*
X0249283Y0251053D01*
X0250817Y0248751D02*
X0249283Y0247217D01*
X0243144Y0251053D02*
X0242377Y0251820D01*
X0240842Y0251820D01*
X0240842Y0249518D02*
X0241609Y0249518D01*
X0225591Y0240820D02*
X0222522Y0240820D01*
X0224057Y0240820D02*
X0224057Y0236217D01*
X0220987Y0236984D02*
X0220220Y0236217D01*
X0218685Y0236217D01*
X0217918Y0236984D01*
X0217918Y0237751D01*
X0218685Y0238518D01*
X0219453Y0238518D01*
X0218685Y0238518D02*
X0217918Y0239286D01*
X0217918Y0240053D01*
X0218685Y0240820D01*
X0220220Y0240820D01*
X0220987Y0240053D01*
X0236968Y0269500D02*
X0238503Y0269500D01*
X0239270Y0270267D01*
X0236201Y0273337D01*
X0236201Y0270267D01*
X0236968Y0269500D01*
X0239270Y0270267D02*
X0239270Y0273337D01*
X0238503Y0274104D01*
X0236968Y0274104D01*
X0236201Y0273337D01*
X0240805Y0269500D02*
X0243874Y0269500D01*
X0242339Y0269500D02*
X0242339Y0274104D01*
X0243874Y0272569D01*
X0245409Y0271802D02*
X0246176Y0271035D01*
X0248478Y0271035D01*
X0246943Y0271035D02*
X0245409Y0269500D01*
X0245409Y0271802D02*
X0245409Y0273337D01*
X0246176Y0274104D01*
X0248478Y0274104D01*
X0248478Y0269500D01*
X0247748Y0287217D02*
X0244679Y0287217D01*
X0246213Y0287217D02*
X0246213Y0291820D01*
X0247748Y0290286D01*
X0249283Y0291053D02*
X0249283Y0289518D01*
X0250050Y0288751D01*
X0252352Y0288751D01*
X0252352Y0287217D02*
X0252352Y0291820D01*
X0250050Y0291820D01*
X0249283Y0291053D01*
X0250817Y0288751D02*
X0249283Y0287217D01*
X0243144Y0287217D02*
X0240075Y0290286D01*
X0240075Y0291053D01*
X0240842Y0291820D01*
X0242377Y0291820D01*
X0243144Y0291053D01*
X0243144Y0287217D02*
X0240075Y0287217D01*
X0225591Y0280820D02*
X0222522Y0280820D01*
X0224057Y0280820D02*
X0224057Y0276217D01*
X0220987Y0276217D02*
X0217918Y0279286D01*
X0217918Y0280053D01*
X0218685Y0280820D01*
X0220220Y0280820D01*
X0220987Y0280053D01*
X0220987Y0276217D02*
X0217918Y0276217D01*
X0239541Y0310209D02*
X0238773Y0310976D01*
X0238773Y0314045D01*
X0239541Y0314813D01*
X0241075Y0314813D01*
X0241843Y0314045D01*
X0241843Y0313278D01*
X0241075Y0312511D01*
X0238773Y0312511D01*
X0239541Y0310209D02*
X0241075Y0310209D01*
X0241843Y0310976D01*
X0243377Y0310209D02*
X0244912Y0311743D01*
X0244145Y0311743D02*
X0246446Y0311743D01*
X0246446Y0310209D02*
X0246446Y0314813D01*
X0244145Y0314813D01*
X0243377Y0314045D01*
X0243377Y0312511D01*
X0244145Y0311743D01*
X0244679Y0332217D02*
X0247748Y0332217D01*
X0246213Y0332217D02*
X0246213Y0336820D01*
X0247748Y0335286D01*
X0249283Y0336053D02*
X0249283Y0334518D01*
X0250050Y0333751D01*
X0252352Y0333751D01*
X0252352Y0332217D02*
X0252352Y0336820D01*
X0250050Y0336820D01*
X0249283Y0336053D01*
X0250817Y0333751D02*
X0249283Y0332217D01*
X0243144Y0332217D02*
X0240075Y0332217D01*
X0241609Y0332217D02*
X0241609Y0336820D01*
X0243144Y0335286D01*
X0225591Y0325820D02*
X0222522Y0325820D01*
X0224057Y0325820D02*
X0224057Y0321217D01*
X0220987Y0321217D02*
X0217918Y0321217D01*
X0219453Y0321217D02*
X0219453Y0325820D01*
X0220987Y0324286D01*
X0241843Y0356728D02*
X0241843Y0357496D01*
X0238773Y0360565D01*
X0238773Y0361332D01*
X0241843Y0361332D01*
X0243377Y0360565D02*
X0243377Y0359030D01*
X0244145Y0358263D01*
X0246446Y0358263D01*
X0244912Y0358263D02*
X0243377Y0356728D01*
X0246446Y0356728D02*
X0246446Y0361332D01*
X0244145Y0361332D01*
X0243377Y0360565D01*
X0243717Y0377217D02*
X0240647Y0377217D01*
X0242182Y0377217D02*
X0242182Y0381820D01*
X0243717Y0380286D01*
X0245251Y0381053D02*
X0245251Y0379518D01*
X0246019Y0378751D01*
X0248320Y0378751D01*
X0246786Y0378751D02*
X0245251Y0377217D01*
X0248320Y0377217D02*
X0248320Y0381820D01*
X0246019Y0381820D01*
X0245251Y0381053D01*
X0239113Y0379518D02*
X0236043Y0379518D01*
X0236811Y0377217D02*
X0236811Y0381820D01*
X0239113Y0379518D01*
X0232591Y0395217D02*
X0232591Y0399820D01*
X0230289Y0399820D01*
X0229522Y0399053D01*
X0229522Y0397518D01*
X0230289Y0396751D01*
X0232591Y0396751D01*
X0231057Y0396751D02*
X0229522Y0395217D01*
X0227987Y0395984D02*
X0227987Y0396751D01*
X0227220Y0397518D01*
X0225685Y0397518D01*
X0224918Y0396751D01*
X0224918Y0395984D01*
X0225685Y0395217D01*
X0227220Y0395217D01*
X0227987Y0395984D01*
X0227220Y0397518D02*
X0227987Y0398286D01*
X0227987Y0399053D01*
X0227220Y0399820D01*
X0225685Y0399820D01*
X0224918Y0399053D01*
X0224918Y0398286D01*
X0225685Y0397518D01*
X0215591Y0370820D02*
X0212522Y0370820D01*
X0214057Y0370820D02*
X0214057Y0366217D01*
X0210987Y0368518D02*
X0207918Y0368518D01*
X0208685Y0366217D02*
X0208685Y0370820D01*
X0210987Y0368518D01*
X0181746Y0332183D02*
X0179444Y0332183D01*
X0178677Y0331415D01*
X0178677Y0329881D01*
X0179444Y0329113D01*
X0181746Y0329113D01*
X0180212Y0329113D02*
X0178677Y0327579D01*
X0177143Y0327579D02*
X0174073Y0327579D01*
X0175608Y0327579D02*
X0175608Y0332183D01*
X0177143Y0330648D01*
X0181746Y0332183D02*
X0181746Y0327579D01*
X0172539Y0328346D02*
X0171771Y0327579D01*
X0170237Y0327579D01*
X0169469Y0328346D01*
X0169469Y0329113D01*
X0170237Y0329881D01*
X0172539Y0329881D01*
X0172539Y0328346D01*
X0172539Y0329881D02*
X0171004Y0331415D01*
X0169469Y0332183D01*
X0170759Y0314813D02*
X0169991Y0314045D01*
X0169991Y0312511D01*
X0170759Y0311743D01*
X0173061Y0311743D01*
X0173061Y0310209D02*
X0173061Y0314813D01*
X0170759Y0314813D01*
X0171526Y0311743D02*
X0169991Y0310209D01*
X0168457Y0310976D02*
X0167689Y0310209D01*
X0166155Y0310209D01*
X0165387Y0310976D01*
X0165387Y0311743D01*
X0166155Y0312511D01*
X0168457Y0312511D01*
X0168457Y0310976D01*
X0168457Y0312511D02*
X0166922Y0314045D01*
X0165387Y0314813D01*
X0151773Y0321217D02*
X0151773Y0325820D01*
X0150239Y0325820D02*
X0153308Y0325820D01*
X0148704Y0325820D02*
X0148704Y0323518D01*
X0147169Y0324286D01*
X0146402Y0324286D01*
X0145635Y0323518D01*
X0145635Y0321984D01*
X0146402Y0321217D01*
X0147937Y0321217D01*
X0148704Y0321984D01*
X0148704Y0325820D02*
X0145635Y0325820D01*
X0166155Y0356728D02*
X0166155Y0361332D01*
X0168457Y0359030D01*
X0165387Y0359030D01*
X0169991Y0359030D02*
X0170759Y0358263D01*
X0173061Y0358263D01*
X0173061Y0356728D02*
X0173061Y0361332D01*
X0170759Y0361332D01*
X0169991Y0360565D01*
X0169991Y0359030D01*
X0171526Y0358263D02*
X0169991Y0356728D01*
X0169364Y0377217D02*
X0172433Y0377217D01*
X0170898Y0377217D02*
X0170898Y0381820D01*
X0172433Y0380286D01*
X0173968Y0381053D02*
X0173968Y0379518D01*
X0174735Y0378751D01*
X0177037Y0378751D01*
X0177037Y0377217D02*
X0177037Y0381820D01*
X0174735Y0381820D01*
X0173968Y0381053D01*
X0175502Y0378751D02*
X0173968Y0377217D01*
X0167829Y0377984D02*
X0167062Y0377217D01*
X0165527Y0377217D01*
X0164760Y0377984D01*
X0164760Y0381053D01*
X0165527Y0381820D01*
X0167062Y0381820D01*
X0167829Y0381053D01*
X0167829Y0380286D01*
X0167062Y0379518D01*
X0164760Y0379518D01*
X0160308Y0395217D02*
X0160308Y0399820D01*
X0158006Y0399820D01*
X0157239Y0399053D01*
X0157239Y0397518D01*
X0158006Y0396751D01*
X0160308Y0396751D01*
X0158773Y0396751D02*
X0157239Y0395217D01*
X0155704Y0395984D02*
X0154937Y0395217D01*
X0153402Y0395217D01*
X0152635Y0395984D01*
X0152635Y0397518D01*
X0153402Y0398286D01*
X0154169Y0398286D01*
X0155704Y0397518D01*
X0155704Y0399820D01*
X0152635Y0399820D01*
X0143308Y0370820D02*
X0140239Y0370820D01*
X0141773Y0370820D02*
X0141773Y0366217D01*
X0138704Y0366984D02*
X0138704Y0367751D01*
X0137937Y0368518D01*
X0136402Y0368518D01*
X0135635Y0367751D01*
X0135635Y0366984D01*
X0136402Y0366217D01*
X0137937Y0366217D01*
X0138704Y0366984D01*
X0137937Y0368518D02*
X0138704Y0369286D01*
X0138704Y0370053D01*
X0137937Y0370820D01*
X0136402Y0370820D01*
X0135635Y0370053D01*
X0135635Y0369286D01*
X0136402Y0368518D01*
X0103675Y0361332D02*
X0103675Y0356728D01*
X0103675Y0358263D02*
X0101373Y0358263D01*
X0100606Y0359030D01*
X0100606Y0360565D01*
X0101373Y0361332D01*
X0103675Y0361332D01*
X0102140Y0358263D02*
X0100606Y0356728D01*
X0099071Y0356728D02*
X0096002Y0359798D01*
X0096002Y0360565D01*
X0096769Y0361332D01*
X0098304Y0361332D01*
X0099071Y0360565D01*
X0099071Y0356728D02*
X0096002Y0356728D01*
X0094467Y0357496D02*
X0094467Y0360565D01*
X0093700Y0361332D01*
X0092165Y0361332D01*
X0091398Y0360565D01*
X0094467Y0357496D01*
X0093700Y0356728D01*
X0092165Y0356728D01*
X0091398Y0357496D01*
X0091398Y0360565D01*
X0094310Y0379004D02*
X0094310Y0379771D01*
X0091241Y0382841D01*
X0091241Y0383608D01*
X0094310Y0383608D01*
X0095845Y0382841D02*
X0096612Y0383608D01*
X0098147Y0383608D01*
X0098914Y0382841D01*
X0100449Y0382841D02*
X0100449Y0381306D01*
X0101216Y0380539D01*
X0103518Y0380539D01*
X0101983Y0380539D02*
X0100449Y0379004D01*
X0098914Y0379004D02*
X0095845Y0382073D01*
X0095845Y0382841D01*
X0095845Y0379004D02*
X0098914Y0379004D01*
X0100449Y0382841D02*
X0101216Y0383608D01*
X0103518Y0383608D01*
X0103518Y0379004D01*
X0093628Y0395217D02*
X0093628Y0399820D01*
X0091326Y0399820D01*
X0090559Y0399053D01*
X0090559Y0397518D01*
X0091326Y0396751D01*
X0093628Y0396751D01*
X0092094Y0396751D02*
X0090559Y0395217D01*
X0089024Y0395217D02*
X0085955Y0398286D01*
X0085955Y0399053D01*
X0086722Y0399820D01*
X0088257Y0399820D01*
X0089024Y0399053D01*
X0089024Y0395217D02*
X0085955Y0395217D01*
X0084420Y0395217D02*
X0081351Y0395217D01*
X0082886Y0395217D02*
X0082886Y0399820D01*
X0084420Y0398286D01*
X0071628Y0370820D02*
X0068559Y0370820D01*
X0070094Y0370820D02*
X0070094Y0366217D01*
X0067024Y0366217D02*
X0063955Y0366217D01*
X0062420Y0366217D02*
X0059351Y0369286D01*
X0059351Y0370053D01*
X0060119Y0370820D01*
X0061653Y0370820D01*
X0062420Y0370053D01*
X0065490Y0370820D02*
X0065490Y0366217D01*
X0062420Y0366217D02*
X0059351Y0366217D01*
X0065490Y0370820D02*
X0067024Y0369286D01*
X0097851Y0332183D02*
X0100153Y0329881D01*
X0097083Y0329881D01*
X0097851Y0327579D02*
X0097851Y0332183D01*
X0101687Y0331415D02*
X0102455Y0332183D01*
X0103989Y0332183D01*
X0104757Y0331415D01*
X0106291Y0331415D02*
X0106291Y0329881D01*
X0107059Y0329113D01*
X0109361Y0329113D01*
X0109361Y0327579D02*
X0109361Y0332183D01*
X0107059Y0332183D01*
X0106291Y0331415D01*
X0107826Y0329113D02*
X0106291Y0327579D01*
X0104757Y0327579D02*
X0101687Y0330648D01*
X0101687Y0331415D01*
X0101687Y0327579D02*
X0104757Y0327579D01*
X0103675Y0314813D02*
X0101373Y0314813D01*
X0100606Y0314045D01*
X0100606Y0312511D01*
X0101373Y0311743D01*
X0103675Y0311743D01*
X0103675Y0310209D02*
X0103675Y0314813D01*
X0102140Y0311743D02*
X0100606Y0310209D01*
X0099071Y0310209D02*
X0096002Y0313278D01*
X0096002Y0314045D01*
X0096769Y0314813D01*
X0098304Y0314813D01*
X0099071Y0314045D01*
X0099071Y0310209D02*
X0096002Y0310209D01*
X0094467Y0310209D02*
X0091398Y0313278D01*
X0091398Y0314045D01*
X0092165Y0314813D01*
X0093700Y0314813D01*
X0094467Y0314045D01*
X0094467Y0310209D02*
X0091398Y0310209D01*
X0079490Y0321217D02*
X0079490Y0325820D01*
X0081024Y0325820D02*
X0077955Y0325820D01*
X0076420Y0325053D02*
X0076420Y0324286D01*
X0075653Y0323518D01*
X0073351Y0323518D01*
X0073351Y0321984D02*
X0073351Y0325053D01*
X0074119Y0325820D01*
X0075653Y0325820D01*
X0076420Y0325053D01*
X0076420Y0321984D02*
X0075653Y0321217D01*
X0074119Y0321217D01*
X0073351Y0321984D01*
X0095508Y0289820D02*
X0098577Y0289820D01*
X0098577Y0287518D01*
X0097043Y0288286D01*
X0096275Y0288286D01*
X0095508Y0287518D01*
X0095508Y0285984D01*
X0096275Y0285217D01*
X0097810Y0285217D01*
X0098577Y0285984D01*
X0100112Y0285217D02*
X0103181Y0285217D01*
X0100112Y0288286D01*
X0100112Y0289053D01*
X0100879Y0289820D01*
X0102414Y0289820D01*
X0103181Y0289053D01*
X0104716Y0289053D02*
X0104716Y0287518D01*
X0105483Y0286751D01*
X0107785Y0286751D01*
X0107785Y0285217D02*
X0107785Y0289820D01*
X0105483Y0289820D01*
X0104716Y0289053D01*
X0106250Y0286751D02*
X0104716Y0285217D01*
X0103675Y0274104D02*
X0101373Y0274104D01*
X0100606Y0273337D01*
X0100606Y0271802D01*
X0101373Y0271035D01*
X0103675Y0271035D01*
X0102140Y0271035D02*
X0100606Y0269500D01*
X0099071Y0269500D02*
X0096002Y0272569D01*
X0096002Y0273337D01*
X0096769Y0274104D01*
X0098304Y0274104D01*
X0099071Y0273337D01*
X0099071Y0269500D02*
X0096002Y0269500D01*
X0094467Y0270267D02*
X0093700Y0269500D01*
X0092165Y0269500D01*
X0091398Y0270267D01*
X0091398Y0271035D01*
X0092165Y0271802D01*
X0092932Y0271802D01*
X0092165Y0271802D02*
X0091398Y0272569D01*
X0091398Y0273337D01*
X0092165Y0274104D01*
X0093700Y0274104D01*
X0094467Y0273337D01*
X0103675Y0274104D02*
X0103675Y0269500D01*
X0104382Y0245883D02*
X0102848Y0245883D01*
X0102080Y0245116D01*
X0102080Y0244349D01*
X0105150Y0241280D01*
X0102080Y0241280D01*
X0100546Y0242047D02*
X0099778Y0241280D01*
X0098244Y0241280D01*
X0097476Y0242047D01*
X0097476Y0242814D01*
X0098244Y0243581D01*
X0100546Y0243581D01*
X0100546Y0242047D01*
X0100546Y0243581D02*
X0099011Y0245116D01*
X0097476Y0245883D01*
X0104382Y0245883D02*
X0105150Y0245116D01*
X0106684Y0245116D02*
X0106684Y0243581D01*
X0107452Y0242814D01*
X0109754Y0242814D01*
X0109754Y0241280D02*
X0109754Y0245883D01*
X0107452Y0245883D01*
X0106684Y0245116D01*
X0108219Y0242814D02*
X0106684Y0241280D01*
X0081628Y0240820D02*
X0078559Y0240820D01*
X0080094Y0240820D02*
X0080094Y0236217D01*
X0077024Y0236217D02*
X0073955Y0236217D01*
X0072420Y0236217D02*
X0069351Y0236217D01*
X0070886Y0236217D02*
X0070886Y0240820D01*
X0072420Y0239286D01*
X0075490Y0240820D02*
X0075490Y0236217D01*
X0077024Y0239286D02*
X0075490Y0240820D01*
X0075490Y0276217D02*
X0075490Y0280820D01*
X0077024Y0279286D01*
X0078559Y0280820D02*
X0081628Y0280820D01*
X0080094Y0280820D02*
X0080094Y0276217D01*
X0077024Y0276217D02*
X0073955Y0276217D01*
X0072420Y0276984D02*
X0069351Y0280053D01*
X0069351Y0276984D01*
X0070119Y0276217D01*
X0071653Y0276217D01*
X0072420Y0276984D01*
X0072420Y0280053D01*
X0071653Y0280820D01*
X0070119Y0280820D01*
X0069351Y0280053D01*
X0115590Y0207128D02*
X0114823Y0206360D01*
X0114823Y0205593D01*
X0117892Y0202524D01*
X0114823Y0202524D01*
X0115590Y0207128D02*
X0117125Y0207128D01*
X0117892Y0206360D01*
X0120961Y0207128D02*
X0120961Y0202524D01*
X0119427Y0202524D02*
X0122496Y0202524D01*
X0124031Y0203291D02*
X0124798Y0202524D01*
X0126333Y0202524D01*
X0127100Y0203291D01*
X0127100Y0206360D01*
X0126333Y0207128D01*
X0124798Y0207128D01*
X0124031Y0206360D01*
X0122496Y0205593D02*
X0120961Y0207128D01*
X0134194Y0216524D02*
X0134194Y0221128D01*
X0136496Y0218826D01*
X0133427Y0218826D01*
X0138031Y0220360D02*
X0138798Y0221128D01*
X0140333Y0221128D01*
X0141100Y0220360D01*
X0141100Y0217291D01*
X0140333Y0216524D01*
X0138798Y0216524D01*
X0138031Y0217291D01*
X0153427Y0217291D02*
X0153427Y0218058D01*
X0154194Y0218826D01*
X0156496Y0218826D01*
X0156496Y0217291D01*
X0155729Y0216524D01*
X0154194Y0216524D01*
X0153427Y0217291D01*
X0154961Y0220360D02*
X0156496Y0218826D01*
X0154961Y0220360D02*
X0153427Y0221128D01*
X0158031Y0220360D02*
X0158798Y0221128D01*
X0160333Y0221128D01*
X0161100Y0220360D01*
X0161100Y0217291D01*
X0160333Y0216524D01*
X0158798Y0216524D01*
X0158031Y0217291D01*
X0151773Y0236217D02*
X0151773Y0240820D01*
X0150239Y0240820D02*
X0153308Y0240820D01*
X0148704Y0240820D02*
X0145635Y0240820D01*
X0145635Y0240053D01*
X0148704Y0236984D01*
X0148704Y0236217D01*
X0169469Y0244992D02*
X0170237Y0244224D01*
X0171771Y0244224D01*
X0172539Y0244992D01*
X0172539Y0245759D01*
X0171771Y0246526D01*
X0170237Y0246526D01*
X0169469Y0245759D01*
X0169469Y0244992D01*
X0170237Y0246526D02*
X0169469Y0247294D01*
X0169469Y0248061D01*
X0170237Y0248828D01*
X0171771Y0248828D01*
X0172539Y0248061D01*
X0172539Y0247294D01*
X0171771Y0246526D01*
X0174073Y0244224D02*
X0177143Y0244224D01*
X0178677Y0244224D02*
X0180212Y0245759D01*
X0179444Y0245759D02*
X0181746Y0245759D01*
X0181746Y0244224D02*
X0181746Y0248828D01*
X0179444Y0248828D01*
X0178677Y0248061D01*
X0178677Y0246526D01*
X0179444Y0245759D01*
X0177143Y0247294D02*
X0175608Y0248828D01*
X0175608Y0244224D01*
X0175092Y0269500D02*
X0175092Y0274104D01*
X0172790Y0274104D01*
X0172023Y0273337D01*
X0172023Y0271802D01*
X0172790Y0271035D01*
X0175092Y0271035D01*
X0173557Y0271035D02*
X0172023Y0269500D01*
X0170488Y0269500D02*
X0167419Y0269500D01*
X0168954Y0269500D02*
X0168954Y0274104D01*
X0170488Y0272569D01*
X0165884Y0271802D02*
X0165884Y0274104D01*
X0162815Y0274104D01*
X0163582Y0272569D02*
X0162815Y0271802D01*
X0162815Y0270267D01*
X0163582Y0269500D01*
X0165117Y0269500D01*
X0165884Y0270267D01*
X0165884Y0271802D02*
X0164350Y0272569D01*
X0163582Y0272569D01*
X0151773Y0276217D02*
X0151773Y0280820D01*
X0150239Y0280820D02*
X0153308Y0280820D01*
X0148704Y0278518D02*
X0148704Y0276984D01*
X0147937Y0276217D01*
X0146402Y0276217D01*
X0145635Y0276984D01*
X0145635Y0277751D01*
X0146402Y0278518D01*
X0148704Y0278518D01*
X0147169Y0280053D01*
X0145635Y0280820D01*
X0166823Y0288053D02*
X0169892Y0284984D01*
X0169892Y0284217D01*
X0171427Y0284217D02*
X0174496Y0284217D01*
X0172961Y0284217D02*
X0172961Y0288820D01*
X0174496Y0287286D01*
X0176031Y0288053D02*
X0176031Y0286518D01*
X0176798Y0285751D01*
X0179100Y0285751D01*
X0179100Y0284217D02*
X0179100Y0288820D01*
X0176798Y0288820D01*
X0176031Y0288053D01*
X0177565Y0285751D02*
X0176031Y0284217D01*
X0169892Y0288820D02*
X0166823Y0288820D01*
X0166823Y0288053D01*
X0180572Y0178191D02*
X0183641Y0178191D01*
X0183641Y0175889D01*
X0182106Y0176656D01*
X0181339Y0176656D01*
X0180572Y0175889D01*
X0180572Y0174354D01*
X0181339Y0173587D01*
X0182874Y0173587D01*
X0183641Y0174354D01*
X0185176Y0174354D02*
X0185943Y0173587D01*
X0187478Y0173587D01*
X0188245Y0174354D01*
X0188245Y0177423D01*
X0187478Y0178191D01*
X0185943Y0178191D01*
X0185176Y0177423D01*
X0143100Y0171360D02*
X0143100Y0168291D01*
X0142333Y0167524D01*
X0140798Y0167524D01*
X0140031Y0168291D01*
X0138496Y0167524D02*
X0135427Y0167524D01*
X0136961Y0167524D02*
X0136961Y0172128D01*
X0138496Y0170593D01*
X0140031Y0171360D02*
X0140798Y0172128D01*
X0142333Y0172128D01*
X0143100Y0171360D01*
X0133892Y0170593D02*
X0132358Y0172128D01*
X0132358Y0167524D01*
X0133892Y0167524D02*
X0130823Y0167524D01*
M02*
