G75*
%MOIN*%
%OFA0B0*%
%FSLAX25Y25*%
%IPPOS*%
%LPD*%
%AMOC8*
5,1,8,0,0,1.08239X$1,22.5*
%
%ADD10C,0.15748*%
%ADD11R,0.03937X0.04331*%
%ADD12R,0.06890X0.01575*%
%ADD13R,0.07480X0.07087*%
%ADD14R,0.06299X0.08268*%
%ADD15R,0.04331X0.03937*%
%ADD16R,0.04724X0.04724*%
%ADD17R,0.21654X0.07874*%
%ADD18R,0.21654X0.09843*%
%ADD19R,0.10000X0.04000*%
%ADD20R,0.04000X0.10000*%
%ADD21R,0.08799X0.04799*%
%ADD22R,0.08661X0.14173*%
%ADD23R,0.01024X0.07874*%
%ADD24R,0.05906X0.21654*%
%ADD25R,0.09449X0.09449*%
%ADD26C,0.03937*%
D10*
X0028729Y0027942D03*
X0357469Y0027548D03*
X0357469Y0413375D03*
X0028729Y0413375D03*
D11*
G36*
X0201387Y0236381D02*
X0198604Y0233598D01*
X0195543Y0236659D01*
X0198326Y0239442D01*
X0201387Y0236381D01*
G37*
G36*
X0206120Y0241114D02*
X0203337Y0238331D01*
X0200276Y0241392D01*
X0203059Y0244175D01*
X0206120Y0241114D01*
G37*
G36*
X0227120Y0219145D02*
X0224337Y0216362D01*
X0221276Y0219423D01*
X0224059Y0222206D01*
X0227120Y0219145D01*
G37*
G36*
X0222387Y0214413D02*
X0219604Y0211630D01*
X0216543Y0214691D01*
X0219326Y0217474D01*
X0222387Y0214413D01*
G37*
X0190646Y0160300D03*
X0183954Y0160300D03*
X0273454Y0156800D03*
X0280146Y0156800D03*
X0280146Y0141800D03*
X0273454Y0141800D03*
X0273454Y0126800D03*
X0280146Y0126800D03*
X0280146Y0111800D03*
X0273454Y0111800D03*
X0273454Y0096800D03*
X0280146Y0096800D03*
X0280146Y0171800D03*
X0273454Y0171800D03*
X0273454Y0186800D03*
X0280146Y0186800D03*
D12*
X0154135Y0120107D03*
X0154135Y0117548D03*
X0154135Y0114989D03*
X0154135Y0112430D03*
X0154135Y0109871D03*
D13*
X0142816Y0099241D03*
X0142816Y0130737D03*
D14*
X0152855Y0127194D03*
X0152855Y0102784D03*
D15*
X0176800Y0113454D03*
X0176800Y0120146D03*
X0186800Y0120146D03*
X0186800Y0113454D03*
X0236800Y0113454D03*
X0236800Y0120146D03*
X0246800Y0120146D03*
X0246800Y0113454D03*
X0219083Y0256170D03*
X0219083Y0262863D03*
X0219083Y0296170D03*
X0219083Y0302863D03*
X0219083Y0341170D03*
X0219083Y0347863D03*
X0146800Y0347863D03*
X0146800Y0341170D03*
X0146800Y0302863D03*
X0146800Y0296170D03*
X0146800Y0262863D03*
X0146800Y0256170D03*
X0074517Y0256170D03*
X0074517Y0262863D03*
X0074517Y0296170D03*
X0074517Y0302863D03*
X0074517Y0341170D03*
X0074517Y0347863D03*
X0069769Y0191331D03*
X0069769Y0184639D03*
X0069769Y0176331D03*
X0069769Y0169639D03*
D16*
X0044769Y0167985D03*
X0044769Y0177985D03*
X0044769Y0187985D03*
X0044769Y0197985D03*
X0044769Y0207985D03*
X0044517Y0259517D03*
X0044517Y0299517D03*
X0044517Y0344517D03*
X0044517Y0394517D03*
X0116800Y0394517D03*
X0116800Y0344517D03*
X0116800Y0299517D03*
X0116800Y0259517D03*
X0189083Y0259517D03*
X0189083Y0299517D03*
X0189083Y0344517D03*
X0189083Y0394517D03*
X0197906Y0054706D03*
X0174906Y0054706D03*
X0150906Y0054706D03*
X0297800Y0026800D03*
X0317800Y0026800D03*
X0337800Y0026800D03*
D17*
X0331800Y0230300D03*
D18*
X0331800Y0327544D03*
D19*
X0346800Y0144800D03*
X0346800Y0139800D03*
X0346800Y0134800D03*
X0346800Y0129800D03*
X0346800Y0124800D03*
X0346800Y0119800D03*
X0346800Y0104800D03*
X0346800Y0099800D03*
X0346800Y0094800D03*
X0346800Y0089800D03*
X0346800Y0084800D03*
X0346800Y0079800D03*
X0346800Y0074800D03*
X0346800Y0069800D03*
X0296800Y0069800D03*
X0296800Y0074800D03*
X0296800Y0079800D03*
X0296800Y0084800D03*
X0296800Y0089800D03*
X0296800Y0094800D03*
X0296800Y0099800D03*
X0296800Y0104800D03*
X0296800Y0119800D03*
X0296800Y0124800D03*
X0296800Y0129800D03*
X0296800Y0134800D03*
X0296800Y0139800D03*
X0296800Y0144800D03*
D20*
X0306800Y0159800D03*
X0311800Y0159800D03*
X0316800Y0159800D03*
X0321800Y0159800D03*
X0326800Y0159800D03*
X0331800Y0159800D03*
X0336800Y0159800D03*
X0336800Y0059800D03*
X0331800Y0059800D03*
X0326800Y0059800D03*
X0321800Y0059800D03*
X0316800Y0059800D03*
X0311800Y0059800D03*
X0306800Y0059800D03*
D21*
X0199599Y0107702D03*
X0199599Y0116800D03*
X0199599Y0125898D03*
D22*
X0224001Y0116800D03*
D23*
G36*
X0177088Y0171026D02*
X0176364Y0170302D01*
X0170798Y0175868D01*
X0171522Y0176592D01*
X0177088Y0171026D01*
G37*
G36*
X0178480Y0172418D02*
X0177756Y0171694D01*
X0172190Y0177260D01*
X0172914Y0177984D01*
X0178480Y0172418D01*
G37*
G36*
X0179872Y0173810D02*
X0179148Y0173086D01*
X0173582Y0178652D01*
X0174306Y0179376D01*
X0179872Y0173810D01*
G37*
G36*
X0175696Y0169634D02*
X0174972Y0168910D01*
X0169406Y0174476D01*
X0170130Y0175200D01*
X0175696Y0169634D01*
G37*
G36*
X0174304Y0168242D02*
X0173580Y0167518D01*
X0168014Y0173084D01*
X0168738Y0173808D01*
X0174304Y0168242D01*
G37*
G36*
X0172912Y0166850D02*
X0172188Y0166126D01*
X0166622Y0171692D01*
X0167346Y0172416D01*
X0172912Y0166850D01*
G37*
G36*
X0171520Y0165458D02*
X0170796Y0164734D01*
X0165230Y0170300D01*
X0165954Y0171024D01*
X0171520Y0165458D01*
G37*
G36*
X0170128Y0164066D02*
X0169404Y0163342D01*
X0163838Y0168908D01*
X0164562Y0169632D01*
X0170128Y0164066D01*
G37*
G36*
X0168736Y0162674D02*
X0168012Y0161950D01*
X0162446Y0167516D01*
X0163170Y0168240D01*
X0168736Y0162674D01*
G37*
G36*
X0167344Y0161282D02*
X0166620Y0160558D01*
X0161054Y0166124D01*
X0161778Y0166848D01*
X0167344Y0161282D01*
G37*
G36*
X0165952Y0159891D02*
X0165228Y0159167D01*
X0159662Y0164733D01*
X0160386Y0165457D01*
X0165952Y0159891D01*
G37*
G36*
X0164560Y0158499D02*
X0163836Y0157775D01*
X0158270Y0163341D01*
X0158994Y0164065D01*
X0164560Y0158499D01*
G37*
G36*
X0163168Y0157107D02*
X0162444Y0156383D01*
X0156878Y0161949D01*
X0157602Y0162673D01*
X0163168Y0157107D01*
G37*
G36*
X0161777Y0155715D02*
X0161053Y0154991D01*
X0155487Y0160557D01*
X0156211Y0161281D01*
X0161777Y0155715D01*
G37*
G36*
X0160385Y0154323D02*
X0159661Y0153599D01*
X0154095Y0159165D01*
X0154819Y0159889D01*
X0160385Y0154323D01*
G37*
G36*
X0158993Y0152931D02*
X0158269Y0152207D01*
X0152703Y0157773D01*
X0153427Y0158497D01*
X0158993Y0152931D01*
G37*
G36*
X0142957Y0158497D02*
X0143681Y0157773D01*
X0138115Y0152207D01*
X0137391Y0152931D01*
X0142957Y0158497D01*
G37*
G36*
X0141565Y0159889D02*
X0142289Y0159165D01*
X0136723Y0153599D01*
X0135999Y0154323D01*
X0141565Y0159889D01*
G37*
G36*
X0140173Y0161281D02*
X0140897Y0160557D01*
X0135331Y0154991D01*
X0134607Y0155715D01*
X0140173Y0161281D01*
G37*
G36*
X0138781Y0162673D02*
X0139505Y0161949D01*
X0133939Y0156383D01*
X0133215Y0157107D01*
X0138781Y0162673D01*
G37*
G36*
X0137389Y0164065D02*
X0138113Y0163341D01*
X0132547Y0157775D01*
X0131823Y0158499D01*
X0137389Y0164065D01*
G37*
G36*
X0135998Y0165457D02*
X0136722Y0164733D01*
X0131156Y0159167D01*
X0130432Y0159891D01*
X0135998Y0165457D01*
G37*
G36*
X0134606Y0166848D02*
X0135330Y0166124D01*
X0129764Y0160558D01*
X0129040Y0161282D01*
X0134606Y0166848D01*
G37*
G36*
X0133214Y0168240D02*
X0133938Y0167516D01*
X0128372Y0161950D01*
X0127648Y0162674D01*
X0133214Y0168240D01*
G37*
G36*
X0131822Y0169632D02*
X0132546Y0168908D01*
X0126980Y0163342D01*
X0126256Y0164066D01*
X0131822Y0169632D01*
G37*
G36*
X0130430Y0171024D02*
X0131154Y0170300D01*
X0125588Y0164734D01*
X0124864Y0165458D01*
X0130430Y0171024D01*
G37*
G36*
X0129038Y0172416D02*
X0129762Y0171692D01*
X0124196Y0166126D01*
X0123472Y0166850D01*
X0129038Y0172416D01*
G37*
G36*
X0127646Y0173808D02*
X0128370Y0173084D01*
X0122804Y0167518D01*
X0122080Y0168242D01*
X0127646Y0173808D01*
G37*
G36*
X0126254Y0175200D02*
X0126978Y0174476D01*
X0121412Y0168910D01*
X0120688Y0169634D01*
X0126254Y0175200D01*
G37*
G36*
X0124862Y0176592D02*
X0125586Y0175868D01*
X0120020Y0170302D01*
X0119296Y0171026D01*
X0124862Y0176592D01*
G37*
G36*
X0123470Y0177984D02*
X0124194Y0177260D01*
X0118628Y0171694D01*
X0117904Y0172418D01*
X0123470Y0177984D01*
G37*
G36*
X0122078Y0179376D02*
X0122802Y0178652D01*
X0117236Y0173086D01*
X0116512Y0173810D01*
X0122078Y0179376D01*
G37*
G36*
X0122802Y0189121D02*
X0122078Y0188397D01*
X0116512Y0193963D01*
X0117236Y0194687D01*
X0122802Y0189121D01*
G37*
G36*
X0124194Y0190513D02*
X0123470Y0189789D01*
X0117904Y0195355D01*
X0118628Y0196079D01*
X0124194Y0190513D01*
G37*
G36*
X0125586Y0191905D02*
X0124862Y0191181D01*
X0119296Y0196747D01*
X0120020Y0197471D01*
X0125586Y0191905D01*
G37*
G36*
X0126978Y0193297D02*
X0126254Y0192573D01*
X0120688Y0198139D01*
X0121412Y0198863D01*
X0126978Y0193297D01*
G37*
G36*
X0128370Y0194689D02*
X0127646Y0193965D01*
X0122080Y0199531D01*
X0122804Y0200255D01*
X0128370Y0194689D01*
G37*
G36*
X0129762Y0196081D02*
X0129038Y0195357D01*
X0123472Y0200923D01*
X0124196Y0201647D01*
X0129762Y0196081D01*
G37*
G36*
X0131154Y0197473D02*
X0130430Y0196749D01*
X0124864Y0202315D01*
X0125588Y0203039D01*
X0131154Y0197473D01*
G37*
G36*
X0132546Y0198865D02*
X0131822Y0198141D01*
X0126256Y0203707D01*
X0126980Y0204431D01*
X0132546Y0198865D01*
G37*
G36*
X0133938Y0200257D02*
X0133214Y0199533D01*
X0127648Y0205099D01*
X0128372Y0205823D01*
X0133938Y0200257D01*
G37*
G36*
X0135330Y0201649D02*
X0134606Y0200925D01*
X0129040Y0206491D01*
X0129764Y0207215D01*
X0135330Y0201649D01*
G37*
G36*
X0136722Y0203041D02*
X0135998Y0202317D01*
X0130432Y0207883D01*
X0131156Y0208607D01*
X0136722Y0203041D01*
G37*
G36*
X0138113Y0204433D02*
X0137389Y0203709D01*
X0131823Y0209275D01*
X0132547Y0209999D01*
X0138113Y0204433D01*
G37*
G36*
X0139505Y0205825D02*
X0138781Y0205101D01*
X0133215Y0210667D01*
X0133939Y0211391D01*
X0139505Y0205825D01*
G37*
G36*
X0140897Y0207217D02*
X0140173Y0206493D01*
X0134607Y0212059D01*
X0135331Y0212783D01*
X0140897Y0207217D01*
G37*
G36*
X0142289Y0208608D02*
X0141565Y0207884D01*
X0135999Y0213450D01*
X0136723Y0214174D01*
X0142289Y0208608D01*
G37*
G36*
X0143681Y0210000D02*
X0142957Y0209276D01*
X0137391Y0214842D01*
X0138115Y0215566D01*
X0143681Y0210000D01*
G37*
G36*
X0158269Y0215566D02*
X0158993Y0214842D01*
X0153427Y0209276D01*
X0152703Y0210000D01*
X0158269Y0215566D01*
G37*
G36*
X0159661Y0214174D02*
X0160385Y0213450D01*
X0154819Y0207884D01*
X0154095Y0208608D01*
X0159661Y0214174D01*
G37*
G36*
X0161053Y0212783D02*
X0161777Y0212059D01*
X0156211Y0206493D01*
X0155487Y0207217D01*
X0161053Y0212783D01*
G37*
G36*
X0162444Y0211391D02*
X0163168Y0210667D01*
X0157602Y0205101D01*
X0156878Y0205825D01*
X0162444Y0211391D01*
G37*
G36*
X0163836Y0209999D02*
X0164560Y0209275D01*
X0158994Y0203709D01*
X0158270Y0204433D01*
X0163836Y0209999D01*
G37*
G36*
X0165228Y0208607D02*
X0165952Y0207883D01*
X0160386Y0202317D01*
X0159662Y0203041D01*
X0165228Y0208607D01*
G37*
G36*
X0166620Y0207215D02*
X0167344Y0206491D01*
X0161778Y0200925D01*
X0161054Y0201649D01*
X0166620Y0207215D01*
G37*
G36*
X0168012Y0205823D02*
X0168736Y0205099D01*
X0163170Y0199533D01*
X0162446Y0200257D01*
X0168012Y0205823D01*
G37*
G36*
X0169404Y0204431D02*
X0170128Y0203707D01*
X0164562Y0198141D01*
X0163838Y0198865D01*
X0169404Y0204431D01*
G37*
G36*
X0170796Y0203039D02*
X0171520Y0202315D01*
X0165954Y0196749D01*
X0165230Y0197473D01*
X0170796Y0203039D01*
G37*
G36*
X0172188Y0201647D02*
X0172912Y0200923D01*
X0167346Y0195357D01*
X0166622Y0196081D01*
X0172188Y0201647D01*
G37*
G36*
X0173580Y0200255D02*
X0174304Y0199531D01*
X0168738Y0193965D01*
X0168014Y0194689D01*
X0173580Y0200255D01*
G37*
G36*
X0174972Y0198863D02*
X0175696Y0198139D01*
X0170130Y0192573D01*
X0169406Y0193297D01*
X0174972Y0198863D01*
G37*
G36*
X0176364Y0197471D02*
X0177088Y0196747D01*
X0171522Y0191181D01*
X0170798Y0191905D01*
X0176364Y0197471D01*
G37*
G36*
X0177756Y0196079D02*
X0178480Y0195355D01*
X0172914Y0189789D01*
X0172190Y0190513D01*
X0177756Y0196079D01*
G37*
G36*
X0179148Y0194687D02*
X0179872Y0193963D01*
X0174306Y0188397D01*
X0173582Y0189121D01*
X0179148Y0194687D01*
G37*
D24*
G36*
X0176225Y0231285D02*
X0180401Y0235461D01*
X0195711Y0220151D01*
X0191535Y0215975D01*
X0176225Y0231285D01*
G37*
G36*
X0199889Y0207622D02*
X0204065Y0211798D01*
X0219375Y0196488D01*
X0215199Y0192312D01*
X0199889Y0207622D01*
G37*
D25*
X0206485Y0381524D03*
X0206485Y0407902D03*
X0232863Y0407902D03*
X0232863Y0381524D03*
X0160580Y0381524D03*
X0160580Y0407902D03*
X0134202Y0407902D03*
X0134202Y0381524D03*
X0088296Y0381524D03*
X0088296Y0407902D03*
X0061918Y0407902D03*
X0061918Y0381524D03*
D26*
X0053517Y0379517D03*
X0074517Y0406017D03*
X0076800Y0421800D03*
X0096800Y0421800D03*
X0116800Y0421800D03*
X0136800Y0421800D03*
X0146800Y0406017D03*
X0156800Y0421800D03*
X0176800Y0421800D03*
X0196800Y0421800D03*
X0216800Y0421800D03*
X0219083Y0406017D03*
X0236800Y0421800D03*
X0256800Y0421800D03*
X0275580Y0425186D03*
X0275580Y0417312D03*
X0275580Y0409438D03*
X0275580Y0401564D03*
X0275580Y0393690D03*
X0275580Y0385816D03*
X0275580Y0377942D03*
X0275580Y0370068D03*
X0275580Y0362194D03*
X0275580Y0354320D03*
X0275580Y0346446D03*
X0275580Y0338572D03*
X0275580Y0330698D03*
X0275580Y0322824D03*
X0275580Y0314950D03*
X0275580Y0307076D03*
X0275580Y0299202D03*
X0275580Y0291328D03*
X0275580Y0283454D03*
X0275580Y0275580D03*
X0275580Y0267706D03*
X0275580Y0259831D03*
X0275580Y0251957D03*
X0275580Y0244083D03*
X0275580Y0236209D03*
X0275580Y0228335D03*
X0283454Y0228335D03*
X0291328Y0228335D03*
X0299202Y0228335D03*
X0307076Y0228335D03*
X0314950Y0228335D03*
X0314950Y0220461D03*
X0322824Y0220461D03*
X0322824Y0212587D03*
X0322824Y0204713D03*
X0322824Y0196839D03*
X0322824Y0188965D03*
X0322824Y0181091D03*
X0322824Y0173217D03*
X0342509Y0173217D03*
X0342509Y0181091D03*
X0342509Y0188965D03*
X0342509Y0196839D03*
X0342509Y0204713D03*
X0342509Y0212587D03*
X0342509Y0220461D03*
X0350383Y0220461D03*
X0350383Y0228335D03*
X0358257Y0228335D03*
X0366131Y0228335D03*
X0366800Y0216800D03*
X0366800Y0196800D03*
X0366800Y0176800D03*
X0366800Y0156800D03*
X0366800Y0136800D03*
X0366800Y0116800D03*
X0366800Y0096800D03*
X0366800Y0076800D03*
X0366800Y0056800D03*
X0331800Y0048600D03*
X0336800Y0016800D03*
X0316800Y0016800D03*
X0296800Y0016800D03*
X0276800Y0016800D03*
X0256800Y0016800D03*
X0236800Y0016800D03*
X0216800Y0016800D03*
X0196800Y0016800D03*
X0176800Y0016800D03*
X0156800Y0016800D03*
X0136800Y0016800D03*
X0116800Y0016800D03*
X0096800Y0016800D03*
X0076800Y0016800D03*
X0056800Y0016800D03*
X0016800Y0046800D03*
X0016800Y0066800D03*
X0016800Y0086800D03*
X0016800Y0141800D03*
X0016800Y0161800D03*
X0016800Y0181800D03*
X0016800Y0201800D03*
X0016800Y0221800D03*
X0016800Y0241800D03*
X0016800Y0261800D03*
X0016800Y0281800D03*
X0016800Y0301800D03*
X0016800Y0321800D03*
X0016800Y0341800D03*
X0016800Y0361800D03*
X0016800Y0381800D03*
X0056800Y0421800D03*
X0077300Y0371800D03*
X0083517Y0349517D03*
X0097300Y0337800D03*
X0083517Y0303517D03*
X0097300Y0292800D03*
X0083517Y0263517D03*
X0097300Y0252800D03*
X0062517Y0249517D03*
X0062517Y0289517D03*
X0063017Y0334517D03*
X0125800Y0379517D03*
X0155800Y0349517D03*
X0169300Y0337800D03*
X0155800Y0303517D03*
X0169300Y0292800D03*
X0155800Y0263517D03*
X0170800Y0257800D03*
X0169300Y0252800D03*
X0134800Y0249517D03*
X0134800Y0289517D03*
X0135800Y0334517D03*
X0198083Y0379517D03*
X0228083Y0349517D03*
X0207083Y0334517D03*
X0228083Y0303517D03*
X0207083Y0289517D03*
X0228083Y0263517D03*
X0207083Y0249517D03*
X0153800Y0202887D03*
X0149800Y0194800D03*
X0143800Y0202800D03*
X0139800Y0194800D03*
X0144800Y0176800D03*
X0153800Y0176800D03*
X0146800Y0152887D03*
X0165800Y0140887D03*
X0171800Y0141800D03*
X0178300Y0141300D03*
X0182800Y0169887D03*
X0144800Y0120300D03*
X0137800Y0120300D03*
X0118300Y0157300D03*
X0123800Y0161300D03*
X0105800Y0186300D03*
X0113800Y0194887D03*
X0076800Y0184800D03*
X0252454Y0113454D03*
X0252500Y0100000D03*
X0266800Y0126800D03*
X0289800Y0162800D03*
X0289800Y0173800D03*
X0301800Y0173800D03*
X0292200Y0055000D03*
M02*
