G75*
%MOIN*%
%OFA0B0*%
%FSLAX25Y25*%
%IPPOS*%
%LPD*%
%AMOC8*
5,1,8,0,0,1.08239X$1,22.5*
%
%ADD10C,0.00300*%
%ADD11R,0.00300X0.00050*%
%ADD12R,0.00450X0.00050*%
%ADD13R,0.00150X0.00050*%
%ADD14R,0.01450X0.00050*%
%ADD15R,0.00550X0.00050*%
%ADD16R,0.02200X0.00050*%
%ADD17R,0.00600X0.00050*%
%ADD18R,0.02750X0.00050*%
%ADD19R,0.00700X0.00050*%
%ADD20R,0.00400X0.00050*%
%ADD21R,0.00650X0.00050*%
%ADD22R,0.03150X0.00050*%
%ADD23R,0.00500X0.00050*%
%ADD24R,0.03600X0.00050*%
%ADD25R,0.03950X0.00050*%
%ADD26R,0.00750X0.00050*%
%ADD27R,0.04300X0.00050*%
%ADD28R,0.01700X0.00050*%
%ADD29R,0.01600X0.00050*%
%ADD30R,0.01500X0.00050*%
%ADD31R,0.01400X0.00050*%
%ADD32R,0.01350X0.00050*%
%ADD33R,0.01250X0.00050*%
%ADD34R,0.01300X0.00050*%
%ADD35R,0.01150X0.00050*%
%ADD36R,0.01200X0.00050*%
%ADD37R,0.01100X0.00050*%
%ADD38R,0.01000X0.00050*%
%ADD39R,0.01050X0.00050*%
%ADD40R,0.00950X0.00050*%
%ADD41R,0.00900X0.00050*%
%ADD42R,0.00800X0.00050*%
%ADD43R,0.00850X0.00050*%
%ADD44R,0.00350X0.00050*%
%ADD45R,0.00200X0.00050*%
%ADD46R,0.00250X0.00050*%
%ADD47R,0.01850X0.00050*%
%ADD48R,0.00050X0.00050*%
%ADD49R,0.00100X0.00050*%
%ADD50R,0.01650X0.00050*%
%ADD51R,0.02300X0.00050*%
%ADD52R,0.02400X0.00050*%
%ADD53R,0.02550X0.00050*%
%ADD54R,0.02650X0.00050*%
%ADD55R,0.01950X0.00050*%
%ADD56R,0.01800X0.00050*%
%ADD57R,0.01550X0.00050*%
%ADD58R,0.01750X0.00050*%
%ADD59R,0.01900X0.00050*%
%ADD60R,0.02000X0.00050*%
%ADD61R,0.02150X0.00050*%
%ADD62R,0.02250X0.00050*%
%ADD63R,0.02100X0.00050*%
%ADD64R,0.02450X0.00050*%
%ADD65R,0.03850X0.00050*%
%ADD66R,0.03900X0.00050*%
%ADD67R,0.05000X0.00050*%
%ADD68R,0.06000X0.00050*%
%ADD69R,0.05950X0.00050*%
%ADD70R,0.05850X0.00050*%
%ADD71R,0.05800X0.00050*%
%ADD72R,0.05700X0.00050*%
%ADD73R,0.05600X0.00050*%
%ADD74R,0.05500X0.00050*%
%ADD75R,0.05450X0.00050*%
%ADD76R,0.05300X0.00050*%
%ADD77R,0.04250X0.00050*%
%ADD78R,0.03800X0.00050*%
%ADD79R,0.03750X0.00050*%
%ADD80R,0.04050X0.00050*%
%ADD81R,0.04100X0.00050*%
%ADD82R,0.04700X0.00050*%
%ADD83R,0.04750X0.00050*%
%ADD84R,0.04850X0.00050*%
%ADD85R,0.04900X0.00050*%
%ADD86R,0.05050X0.00050*%
%ADD87R,0.05100X0.00050*%
%ADD88R,0.05150X0.00050*%
%ADD89R,0.05200X0.00050*%
%ADD90R,0.05250X0.00050*%
%ADD91R,0.04800X0.00050*%
%ADD92R,0.04950X0.00050*%
%ADD93R,0.05350X0.00050*%
%ADD94R,0.05400X0.00050*%
%ADD95R,0.05550X0.00050*%
%ADD96R,0.05650X0.00050*%
%ADD97R,0.02800X0.00050*%
%ADD98R,0.05750X0.00050*%
%ADD99R,0.03250X0.00050*%
%ADD100R,0.03400X0.00050*%
%ADD101R,0.05900X0.00050*%
%ADD102R,0.03450X0.00050*%
%ADD103R,0.06050X0.00050*%
%ADD104R,0.06100X0.00050*%
%ADD105R,0.06200X0.00050*%
%ADD106R,0.06250X0.00050*%
%ADD107R,0.06350X0.00050*%
%ADD108R,0.06450X0.00050*%
%ADD109R,0.06500X0.00050*%
%ADD110R,0.06600X0.00050*%
%ADD111R,0.06700X0.00050*%
%ADD112R,0.06650X0.00050*%
%ADD113R,0.06800X0.00050*%
%ADD114R,0.06750X0.00050*%
%ADD115R,0.06900X0.00050*%
%ADD116R,0.06850X0.00050*%
%ADD117R,0.07050X0.00050*%
%ADD118R,0.07000X0.00050*%
%ADD119R,0.07150X0.00050*%
%ADD120R,0.07250X0.00050*%
%ADD121R,0.07400X0.00050*%
%ADD122R,0.07450X0.00050*%
%ADD123R,0.07600X0.00050*%
%ADD124R,0.07750X0.00050*%
%ADD125R,0.07900X0.00050*%
%ADD126R,0.08100X0.00050*%
%ADD127R,0.08150X0.00050*%
%ADD128R,0.08350X0.00050*%
%ADD129R,0.08650X0.00050*%
%ADD130R,0.08700X0.00050*%
%ADD131R,0.18850X0.00050*%
%ADD132R,0.11150X0.00050*%
%ADD133R,0.07650X0.00050*%
%ADD134R,0.10950X0.00050*%
%ADD135R,0.07550X0.00050*%
%ADD136R,0.10800X0.00050*%
%ADD137R,0.07500X0.00050*%
%ADD138R,0.10600X0.00050*%
%ADD139R,0.10500X0.00050*%
%ADD140R,0.10450X0.00050*%
%ADD141R,0.09200X0.00050*%
%ADD142R,0.07950X0.00050*%
%ADD143R,0.09150X0.00050*%
%ADD144R,0.09050X0.00050*%
%ADD145R,0.09100X0.00050*%
%ADD146R,0.09000X0.00050*%
%ADD147R,0.08950X0.00050*%
%ADD148R,0.08900X0.00050*%
%ADD149R,0.08850X0.00050*%
%ADD150R,0.08800X0.00050*%
%ADD151R,0.08450X0.00050*%
%ADD152R,0.08250X0.00050*%
%ADD153R,0.09250X0.00050*%
%ADD154R,0.06300X0.00050*%
%ADD155R,0.09300X0.00050*%
%ADD156R,0.06150X0.00050*%
%ADD157R,0.06550X0.00050*%
%ADD158R,0.06400X0.00050*%
%ADD159R,0.04400X0.00050*%
%ADD160R,0.04350X0.00050*%
%ADD161R,0.04450X0.00050*%
%ADD162R,0.04550X0.00050*%
%ADD163R,0.04600X0.00050*%
%ADD164R,0.04150X0.00050*%
%ADD165R,0.04000X0.00050*%
%ADD166R,0.03650X0.00050*%
%ADD167R,0.03200X0.00050*%
%ADD168R,0.02950X0.00050*%
%ADD169R,0.02350X0.00050*%
%ADD170R,0.03100X0.00050*%
%ADD171R,0.03550X0.00050*%
%ADD172R,0.03700X0.00050*%
%ADD173R,0.04650X0.00050*%
%ADD174R,0.04500X0.00050*%
%ADD175R,0.03350X0.00050*%
%ADD176R,0.02850X0.00050*%
%ADD177C,0.00200*%
%ADD178C,0.00500*%
%ADD179C,0.00600*%
%ADD180C,0.00400*%
D10*
X0115198Y0031741D02*
X0117625Y0031741D01*
X0118823Y0031741D02*
X0121250Y0035381D01*
X0118823Y0035381D02*
X0121250Y0031741D01*
X0117625Y0034167D02*
X0116411Y0035381D01*
X0116411Y0031741D01*
X0129208Y0039434D02*
X0129814Y0038827D01*
X0131028Y0038827D01*
X0131634Y0039434D01*
X0132833Y0039434D02*
X0133439Y0038827D01*
X0134653Y0038827D01*
X0135259Y0039434D01*
X0135259Y0041861D01*
X0134653Y0042467D01*
X0133439Y0042467D01*
X0132833Y0041861D01*
X0131634Y0041861D02*
X0131634Y0041254D01*
X0131028Y0040647D01*
X0129208Y0040647D01*
X0129208Y0039434D02*
X0129208Y0041861D01*
X0129814Y0042467D01*
X0131028Y0042467D01*
X0131634Y0041861D01*
X0152600Y0040008D02*
X0155026Y0040008D01*
X0153813Y0040008D02*
X0153813Y0043648D01*
X0155026Y0042435D01*
X0156225Y0043648D02*
X0156225Y0040615D01*
X0156831Y0040008D01*
X0158045Y0040008D01*
X0158651Y0040615D01*
X0158651Y0043648D01*
X0169024Y0042747D02*
X0169024Y0040320D01*
X0169024Y0041533D02*
X0172664Y0041533D01*
X0171451Y0040320D01*
X0172057Y0039122D02*
X0172664Y0038515D01*
X0172664Y0037302D01*
X0172057Y0036695D01*
X0169631Y0036695D01*
X0169024Y0037302D01*
X0169024Y0038515D01*
X0169631Y0039122D01*
X0176898Y0038515D02*
X0177505Y0039122D01*
X0176898Y0038515D02*
X0176898Y0037302D01*
X0177505Y0036695D01*
X0179931Y0036695D01*
X0180538Y0037302D01*
X0180538Y0038515D01*
X0179931Y0039122D01*
X0179931Y0040320D02*
X0180538Y0040927D01*
X0180538Y0042140D01*
X0179931Y0042747D01*
X0179325Y0042747D01*
X0176898Y0040320D01*
X0176898Y0042747D01*
X0184339Y0042478D02*
X0187979Y0042478D01*
X0186766Y0041265D01*
X0184339Y0041265D02*
X0184339Y0043692D01*
X0192213Y0043692D02*
X0192213Y0041265D01*
X0194640Y0043692D01*
X0195246Y0043692D01*
X0195853Y0043085D01*
X0195853Y0041872D01*
X0195246Y0041265D01*
X0192213Y0040067D02*
X0192213Y0037640D01*
X0192213Y0038853D02*
X0195853Y0038853D01*
X0194640Y0037640D01*
X0195246Y0036441D02*
X0195853Y0035835D01*
X0195853Y0034621D01*
X0195246Y0034015D01*
X0192820Y0034015D01*
X0192213Y0034621D01*
X0192213Y0035835D01*
X0192820Y0036441D01*
X0187979Y0035835D02*
X0187979Y0034621D01*
X0187372Y0034015D01*
X0184946Y0034015D01*
X0184339Y0034621D01*
X0184339Y0035835D01*
X0184946Y0036441D01*
X0184339Y0037640D02*
X0184339Y0040067D01*
X0184339Y0038853D02*
X0187979Y0038853D01*
X0186766Y0037640D01*
X0187372Y0036441D02*
X0187979Y0035835D01*
X0203387Y0042583D02*
X0203994Y0041977D01*
X0205207Y0041977D01*
X0205814Y0042583D01*
X0207012Y0042583D02*
X0207012Y0045617D01*
X0205814Y0045617D02*
X0205814Y0043797D01*
X0204600Y0044404D01*
X0203994Y0044404D01*
X0203387Y0043797D01*
X0203387Y0042583D01*
X0207012Y0042583D02*
X0207619Y0041977D01*
X0208832Y0041977D01*
X0209439Y0042583D01*
X0209439Y0045617D01*
X0205814Y0045617D02*
X0203387Y0045617D01*
X0243827Y0037579D02*
X0243827Y0036366D01*
X0244434Y0035759D01*
X0243827Y0034561D02*
X0243827Y0032134D01*
X0247467Y0032134D01*
X0251701Y0031986D02*
X0251701Y0030772D01*
X0252308Y0030166D01*
X0254735Y0030166D01*
X0255341Y0030772D01*
X0255341Y0031986D01*
X0254735Y0032592D01*
X0254128Y0033791D02*
X0255341Y0035004D01*
X0251701Y0035004D01*
X0251701Y0033791D02*
X0251701Y0036218D01*
X0252308Y0037416D02*
X0251701Y0038023D01*
X0251701Y0039236D01*
X0252308Y0039843D01*
X0253521Y0039843D01*
X0254128Y0039236D01*
X0254128Y0038629D01*
X0253521Y0037416D01*
X0255341Y0037416D01*
X0255341Y0039843D01*
X0260182Y0035759D02*
X0262609Y0038186D01*
X0263215Y0038186D01*
X0263215Y0035759D01*
X0262609Y0034561D02*
X0263215Y0033954D01*
X0263215Y0032741D01*
X0262609Y0032134D01*
X0260182Y0032134D01*
X0259575Y0032741D01*
X0259575Y0033954D01*
X0260182Y0034561D01*
X0260182Y0035759D02*
X0259575Y0035759D01*
X0252308Y0032592D02*
X0251701Y0031986D01*
X0247467Y0036366D02*
X0246861Y0035759D01*
X0247467Y0036366D02*
X0247467Y0037579D01*
X0246861Y0038186D01*
X0246254Y0038186D01*
X0245647Y0037579D01*
X0245041Y0038186D01*
X0244434Y0038186D01*
X0243827Y0037579D01*
X0245647Y0037579D02*
X0245647Y0036973D01*
X0274877Y0038646D02*
X0275484Y0038040D01*
X0276697Y0038040D01*
X0277304Y0038646D01*
X0277304Y0039860D02*
X0276090Y0040466D01*
X0275484Y0040466D01*
X0274877Y0039860D01*
X0274877Y0038646D01*
X0277304Y0039860D02*
X0277304Y0041680D01*
X0274877Y0041680D01*
X0278502Y0041073D02*
X0278502Y0039860D01*
X0279109Y0039253D01*
X0280929Y0039253D01*
X0280929Y0038040D02*
X0280929Y0041680D01*
X0279109Y0041680D01*
X0278502Y0041073D01*
X0279715Y0039253D02*
X0278502Y0038040D01*
X0345237Y0059693D02*
X0347663Y0059693D01*
X0345237Y0062120D01*
X0345237Y0062727D01*
X0345843Y0063333D01*
X0347057Y0063333D01*
X0347663Y0062727D01*
X0348862Y0063333D02*
X0348862Y0060907D01*
X0350075Y0059693D01*
X0351288Y0060907D01*
X0351288Y0063333D01*
X0356112Y0061513D02*
X0356112Y0059693D01*
X0358539Y0059693D02*
X0358539Y0062120D01*
X0356719Y0062120D01*
X0356112Y0061513D01*
X0359737Y0061513D02*
X0359737Y0060300D01*
X0360344Y0059693D01*
X0361557Y0059693D01*
X0362164Y0060300D01*
X0362164Y0061513D01*
X0361557Y0062120D01*
X0360344Y0062120D01*
X0359737Y0061513D01*
X0363974Y0062120D02*
X0363974Y0059693D01*
X0364581Y0059693D02*
X0363367Y0059693D01*
X0365784Y0059693D02*
X0366391Y0060300D01*
X0366391Y0062727D01*
X0366997Y0062120D02*
X0365784Y0062120D01*
X0364581Y0062120D02*
X0363974Y0062120D01*
X0363974Y0063333D02*
X0363974Y0063940D01*
X0363362Y0065599D02*
X0365182Y0065599D01*
X0365789Y0066205D01*
X0365789Y0067419D01*
X0365182Y0068026D01*
X0363362Y0068026D01*
X0363362Y0069239D02*
X0363362Y0065599D01*
X0362164Y0065599D02*
X0360951Y0065599D01*
X0361557Y0065599D02*
X0361557Y0069239D01*
X0362164Y0069239D01*
X0359747Y0067419D02*
X0359140Y0068026D01*
X0357927Y0068026D01*
X0357320Y0067419D01*
X0357320Y0066812D01*
X0359747Y0066812D01*
X0359747Y0066205D02*
X0359747Y0067419D01*
X0359747Y0066205D02*
X0359140Y0065599D01*
X0357927Y0065599D01*
X0356122Y0065599D02*
X0356122Y0068026D01*
X0354909Y0068026D02*
X0354302Y0068026D01*
X0354909Y0068026D02*
X0356122Y0066812D01*
X0366987Y0067419D02*
X0366987Y0065599D01*
X0366987Y0067419D02*
X0367594Y0068026D01*
X0369414Y0068026D01*
X0369414Y0065599D01*
X0370613Y0066812D02*
X0373039Y0066812D01*
X0373039Y0066205D02*
X0373039Y0067419D01*
X0372433Y0068026D01*
X0371219Y0068026D01*
X0370613Y0067419D01*
X0370613Y0066812D01*
X0371219Y0065599D02*
X0372433Y0065599D01*
X0373039Y0066205D01*
X0374238Y0065599D02*
X0375451Y0066812D01*
X0376664Y0065599D01*
X0376664Y0069239D01*
X0374238Y0069239D02*
X0374238Y0065599D01*
X0372433Y0062727D02*
X0372433Y0060300D01*
X0371826Y0059693D01*
X0370623Y0060300D02*
X0370016Y0060907D01*
X0368196Y0060907D01*
X0368196Y0061513D02*
X0368196Y0059693D01*
X0370016Y0059693D01*
X0370623Y0060300D01*
X0370016Y0062120D02*
X0368802Y0062120D01*
X0368196Y0061513D01*
X0371826Y0062120D02*
X0373039Y0062120D01*
X0374238Y0062120D02*
X0376058Y0062120D01*
X0376664Y0061513D01*
X0376058Y0060907D01*
X0374844Y0060907D01*
X0374238Y0060300D01*
X0374844Y0059693D01*
X0376664Y0059693D01*
X0377863Y0060300D02*
X0378470Y0059693D01*
X0380290Y0059693D01*
X0381488Y0060300D02*
X0382095Y0060907D01*
X0383308Y0060907D01*
X0383915Y0061513D01*
X0383308Y0062120D01*
X0381488Y0062120D01*
X0380290Y0061513D02*
X0379683Y0060907D01*
X0378470Y0060907D01*
X0377863Y0060300D01*
X0377863Y0062120D02*
X0379683Y0062120D01*
X0380290Y0061513D01*
X0381488Y0060300D02*
X0382095Y0059693D01*
X0383915Y0059693D01*
X0385113Y0060907D02*
X0387540Y0060907D01*
X0387540Y0061513D02*
X0387540Y0060300D01*
X0386933Y0059693D01*
X0385720Y0059693D01*
X0385113Y0060907D02*
X0385113Y0061513D01*
X0385720Y0062120D01*
X0386933Y0062120D01*
X0387540Y0061513D01*
X0388738Y0063333D02*
X0388738Y0059693D01*
X0389345Y0057428D02*
X0388738Y0056821D01*
X0391165Y0054394D01*
X0390558Y0053788D01*
X0389345Y0053788D01*
X0388738Y0054394D01*
X0388738Y0056821D01*
X0389345Y0057428D02*
X0390558Y0057428D01*
X0391165Y0056821D01*
X0391165Y0054394D01*
X0387540Y0054394D02*
X0386933Y0053788D01*
X0385720Y0053788D01*
X0385113Y0054394D01*
X0385113Y0056821D01*
X0385720Y0057428D01*
X0386933Y0057428D01*
X0387540Y0056821D01*
X0387540Y0056215D01*
X0386933Y0055608D01*
X0385113Y0055608D01*
X0383915Y0054394D02*
X0383308Y0054394D01*
X0383308Y0053788D01*
X0383915Y0053788D01*
X0383915Y0054394D01*
X0382102Y0054394D02*
X0379675Y0056821D01*
X0379675Y0054394D01*
X0380282Y0053788D01*
X0381495Y0053788D01*
X0382102Y0054394D01*
X0382102Y0056821D01*
X0381495Y0057428D01*
X0380282Y0057428D01*
X0379675Y0056821D01*
X0378477Y0057428D02*
X0376050Y0057428D01*
X0376050Y0056821D01*
X0378477Y0054394D01*
X0378477Y0053788D01*
X0374852Y0053788D02*
X0374852Y0054394D01*
X0374245Y0054394D01*
X0374245Y0053788D01*
X0374852Y0053788D01*
X0373039Y0053788D02*
X0370613Y0056215D01*
X0370613Y0056821D01*
X0371219Y0057428D01*
X0372433Y0057428D01*
X0373039Y0056821D01*
X0369414Y0056821D02*
X0369414Y0054394D01*
X0366987Y0056821D01*
X0366987Y0054394D01*
X0367594Y0053788D01*
X0368807Y0053788D01*
X0369414Y0054394D01*
X0370613Y0053788D02*
X0373039Y0053788D01*
X0369414Y0056821D02*
X0368807Y0057428D01*
X0367594Y0057428D01*
X0366987Y0056821D01*
X0365789Y0056215D02*
X0364576Y0057428D01*
X0364576Y0053788D01*
X0365789Y0053788D02*
X0363362Y0053788D01*
X0362164Y0054394D02*
X0362164Y0055001D01*
X0361557Y0055608D01*
X0360344Y0055608D01*
X0359737Y0055001D01*
X0359737Y0054394D01*
X0360344Y0053788D01*
X0361557Y0053788D01*
X0362164Y0054394D01*
X0361557Y0055608D02*
X0362164Y0056215D01*
X0362164Y0056821D01*
X0361557Y0057428D01*
X0360344Y0057428D01*
X0359737Y0056821D01*
X0359737Y0056215D01*
X0360344Y0055608D01*
X0381488Y0065599D02*
X0381488Y0067419D01*
X0382095Y0068026D01*
X0383915Y0068026D01*
X0383915Y0065599D01*
X0385113Y0065599D02*
X0385113Y0067419D01*
X0385720Y0068026D01*
X0386933Y0068026D01*
X0386933Y0066812D02*
X0385113Y0066812D01*
X0385113Y0065599D02*
X0386933Y0065599D01*
X0387540Y0066205D01*
X0386933Y0066812D01*
X0389345Y0066205D02*
X0389952Y0065599D01*
X0390558Y0065599D01*
X0391165Y0066205D01*
X0389345Y0066205D02*
X0389345Y0069239D01*
X0389952Y0069239D02*
X0388738Y0069239D01*
X0388738Y0063333D02*
X0389952Y0062120D01*
X0391165Y0063333D01*
X0391165Y0059693D01*
X0263215Y0070143D02*
X0262609Y0069536D01*
X0260182Y0069536D01*
X0259575Y0070143D01*
X0259575Y0071356D01*
X0260182Y0071963D01*
X0259575Y0073161D02*
X0259575Y0075588D01*
X0259575Y0074374D02*
X0263215Y0074374D01*
X0262002Y0073161D01*
X0262609Y0071963D02*
X0263215Y0071356D01*
X0263215Y0070143D01*
X0255341Y0070143D02*
X0255341Y0071356D01*
X0254735Y0071963D01*
X0254128Y0073161D02*
X0255341Y0074374D01*
X0251701Y0074374D01*
X0251701Y0073161D02*
X0251701Y0075588D01*
X0252308Y0076786D02*
X0252915Y0076786D01*
X0253521Y0077393D01*
X0253521Y0078606D01*
X0252915Y0079213D01*
X0252308Y0079213D01*
X0251701Y0078606D01*
X0251701Y0077393D01*
X0252308Y0076786D01*
X0253521Y0077393D02*
X0254128Y0076786D01*
X0254735Y0076786D01*
X0255341Y0077393D01*
X0255341Y0078606D01*
X0254735Y0079213D01*
X0254128Y0079213D01*
X0253521Y0078606D01*
X0259575Y0078606D02*
X0259575Y0077393D01*
X0260182Y0076786D01*
X0261395Y0077393D02*
X0261395Y0079213D01*
X0260182Y0079213D02*
X0262609Y0079213D01*
X0263215Y0078606D01*
X0263215Y0077393D01*
X0262609Y0076786D01*
X0262002Y0076786D01*
X0261395Y0077393D01*
X0259575Y0078606D02*
X0260182Y0079213D01*
X0247467Y0074981D02*
X0245647Y0073161D01*
X0245647Y0075588D01*
X0243827Y0074981D02*
X0247467Y0074981D01*
X0243827Y0071963D02*
X0243827Y0069536D01*
X0247467Y0069536D01*
X0251701Y0070143D02*
X0251701Y0071356D01*
X0252308Y0071963D01*
X0251701Y0070143D02*
X0252308Y0069536D01*
X0254735Y0069536D01*
X0255341Y0070143D01*
X0223842Y0074080D02*
X0223235Y0073473D01*
X0222022Y0073473D01*
X0221415Y0074080D01*
X0220217Y0074080D02*
X0219610Y0073473D01*
X0218397Y0073473D01*
X0217790Y0074080D01*
X0217790Y0074686D01*
X0218397Y0075293D01*
X0220217Y0075293D01*
X0220217Y0074080D01*
X0220217Y0075293D02*
X0219004Y0076506D01*
X0217790Y0077113D01*
X0221415Y0076506D02*
X0222022Y0077113D01*
X0223235Y0077113D01*
X0223842Y0076506D01*
X0223842Y0074080D01*
X0196286Y0078017D02*
X0195679Y0077410D01*
X0193253Y0077410D01*
X0192646Y0078017D01*
X0192646Y0079230D01*
X0193253Y0079837D01*
X0192646Y0081035D02*
X0192646Y0083462D01*
X0192646Y0082248D02*
X0196286Y0082248D01*
X0195073Y0081035D01*
X0195679Y0079837D02*
X0196286Y0079230D01*
X0196286Y0078017D01*
X0188412Y0078017D02*
X0187805Y0077410D01*
X0185379Y0077410D01*
X0184772Y0078017D01*
X0184772Y0079230D01*
X0185379Y0079837D01*
X0184772Y0081035D02*
X0184772Y0083462D01*
X0184772Y0082248D02*
X0188412Y0082248D01*
X0187199Y0081035D01*
X0187805Y0079837D02*
X0188412Y0079230D01*
X0188412Y0078017D01*
X0186592Y0084660D02*
X0186592Y0087087D01*
X0184772Y0086480D02*
X0188412Y0086480D01*
X0186592Y0084660D01*
X0192646Y0085267D02*
X0192646Y0086480D01*
X0193253Y0087087D01*
X0193859Y0087087D01*
X0194466Y0086480D01*
X0194466Y0085873D01*
X0194466Y0086480D02*
X0195073Y0087087D01*
X0195679Y0087087D01*
X0196286Y0086480D01*
X0196286Y0085267D01*
X0195679Y0084660D01*
X0193253Y0084660D02*
X0192646Y0085267D01*
X0163212Y0094733D02*
X0163212Y0098373D01*
X0161392Y0098373D01*
X0160785Y0097766D01*
X0160785Y0096553D01*
X0161392Y0095946D01*
X0163212Y0095946D01*
X0161999Y0095946D02*
X0160785Y0094733D01*
X0159587Y0094733D02*
X0157160Y0098373D01*
X0155962Y0097159D02*
X0154749Y0098373D01*
X0154749Y0094733D01*
X0155962Y0094733D02*
X0153535Y0094733D01*
X0157160Y0094733D02*
X0159587Y0098373D01*
X0138547Y0090243D02*
X0136727Y0090243D01*
X0136120Y0089636D01*
X0136120Y0088423D01*
X0136727Y0087816D01*
X0138547Y0087816D01*
X0138547Y0086603D02*
X0138547Y0090243D01*
X0134922Y0089636D02*
X0134315Y0090243D01*
X0133102Y0090243D01*
X0132495Y0089636D01*
X0132495Y0089029D01*
X0133102Y0088423D01*
X0132495Y0087816D01*
X0132495Y0087209D01*
X0133102Y0086603D01*
X0134315Y0086603D01*
X0134922Y0087209D01*
X0136120Y0086603D02*
X0137333Y0087816D01*
X0133708Y0088423D02*
X0133102Y0088423D01*
X0104157Y0093371D02*
X0104157Y0096404D01*
X0101730Y0096404D02*
X0101730Y0093371D01*
X0102337Y0092764D01*
X0103550Y0092764D01*
X0104157Y0093371D01*
X0100532Y0094584D02*
X0098105Y0094584D01*
X0098712Y0092764D02*
X0098712Y0096404D01*
X0100532Y0094584D01*
X0122541Y0102075D02*
X0124967Y0102075D01*
X0126166Y0102075D02*
X0127379Y0103289D01*
X0126772Y0103289D02*
X0128592Y0103289D01*
X0128592Y0102075D02*
X0128592Y0105715D01*
X0126772Y0105715D01*
X0126166Y0105109D01*
X0126166Y0103895D01*
X0126772Y0103289D01*
X0124967Y0104502D02*
X0123754Y0105715D01*
X0123754Y0102075D01*
X0121874Y0073570D02*
X0120054Y0073570D01*
X0119447Y0072963D01*
X0119447Y0071750D01*
X0120054Y0071143D01*
X0121874Y0071143D01*
X0121874Y0069930D02*
X0121874Y0073570D01*
X0120660Y0071143D02*
X0119447Y0069930D01*
X0118248Y0071750D02*
X0115822Y0071750D01*
X0116428Y0069930D02*
X0116428Y0073570D01*
X0118248Y0071750D01*
X0137393Y0063120D02*
X0139820Y0060694D01*
X0139214Y0060087D01*
X0138000Y0060087D01*
X0137393Y0060694D01*
X0137393Y0063120D01*
X0138000Y0063727D01*
X0139214Y0063727D01*
X0139820Y0063120D01*
X0139820Y0060694D01*
X0141019Y0060087D02*
X0143445Y0060087D01*
X0142232Y0060087D02*
X0142232Y0063727D01*
X0143445Y0062514D01*
X0144644Y0063120D02*
X0145250Y0063727D01*
X0146464Y0063727D01*
X0147070Y0063120D01*
X0147070Y0060694D01*
X0146464Y0060087D01*
X0145250Y0060087D01*
X0144644Y0060694D01*
X0105502Y0047192D02*
X0103682Y0047192D01*
X0103075Y0046585D01*
X0103075Y0045372D01*
X0103682Y0044765D01*
X0105502Y0044765D01*
X0105502Y0043552D02*
X0105502Y0047192D01*
X0101877Y0046585D02*
X0101270Y0047192D01*
X0100057Y0047192D01*
X0099450Y0046585D01*
X0099450Y0045978D01*
X0101877Y0043552D01*
X0099450Y0043552D01*
X0103075Y0043552D02*
X0104288Y0044765D01*
X0095659Y0044158D02*
X0095659Y0046585D01*
X0095053Y0047192D01*
X0093839Y0047192D01*
X0093233Y0046585D01*
X0092034Y0046585D02*
X0091428Y0047192D01*
X0090214Y0047192D01*
X0089607Y0046585D01*
X0089607Y0045978D01*
X0090214Y0045372D01*
X0089607Y0044765D01*
X0089607Y0044158D01*
X0090214Y0043552D01*
X0091428Y0043552D01*
X0092034Y0044158D01*
X0093233Y0044158D02*
X0093839Y0043552D01*
X0095053Y0043552D01*
X0095659Y0044158D01*
X0090821Y0045372D02*
X0090214Y0045372D01*
X0085817Y0044765D02*
X0083997Y0044765D01*
X0083390Y0045372D01*
X0083390Y0046585D01*
X0083997Y0047192D01*
X0085817Y0047192D01*
X0085817Y0043552D01*
X0084603Y0044765D02*
X0083390Y0043552D01*
X0082192Y0044158D02*
X0081585Y0043552D01*
X0080372Y0043552D01*
X0079765Y0044158D01*
X0079765Y0044765D01*
X0080372Y0045372D01*
X0082192Y0045372D01*
X0082192Y0044158D01*
X0082192Y0045372D02*
X0080978Y0046585D01*
X0079765Y0047192D01*
D11*
X0346601Y0030973D03*
X0347101Y0030973D03*
X0347101Y0030923D03*
X0347101Y0030873D03*
X0346651Y0029923D03*
X0346901Y0029623D03*
X0346901Y0029423D03*
X0348851Y0029473D03*
X0349501Y0031273D03*
X0349601Y0031473D03*
X0349651Y0031573D03*
X0349701Y0031673D03*
X0349751Y0031723D03*
X0349751Y0031773D03*
X0349801Y0031823D03*
X0349851Y0031923D03*
X0349901Y0031973D03*
X0349951Y0032073D03*
X0350001Y0032123D03*
X0347351Y0035723D03*
X0347351Y0036823D03*
X0367201Y0032623D03*
X0367201Y0032573D03*
X0367201Y0032523D03*
X0367201Y0032473D03*
X0367151Y0032223D03*
X0367151Y0032173D03*
X0367151Y0032123D03*
X0367151Y0032073D03*
X0367151Y0032023D03*
X0367151Y0031973D03*
X0367101Y0031673D03*
X0367101Y0031623D03*
X0367001Y0030773D03*
X0367001Y0030723D03*
X0367001Y0030673D03*
X0367001Y0030623D03*
X0367001Y0030573D03*
X0367001Y0030523D03*
X0367001Y0030473D03*
X0367001Y0030423D03*
X0367001Y0030373D03*
X0367001Y0030323D03*
X0367001Y0030273D03*
X0367001Y0030223D03*
X0367001Y0030173D03*
X0365401Y0029673D03*
X0365401Y0029623D03*
X0365401Y0029573D03*
X0365451Y0029473D03*
X0365451Y0029423D03*
X0365351Y0029773D03*
X0365351Y0029823D03*
X0365351Y0029873D03*
X0365751Y0028023D03*
X0369451Y0030723D03*
X0369501Y0030673D03*
X0369351Y0030923D03*
X0370101Y0031623D03*
X0370101Y0031673D03*
X0370201Y0032473D03*
X0370201Y0032523D03*
X0370151Y0032623D03*
X0370101Y0032773D03*
X0368601Y0031973D03*
X0368601Y0031923D03*
X0367901Y0032573D03*
X0367901Y0032623D03*
X0367901Y0032673D03*
X0368651Y0034323D03*
X0368451Y0034973D03*
X0368451Y0035023D03*
X0368451Y0035073D03*
X0368451Y0035123D03*
X0367951Y0043023D03*
X0367951Y0043073D03*
X0367951Y0043123D03*
X0367951Y0043173D03*
X0367951Y0043223D03*
X0367951Y0043273D03*
X0367951Y0043323D03*
X0367951Y0043373D03*
X0367951Y0043423D03*
X0367951Y0043473D03*
X0367951Y0043523D03*
X0367951Y0043573D03*
X0367951Y0043623D03*
X0367951Y0043673D03*
X0367951Y0046373D03*
D12*
X0367976Y0046223D03*
X0367976Y0045273D03*
X0367926Y0040373D03*
X0367926Y0040323D03*
X0367926Y0040273D03*
X0362826Y0037273D03*
X0362826Y0037223D03*
X0362876Y0037123D03*
X0362276Y0038073D03*
X0362226Y0038123D03*
X0362176Y0038173D03*
X0362076Y0038323D03*
X0362026Y0038373D03*
X0361976Y0038423D03*
X0361926Y0038473D03*
X0366276Y0035573D03*
X0366176Y0035423D03*
X0366126Y0035323D03*
X0366076Y0035273D03*
X0366026Y0035173D03*
X0365976Y0035123D03*
X0365976Y0035073D03*
X0365926Y0035023D03*
X0365876Y0034973D03*
X0365876Y0034923D03*
X0365826Y0034873D03*
X0365776Y0034823D03*
X0365776Y0034773D03*
X0365726Y0034723D03*
X0365676Y0034623D03*
X0365626Y0034523D03*
X0365576Y0034473D03*
X0366376Y0035723D03*
X0367926Y0033623D03*
X0367926Y0032773D03*
X0369376Y0033223D03*
X0369326Y0033373D03*
X0369276Y0033523D03*
X0369426Y0033073D03*
X0369176Y0034373D03*
X0369176Y0034423D03*
X0363476Y0033473D03*
X0363726Y0031423D03*
X0363676Y0031373D03*
X0363626Y0031273D03*
X0363426Y0030973D03*
X0362726Y0031323D03*
X0362676Y0031273D03*
X0362626Y0031223D03*
X0362576Y0031123D03*
X0362526Y0031073D03*
X0362526Y0031023D03*
X0362476Y0030973D03*
X0362426Y0030923D03*
X0362426Y0030873D03*
X0362376Y0030823D03*
X0362326Y0030773D03*
X0362276Y0030723D03*
X0362226Y0030623D03*
X0362176Y0030573D03*
X0362126Y0030523D03*
X0361926Y0030273D03*
X0361876Y0030223D03*
X0365376Y0029973D03*
X0365526Y0029273D03*
X0365576Y0028973D03*
X0365726Y0028073D03*
X0370026Y0029023D03*
X0369926Y0030073D03*
X0369926Y0030323D03*
X0370476Y0030423D03*
X0370126Y0031373D03*
X0370126Y0031423D03*
X0351526Y0032173D03*
X0351476Y0032273D03*
X0351126Y0034673D03*
X0345326Y0031973D03*
X0345276Y0032023D03*
X0341626Y0031073D03*
X0346926Y0029323D03*
X0348776Y0029373D03*
X0348626Y0028173D03*
X0346826Y0043423D03*
X0346876Y0049423D03*
D13*
X0346026Y0043423D03*
X0346026Y0043373D03*
X0346026Y0042873D03*
X0347476Y0040173D03*
X0347476Y0040123D03*
X0347426Y0039173D03*
X0347426Y0039123D03*
X0347426Y0039073D03*
X0347426Y0039023D03*
X0347426Y0038973D03*
X0347426Y0038923D03*
X0348626Y0034523D03*
X0350726Y0033623D03*
X0346026Y0031073D03*
X0346026Y0031023D03*
X0345976Y0030973D03*
X0345976Y0030923D03*
X0348626Y0028123D03*
X0368526Y0030223D03*
X0368576Y0030423D03*
X0368576Y0030573D03*
X0368676Y0030723D03*
X0368726Y0030173D03*
X0369426Y0030873D03*
X0369476Y0030823D03*
X0369226Y0031073D03*
X0369226Y0031123D03*
X0369176Y0031273D03*
X0369776Y0031673D03*
X0369726Y0031773D03*
X0369726Y0031873D03*
X0369976Y0031973D03*
X0370226Y0031973D03*
X0370276Y0031873D03*
X0370376Y0032073D03*
X0370376Y0031573D03*
X0370326Y0031523D03*
X0369926Y0031523D03*
X0367976Y0047173D03*
X0367976Y0047223D03*
X0367976Y0047273D03*
X0367976Y0047323D03*
X0367976Y0047373D03*
X0367976Y0047423D03*
X0367976Y0047473D03*
X0367976Y0047523D03*
X0367976Y0047573D03*
X0367976Y0047623D03*
X0367976Y0047673D03*
X0367976Y0047723D03*
X0367976Y0047773D03*
X0367976Y0047823D03*
X0367976Y0047873D03*
X0367976Y0047923D03*
X0367976Y0047973D03*
X0367976Y0048023D03*
X0367976Y0048073D03*
X0367976Y0048123D03*
X0367976Y0048173D03*
X0367976Y0048223D03*
X0367976Y0048273D03*
X0367976Y0048323D03*
X0367976Y0048373D03*
X0367976Y0048423D03*
D14*
X0367776Y0036923D03*
X0368376Y0036073D03*
X0368376Y0036023D03*
X0368276Y0033373D03*
X0367776Y0032973D03*
X0367776Y0032923D03*
X0367826Y0032873D03*
X0367826Y0032823D03*
X0365676Y0030773D03*
X0370076Y0030623D03*
X0357326Y0028123D03*
X0346676Y0031223D03*
D15*
X0347776Y0031823D03*
X0348076Y0032073D03*
X0348126Y0032123D03*
X0348176Y0032173D03*
X0348226Y0032223D03*
X0348376Y0032323D03*
X0348426Y0032373D03*
X0348476Y0032423D03*
X0348526Y0032473D03*
X0348776Y0032673D03*
X0348826Y0032723D03*
X0348876Y0032773D03*
X0349126Y0032973D03*
X0351276Y0032773D03*
X0348776Y0029323D03*
X0348626Y0028223D03*
X0346926Y0028373D03*
X0346926Y0028423D03*
X0346926Y0028473D03*
X0346926Y0028523D03*
X0346926Y0028573D03*
X0346926Y0028623D03*
X0346926Y0028673D03*
X0346926Y0028723D03*
X0346926Y0028773D03*
X0346926Y0028823D03*
X0346876Y0029773D03*
X0341976Y0031473D03*
X0341926Y0031423D03*
X0341876Y0031373D03*
X0341826Y0031323D03*
X0341776Y0031273D03*
X0341726Y0031223D03*
X0342026Y0031523D03*
X0342076Y0031573D03*
X0342126Y0031623D03*
X0342176Y0031673D03*
X0342226Y0031723D03*
X0342276Y0031773D03*
X0342326Y0031823D03*
X0342376Y0031873D03*
X0342426Y0031923D03*
X0342476Y0031973D03*
X0342526Y0032023D03*
X0342576Y0032073D03*
X0342626Y0032123D03*
X0342676Y0032173D03*
X0342726Y0032223D03*
X0342776Y0032273D03*
X0342826Y0032323D03*
X0342876Y0032373D03*
X0342926Y0032423D03*
X0342976Y0032473D03*
X0343076Y0032573D03*
X0343276Y0032773D03*
X0344226Y0032923D03*
X0344376Y0032823D03*
X0344426Y0032773D03*
X0344476Y0032723D03*
X0344526Y0032673D03*
X0345076Y0032223D03*
X0345126Y0032173D03*
X0345226Y0032123D03*
X0341326Y0030823D03*
X0346726Y0035673D03*
X0346726Y0035723D03*
X0346726Y0035773D03*
X0346726Y0035823D03*
X0346726Y0035873D03*
X0346726Y0035923D03*
X0346726Y0035973D03*
X0346726Y0036023D03*
X0346726Y0036073D03*
X0346726Y0036123D03*
X0346726Y0036173D03*
X0346726Y0036223D03*
X0346726Y0036273D03*
X0346726Y0036323D03*
X0346726Y0036373D03*
X0346726Y0036423D03*
X0346726Y0036473D03*
X0346726Y0036523D03*
X0346726Y0036573D03*
X0346726Y0036623D03*
X0346726Y0036673D03*
X0346726Y0036723D03*
X0346726Y0036773D03*
X0346726Y0036823D03*
X0346726Y0036873D03*
X0346726Y0036923D03*
X0346726Y0036973D03*
X0346726Y0037023D03*
X0346726Y0037073D03*
X0346726Y0037123D03*
X0346726Y0037173D03*
X0346726Y0037223D03*
X0346726Y0037273D03*
X0346726Y0037323D03*
X0346726Y0037373D03*
X0346726Y0037423D03*
X0346726Y0037473D03*
X0346726Y0037523D03*
X0346726Y0037573D03*
X0346726Y0037623D03*
X0346726Y0037673D03*
X0346726Y0037723D03*
X0346726Y0037773D03*
X0346726Y0037823D03*
X0346726Y0037873D03*
X0346726Y0037923D03*
X0346726Y0037973D03*
X0346726Y0038023D03*
X0346726Y0038073D03*
X0346726Y0038123D03*
X0346726Y0038173D03*
X0346726Y0038223D03*
X0346726Y0038273D03*
X0346726Y0038323D03*
X0346726Y0038373D03*
X0346726Y0038423D03*
X0346726Y0038473D03*
X0346726Y0038523D03*
X0346726Y0038573D03*
X0346776Y0042773D03*
X0361476Y0038923D03*
X0361526Y0038873D03*
X0361576Y0038823D03*
X0361626Y0038773D03*
X0362776Y0037373D03*
X0363526Y0033373D03*
X0364426Y0032673D03*
X0364476Y0032723D03*
X0364576Y0032873D03*
X0364626Y0032923D03*
X0364676Y0033023D03*
X0364726Y0033073D03*
X0364776Y0033173D03*
X0364826Y0033223D03*
X0364876Y0033323D03*
X0364926Y0033373D03*
X0364926Y0033423D03*
X0364976Y0033473D03*
X0365026Y0033523D03*
X0365026Y0033573D03*
X0365076Y0033623D03*
X0365126Y0033673D03*
X0365126Y0033723D03*
X0365176Y0033773D03*
X0365526Y0034323D03*
X0367926Y0034323D03*
X0367926Y0034373D03*
X0367926Y0034423D03*
X0367926Y0034473D03*
X0367926Y0034523D03*
X0367926Y0034573D03*
X0367926Y0034623D03*
X0367926Y0034673D03*
X0367926Y0034723D03*
X0367926Y0034773D03*
X0367926Y0034823D03*
X0367926Y0034873D03*
X0367926Y0034923D03*
X0367926Y0034973D03*
X0367926Y0035023D03*
X0367926Y0035073D03*
X0367926Y0035123D03*
X0367926Y0035173D03*
X0367926Y0035223D03*
X0367926Y0035273D03*
X0367926Y0035323D03*
X0367926Y0035373D03*
X0367926Y0034273D03*
X0367926Y0034223D03*
X0367926Y0034173D03*
X0369126Y0034673D03*
X0369126Y0034723D03*
X0369126Y0034773D03*
X0367926Y0037223D03*
X0367926Y0037273D03*
X0367926Y0037323D03*
X0367926Y0037373D03*
X0367926Y0037423D03*
X0367926Y0037473D03*
X0367926Y0037523D03*
X0367926Y0037573D03*
X0367926Y0037623D03*
X0367926Y0037673D03*
X0367926Y0037723D03*
X0367926Y0037773D03*
X0367926Y0037823D03*
X0367926Y0037873D03*
X0367926Y0037923D03*
X0367926Y0037973D03*
X0367926Y0038023D03*
X0367926Y0038073D03*
X0367926Y0038123D03*
X0367926Y0038173D03*
X0367926Y0038223D03*
X0367926Y0038273D03*
X0367926Y0038323D03*
X0367926Y0038373D03*
X0367926Y0038423D03*
X0367926Y0038473D03*
X0367926Y0038523D03*
X0367926Y0038573D03*
X0367926Y0038623D03*
X0367926Y0038673D03*
X0367926Y0038723D03*
X0367926Y0038773D03*
X0367926Y0038823D03*
X0367926Y0038873D03*
X0367926Y0038923D03*
X0367926Y0038973D03*
X0367926Y0039023D03*
X0367926Y0039073D03*
X0367926Y0039123D03*
X0367926Y0039173D03*
X0367926Y0039223D03*
X0367926Y0039273D03*
X0367926Y0039323D03*
X0367926Y0039373D03*
X0367926Y0039423D03*
X0367926Y0039473D03*
X0367926Y0039523D03*
X0367926Y0039573D03*
X0367926Y0039623D03*
X0367926Y0040123D03*
X0367926Y0040173D03*
X0367976Y0044173D03*
X0346876Y0049473D03*
X0362826Y0031423D03*
X0363376Y0030873D03*
X0361826Y0030173D03*
X0361676Y0030023D03*
X0361626Y0029973D03*
X0361576Y0029923D03*
X0361526Y0029873D03*
X0361476Y0029823D03*
X0361426Y0029773D03*
X0361376Y0029723D03*
X0365426Y0030023D03*
X0365526Y0029173D03*
X0365526Y0029123D03*
X0365626Y0028823D03*
X0365626Y0028773D03*
X0365726Y0028123D03*
X0369926Y0029723D03*
X0369926Y0029773D03*
X0369926Y0029823D03*
X0369926Y0029873D03*
X0369926Y0029923D03*
X0369926Y0029973D03*
D16*
X0357351Y0028173D03*
D17*
X0361101Y0029523D03*
X0361251Y0029623D03*
X0361301Y0029673D03*
X0363201Y0030073D03*
X0363401Y0030773D03*
X0363401Y0030823D03*
X0365001Y0031173D03*
X0365051Y0031123D03*
X0365651Y0028723D03*
X0365751Y0028173D03*
X0370001Y0029073D03*
X0370001Y0029123D03*
X0369951Y0029473D03*
X0369951Y0029523D03*
X0369951Y0029573D03*
X0369951Y0029623D03*
X0369951Y0029673D03*
X0369851Y0030423D03*
X0365501Y0034273D03*
X0363551Y0033323D03*
X0369051Y0034923D03*
X0369051Y0034973D03*
X0369101Y0034873D03*
X0369101Y0034823D03*
X0362801Y0037423D03*
X0362951Y0038073D03*
X0361451Y0038973D03*
X0346751Y0042823D03*
X0368001Y0044223D03*
X0368001Y0046123D03*
X0348301Y0032273D03*
X0348001Y0032023D03*
X0347951Y0031973D03*
X0347901Y0031923D03*
X0347851Y0031873D03*
X0347701Y0031773D03*
X0345751Y0031673D03*
X0345501Y0031873D03*
X0345451Y0031923D03*
X0345051Y0032273D03*
X0345001Y0032323D03*
X0344801Y0032473D03*
X0344701Y0032523D03*
X0344651Y0032573D03*
X0344601Y0032623D03*
X0344301Y0032873D03*
X0343451Y0032923D03*
X0343401Y0032873D03*
X0343351Y0032823D03*
X0343251Y0032723D03*
X0343201Y0032673D03*
X0343151Y0032623D03*
X0343051Y0032523D03*
X0341301Y0030773D03*
X0341051Y0030073D03*
X0348701Y0028973D03*
X0348701Y0028923D03*
X0348751Y0029073D03*
X0348751Y0029123D03*
X0348801Y0029223D03*
X0348801Y0029273D03*
X0352901Y0030073D03*
X0352951Y0030023D03*
X0353001Y0029973D03*
X0353051Y0029923D03*
D18*
X0357326Y0028223D03*
X0350026Y0049323D03*
D19*
X0346951Y0049573D03*
X0346701Y0043373D03*
X0346701Y0042873D03*
X0363001Y0038223D03*
X0363051Y0038323D03*
X0363051Y0038373D03*
X0362801Y0037523D03*
X0362801Y0037473D03*
X0363601Y0033223D03*
X0363001Y0031573D03*
X0363351Y0030623D03*
X0363351Y0030573D03*
X0363351Y0030523D03*
X0364701Y0031473D03*
X0364751Y0031423D03*
X0364801Y0031373D03*
X0364851Y0031323D03*
X0367201Y0029973D03*
X0365701Y0028573D03*
X0365701Y0028523D03*
X0365751Y0028323D03*
X0365751Y0028273D03*
X0365751Y0028223D03*
X0360901Y0029373D03*
X0360851Y0029323D03*
X0353651Y0029423D03*
X0353501Y0029523D03*
X0353451Y0029573D03*
X0353401Y0029623D03*
X0352801Y0030123D03*
X0352001Y0031023D03*
X0350851Y0032123D03*
X0350801Y0032173D03*
X0350751Y0032223D03*
X0351001Y0034723D03*
X0345501Y0034923D03*
X0345451Y0034873D03*
X0345401Y0034823D03*
X0343901Y0033323D03*
X0343851Y0033273D03*
X0344901Y0032423D03*
X0344951Y0032373D03*
X0341251Y0030673D03*
X0341201Y0030623D03*
X0341201Y0030573D03*
X0348651Y0028673D03*
X0348651Y0028623D03*
X0348651Y0028573D03*
X0348651Y0028523D03*
X0348651Y0028473D03*
X0348651Y0028423D03*
X0348651Y0028373D03*
X0368651Y0033523D03*
X0369001Y0035123D03*
X0367901Y0039923D03*
X0367901Y0040073D03*
X0368001Y0044273D03*
D20*
X0367951Y0043823D03*
X0367951Y0043773D03*
X0367951Y0043723D03*
X0368001Y0045373D03*
X0368001Y0046273D03*
X0367901Y0040973D03*
X0367901Y0040923D03*
X0367901Y0040873D03*
X0367901Y0040823D03*
X0367901Y0040773D03*
X0367901Y0040723D03*
X0367901Y0040673D03*
X0367901Y0040623D03*
X0367901Y0040573D03*
X0367901Y0040523D03*
X0367901Y0040473D03*
X0367901Y0040423D03*
X0367001Y0036623D03*
X0366951Y0036573D03*
X0366901Y0036473D03*
X0366851Y0036423D03*
X0366801Y0036373D03*
X0366751Y0036273D03*
X0366701Y0036223D03*
X0366651Y0036173D03*
X0366651Y0036123D03*
X0366601Y0036073D03*
X0366551Y0036023D03*
X0366551Y0035973D03*
X0366501Y0035923D03*
X0366451Y0035873D03*
X0366451Y0035823D03*
X0366401Y0035773D03*
X0366351Y0035673D03*
X0366301Y0035623D03*
X0366251Y0035523D03*
X0366201Y0035473D03*
X0366151Y0035373D03*
X0366051Y0035223D03*
X0363501Y0034973D03*
X0363501Y0034923D03*
X0363501Y0034873D03*
X0363451Y0035273D03*
X0363451Y0035323D03*
X0363401Y0035573D03*
X0363401Y0035623D03*
X0363351Y0035823D03*
X0363301Y0035973D03*
X0363301Y0036023D03*
X0363251Y0036173D03*
X0363251Y0036223D03*
X0363201Y0036323D03*
X0363201Y0036373D03*
X0363151Y0036473D03*
X0363101Y0036573D03*
X0363101Y0036623D03*
X0363051Y0036723D03*
X0363001Y0036823D03*
X0363001Y0036873D03*
X0362951Y0036923D03*
X0362951Y0036973D03*
X0362901Y0037023D03*
X0362901Y0037073D03*
X0362851Y0037173D03*
X0363501Y0033873D03*
X0363501Y0033823D03*
X0363501Y0033523D03*
X0367251Y0032723D03*
X0367301Y0032773D03*
X0367151Y0031523D03*
X0367001Y0030823D03*
X0367051Y0030073D03*
X0365351Y0029923D03*
X0363601Y0031223D03*
X0363651Y0031323D03*
X0362601Y0031173D03*
X0363151Y0030023D03*
X0369951Y0030123D03*
X0370101Y0031723D03*
X0369751Y0032123D03*
X0369751Y0032173D03*
X0369701Y0032223D03*
X0369701Y0032273D03*
X0369651Y0032373D03*
X0369601Y0032523D03*
X0369551Y0032673D03*
X0369501Y0032823D03*
X0369501Y0032873D03*
X0369451Y0032973D03*
X0369451Y0033023D03*
X0369401Y0033123D03*
X0369401Y0033173D03*
X0369351Y0033273D03*
X0369351Y0033323D03*
X0369301Y0033423D03*
X0369301Y0033473D03*
X0351201Y0033623D03*
X0351151Y0034073D03*
X0351151Y0034123D03*
X0351151Y0034173D03*
X0351151Y0034223D03*
X0351151Y0034273D03*
X0351151Y0034323D03*
X0351151Y0034373D03*
X0351151Y0034423D03*
X0351151Y0034473D03*
X0351151Y0034523D03*
X0351151Y0034573D03*
X0351151Y0034623D03*
X0341601Y0031023D03*
X0346901Y0029673D03*
X0346901Y0029373D03*
X0346951Y0028273D03*
X0346851Y0043473D03*
X0346851Y0049323D03*
X0346851Y0049373D03*
D21*
X0346926Y0049523D03*
X0367926Y0039873D03*
X0367926Y0039823D03*
X0367926Y0039773D03*
X0367926Y0039723D03*
X0367926Y0039673D03*
X0367926Y0037173D03*
X0369026Y0035073D03*
X0369026Y0035023D03*
X0365526Y0034223D03*
X0363576Y0033273D03*
X0362926Y0031523D03*
X0362876Y0031473D03*
X0363376Y0030723D03*
X0363376Y0030673D03*
X0363226Y0030123D03*
X0364876Y0031273D03*
X0364926Y0031223D03*
X0365476Y0030073D03*
X0365676Y0028673D03*
X0365676Y0028623D03*
X0368426Y0029973D03*
X0369976Y0029423D03*
X0369976Y0029373D03*
X0369976Y0029323D03*
X0369976Y0029273D03*
X0369976Y0029223D03*
X0369976Y0029173D03*
X0370226Y0031323D03*
X0361176Y0029573D03*
X0361026Y0029473D03*
X0360976Y0029423D03*
X0353326Y0029673D03*
X0353276Y0029723D03*
X0353226Y0029773D03*
X0353176Y0029823D03*
X0353126Y0029873D03*
X0348776Y0029173D03*
X0348726Y0029023D03*
X0348676Y0028873D03*
X0348676Y0028823D03*
X0348676Y0028773D03*
X0348676Y0028723D03*
X0348626Y0028323D03*
X0348626Y0028273D03*
X0346876Y0029823D03*
X0346876Y0029873D03*
X0345826Y0031623D03*
X0345626Y0031723D03*
X0345576Y0031773D03*
X0345526Y0031823D03*
X0343976Y0033423D03*
X0343926Y0033373D03*
X0344026Y0033473D03*
X0344076Y0033523D03*
X0344126Y0033573D03*
X0344176Y0033623D03*
X0344226Y0033673D03*
X0344276Y0033723D03*
X0344326Y0033773D03*
X0344376Y0033823D03*
X0344426Y0033873D03*
X0344476Y0033923D03*
X0344526Y0033973D03*
X0344576Y0034023D03*
X0344626Y0034073D03*
X0344676Y0034123D03*
X0344726Y0034173D03*
X0344776Y0034223D03*
X0344826Y0034273D03*
X0344876Y0034323D03*
X0344926Y0034373D03*
X0344976Y0034423D03*
X0345026Y0034473D03*
X0345076Y0034523D03*
X0345126Y0034573D03*
X0345176Y0034623D03*
X0345226Y0034673D03*
X0345276Y0034723D03*
X0345326Y0034773D03*
X0346726Y0035623D03*
X0351226Y0032823D03*
X0341276Y0030723D03*
X0362976Y0038123D03*
X0362976Y0038173D03*
X0363026Y0038273D03*
D22*
X0357326Y0028273D03*
D23*
X0361751Y0030073D03*
X0361801Y0030123D03*
X0361951Y0030323D03*
X0362001Y0030373D03*
X0362051Y0030423D03*
X0362101Y0030473D03*
X0362251Y0030673D03*
X0362751Y0031373D03*
X0363401Y0030923D03*
X0363751Y0031473D03*
X0363801Y0031523D03*
X0363851Y0031573D03*
X0364501Y0032773D03*
X0364551Y0032823D03*
X0364651Y0032973D03*
X0364751Y0033123D03*
X0364851Y0033273D03*
X0365551Y0034373D03*
X0365551Y0034423D03*
X0365651Y0034573D03*
X0365701Y0034673D03*
X0367901Y0034123D03*
X0367901Y0034073D03*
X0367901Y0034023D03*
X0367901Y0033973D03*
X0367901Y0033923D03*
X0367901Y0033873D03*
X0367901Y0033823D03*
X0367901Y0033773D03*
X0367901Y0033723D03*
X0367901Y0033673D03*
X0367901Y0033573D03*
X0367901Y0033523D03*
X0369151Y0034323D03*
X0369151Y0034473D03*
X0369151Y0034523D03*
X0369151Y0034573D03*
X0369151Y0034623D03*
X0363501Y0033423D03*
X0367901Y0031573D03*
X0368501Y0030023D03*
X0367101Y0030023D03*
X0365551Y0029223D03*
X0365551Y0029073D03*
X0365551Y0029023D03*
X0365601Y0028923D03*
X0365601Y0028873D03*
X0369901Y0030023D03*
X0369901Y0030373D03*
X0370101Y0031473D03*
X0370101Y0031773D03*
X0370101Y0031823D03*
X0362801Y0037323D03*
X0362151Y0038223D03*
X0362101Y0038273D03*
X0361901Y0038523D03*
X0361851Y0038573D03*
X0361801Y0038623D03*
X0361751Y0038673D03*
X0361701Y0038723D03*
X0367951Y0040223D03*
X0367951Y0043873D03*
X0367951Y0043923D03*
X0367951Y0043973D03*
X0367951Y0044023D03*
X0367951Y0044073D03*
X0367951Y0044123D03*
X0368001Y0046173D03*
X0346751Y0042723D03*
X0346751Y0042673D03*
X0346751Y0042623D03*
X0346751Y0042573D03*
X0346751Y0042523D03*
X0346751Y0042473D03*
X0346751Y0042423D03*
X0346751Y0042373D03*
X0346751Y0042323D03*
X0346751Y0042273D03*
X0346751Y0042223D03*
X0346751Y0042173D03*
X0346751Y0042123D03*
X0346751Y0042073D03*
X0346751Y0042023D03*
X0346751Y0041973D03*
X0346751Y0041923D03*
X0346751Y0041873D03*
X0346751Y0041823D03*
X0346751Y0041773D03*
X0346751Y0041723D03*
X0346751Y0041673D03*
X0346751Y0041623D03*
X0346751Y0041573D03*
X0346751Y0041523D03*
X0346751Y0041473D03*
X0346751Y0041423D03*
X0346751Y0041373D03*
X0346751Y0041323D03*
X0346751Y0041273D03*
X0346751Y0041223D03*
X0346751Y0041173D03*
X0346751Y0041123D03*
X0346751Y0041073D03*
X0346751Y0041023D03*
X0346751Y0040973D03*
X0346751Y0040923D03*
X0346751Y0040873D03*
X0346751Y0040823D03*
X0346751Y0040773D03*
X0346751Y0040723D03*
X0346751Y0040673D03*
X0346751Y0040623D03*
X0346751Y0040573D03*
X0346751Y0040523D03*
X0346751Y0040473D03*
X0346751Y0040423D03*
X0346751Y0040373D03*
X0346751Y0040323D03*
X0346751Y0040273D03*
X0346751Y0040223D03*
X0346751Y0040173D03*
X0346751Y0040123D03*
X0346751Y0040073D03*
X0346751Y0040023D03*
X0346751Y0039973D03*
X0346751Y0039923D03*
X0346751Y0039873D03*
X0346751Y0039823D03*
X0346751Y0039773D03*
X0346751Y0039723D03*
X0346751Y0039673D03*
X0346751Y0039623D03*
X0346751Y0039573D03*
X0346751Y0039523D03*
X0346751Y0039473D03*
X0346751Y0039423D03*
X0346751Y0039373D03*
X0346751Y0039323D03*
X0346751Y0039273D03*
X0346751Y0039223D03*
X0346751Y0039173D03*
X0346751Y0039123D03*
X0346751Y0039073D03*
X0346751Y0039023D03*
X0346751Y0038973D03*
X0346751Y0038923D03*
X0346751Y0038873D03*
X0346751Y0038823D03*
X0346751Y0038773D03*
X0346751Y0038723D03*
X0346751Y0038673D03*
X0346751Y0038623D03*
X0349051Y0032923D03*
X0349001Y0032873D03*
X0348951Y0032823D03*
X0348701Y0032623D03*
X0348651Y0032573D03*
X0348601Y0032523D03*
X0351301Y0032723D03*
X0351351Y0032673D03*
X0351351Y0032623D03*
X0351351Y0032573D03*
X0351401Y0032523D03*
X0351401Y0032473D03*
X0351401Y0032423D03*
X0351451Y0032373D03*
X0351451Y0032323D03*
X0351501Y0032223D03*
X0351551Y0032123D03*
X0346901Y0029723D03*
X0346901Y0029273D03*
X0346901Y0029223D03*
X0346901Y0029173D03*
X0346901Y0029123D03*
X0346901Y0029073D03*
X0346901Y0029023D03*
X0346901Y0028973D03*
X0346901Y0028923D03*
X0346901Y0028873D03*
X0346951Y0028323D03*
X0341651Y0031123D03*
X0341651Y0031173D03*
X0341451Y0030973D03*
X0341401Y0030923D03*
X0341351Y0030873D03*
X0345251Y0032073D03*
D24*
X0357301Y0028323D03*
X0362601Y0039223D03*
X0367351Y0045823D03*
X0369501Y0045423D03*
D25*
X0349776Y0036623D03*
X0349776Y0036573D03*
X0349776Y0036523D03*
X0349526Y0035723D03*
X0357276Y0028373D03*
D26*
X0360526Y0029123D03*
X0360676Y0029223D03*
X0360776Y0029273D03*
X0363226Y0030173D03*
X0363276Y0030223D03*
X0363326Y0030373D03*
X0363326Y0030423D03*
X0363326Y0030473D03*
X0363026Y0031623D03*
X0364626Y0031573D03*
X0364676Y0031523D03*
X0365526Y0030123D03*
X0367876Y0031523D03*
X0370226Y0031273D03*
X0370226Y0031223D03*
X0365726Y0028473D03*
X0365726Y0028423D03*
X0365726Y0028373D03*
X0353876Y0029273D03*
X0353776Y0029323D03*
X0353726Y0029373D03*
X0353576Y0029473D03*
X0352026Y0030973D03*
X0351976Y0031073D03*
X0351926Y0031123D03*
X0350376Y0032573D03*
X0350326Y0032623D03*
X0349526Y0033423D03*
X0349476Y0033473D03*
X0349426Y0033523D03*
X0349276Y0033623D03*
X0349226Y0033673D03*
X0349176Y0033723D03*
X0349126Y0033773D03*
X0349076Y0033823D03*
X0349026Y0033873D03*
X0348976Y0033923D03*
X0348926Y0033973D03*
X0348876Y0034023D03*
X0348076Y0034523D03*
X0348026Y0034573D03*
X0346726Y0035573D03*
X0343826Y0033223D03*
X0341176Y0030523D03*
X0341026Y0030123D03*
X0362776Y0037573D03*
X0358076Y0041373D03*
X0346676Y0042923D03*
X0350526Y0048973D03*
X0365526Y0034173D03*
D27*
X0357251Y0028423D03*
X0349751Y0036873D03*
X0345701Y0052623D03*
D28*
X0363751Y0032173D03*
X0363751Y0032123D03*
X0367051Y0031223D03*
X0367801Y0029873D03*
X0355801Y0028473D03*
D29*
X0358801Y0028473D03*
X0367801Y0029823D03*
X0363751Y0032223D03*
X0363751Y0032273D03*
X0363751Y0032323D03*
X0363851Y0032573D03*
X0363851Y0032623D03*
X0367701Y0033123D03*
X0368451Y0035523D03*
X0368451Y0035573D03*
X0368451Y0035623D03*
X0368451Y0035673D03*
X0362901Y0038923D03*
X0348901Y0043073D03*
X0361351Y0047473D03*
D30*
X0368001Y0045923D03*
X0368401Y0035973D03*
X0368401Y0035923D03*
X0368401Y0035873D03*
X0367751Y0033023D03*
X0365701Y0033873D03*
X0363801Y0032473D03*
X0367401Y0031323D03*
X0355601Y0028523D03*
D31*
X0359051Y0028523D03*
X0367501Y0031373D03*
X0367551Y0031423D03*
X0370101Y0030573D03*
X0368351Y0036123D03*
X0368351Y0036173D03*
X0368051Y0036623D03*
X0362951Y0038873D03*
X0349601Y0033023D03*
X0346651Y0031173D03*
D32*
X0355376Y0028573D03*
X0364326Y0031623D03*
X0365676Y0033923D03*
X0368326Y0033473D03*
X0368326Y0033423D03*
X0369076Y0033673D03*
X0368326Y0036223D03*
X0368326Y0036273D03*
X0367776Y0036973D03*
X0367576Y0031473D03*
X0367826Y0029773D03*
X0370126Y0030523D03*
X0370426Y0045323D03*
D33*
X0350426Y0049023D03*
X0367776Y0037023D03*
X0368276Y0036423D03*
X0365626Y0033973D03*
X0370126Y0030473D03*
X0359226Y0028573D03*
X0351176Y0032073D03*
X0349626Y0033073D03*
X0343826Y0032973D03*
D34*
X0355201Y0028623D03*
X0364301Y0031673D03*
X0365601Y0030723D03*
X0369101Y0033723D03*
X0368301Y0036323D03*
X0368301Y0036373D03*
X0368251Y0036473D03*
X0368201Y0036523D03*
X0368151Y0036573D03*
X0363001Y0038823D03*
X0368001Y0045973D03*
D35*
X0362676Y0038023D03*
X0362676Y0037973D03*
X0365626Y0034023D03*
X0359426Y0028623D03*
X0354926Y0028723D03*
X0352476Y0030223D03*
X0352426Y0030273D03*
X0352376Y0030323D03*
X0352326Y0030373D03*
X0351326Y0031873D03*
X0351276Y0031973D03*
X0349626Y0033123D03*
X0348076Y0034823D03*
X0343826Y0033023D03*
X0346526Y0043023D03*
X0346526Y0043073D03*
X0346526Y0043123D03*
X0346526Y0043173D03*
X0346526Y0043223D03*
X0346526Y0043273D03*
D36*
X0369101Y0033773D03*
X0364301Y0031723D03*
X0355051Y0028673D03*
X0351201Y0032023D03*
D37*
X0351301Y0031923D03*
X0350501Y0032273D03*
X0350301Y0032823D03*
X0352251Y0030473D03*
X0352301Y0030423D03*
X0354801Y0028773D03*
X0359551Y0028673D03*
X0359701Y0028723D03*
X0365551Y0030673D03*
X0364301Y0031773D03*
X0368901Y0033573D03*
X0368901Y0033623D03*
X0369101Y0033823D03*
X0367751Y0037073D03*
X0363051Y0038773D03*
X0368001Y0044473D03*
X0368001Y0044523D03*
X0368001Y0046023D03*
D38*
X0368051Y0044823D03*
X0368001Y0044723D03*
X0368001Y0044673D03*
X0363101Y0038723D03*
X0362701Y0037873D03*
X0368801Y0035273D03*
X0369101Y0033923D03*
X0366951Y0033373D03*
X0365601Y0034073D03*
X0363601Y0032673D03*
X0365501Y0030623D03*
X0365551Y0030373D03*
X0365551Y0030323D03*
X0370251Y0030873D03*
X0370251Y0030923D03*
X0370301Y0030773D03*
X0359851Y0028773D03*
X0352201Y0030573D03*
X0352201Y0030623D03*
X0352151Y0030673D03*
X0351501Y0031673D03*
X0351451Y0031723D03*
X0351001Y0033023D03*
X0350951Y0033173D03*
X0350951Y0033223D03*
X0350901Y0033323D03*
X0350901Y0033373D03*
X0348251Y0034473D03*
X0348051Y0034623D03*
X0348001Y0034723D03*
X0348001Y0034773D03*
D39*
X0348026Y0034673D03*
X0349626Y0033173D03*
X0350476Y0032323D03*
X0350976Y0032973D03*
X0350926Y0033273D03*
X0351376Y0031823D03*
X0351426Y0031773D03*
X0352226Y0030523D03*
X0354676Y0028823D03*
X0343826Y0033073D03*
X0362676Y0037923D03*
X0368776Y0035373D03*
X0368776Y0035323D03*
X0368826Y0035223D03*
X0368826Y0035173D03*
X0369126Y0033873D03*
X0370276Y0030723D03*
X0370276Y0030673D03*
X0367826Y0029723D03*
X0367976Y0044373D03*
X0367976Y0044423D03*
X0367976Y0044573D03*
X0367976Y0044623D03*
D40*
X0368026Y0044773D03*
X0363076Y0038673D03*
X0362726Y0037823D03*
X0362726Y0037773D03*
X0367826Y0037123D03*
X0369126Y0033973D03*
X0363576Y0032773D03*
X0363576Y0032723D03*
X0365526Y0030423D03*
X0365576Y0030273D03*
X0370226Y0030973D03*
X0370226Y0031023D03*
X0370276Y0030823D03*
X0359926Y0028823D03*
X0354576Y0028873D03*
X0354476Y0028923D03*
X0354376Y0028973D03*
X0352126Y0030723D03*
X0351576Y0031573D03*
X0351526Y0031623D03*
X0350476Y0032373D03*
X0350276Y0032773D03*
X0350976Y0033073D03*
X0350976Y0033123D03*
X0350926Y0033423D03*
X0350926Y0033473D03*
X0349626Y0033223D03*
X0348376Y0034373D03*
X0348326Y0034423D03*
X0346926Y0034923D03*
D41*
X0346901Y0034873D03*
X0346901Y0034823D03*
X0346901Y0034773D03*
X0346901Y0034723D03*
X0346901Y0034673D03*
X0346901Y0034623D03*
X0346901Y0034573D03*
X0346901Y0034523D03*
X0346901Y0034473D03*
X0348601Y0034223D03*
X0348651Y0034173D03*
X0348701Y0034123D03*
X0349601Y0033273D03*
X0350301Y0032723D03*
X0350451Y0032423D03*
X0350951Y0033523D03*
X0351601Y0031523D03*
X0351651Y0031473D03*
X0352051Y0030873D03*
X0352101Y0030773D03*
X0354201Y0029073D03*
X0354301Y0029023D03*
X0346851Y0031123D03*
X0346851Y0031773D03*
X0346851Y0031823D03*
X0346851Y0031873D03*
X0346851Y0031923D03*
X0343801Y0033123D03*
X0341101Y0030373D03*
X0341051Y0030273D03*
X0341051Y0030223D03*
X0360051Y0028873D03*
X0360151Y0028923D03*
X0360251Y0028973D03*
X0365451Y0030523D03*
X0365451Y0030573D03*
X0365501Y0030473D03*
X0365551Y0030223D03*
X0363201Y0031773D03*
X0366201Y0033773D03*
X0366351Y0033673D03*
X0366451Y0033623D03*
X0366551Y0033573D03*
X0366801Y0033423D03*
X0369051Y0034123D03*
X0369101Y0034023D03*
X0369001Y0034273D03*
X0370201Y0031073D03*
X0362751Y0037723D03*
X0363101Y0038623D03*
X0367801Y0039973D03*
X0367801Y0040023D03*
X0368001Y0046073D03*
X0344401Y0053673D03*
D42*
X0346651Y0043323D03*
X0363051Y0038473D03*
X0363051Y0038423D03*
X0363601Y0033173D03*
X0363601Y0033023D03*
X0363551Y0032973D03*
X0363551Y0032923D03*
X0363551Y0032873D03*
X0363101Y0031673D03*
X0363301Y0030323D03*
X0363301Y0030273D03*
X0360601Y0029173D03*
X0360451Y0029073D03*
X0360351Y0029023D03*
X0353951Y0029223D03*
X0352701Y0030173D03*
X0351901Y0031173D03*
X0351851Y0031223D03*
X0351801Y0031273D03*
X0350401Y0032523D03*
X0350301Y0032673D03*
X0350001Y0032973D03*
X0349551Y0033373D03*
X0349351Y0033573D03*
X0348801Y0034073D03*
X0346851Y0034073D03*
X0346851Y0034123D03*
X0346851Y0034173D03*
X0346851Y0034223D03*
X0346851Y0034023D03*
X0346851Y0033973D03*
X0346851Y0033473D03*
X0346851Y0033423D03*
X0346851Y0033373D03*
X0346851Y0033323D03*
X0346851Y0033273D03*
X0346851Y0033223D03*
X0346851Y0033173D03*
X0346851Y0033123D03*
X0346851Y0033073D03*
X0346851Y0033023D03*
X0346851Y0032973D03*
X0346851Y0032923D03*
X0346851Y0032873D03*
X0346851Y0032823D03*
X0346851Y0032773D03*
X0346851Y0032723D03*
X0346851Y0032673D03*
X0346851Y0032623D03*
X0346851Y0032573D03*
X0346851Y0032523D03*
X0346851Y0032473D03*
X0346851Y0031023D03*
X0341151Y0030473D03*
X0345601Y0034973D03*
D43*
X0345726Y0035023D03*
X0346876Y0034423D03*
X0346876Y0034373D03*
X0346876Y0034323D03*
X0346876Y0034273D03*
X0346876Y0033923D03*
X0346876Y0033873D03*
X0346876Y0033823D03*
X0346876Y0033773D03*
X0346876Y0033723D03*
X0346876Y0033673D03*
X0346876Y0033623D03*
X0346876Y0033573D03*
X0346876Y0033523D03*
X0346826Y0032423D03*
X0346826Y0032373D03*
X0346826Y0032323D03*
X0346826Y0032273D03*
X0346826Y0032223D03*
X0346826Y0032173D03*
X0346826Y0032123D03*
X0346826Y0032073D03*
X0346826Y0032023D03*
X0346826Y0031973D03*
X0346876Y0031073D03*
X0350426Y0032473D03*
X0349576Y0033323D03*
X0348526Y0034273D03*
X0348476Y0034323D03*
X0350976Y0033573D03*
X0351676Y0031423D03*
X0351726Y0031373D03*
X0351776Y0031323D03*
X0352026Y0030923D03*
X0352076Y0030823D03*
X0354026Y0029173D03*
X0354126Y0029123D03*
X0363126Y0031723D03*
X0363576Y0032823D03*
X0363626Y0033073D03*
X0363626Y0033123D03*
X0365576Y0034123D03*
X0366276Y0033723D03*
X0366626Y0033523D03*
X0366726Y0033473D03*
X0369026Y0034173D03*
X0369026Y0034223D03*
X0369076Y0034073D03*
X0370226Y0031173D03*
X0370226Y0031123D03*
X0365526Y0030173D03*
X0362776Y0037623D03*
X0362776Y0037673D03*
X0363076Y0038523D03*
X0363076Y0038573D03*
X0367976Y0044323D03*
X0346676Y0042973D03*
X0346976Y0049623D03*
X0343826Y0033173D03*
X0341126Y0030423D03*
X0341076Y0030323D03*
X0341026Y0030173D03*
D44*
X0348826Y0029423D03*
X0349926Y0032023D03*
X0350026Y0032173D03*
X0350076Y0032223D03*
X0351176Y0033673D03*
X0351176Y0033723D03*
X0351176Y0033773D03*
X0351176Y0033823D03*
X0351176Y0033873D03*
X0351176Y0033923D03*
X0351176Y0033973D03*
X0351176Y0034023D03*
X0347376Y0036873D03*
X0363026Y0036773D03*
X0363076Y0036673D03*
X0363126Y0036523D03*
X0363176Y0036423D03*
X0363226Y0036273D03*
X0363276Y0036123D03*
X0363276Y0036073D03*
X0363326Y0035923D03*
X0363326Y0035873D03*
X0363376Y0035773D03*
X0363376Y0035723D03*
X0363376Y0035673D03*
X0363426Y0035523D03*
X0363426Y0035473D03*
X0363426Y0035423D03*
X0363426Y0035373D03*
X0363476Y0035223D03*
X0363476Y0035173D03*
X0363476Y0035123D03*
X0363476Y0035073D03*
X0363476Y0035023D03*
X0363526Y0034823D03*
X0363526Y0034773D03*
X0363526Y0034723D03*
X0363526Y0034673D03*
X0363526Y0034623D03*
X0363526Y0034573D03*
X0363526Y0034523D03*
X0363526Y0034473D03*
X0363526Y0034423D03*
X0363526Y0034373D03*
X0363526Y0034323D03*
X0363526Y0034273D03*
X0363526Y0034223D03*
X0363526Y0034173D03*
X0363526Y0034123D03*
X0363526Y0034073D03*
X0363526Y0034023D03*
X0363526Y0033973D03*
X0363526Y0033923D03*
X0363476Y0033773D03*
X0363476Y0033723D03*
X0363476Y0033673D03*
X0363476Y0033623D03*
X0363476Y0033573D03*
X0367226Y0032673D03*
X0367926Y0032723D03*
X0367876Y0031623D03*
X0367126Y0031573D03*
X0367026Y0030123D03*
X0365476Y0029373D03*
X0365476Y0029323D03*
X0363526Y0031073D03*
X0363526Y0031123D03*
X0363576Y0031173D03*
X0363476Y0031023D03*
X0369526Y0032723D03*
X0369526Y0032773D03*
X0369476Y0032923D03*
X0369576Y0032623D03*
X0369576Y0032573D03*
X0369626Y0032473D03*
X0369626Y0032423D03*
X0369676Y0032323D03*
X0369726Y0032073D03*
X0369926Y0030273D03*
X0369926Y0030223D03*
X0369926Y0030173D03*
X0366776Y0036323D03*
X0366926Y0036523D03*
X0367926Y0041023D03*
X0367926Y0041073D03*
X0367926Y0041123D03*
X0367926Y0041173D03*
X0367926Y0041223D03*
X0367926Y0041273D03*
X0367926Y0041323D03*
X0367926Y0041373D03*
X0367926Y0041423D03*
X0367926Y0041473D03*
X0367926Y0041523D03*
X0367926Y0041573D03*
X0367926Y0041623D03*
X0367926Y0041673D03*
X0367926Y0041723D03*
X0367926Y0041773D03*
X0367926Y0041823D03*
X0367926Y0041873D03*
X0367926Y0041923D03*
X0367926Y0041973D03*
X0367926Y0042023D03*
X0367926Y0042073D03*
X0367926Y0042123D03*
X0367926Y0042173D03*
X0367926Y0042223D03*
X0367926Y0042273D03*
X0367926Y0042323D03*
X0367926Y0042373D03*
X0367926Y0042423D03*
X0367926Y0042473D03*
X0367926Y0042523D03*
X0367926Y0042573D03*
X0367926Y0042623D03*
X0367926Y0042673D03*
X0367926Y0042723D03*
X0367926Y0042773D03*
X0367926Y0042823D03*
X0367926Y0042873D03*
X0367926Y0042923D03*
X0367926Y0042973D03*
X0367976Y0045323D03*
X0367976Y0046323D03*
X0346826Y0046323D03*
X0346826Y0046373D03*
X0346826Y0046423D03*
X0346826Y0046473D03*
X0346826Y0046523D03*
X0346826Y0046573D03*
X0346826Y0046623D03*
X0346826Y0046673D03*
X0346826Y0046723D03*
X0346826Y0046773D03*
X0346826Y0046823D03*
X0346826Y0046873D03*
X0346826Y0046923D03*
X0346826Y0046973D03*
X0346826Y0047023D03*
X0346826Y0047073D03*
X0346826Y0047123D03*
X0346826Y0047173D03*
X0346826Y0047223D03*
X0346826Y0047273D03*
X0346826Y0047323D03*
X0346826Y0047373D03*
X0346826Y0047423D03*
X0346826Y0047473D03*
X0346826Y0047523D03*
X0346826Y0047573D03*
X0346826Y0047623D03*
X0346826Y0047673D03*
X0346826Y0047723D03*
X0346826Y0047773D03*
X0346826Y0047823D03*
X0346826Y0047873D03*
X0346826Y0047923D03*
X0346826Y0047973D03*
X0346826Y0048023D03*
X0346826Y0048073D03*
X0346826Y0048123D03*
X0346826Y0048173D03*
X0346826Y0048223D03*
X0346826Y0048273D03*
X0346826Y0048323D03*
X0346826Y0048373D03*
X0346826Y0048423D03*
X0346826Y0048473D03*
X0346826Y0048523D03*
X0346826Y0048573D03*
X0346826Y0048623D03*
X0346826Y0048673D03*
X0346826Y0048723D03*
X0346826Y0048773D03*
X0346826Y0048823D03*
X0346826Y0048873D03*
X0346826Y0048923D03*
X0346826Y0048973D03*
X0346826Y0049023D03*
X0346826Y0049073D03*
X0346826Y0049123D03*
X0346826Y0049173D03*
X0346826Y0049223D03*
X0346826Y0049273D03*
X0346826Y0046273D03*
X0346826Y0046223D03*
X0346826Y0046173D03*
X0346826Y0046123D03*
X0346826Y0046073D03*
X0346826Y0046023D03*
X0346826Y0045973D03*
X0346826Y0045923D03*
X0346826Y0045873D03*
X0346826Y0045823D03*
X0346826Y0045773D03*
X0346826Y0045723D03*
X0346826Y0045673D03*
X0346826Y0045623D03*
X0346826Y0045573D03*
X0346826Y0045523D03*
X0346826Y0045473D03*
X0346826Y0045423D03*
X0346826Y0045373D03*
X0346826Y0045323D03*
X0346826Y0045273D03*
X0346826Y0045223D03*
X0346826Y0045173D03*
X0346826Y0045123D03*
X0346826Y0045073D03*
X0346826Y0045023D03*
X0346826Y0044973D03*
X0346826Y0044923D03*
X0346826Y0044873D03*
X0346826Y0044823D03*
X0346826Y0044773D03*
X0346826Y0044723D03*
X0346826Y0044673D03*
X0346826Y0044623D03*
X0346826Y0044573D03*
X0346826Y0044523D03*
X0346826Y0044473D03*
X0346826Y0044423D03*
X0346826Y0044373D03*
X0346826Y0044323D03*
X0346826Y0044273D03*
X0346826Y0044223D03*
X0346826Y0044173D03*
X0346826Y0044123D03*
X0346826Y0044073D03*
X0346826Y0044023D03*
X0346826Y0043973D03*
X0346826Y0043923D03*
X0346826Y0043873D03*
X0346826Y0043823D03*
X0346826Y0043773D03*
X0346826Y0043723D03*
X0346826Y0043673D03*
X0346826Y0043623D03*
X0346826Y0043573D03*
X0346826Y0043523D03*
D45*
X0346051Y0043323D03*
X0346051Y0042973D03*
X0346051Y0042923D03*
X0347451Y0040073D03*
X0347451Y0040023D03*
X0347451Y0039973D03*
X0347451Y0039923D03*
X0347451Y0039873D03*
X0347451Y0039823D03*
X0347451Y0039773D03*
X0347451Y0039723D03*
X0347451Y0039673D03*
X0347451Y0039623D03*
X0347451Y0039573D03*
X0347451Y0039523D03*
X0347451Y0039473D03*
X0347451Y0039423D03*
X0347451Y0039373D03*
X0347451Y0039323D03*
X0347451Y0039273D03*
X0347451Y0039223D03*
X0347401Y0038873D03*
X0347401Y0038823D03*
X0347401Y0038773D03*
X0347401Y0038723D03*
X0347401Y0038673D03*
X0347401Y0038623D03*
X0347401Y0038573D03*
X0347401Y0038523D03*
X0347401Y0038473D03*
X0347401Y0038423D03*
X0347401Y0038373D03*
X0347401Y0038323D03*
X0347401Y0038273D03*
X0347401Y0038223D03*
X0347401Y0038173D03*
X0347401Y0038123D03*
X0347401Y0038073D03*
X0347301Y0036373D03*
X0347301Y0036323D03*
X0347301Y0036273D03*
X0347301Y0036223D03*
X0347301Y0036173D03*
X0347301Y0036123D03*
X0347301Y0036073D03*
X0347301Y0036023D03*
X0346601Y0030873D03*
X0346601Y0030823D03*
X0346601Y0030773D03*
X0346601Y0030723D03*
X0346601Y0030673D03*
X0346601Y0030623D03*
X0346601Y0030573D03*
X0346601Y0030523D03*
X0346601Y0030473D03*
X0346601Y0030423D03*
X0346601Y0030373D03*
X0346601Y0030323D03*
X0346601Y0030273D03*
X0346601Y0030223D03*
X0346601Y0030173D03*
X0346601Y0030123D03*
X0346601Y0030073D03*
X0347101Y0030073D03*
X0347101Y0030123D03*
X0347101Y0030173D03*
X0347101Y0030223D03*
X0347101Y0030273D03*
X0347101Y0030323D03*
X0347101Y0030373D03*
X0346901Y0029523D03*
X0346901Y0029473D03*
X0345951Y0030473D03*
X0346001Y0030823D03*
X0346001Y0030873D03*
X0349051Y0030173D03*
X0349101Y0030323D03*
X0349151Y0030473D03*
X0349251Y0030723D03*
X0349401Y0031073D03*
X0349001Y0029973D03*
X0348951Y0029823D03*
X0367901Y0029673D03*
X0368551Y0030273D03*
X0368601Y0030323D03*
X0368601Y0030373D03*
X0368601Y0030473D03*
X0368601Y0030523D03*
X0368651Y0030773D03*
X0368651Y0030823D03*
X0368651Y0030873D03*
X0369251Y0031023D03*
X0369301Y0030973D03*
X0369151Y0031473D03*
X0369701Y0031923D03*
X0370001Y0031923D03*
X0370201Y0032273D03*
X0370351Y0032123D03*
X0369951Y0033123D03*
X0369901Y0033223D03*
X0369851Y0033323D03*
X0369801Y0033423D03*
X0369751Y0033523D03*
X0369701Y0033623D03*
X0368901Y0033223D03*
X0368951Y0033123D03*
X0368951Y0033073D03*
X0368951Y0033023D03*
X0368951Y0032973D03*
X0368951Y0032923D03*
X0369001Y0032723D03*
X0369001Y0032673D03*
X0369001Y0032623D03*
X0369051Y0032373D03*
X0369051Y0032323D03*
X0368551Y0032473D03*
X0368551Y0032523D03*
X0368501Y0032673D03*
X0367901Y0032523D03*
X0367901Y0032473D03*
X0367901Y0032423D03*
X0367901Y0032373D03*
X0367901Y0032323D03*
X0367901Y0032273D03*
X0367901Y0032223D03*
X0367901Y0032173D03*
X0367901Y0032123D03*
X0367901Y0032073D03*
X0368701Y0030123D03*
X0367951Y0046423D03*
X0367951Y0046473D03*
X0367951Y0046523D03*
X0367951Y0046573D03*
X0367951Y0046623D03*
X0367951Y0046673D03*
X0367951Y0046873D03*
X0367951Y0046923D03*
X0367951Y0046973D03*
X0367951Y0047023D03*
X0367951Y0047073D03*
X0367951Y0047123D03*
X0345651Y0053523D03*
D46*
X0367976Y0046823D03*
X0367976Y0046773D03*
X0367976Y0046723D03*
X0347426Y0038023D03*
X0347426Y0037973D03*
X0347326Y0036773D03*
X0347326Y0036723D03*
X0347326Y0036673D03*
X0347326Y0036623D03*
X0347326Y0036573D03*
X0347326Y0036523D03*
X0347326Y0036473D03*
X0347326Y0036423D03*
X0347326Y0035973D03*
X0347326Y0035923D03*
X0347326Y0035873D03*
X0347326Y0035823D03*
X0347326Y0035773D03*
X0349826Y0031873D03*
X0349676Y0031623D03*
X0349626Y0031523D03*
X0349576Y0031423D03*
X0349526Y0031373D03*
X0349526Y0031323D03*
X0349476Y0031223D03*
X0349426Y0031173D03*
X0349426Y0031123D03*
X0349376Y0031023D03*
X0349376Y0030973D03*
X0349326Y0030923D03*
X0349326Y0030873D03*
X0349276Y0030823D03*
X0349276Y0030773D03*
X0349226Y0030673D03*
X0349226Y0030623D03*
X0349176Y0030573D03*
X0349176Y0030523D03*
X0349126Y0030423D03*
X0349126Y0030373D03*
X0349076Y0030273D03*
X0349076Y0030223D03*
X0349026Y0030123D03*
X0349026Y0030073D03*
X0349026Y0030023D03*
X0348976Y0029923D03*
X0348976Y0029873D03*
X0348926Y0029773D03*
X0348926Y0029723D03*
X0348926Y0029673D03*
X0348926Y0029623D03*
X0348876Y0029573D03*
X0348876Y0029523D03*
X0347076Y0029923D03*
X0347076Y0029973D03*
X0347076Y0030023D03*
X0347126Y0030423D03*
X0347126Y0030473D03*
X0347126Y0030523D03*
X0347126Y0030573D03*
X0347126Y0030623D03*
X0347126Y0030673D03*
X0347126Y0030723D03*
X0347126Y0030773D03*
X0347126Y0030823D03*
X0346626Y0030923D03*
X0346076Y0031123D03*
X0345976Y0030773D03*
X0345976Y0030723D03*
X0345976Y0030673D03*
X0345976Y0030623D03*
X0345976Y0030573D03*
X0345976Y0030523D03*
X0346626Y0030023D03*
X0346626Y0029973D03*
X0346926Y0029573D03*
X0365376Y0029723D03*
X0365426Y0029523D03*
X0368676Y0030073D03*
X0368626Y0030923D03*
X0368626Y0030973D03*
X0368626Y0031023D03*
X0368626Y0031073D03*
X0368626Y0031123D03*
X0368626Y0031173D03*
X0368626Y0031223D03*
X0368626Y0031273D03*
X0368626Y0031323D03*
X0368626Y0031373D03*
X0368626Y0031423D03*
X0368626Y0031473D03*
X0368626Y0031523D03*
X0368626Y0031573D03*
X0368626Y0031623D03*
X0368626Y0031673D03*
X0368626Y0031723D03*
X0368626Y0031773D03*
X0368626Y0031823D03*
X0368626Y0031873D03*
X0368576Y0032023D03*
X0368576Y0032073D03*
X0368576Y0032123D03*
X0368576Y0032173D03*
X0368576Y0032223D03*
X0368576Y0032273D03*
X0368576Y0032323D03*
X0368576Y0032373D03*
X0368576Y0032423D03*
X0368526Y0032573D03*
X0368526Y0032623D03*
X0368476Y0032723D03*
X0368476Y0032773D03*
X0368976Y0032773D03*
X0368976Y0032823D03*
X0368976Y0032873D03*
X0368926Y0033173D03*
X0368876Y0033273D03*
X0369026Y0032573D03*
X0369026Y0032523D03*
X0369026Y0032473D03*
X0369026Y0032423D03*
X0369076Y0032273D03*
X0369076Y0032223D03*
X0369076Y0032173D03*
X0369076Y0032123D03*
X0369076Y0032073D03*
X0369126Y0032023D03*
X0369126Y0031973D03*
X0369126Y0031923D03*
X0369126Y0031873D03*
X0369126Y0031823D03*
X0369126Y0031773D03*
X0369176Y0031723D03*
X0369176Y0031673D03*
X0369176Y0031623D03*
X0369176Y0031573D03*
X0369176Y0031523D03*
X0369726Y0031973D03*
X0369726Y0032023D03*
X0369976Y0031873D03*
X0370276Y0032173D03*
X0370276Y0032223D03*
X0370226Y0032323D03*
X0370226Y0032373D03*
X0370226Y0032423D03*
X0370176Y0032573D03*
X0370126Y0032673D03*
X0370126Y0032723D03*
X0370076Y0032823D03*
X0370076Y0032873D03*
X0370026Y0032923D03*
X0370026Y0032973D03*
X0369976Y0033023D03*
X0369976Y0033073D03*
X0369926Y0033173D03*
X0369876Y0033273D03*
X0369826Y0033373D03*
X0369776Y0033473D03*
X0369726Y0033573D03*
X0368626Y0034373D03*
X0368626Y0034423D03*
X0368576Y0034473D03*
X0368576Y0034523D03*
X0368526Y0034573D03*
X0368526Y0034623D03*
X0368526Y0034673D03*
X0368526Y0034723D03*
X0368476Y0034773D03*
X0368476Y0034823D03*
X0368476Y0034873D03*
X0368476Y0034923D03*
X0367176Y0032423D03*
X0367176Y0032373D03*
X0367176Y0032323D03*
X0367176Y0032273D03*
X0367126Y0031923D03*
X0367126Y0031873D03*
X0367126Y0031823D03*
X0367126Y0031773D03*
X0367126Y0031723D03*
X0367876Y0031723D03*
X0367876Y0031773D03*
X0367876Y0031823D03*
X0367876Y0031873D03*
X0367876Y0031923D03*
X0367876Y0031973D03*
X0367876Y0032023D03*
X0367876Y0031673D03*
X0369476Y0030773D03*
D47*
X0367826Y0029923D03*
X0363776Y0032023D03*
X0350576Y0032923D03*
X0350326Y0049123D03*
D48*
X0364626Y0045223D03*
X0367976Y0049273D03*
X0367976Y0049473D03*
X0367976Y0049523D03*
X0367976Y0049573D03*
X0367976Y0049623D03*
X0367976Y0049673D03*
X0367976Y0049723D03*
X0367976Y0049773D03*
X0367976Y0049823D03*
X0367976Y0049873D03*
X0367976Y0049923D03*
X0367976Y0049973D03*
X0367976Y0050023D03*
X0367976Y0050073D03*
X0367976Y0050123D03*
X0367976Y0050173D03*
X0367976Y0050223D03*
X0367976Y0050273D03*
X0367976Y0050323D03*
X0367976Y0050373D03*
X0367976Y0050423D03*
X0367976Y0050473D03*
X0367976Y0050523D03*
X0367976Y0050573D03*
X0367976Y0050623D03*
X0346026Y0043473D03*
X0346026Y0042823D03*
X0348526Y0034573D03*
X0348626Y0034573D03*
X0345626Y0031973D03*
X0345576Y0032023D03*
X0368376Y0030073D03*
X0368426Y0030123D03*
X0368526Y0030123D03*
X0368526Y0030173D03*
X0368776Y0030223D03*
X0368776Y0030273D03*
X0368726Y0030423D03*
X0368726Y0030673D03*
X0369276Y0030823D03*
X0369426Y0031023D03*
X0369426Y0031073D03*
X0369376Y0031123D03*
X0369376Y0031173D03*
X0369376Y0031223D03*
X0369276Y0031223D03*
X0369176Y0031223D03*
X0369326Y0031373D03*
X0369326Y0031423D03*
X0369776Y0031423D03*
X0369776Y0031473D03*
X0369776Y0031523D03*
X0369776Y0031573D03*
X0369776Y0031623D03*
X0369876Y0031623D03*
X0369876Y0031573D03*
X0369976Y0032073D03*
X0370176Y0032123D03*
X0370226Y0032073D03*
X0370226Y0032023D03*
X0370326Y0032023D03*
X0370426Y0032023D03*
X0370376Y0031923D03*
X0370476Y0031923D03*
X0370476Y0031873D03*
X0370476Y0031823D03*
X0370476Y0031773D03*
X0370476Y0031673D03*
X0370376Y0032273D03*
D49*
X0370451Y0031973D03*
X0370251Y0031923D03*
X0370451Y0031723D03*
X0370451Y0031623D03*
X0370101Y0031573D03*
X0369801Y0031373D03*
X0369801Y0031323D03*
X0369751Y0031723D03*
X0369701Y0031823D03*
X0369351Y0031323D03*
X0369351Y0031273D03*
X0369201Y0031173D03*
X0369151Y0031323D03*
X0369151Y0031373D03*
X0369151Y0031423D03*
X0369251Y0030873D03*
X0368551Y0030623D03*
X0345951Y0030423D03*
X0367951Y0048473D03*
X0367951Y0048523D03*
X0367951Y0048573D03*
X0367951Y0048623D03*
X0367951Y0048673D03*
X0367951Y0048723D03*
X0367951Y0048773D03*
X0367951Y0048823D03*
X0367951Y0048873D03*
X0367951Y0048923D03*
X0367951Y0048973D03*
X0367951Y0049023D03*
X0367951Y0049073D03*
X0367951Y0049123D03*
X0367951Y0049173D03*
X0367951Y0049223D03*
X0367951Y0049323D03*
X0367951Y0049373D03*
X0367951Y0049423D03*
D50*
X0350376Y0049073D03*
X0367776Y0036823D03*
X0368476Y0035473D03*
X0368476Y0035423D03*
X0365726Y0033823D03*
X0367226Y0031273D03*
X0365776Y0030823D03*
X0350526Y0034773D03*
X0346676Y0031323D03*
D51*
X0350201Y0034973D03*
X0366051Y0030923D03*
X0366051Y0030873D03*
D52*
X0366051Y0030973D03*
X0350151Y0034823D03*
D53*
X0347676Y0034973D03*
X0366076Y0031023D03*
X0370026Y0045373D03*
X0350126Y0049273D03*
D54*
X0344776Y0053423D03*
X0366126Y0031073D03*
D55*
X0366626Y0031123D03*
X0363776Y0031923D03*
X0344526Y0053523D03*
D56*
X0362851Y0038973D03*
X0367801Y0036723D03*
X0363751Y0032073D03*
X0366851Y0031173D03*
X0350601Y0032873D03*
D57*
X0347176Y0031723D03*
X0347126Y0031673D03*
X0347076Y0031623D03*
X0346676Y0031273D03*
X0363776Y0032373D03*
X0363776Y0032423D03*
X0363826Y0032523D03*
X0367726Y0033073D03*
X0368426Y0035723D03*
X0368426Y0035773D03*
X0368426Y0035823D03*
X0367776Y0036873D03*
X0344526Y0053623D03*
D58*
X0367776Y0036773D03*
X0367676Y0033173D03*
X0346676Y0031373D03*
D59*
X0346651Y0031423D03*
X0363801Y0031973D03*
X0367651Y0033223D03*
X0367801Y0036673D03*
X0344551Y0053573D03*
D60*
X0367901Y0045873D03*
X0367651Y0033273D03*
X0363801Y0031873D03*
X0346651Y0031473D03*
D61*
X0346676Y0031523D03*
X0353726Y0047473D03*
X0350226Y0049173D03*
D62*
X0346676Y0031573D03*
D63*
X0363801Y0031823D03*
X0368401Y0044873D03*
D64*
X0344726Y0053473D03*
X0367776Y0033323D03*
D65*
X0349726Y0036273D03*
X0349726Y0036323D03*
X0349726Y0036373D03*
X0349576Y0035773D03*
X0349426Y0034873D03*
D66*
X0349401Y0034923D03*
X0349751Y0036423D03*
X0349751Y0036473D03*
X0345351Y0052923D03*
D67*
X0346601Y0051873D03*
X0346651Y0051823D03*
X0348201Y0050673D03*
X0348251Y0050623D03*
X0350351Y0038323D03*
X0349601Y0037323D03*
X0349601Y0037273D03*
X0348851Y0035023D03*
D68*
X0348351Y0035073D03*
X0360851Y0046773D03*
X0360851Y0046823D03*
D69*
X0360876Y0046873D03*
X0360876Y0046923D03*
X0350876Y0039223D03*
X0348426Y0035173D03*
X0348376Y0035123D03*
D70*
X0348476Y0035223D03*
X0360876Y0046973D03*
D71*
X0353701Y0047173D03*
X0350801Y0039123D03*
X0348501Y0035273D03*
D72*
X0348551Y0035323D03*
X0350751Y0039023D03*
X0367551Y0045623D03*
D73*
X0360951Y0047073D03*
X0348601Y0035373D03*
D74*
X0348651Y0035423D03*
X0350651Y0038873D03*
X0353701Y0047223D03*
D75*
X0367326Y0045673D03*
X0350626Y0038823D03*
X0350576Y0038773D03*
X0348726Y0035473D03*
D76*
X0348801Y0035523D03*
X0350501Y0038623D03*
D77*
X0349326Y0035673D03*
X0349326Y0035623D03*
X0349326Y0035573D03*
X0345626Y0052673D03*
D78*
X0345301Y0052973D03*
X0362651Y0039273D03*
X0349701Y0036223D03*
X0349701Y0036173D03*
X0349701Y0036123D03*
X0349651Y0035923D03*
X0349601Y0035823D03*
D79*
X0349626Y0035873D03*
X0349676Y0035973D03*
X0349676Y0036023D03*
X0349676Y0036073D03*
D80*
X0349776Y0036673D03*
X0349776Y0036723D03*
D81*
X0349801Y0036773D03*
X0349801Y0036823D03*
X0345501Y0052773D03*
D82*
X0346101Y0052273D03*
X0349551Y0036923D03*
D83*
X0349576Y0036973D03*
X0349576Y0037023D03*
X0350176Y0037973D03*
X0346226Y0052173D03*
X0346176Y0052223D03*
D84*
X0346326Y0052073D03*
X0348576Y0050373D03*
X0348626Y0050323D03*
X0348876Y0050023D03*
X0348876Y0049973D03*
X0367126Y0045223D03*
X0350276Y0038173D03*
X0349576Y0037123D03*
X0349576Y0037073D03*
D85*
X0349601Y0037173D03*
X0349601Y0037223D03*
X0350301Y0038223D03*
X0363101Y0039323D03*
X0349001Y0049673D03*
X0348951Y0049723D03*
X0348951Y0049773D03*
X0348951Y0049823D03*
X0348901Y0049873D03*
X0348901Y0049923D03*
X0346401Y0052023D03*
D86*
X0346726Y0051773D03*
X0346776Y0051723D03*
X0346926Y0051623D03*
X0347926Y0050873D03*
X0348026Y0050823D03*
X0348076Y0050773D03*
X0348126Y0050723D03*
X0353676Y0047273D03*
X0350376Y0038373D03*
X0349626Y0037373D03*
D87*
X0349651Y0037423D03*
X0349651Y0037473D03*
X0350401Y0038423D03*
X0367201Y0045723D03*
X0347851Y0050923D03*
X0347801Y0050973D03*
X0347751Y0051023D03*
X0347651Y0051073D03*
X0347601Y0051123D03*
X0347451Y0051223D03*
X0347401Y0051273D03*
X0347251Y0051373D03*
X0347201Y0051423D03*
X0347051Y0051523D03*
X0347001Y0051573D03*
X0346851Y0051673D03*
D88*
X0347126Y0051473D03*
X0347326Y0051323D03*
X0347526Y0051173D03*
X0361026Y0047173D03*
X0368426Y0045523D03*
X0350426Y0038523D03*
X0350426Y0038473D03*
X0349726Y0037623D03*
X0349676Y0037573D03*
X0349676Y0037523D03*
D89*
X0349751Y0037673D03*
X0349751Y0037723D03*
X0349801Y0037773D03*
X0349901Y0037923D03*
D90*
X0349876Y0037873D03*
X0349826Y0037823D03*
X0350476Y0038573D03*
X0368026Y0045023D03*
D91*
X0350251Y0038123D03*
X0350251Y0038073D03*
X0350201Y0038023D03*
X0348851Y0050073D03*
X0348801Y0050123D03*
X0348801Y0050173D03*
X0348751Y0050223D03*
X0348701Y0050273D03*
X0346301Y0052123D03*
D92*
X0346476Y0051973D03*
X0346526Y0051923D03*
X0348326Y0050573D03*
X0348376Y0050523D03*
X0348476Y0050473D03*
X0348526Y0050423D03*
X0361076Y0047223D03*
X0350326Y0038273D03*
D93*
X0350526Y0038673D03*
D94*
X0350551Y0038723D03*
X0360951Y0047123D03*
D95*
X0367926Y0045573D03*
X0363376Y0039373D03*
X0350676Y0038923D03*
D96*
X0350726Y0038973D03*
D97*
X0362501Y0039023D03*
D98*
X0350776Y0039073D03*
X0360876Y0047023D03*
D99*
X0349826Y0049473D03*
X0345026Y0053223D03*
X0362626Y0039073D03*
D100*
X0362651Y0039123D03*
X0368251Y0044923D03*
X0349751Y0049523D03*
D101*
X0368001Y0045073D03*
X0363451Y0039423D03*
X0350851Y0039173D03*
D102*
X0362626Y0039173D03*
X0345126Y0053123D03*
D103*
X0353726Y0047123D03*
X0360826Y0045823D03*
X0360826Y0045773D03*
X0360826Y0045723D03*
X0360826Y0045673D03*
X0350926Y0039273D03*
D104*
X0350951Y0039323D03*
X0360851Y0043073D03*
X0360851Y0043123D03*
X0360851Y0044873D03*
X0360851Y0044923D03*
X0360851Y0044973D03*
X0360851Y0045023D03*
X0360851Y0045073D03*
X0360851Y0045123D03*
X0360851Y0045173D03*
X0360851Y0045223D03*
X0360851Y0045273D03*
X0360851Y0045323D03*
X0360851Y0045373D03*
X0360851Y0045423D03*
X0360851Y0045473D03*
X0360851Y0045523D03*
X0360851Y0045573D03*
X0360851Y0045623D03*
X0360851Y0046473D03*
X0360801Y0046523D03*
X0360801Y0046573D03*
X0360801Y0046623D03*
X0360801Y0046673D03*
X0360801Y0046723D03*
X0363451Y0039473D03*
D105*
X0363451Y0039523D03*
X0360851Y0042673D03*
X0360851Y0042723D03*
X0360851Y0042773D03*
X0360851Y0042823D03*
X0360851Y0042873D03*
X0360851Y0042923D03*
X0360801Y0043773D03*
X0360801Y0043823D03*
X0360801Y0044723D03*
X0360801Y0045973D03*
X0351001Y0039373D03*
D106*
X0351026Y0039423D03*
X0360876Y0042573D03*
X0360776Y0043873D03*
X0360776Y0043923D03*
X0360776Y0044673D03*
X0360776Y0046023D03*
X0360876Y0046323D03*
X0353726Y0047073D03*
D107*
X0353776Y0047023D03*
X0360826Y0046273D03*
X0360826Y0046223D03*
X0360826Y0046173D03*
X0360726Y0044573D03*
X0360726Y0044523D03*
X0360726Y0044173D03*
X0360726Y0044123D03*
X0360726Y0044073D03*
X0363426Y0039573D03*
X0351076Y0039473D03*
D108*
X0351126Y0039523D03*
X0353776Y0046973D03*
D109*
X0353851Y0043473D03*
X0353851Y0043423D03*
X0353851Y0043373D03*
X0353851Y0043323D03*
X0353851Y0043273D03*
X0353851Y0043223D03*
X0353851Y0043173D03*
X0351151Y0039573D03*
X0363401Y0039623D03*
D110*
X0353801Y0043073D03*
X0353851Y0043873D03*
X0353851Y0043923D03*
X0353851Y0043973D03*
X0353851Y0044823D03*
X0353851Y0044873D03*
X0353851Y0044923D03*
X0353851Y0044973D03*
X0353851Y0045023D03*
X0353851Y0045073D03*
X0353851Y0045123D03*
X0353851Y0045173D03*
X0353851Y0045223D03*
X0353851Y0045273D03*
X0353851Y0045323D03*
X0353851Y0045373D03*
X0353851Y0045423D03*
X0353851Y0045473D03*
X0353851Y0045523D03*
X0353851Y0046823D03*
X0353851Y0046873D03*
X0367901Y0045173D03*
X0351201Y0039623D03*
D111*
X0351251Y0039673D03*
X0353901Y0044073D03*
X0353901Y0044723D03*
X0353851Y0045873D03*
X0353851Y0045923D03*
X0353901Y0046723D03*
D112*
X0353876Y0046773D03*
X0353826Y0045823D03*
X0353826Y0045773D03*
X0353826Y0045723D03*
X0353826Y0045673D03*
X0353826Y0045623D03*
X0353826Y0045573D03*
X0353876Y0044773D03*
X0353876Y0044023D03*
X0363376Y0039673D03*
D113*
X0353951Y0044223D03*
X0353951Y0044273D03*
X0353951Y0044323D03*
X0353951Y0044373D03*
X0353951Y0044423D03*
X0353951Y0044473D03*
X0353951Y0044523D03*
X0353951Y0044573D03*
X0353901Y0045973D03*
X0353901Y0046623D03*
X0353901Y0046673D03*
X0351301Y0039723D03*
D114*
X0353926Y0044123D03*
X0353926Y0044173D03*
X0353926Y0044623D03*
X0353926Y0044673D03*
X0363326Y0039723D03*
D115*
X0351351Y0039773D03*
X0353951Y0046073D03*
X0353951Y0046123D03*
X0353951Y0046173D03*
X0353951Y0046223D03*
X0353901Y0046273D03*
X0353801Y0046373D03*
X0353801Y0046423D03*
X0353801Y0046473D03*
X0353851Y0046523D03*
D116*
X0353876Y0046573D03*
X0353826Y0046323D03*
X0353926Y0046023D03*
X0363276Y0039773D03*
D117*
X0351426Y0039823D03*
D118*
X0363251Y0039823D03*
D119*
X0363176Y0039873D03*
X0351476Y0039873D03*
D120*
X0351526Y0039923D03*
X0363126Y0039923D03*
D121*
X0351601Y0039973D03*
D122*
X0363076Y0039973D03*
D123*
X0363001Y0040023D03*
X0351701Y0040023D03*
D124*
X0351776Y0040073D03*
X0362926Y0040073D03*
D125*
X0362851Y0040123D03*
X0361701Y0042473D03*
X0351851Y0040123D03*
D126*
X0351951Y0040173D03*
D127*
X0362726Y0040173D03*
D128*
X0362626Y0040223D03*
X0352076Y0040223D03*
D129*
X0352226Y0040273D03*
X0362076Y0042323D03*
D130*
X0362101Y0042273D03*
X0362451Y0040273D03*
D131*
X0357376Y0040323D03*
X0357376Y0040373D03*
X0357376Y0040423D03*
X0357376Y0040473D03*
X0357376Y0040523D03*
X0357376Y0040573D03*
X0357376Y0040623D03*
X0357376Y0040673D03*
D132*
X0353526Y0040723D03*
D133*
X0362976Y0040723D03*
X0362976Y0041323D03*
D134*
X0353426Y0040773D03*
D135*
X0363026Y0040773D03*
X0363026Y0041273D03*
D136*
X0353351Y0040823D03*
D137*
X0363051Y0040823D03*
X0363051Y0040873D03*
X0363051Y0040923D03*
X0363051Y0040973D03*
X0363051Y0041023D03*
X0363051Y0041073D03*
X0363051Y0041123D03*
X0363051Y0041173D03*
X0363051Y0041223D03*
D138*
X0353251Y0040873D03*
D139*
X0353201Y0040923D03*
X0353201Y0040973D03*
D140*
X0353176Y0041023D03*
X0353176Y0041073D03*
X0353176Y0041123D03*
X0353176Y0041173D03*
X0353176Y0041223D03*
X0353176Y0041273D03*
X0353176Y0041323D03*
D141*
X0352551Y0041373D03*
X0352551Y0041623D03*
X0352501Y0042423D03*
X0352501Y0042473D03*
X0352501Y0042773D03*
X0352501Y0042823D03*
D142*
X0362826Y0041373D03*
D143*
X0352526Y0041423D03*
X0352526Y0041473D03*
X0352526Y0041523D03*
X0352526Y0041573D03*
X0352526Y0041673D03*
X0352526Y0041723D03*
X0352526Y0041773D03*
X0352526Y0042323D03*
X0352526Y0042373D03*
X0352526Y0042873D03*
X0352526Y0042923D03*
D144*
X0362276Y0041823D03*
X0362276Y0041773D03*
X0362276Y0041723D03*
X0362276Y0041673D03*
X0362276Y0041623D03*
X0362276Y0041573D03*
X0362276Y0041523D03*
X0362276Y0041473D03*
X0362276Y0041423D03*
D145*
X0352551Y0041823D03*
X0352551Y0041873D03*
X0352551Y0041923D03*
X0352551Y0041973D03*
X0352551Y0042023D03*
X0352551Y0042073D03*
X0352551Y0042123D03*
X0352551Y0042173D03*
X0352551Y0042223D03*
X0352551Y0042273D03*
X0352551Y0042973D03*
X0352551Y0043023D03*
D146*
X0362251Y0041973D03*
X0362251Y0041923D03*
X0362251Y0041873D03*
D147*
X0362226Y0042023D03*
X0362226Y0042073D03*
D148*
X0362201Y0042123D03*
D149*
X0362176Y0042173D03*
D150*
X0362151Y0042223D03*
D151*
X0362026Y0042373D03*
D152*
X0361926Y0042423D03*
D153*
X0352476Y0042523D03*
X0352476Y0042723D03*
D154*
X0360751Y0043973D03*
X0360751Y0044023D03*
X0360751Y0044623D03*
X0360801Y0046073D03*
X0360801Y0046123D03*
X0360901Y0042523D03*
D155*
X0352451Y0042573D03*
X0352451Y0042623D03*
X0352451Y0042673D03*
D156*
X0360826Y0043173D03*
X0360826Y0043223D03*
X0360826Y0043273D03*
X0360826Y0043323D03*
X0360826Y0043373D03*
X0360826Y0043423D03*
X0360826Y0043473D03*
X0360826Y0043523D03*
X0360826Y0043573D03*
X0360826Y0043623D03*
X0360826Y0043673D03*
X0360826Y0043723D03*
X0360876Y0043023D03*
X0360876Y0042973D03*
X0360876Y0042623D03*
X0360826Y0044773D03*
X0360826Y0044823D03*
X0360826Y0045873D03*
X0360826Y0045923D03*
X0360876Y0046373D03*
X0360876Y0046423D03*
D157*
X0353826Y0046923D03*
X0353826Y0043823D03*
X0353826Y0043773D03*
X0353826Y0043723D03*
X0353826Y0043673D03*
X0353826Y0043623D03*
X0353826Y0043573D03*
X0353826Y0043523D03*
X0353826Y0043123D03*
D158*
X0360701Y0044223D03*
X0360701Y0044273D03*
X0360701Y0044323D03*
X0360701Y0044373D03*
X0360701Y0044423D03*
X0360701Y0044473D03*
X0368001Y0045123D03*
D159*
X0368101Y0044973D03*
X0345801Y0052523D03*
X0345751Y0052573D03*
D160*
X0369026Y0045473D03*
D161*
X0367226Y0045773D03*
D162*
X0361126Y0047273D03*
X0345926Y0052423D03*
D163*
X0353701Y0047323D03*
D164*
X0361176Y0047323D03*
X0345576Y0052723D03*
D165*
X0345451Y0052823D03*
X0345401Y0052873D03*
X0353701Y0047373D03*
D166*
X0361226Y0047373D03*
X0345226Y0053023D03*
D167*
X0353701Y0047423D03*
D168*
X0349976Y0049373D03*
X0344876Y0053323D03*
X0361276Y0047423D03*
D169*
X0350176Y0049223D03*
D170*
X0349901Y0049423D03*
X0344951Y0053273D03*
D171*
X0345176Y0053073D03*
X0349676Y0049573D03*
D172*
X0349601Y0049623D03*
D173*
X0346026Y0052323D03*
X0345976Y0052373D03*
D174*
X0345851Y0052473D03*
D175*
X0345076Y0053173D03*
D176*
X0344826Y0053373D03*
D177*
X0074288Y0083735D02*
X0073927Y0083375D01*
X0072484Y0083375D01*
X0072124Y0083735D01*
X0072124Y0084457D01*
X0072484Y0084817D01*
X0073206Y0085550D02*
X0073206Y0086992D01*
X0074288Y0086632D02*
X0073206Y0085550D01*
X0073927Y0084817D02*
X0074288Y0084457D01*
X0074288Y0083735D01*
X0074288Y0086632D02*
X0072124Y0086632D01*
X0071402Y0087725D02*
X0072124Y0088446D01*
X0072124Y0088085D01*
X0072484Y0088085D01*
X0072484Y0088446D01*
X0072124Y0088446D01*
X0072484Y0089175D02*
X0072124Y0089536D01*
X0072124Y0090257D01*
X0072484Y0090618D01*
X0073206Y0090618D01*
X0073566Y0090257D01*
X0073566Y0089896D01*
X0073206Y0089175D01*
X0074288Y0089175D01*
X0074288Y0090618D01*
X0072484Y0091711D02*
X0072124Y0091711D01*
X0072124Y0092071D01*
X0072484Y0092071D01*
X0072484Y0091711D01*
X0072124Y0092071D02*
X0071402Y0091350D01*
X0072124Y0092800D02*
X0072124Y0094243D01*
X0072124Y0093521D02*
X0074288Y0093521D01*
X0073566Y0092800D01*
X0073206Y0094975D02*
X0073206Y0096057D01*
X0072845Y0096418D01*
X0072484Y0096418D01*
X0072124Y0096057D01*
X0072124Y0095336D01*
X0072484Y0094975D01*
X0073206Y0094975D01*
X0073927Y0095696D01*
X0074288Y0096418D01*
X0072484Y0097511D02*
X0072124Y0097511D01*
X0072124Y0097871D01*
X0072484Y0097871D01*
X0072484Y0097511D01*
X0072124Y0097871D02*
X0071402Y0097150D01*
X0072124Y0098600D02*
X0072124Y0100043D01*
X0072124Y0099322D02*
X0074288Y0099322D01*
X0073566Y0098600D01*
X0074288Y0100775D02*
X0074288Y0102218D01*
X0073927Y0102218D01*
X0072484Y0100775D01*
X0072124Y0100775D01*
D178*
X0063244Y0028559D02*
X0064494Y0027309D01*
X0071994Y0027309D01*
X0073244Y0028559D01*
X0074494Y0027309D01*
X0081994Y0027309D01*
X0083244Y0028559D01*
X0084494Y0027309D01*
X0091994Y0027309D01*
X0093244Y0028559D01*
X0094494Y0027309D01*
X0101994Y0027309D01*
X0103244Y0028559D01*
X0104494Y0027309D01*
X0111994Y0027309D01*
X0113244Y0028559D01*
X0113244Y0038559D01*
X0111994Y0039809D01*
X0104494Y0039809D01*
X0103244Y0038559D01*
X0101994Y0039809D01*
X0094494Y0039809D01*
X0093244Y0038559D01*
X0091994Y0039809D01*
X0084494Y0039809D01*
X0083244Y0038559D01*
X0081994Y0039809D01*
X0074494Y0039809D01*
X0073244Y0038559D01*
X0071994Y0039809D01*
X0064494Y0039809D01*
X0063244Y0038559D01*
X0063244Y0028559D01*
X0063843Y0049244D02*
X0077843Y0049244D01*
X0077843Y0057244D01*
X0063843Y0057244D01*
X0063843Y0049244D01*
X0078654Y0048213D02*
X0078654Y0062213D01*
X0086654Y0062213D01*
X0086654Y0048213D01*
X0078654Y0048213D01*
X0088496Y0048213D02*
X0096496Y0048213D01*
X0096496Y0062213D01*
X0088496Y0062213D01*
X0088496Y0048213D01*
X0098339Y0048213D02*
X0106339Y0048213D01*
X0106339Y0062213D01*
X0098339Y0062213D01*
X0098339Y0048213D01*
X0077843Y0057118D02*
X0063843Y0057118D01*
X0063843Y0065118D01*
X0077843Y0065118D01*
X0077843Y0057118D01*
X0090032Y0063382D02*
X0090034Y0063453D01*
X0090040Y0063524D01*
X0090050Y0063595D01*
X0090064Y0063665D01*
X0090081Y0063734D01*
X0090103Y0063802D01*
X0090128Y0063869D01*
X0090157Y0063934D01*
X0090189Y0063998D01*
X0090225Y0064059D01*
X0090265Y0064119D01*
X0090307Y0064176D01*
X0090353Y0064231D01*
X0090401Y0064283D01*
X0090453Y0064332D01*
X0090507Y0064379D01*
X0090564Y0064422D01*
X0090623Y0064462D01*
X0090684Y0064499D01*
X0090747Y0064532D01*
X0090812Y0064562D01*
X0090878Y0064588D01*
X0090946Y0064611D01*
X0091015Y0064629D01*
X0091084Y0064644D01*
X0091155Y0064655D01*
X0091226Y0064662D01*
X0091297Y0064665D01*
X0091368Y0064664D01*
X0091440Y0064659D01*
X0091510Y0064650D01*
X0091581Y0064637D01*
X0091650Y0064621D01*
X0091718Y0064600D01*
X0091785Y0064576D01*
X0091851Y0064548D01*
X0091915Y0064516D01*
X0091977Y0064481D01*
X0092037Y0064443D01*
X0092095Y0064401D01*
X0092150Y0064356D01*
X0092203Y0064308D01*
X0092253Y0064257D01*
X0092300Y0064204D01*
X0092345Y0064148D01*
X0092385Y0064089D01*
X0092423Y0064029D01*
X0092457Y0063966D01*
X0092488Y0063902D01*
X0092515Y0063836D01*
X0092538Y0063768D01*
X0092558Y0063700D01*
X0092574Y0063630D01*
X0092586Y0063560D01*
X0092594Y0063489D01*
X0092598Y0063418D01*
X0092598Y0063346D01*
X0092594Y0063275D01*
X0092586Y0063204D01*
X0092574Y0063134D01*
X0092558Y0063064D01*
X0092538Y0062996D01*
X0092515Y0062928D01*
X0092488Y0062862D01*
X0092457Y0062798D01*
X0092423Y0062735D01*
X0092385Y0062675D01*
X0092345Y0062616D01*
X0092300Y0062560D01*
X0092253Y0062507D01*
X0092203Y0062456D01*
X0092150Y0062408D01*
X0092095Y0062363D01*
X0092037Y0062321D01*
X0091977Y0062283D01*
X0091915Y0062248D01*
X0091851Y0062216D01*
X0091785Y0062188D01*
X0091718Y0062164D01*
X0091650Y0062143D01*
X0091581Y0062127D01*
X0091510Y0062114D01*
X0091440Y0062105D01*
X0091368Y0062100D01*
X0091297Y0062099D01*
X0091226Y0062102D01*
X0091155Y0062109D01*
X0091084Y0062120D01*
X0091015Y0062135D01*
X0090946Y0062153D01*
X0090878Y0062176D01*
X0090812Y0062202D01*
X0090747Y0062232D01*
X0090684Y0062265D01*
X0090623Y0062302D01*
X0090564Y0062342D01*
X0090507Y0062385D01*
X0090453Y0062432D01*
X0090401Y0062481D01*
X0090353Y0062533D01*
X0090307Y0062588D01*
X0090265Y0062645D01*
X0090225Y0062705D01*
X0090189Y0062766D01*
X0090157Y0062830D01*
X0090128Y0062895D01*
X0090103Y0062962D01*
X0090081Y0063030D01*
X0090064Y0063099D01*
X0090050Y0063169D01*
X0090040Y0063240D01*
X0090034Y0063311D01*
X0090032Y0063382D01*
X0091217Y0065744D02*
X0091217Y0091335D01*
X0108539Y0091335D01*
X0108539Y0065744D01*
X0091217Y0065744D01*
X0077843Y0064992D02*
X0063843Y0064992D01*
X0063843Y0072992D01*
X0077843Y0072992D01*
X0077843Y0064992D01*
X0077843Y0072866D02*
X0063843Y0072866D01*
X0063843Y0080866D01*
X0077843Y0080866D01*
X0077843Y0072866D01*
X0123929Y0067898D02*
X0123929Y0081898D01*
X0131929Y0081898D01*
X0131929Y0067898D01*
X0123929Y0067898D01*
X0132197Y0071441D02*
X0132197Y0085441D01*
X0140197Y0085441D01*
X0140197Y0071441D01*
X0132197Y0071441D01*
X0148988Y0077854D02*
X0148988Y0064854D01*
X0161988Y0064854D01*
X0161988Y0077854D01*
X0148988Y0077854D01*
X0148795Y0084740D02*
X0148795Y0092614D01*
X0146827Y0092614D01*
X0146827Y0100488D01*
X0148795Y0100488D01*
X0148795Y0108362D01*
X0148795Y0100488D02*
X0150764Y0100488D01*
X0150764Y0092614D01*
X0148795Y0092614D01*
X0145843Y0093598D02*
X0144858Y0092614D01*
X0143874Y0093598D01*
X0143874Y0094583D02*
X0142890Y0095567D01*
X0141906Y0094583D01*
X0140921Y0094583D02*
X0139937Y0094583D01*
X0138953Y0093598D01*
X0138953Y0092614D01*
X0139937Y0093598D01*
X0139937Y0094583D01*
X0139937Y0095567D01*
X0138953Y0096551D01*
X0137969Y0095567D01*
X0137969Y0093598D01*
X0132961Y0092551D02*
X0132961Y0100551D01*
X0118961Y0100551D01*
X0118961Y0092551D01*
X0132961Y0092551D01*
X0142890Y0092614D02*
X0142890Y0095567D01*
X0144858Y0095567D02*
X0144858Y0092614D01*
X0152732Y0092614D02*
X0144858Y0100488D01*
X0142890Y0100488D01*
X0182591Y0076386D02*
X0182591Y0062386D01*
X0190591Y0062386D01*
X0190591Y0076386D01*
X0182591Y0076386D01*
X0190465Y0076386D02*
X0190465Y0062386D01*
X0198465Y0062386D01*
X0198465Y0076386D01*
X0190465Y0076386D01*
X0213449Y0071417D02*
X0227449Y0071417D01*
X0227449Y0063417D01*
X0213449Y0063417D01*
X0213449Y0071417D01*
X0210409Y0064799D02*
X0210411Y0064865D01*
X0210417Y0064932D01*
X0210427Y0064997D01*
X0210440Y0065063D01*
X0210458Y0065127D01*
X0210479Y0065190D01*
X0210504Y0065251D01*
X0210533Y0065311D01*
X0210565Y0065370D01*
X0210600Y0065426D01*
X0210639Y0065480D01*
X0210681Y0065531D01*
X0210726Y0065581D01*
X0210774Y0065627D01*
X0210824Y0065670D01*
X0210877Y0065711D01*
X0210932Y0065748D01*
X0210989Y0065782D01*
X0211048Y0065812D01*
X0211109Y0065839D01*
X0211172Y0065862D01*
X0211235Y0065881D01*
X0211300Y0065897D01*
X0211365Y0065909D01*
X0211431Y0065917D01*
X0211498Y0065921D01*
X0211564Y0065921D01*
X0211631Y0065917D01*
X0211697Y0065909D01*
X0211762Y0065897D01*
X0211827Y0065881D01*
X0211890Y0065862D01*
X0211953Y0065839D01*
X0212014Y0065812D01*
X0212073Y0065782D01*
X0212130Y0065748D01*
X0212185Y0065711D01*
X0212238Y0065670D01*
X0212288Y0065627D01*
X0212336Y0065581D01*
X0212381Y0065531D01*
X0212423Y0065480D01*
X0212462Y0065426D01*
X0212497Y0065370D01*
X0212529Y0065311D01*
X0212558Y0065251D01*
X0212583Y0065190D01*
X0212604Y0065127D01*
X0212622Y0065063D01*
X0212635Y0064997D01*
X0212645Y0064932D01*
X0212651Y0064865D01*
X0212653Y0064799D01*
X0212651Y0064733D01*
X0212645Y0064666D01*
X0212635Y0064601D01*
X0212622Y0064535D01*
X0212604Y0064471D01*
X0212583Y0064408D01*
X0212558Y0064347D01*
X0212529Y0064287D01*
X0212497Y0064228D01*
X0212462Y0064172D01*
X0212423Y0064118D01*
X0212381Y0064067D01*
X0212336Y0064017D01*
X0212288Y0063971D01*
X0212238Y0063928D01*
X0212185Y0063887D01*
X0212130Y0063850D01*
X0212073Y0063816D01*
X0212014Y0063786D01*
X0211953Y0063759D01*
X0211890Y0063736D01*
X0211827Y0063717D01*
X0211762Y0063701D01*
X0211697Y0063689D01*
X0211631Y0063681D01*
X0211564Y0063677D01*
X0211498Y0063677D01*
X0211431Y0063681D01*
X0211365Y0063689D01*
X0211300Y0063701D01*
X0211235Y0063717D01*
X0211172Y0063736D01*
X0211109Y0063759D01*
X0211048Y0063786D01*
X0210989Y0063816D01*
X0210932Y0063850D01*
X0210877Y0063887D01*
X0210824Y0063928D01*
X0210774Y0063971D01*
X0210726Y0064017D01*
X0210681Y0064067D01*
X0210639Y0064118D01*
X0210600Y0064172D01*
X0210565Y0064228D01*
X0210533Y0064287D01*
X0210504Y0064347D01*
X0210479Y0064408D01*
X0210458Y0064471D01*
X0210440Y0064535D01*
X0210427Y0064601D01*
X0210417Y0064666D01*
X0210411Y0064733D01*
X0210409Y0064799D01*
X0212713Y0062535D02*
X0200902Y0062535D01*
X0200902Y0050724D01*
X0212713Y0050724D01*
X0212713Y0062535D01*
X0198465Y0058669D02*
X0190465Y0058669D01*
X0190465Y0044669D01*
X0198465Y0044669D01*
X0198465Y0058669D01*
X0190591Y0058669D02*
X0182591Y0058669D01*
X0182591Y0044669D01*
X0190591Y0044669D01*
X0190591Y0058669D01*
X0182717Y0058669D02*
X0174717Y0058669D01*
X0174717Y0044669D01*
X0182717Y0044669D01*
X0182717Y0058669D01*
X0174843Y0058669D02*
X0166843Y0058669D01*
X0166843Y0044669D01*
X0174843Y0044669D01*
X0174843Y0058669D01*
X0145709Y0058669D02*
X0137709Y0058669D01*
X0137709Y0044669D01*
X0145709Y0044669D01*
X0145709Y0058669D01*
X0137835Y0058669D02*
X0129835Y0058669D01*
X0129835Y0044669D01*
X0137835Y0044669D01*
X0137835Y0058669D01*
X0220211Y0053482D02*
X0220211Y0041982D01*
X0231711Y0041982D01*
X0231711Y0053482D01*
X0220211Y0053482D01*
X0241646Y0054512D02*
X0241646Y0068512D01*
X0249646Y0068512D01*
X0249646Y0054512D01*
X0241646Y0054512D01*
X0241646Y0054732D02*
X0241646Y0040732D01*
X0249646Y0040732D01*
X0249646Y0054732D01*
X0241646Y0054732D01*
X0249520Y0054732D02*
X0249520Y0040732D01*
X0257520Y0040732D01*
X0257520Y0054732D01*
X0249520Y0054732D01*
X0249520Y0054512D02*
X0257520Y0054512D01*
X0257520Y0068512D01*
X0249520Y0068512D01*
X0249520Y0054512D01*
X0257394Y0054512D02*
X0265394Y0054512D01*
X0265394Y0068512D01*
X0257394Y0068512D01*
X0257394Y0054512D01*
X0257394Y0054732D02*
X0257394Y0040732D01*
X0265394Y0040732D01*
X0265394Y0054732D01*
X0257394Y0054732D01*
X0265268Y0048827D02*
X0265268Y0034827D01*
X0273268Y0034827D01*
X0273268Y0048827D01*
X0265268Y0048827D01*
D179*
X0158677Y0049614D02*
X0158677Y0049984D01*
X0152299Y0049614D02*
X0152299Y0053724D01*
X0158677Y0053724D02*
X0158677Y0053354D01*
X0158677Y0057268D02*
X0152299Y0057268D01*
X0152299Y0046071D02*
X0158677Y0046071D01*
D180*
X0165417Y0067523D02*
X0168487Y0067523D01*
X0170021Y0067523D02*
X0173091Y0067523D01*
X0173091Y0072127D01*
X0168487Y0070592D02*
X0166952Y0072127D01*
X0166952Y0067523D01*
X0222024Y0038757D02*
X0225094Y0038757D01*
X0225094Y0036455D01*
X0223559Y0037222D01*
X0222792Y0037222D01*
X0222024Y0036455D01*
X0222024Y0034920D01*
X0222792Y0034153D01*
X0224326Y0034153D01*
X0225094Y0034920D01*
X0226628Y0034153D02*
X0229698Y0034153D01*
X0229698Y0038757D01*
M02*
