G75*
%MOIN*%
%OFA0B0*%
%FSLAX25Y25*%
%IPPOS*%
%LPD*%
%AMOC8*
5,1,8,0,0,1.08239X$1,22.5*
%
%ADD10C,0.00500*%
%ADD11C,0.00300*%
%ADD12C,0.00800*%
%ADD13C,0.00400*%
D10*
X0152819Y0044913D02*
X0152819Y0052913D01*
X0166819Y0052913D01*
X0166819Y0044913D01*
X0152819Y0044913D01*
X0150827Y0054906D02*
X0142827Y0054906D01*
X0142827Y0068906D01*
X0150827Y0068906D01*
X0150827Y0054906D01*
X0188953Y0035921D02*
X0188953Y0077921D01*
X0196453Y0085921D01*
X0288953Y0085921D01*
X0288953Y0035921D01*
X0188953Y0035921D01*
X0308244Y0040843D02*
X0308244Y0060528D01*
X0406669Y0060528D01*
X0406669Y0040843D01*
X0308244Y0040843D01*
X0184622Y0100488D02*
X0164937Y0100488D01*
X0164937Y0115252D01*
X0184622Y0115252D01*
X0184622Y0100488D01*
D11*
X0177061Y0073176D02*
X0177668Y0072569D01*
X0177668Y0071963D01*
X0177061Y0071356D01*
X0177668Y0070749D01*
X0177668Y0070143D01*
X0177061Y0069536D01*
X0175848Y0069536D01*
X0175241Y0070143D01*
X0174043Y0070143D02*
X0174043Y0073176D01*
X0175241Y0072569D02*
X0175848Y0073176D01*
X0177061Y0073176D01*
X0177061Y0071356D02*
X0176455Y0071356D01*
X0174043Y0070143D02*
X0173436Y0069536D01*
X0172223Y0069536D01*
X0171616Y0070143D01*
X0171616Y0073176D01*
X0141218Y0068239D02*
X0141218Y0067632D01*
X0140611Y0067025D01*
X0139398Y0067025D01*
X0138791Y0067632D01*
X0138791Y0068239D01*
X0139398Y0068845D01*
X0140611Y0068845D01*
X0141218Y0068239D01*
X0140611Y0067025D02*
X0141218Y0066418D01*
X0141218Y0065812D01*
X0140611Y0065205D01*
X0139398Y0065205D01*
X0138791Y0065812D01*
X0138791Y0066418D01*
X0139398Y0067025D01*
X0137592Y0065812D02*
X0136986Y0065205D01*
X0135772Y0065205D01*
X0135166Y0065812D01*
X0135166Y0068239D01*
X0135772Y0068845D01*
X0136986Y0068845D01*
X0137592Y0068239D01*
X0156819Y0043255D02*
X0158639Y0043255D01*
X0159246Y0042648D01*
X0159246Y0041435D01*
X0158639Y0040828D01*
X0156819Y0040828D01*
X0156819Y0039615D02*
X0156819Y0043255D01*
X0158033Y0040828D02*
X0159246Y0039615D01*
X0160444Y0039615D02*
X0160444Y0040221D01*
X0162871Y0042648D01*
X0162871Y0043255D01*
X0160444Y0043255D01*
X0185268Y0033585D02*
X0185268Y0030552D01*
X0185875Y0029945D01*
X0187088Y0029945D01*
X0187695Y0030552D01*
X0187695Y0033585D01*
X0188893Y0032979D02*
X0189500Y0033585D01*
X0190713Y0033585D01*
X0191320Y0032979D01*
X0191320Y0032372D01*
X0188893Y0029945D01*
X0191320Y0029945D01*
X0316662Y0034300D02*
X0319089Y0037940D01*
X0320287Y0037333D02*
X0320894Y0037940D01*
X0322107Y0037940D01*
X0322714Y0037333D01*
X0322714Y0036726D01*
X0320287Y0034300D01*
X0322714Y0034300D01*
X0319089Y0034300D02*
X0316662Y0037940D01*
D12*
X0170449Y0065843D02*
X0170449Y0076866D01*
X0159425Y0076866D02*
X0159425Y0065843D01*
D13*
X0159545Y0093208D02*
X0156476Y0097812D01*
X0159545Y0097812D02*
X0156476Y0093208D01*
X0161080Y0093975D02*
X0161847Y0093208D01*
X0163381Y0093208D01*
X0164149Y0093975D01*
X0164149Y0094743D01*
X0163381Y0095510D01*
X0162614Y0095510D01*
X0163381Y0095510D02*
X0164149Y0096277D01*
X0164149Y0097044D01*
X0163381Y0097812D01*
X0161847Y0097812D01*
X0161080Y0097044D01*
M02*
