G75*
%MOIN*%
%OFA0B0*%
%FSLAX25Y25*%
%IPPOS*%
%LPD*%
%AMOC8*
5,1,8,0,0,1.08239X$1,22.5*
%
%ADD10R,0.04000X0.10000*%
%ADD11R,0.10000X0.04000*%
%ADD12R,0.09370X0.06496*%
%ADD13C,0.00246*%
%ADD14R,0.04331X0.03937*%
%ADD15R,0.04724X0.04724*%
%ADD16R,0.07874X0.21654*%
%ADD17R,0.09843X0.21654*%
%ADD18R,0.03937X0.04331*%
%ADD19R,0.03150X0.07874*%
%ADD20R,0.08268X0.11811*%
%ADD21C,0.02362*%
%ADD22C,0.01575*%
%ADD23C,0.00984*%
%ADD24C,0.01181*%
%ADD25C,0.03937*%
%ADD26C,0.04724*%
%ADD27C,0.03150*%
%ADD28C,0.03937*%
D10*
X0198953Y0035921D03*
X0203953Y0035921D03*
X0208953Y0035921D03*
X0213953Y0035921D03*
X0218953Y0035921D03*
X0223953Y0035921D03*
X0228953Y0035921D03*
X0233953Y0035921D03*
X0248953Y0035921D03*
X0253953Y0035921D03*
X0258953Y0035921D03*
X0263953Y0035921D03*
X0268953Y0035921D03*
X0273953Y0035921D03*
X0273953Y0085921D03*
X0268953Y0085921D03*
X0263953Y0085921D03*
X0258953Y0085921D03*
X0253953Y0085921D03*
X0248953Y0085921D03*
X0233953Y0085921D03*
X0228953Y0085921D03*
X0223953Y0085921D03*
X0218953Y0085921D03*
X0213953Y0085921D03*
X0208953Y0085921D03*
X0203953Y0085921D03*
X0198953Y0085921D03*
D11*
X0188953Y0075921D03*
X0188953Y0070921D03*
X0188953Y0065921D03*
X0188953Y0060921D03*
X0188953Y0055921D03*
X0188953Y0050921D03*
X0188953Y0045921D03*
X0288953Y0045921D03*
X0288953Y0050921D03*
X0288953Y0055921D03*
X0288953Y0060921D03*
X0288953Y0065921D03*
X0288953Y0070921D03*
X0288953Y0075921D03*
D12*
X0164937Y0071354D03*
D13*
X0164322Y0066802D02*
X0163584Y0066802D01*
X0164322Y0066802D02*
X0164322Y0065276D01*
X0163584Y0065276D01*
X0163584Y0066802D01*
X0163584Y0065521D02*
X0164322Y0065521D01*
X0164322Y0065766D02*
X0163584Y0065766D01*
X0163584Y0066011D02*
X0164322Y0066011D01*
X0164322Y0066256D02*
X0163584Y0066256D01*
X0163584Y0066501D02*
X0164322Y0066501D01*
X0164322Y0066746D02*
X0163584Y0066746D01*
X0162353Y0065276D02*
X0161615Y0065276D01*
X0161615Y0066802D01*
X0162353Y0066802D01*
X0162353Y0065276D01*
X0162353Y0065521D02*
X0161615Y0065521D01*
X0161615Y0065766D02*
X0162353Y0065766D01*
X0162353Y0066011D02*
X0161615Y0066011D01*
X0161615Y0066256D02*
X0162353Y0066256D01*
X0162353Y0066501D02*
X0161615Y0066501D01*
X0161615Y0066746D02*
X0162353Y0066746D01*
X0165552Y0066802D02*
X0166290Y0066802D01*
X0166290Y0065276D01*
X0165552Y0065276D01*
X0165552Y0066802D01*
X0165552Y0065521D02*
X0166290Y0065521D01*
X0166290Y0065766D02*
X0165552Y0065766D01*
X0165552Y0066011D02*
X0166290Y0066011D01*
X0166290Y0066256D02*
X0165552Y0066256D01*
X0165552Y0066501D02*
X0166290Y0066501D01*
X0166290Y0066746D02*
X0165552Y0066746D01*
X0167521Y0066802D02*
X0168259Y0066802D01*
X0168259Y0065276D01*
X0167521Y0065276D01*
X0167521Y0066802D01*
X0167521Y0065521D02*
X0168259Y0065521D01*
X0168259Y0065766D02*
X0167521Y0065766D01*
X0167521Y0066011D02*
X0168259Y0066011D01*
X0168259Y0066256D02*
X0167521Y0066256D01*
X0167521Y0066501D02*
X0168259Y0066501D01*
X0168259Y0066746D02*
X0167521Y0066746D01*
X0167521Y0077432D02*
X0168259Y0077432D01*
X0168259Y0075906D01*
X0167521Y0075906D01*
X0167521Y0077432D01*
X0167521Y0076151D02*
X0168259Y0076151D01*
X0168259Y0076396D02*
X0167521Y0076396D01*
X0167521Y0076641D02*
X0168259Y0076641D01*
X0168259Y0076886D02*
X0167521Y0076886D01*
X0167521Y0077131D02*
X0168259Y0077131D01*
X0168259Y0077376D02*
X0167521Y0077376D01*
X0166290Y0077432D02*
X0165552Y0077432D01*
X0166290Y0077432D02*
X0166290Y0075906D01*
X0165552Y0075906D01*
X0165552Y0077432D01*
X0165552Y0076151D02*
X0166290Y0076151D01*
X0166290Y0076396D02*
X0165552Y0076396D01*
X0165552Y0076641D02*
X0166290Y0076641D01*
X0166290Y0076886D02*
X0165552Y0076886D01*
X0165552Y0077131D02*
X0166290Y0077131D01*
X0166290Y0077376D02*
X0165552Y0077376D01*
X0164322Y0077432D02*
X0163584Y0077432D01*
X0164322Y0077432D02*
X0164322Y0075906D01*
X0163584Y0075906D01*
X0163584Y0077432D01*
X0163584Y0076151D02*
X0164322Y0076151D01*
X0164322Y0076396D02*
X0163584Y0076396D01*
X0163584Y0076641D02*
X0164322Y0076641D01*
X0164322Y0076886D02*
X0163584Y0076886D01*
X0163584Y0077131D02*
X0164322Y0077131D01*
X0164322Y0077376D02*
X0163584Y0077376D01*
X0162353Y0077432D02*
X0161615Y0077432D01*
X0162353Y0077432D02*
X0162353Y0075906D01*
X0161615Y0075906D01*
X0161615Y0077432D01*
X0161615Y0076151D02*
X0162353Y0076151D01*
X0162353Y0076396D02*
X0161615Y0076396D01*
X0161615Y0076641D02*
X0162353Y0076641D01*
X0162353Y0076886D02*
X0161615Y0076886D01*
X0161615Y0077131D02*
X0162353Y0077131D01*
X0162353Y0077376D02*
X0161615Y0077376D01*
D14*
X0146827Y0065252D03*
X0146827Y0058559D03*
D15*
X0108244Y0033559D03*
X0098244Y0033559D03*
X0088244Y0033559D03*
X0078244Y0033559D03*
X0068244Y0033559D03*
D16*
X0308638Y0050685D03*
D17*
X0405882Y0050685D03*
D18*
X0163165Y0048913D03*
X0156472Y0048913D03*
D19*
X0169858Y0095567D03*
X0174780Y0095567D03*
X0179701Y0095567D03*
D20*
X0189543Y0107181D03*
X0160016Y0107575D03*
D21*
X0127535Y0088283D03*
X0121236Y0081984D03*
X0141315Y0076472D03*
X0140134Y0071748D03*
X0134228Y0070173D03*
X0101945Y0081984D03*
X0096827Y0081984D03*
X0093677Y0080409D03*
X0151157Y0051669D03*
X0273992Y0076472D03*
X0276748Y0070961D03*
X0279504Y0065843D03*
D22*
X0288874Y0065843D01*
X0288953Y0065921D01*
X0288953Y0070921D02*
X0288913Y0070961D01*
X0276748Y0070961D01*
X0273992Y0076472D02*
X0273992Y0085882D01*
X0273953Y0085921D01*
X0188953Y0060921D02*
X0182850Y0060921D01*
X0164543Y0042614D01*
X0149583Y0042614D01*
X0106669Y0085528D01*
X0095646Y0085528D01*
X0093677Y0083559D01*
X0093677Y0080409D01*
X0096827Y0080016D02*
X0098402Y0078441D01*
X0105882Y0078441D01*
X0147220Y0037102D01*
X0168480Y0037102D01*
X0182299Y0050921D01*
X0188953Y0050921D01*
X0188953Y0055921D02*
X0182575Y0055921D01*
X0166512Y0039858D01*
X0148402Y0039858D01*
X0106276Y0081984D01*
X0101945Y0081984D01*
X0096827Y0081984D02*
X0096827Y0080016D01*
X0121236Y0081984D02*
X0121236Y0074898D01*
X0130882Y0065252D01*
X0146827Y0065252D01*
X0127535Y0088283D02*
X0121236Y0081984D01*
D23*
X0134228Y0077654D02*
X0134228Y0070173D01*
X0140134Y0071748D02*
X0142102Y0071748D01*
X0147024Y0076669D01*
X0161984Y0076669D01*
X0163953Y0076669D02*
X0163953Y0078244D01*
X0162969Y0079228D01*
X0144071Y0079228D01*
X0141315Y0076472D01*
X0135213Y0078638D02*
X0134228Y0077654D01*
X0135213Y0078638D02*
X0136591Y0080016D01*
X0138559Y0081984D01*
X0166118Y0081984D01*
X0167890Y0080213D01*
X0167890Y0076669D01*
X0165921Y0076669D02*
X0165921Y0072339D01*
X0164937Y0071354D01*
X0163953Y0066039D02*
X0163953Y0058559D01*
X0163165Y0057772D01*
X0163165Y0048913D01*
X0156472Y0048913D02*
X0156472Y0054622D01*
X0161984Y0060134D01*
X0161984Y0066039D01*
X0159622Y0066039D01*
X0158835Y0065252D01*
X0146827Y0065252D01*
X0151157Y0051669D02*
X0151157Y0050882D01*
X0153126Y0048913D01*
X0156472Y0048913D01*
D24*
X0062181Y0021748D02*
X0062181Y0120961D01*
X0196827Y0120961D01*
X0196827Y0095899D01*
X0197749Y0094976D01*
X0413362Y0094976D01*
X0413362Y0078343D01*
X0312126Y0078343D01*
X0311492Y0077708D01*
X0311492Y0062890D01*
X0304130Y0062890D01*
X0303323Y0062083D01*
X0303323Y0054268D01*
X0295331Y0054268D01*
X0295331Y0055512D01*
X0289362Y0055512D01*
X0289362Y0056331D01*
X0295331Y0056331D01*
X0295331Y0058103D01*
X0295278Y0058298D01*
X0295331Y0058350D01*
X0295331Y0073492D01*
X0295278Y0073544D01*
X0295331Y0073740D01*
X0295331Y0075512D01*
X0289362Y0075512D01*
X0289362Y0076331D01*
X0288543Y0076331D01*
X0288543Y0079299D01*
X0283771Y0079299D01*
X0283421Y0079205D01*
X0283107Y0079024D01*
X0282850Y0078767D01*
X0282669Y0078453D01*
X0282575Y0078103D01*
X0282575Y0076331D01*
X0288543Y0076331D01*
X0288543Y0075512D01*
X0282575Y0075512D01*
X0282575Y0073740D01*
X0282627Y0073544D01*
X0282575Y0073492D01*
X0282575Y0073126D01*
X0278202Y0073126D01*
X0278198Y0073130D01*
X0277257Y0073520D01*
X0276239Y0073520D01*
X0275298Y0073130D01*
X0274579Y0072410D01*
X0274189Y0071470D01*
X0274189Y0070452D01*
X0274579Y0069511D01*
X0275298Y0068791D01*
X0276239Y0068402D01*
X0277257Y0068402D01*
X0278198Y0068791D01*
X0278202Y0068795D01*
X0282575Y0068795D01*
X0282575Y0068008D01*
X0280958Y0068008D01*
X0280954Y0068012D01*
X0280013Y0068402D01*
X0278995Y0068402D01*
X0278054Y0068012D01*
X0277334Y0067292D01*
X0276945Y0066352D01*
X0276945Y0065333D01*
X0277334Y0064393D01*
X0278054Y0063673D01*
X0278995Y0063283D01*
X0280013Y0063283D01*
X0280954Y0063673D01*
X0280958Y0063677D01*
X0282575Y0063677D01*
X0282575Y0058350D01*
X0282627Y0058298D01*
X0282575Y0058103D01*
X0282575Y0056331D01*
X0288543Y0056331D01*
X0288543Y0055512D01*
X0282575Y0055512D01*
X0282575Y0053740D01*
X0282627Y0053544D01*
X0282575Y0053492D01*
X0282575Y0048350D01*
X0282627Y0048298D01*
X0282575Y0048103D01*
X0282575Y0046331D01*
X0288543Y0046331D01*
X0288543Y0045512D01*
X0282575Y0045512D01*
X0282575Y0043740D01*
X0282669Y0043389D01*
X0282850Y0043075D01*
X0283107Y0042819D01*
X0283421Y0042637D01*
X0283771Y0042543D01*
X0288543Y0042543D01*
X0288543Y0045512D01*
X0289362Y0045512D01*
X0289362Y0042543D01*
X0294134Y0042543D01*
X0294485Y0042637D01*
X0294799Y0042819D01*
X0295055Y0043075D01*
X0295237Y0043389D01*
X0295331Y0043740D01*
X0295331Y0045512D01*
X0289362Y0045512D01*
X0289362Y0046331D01*
X0295331Y0046331D01*
X0295331Y0047575D01*
X0303323Y0047575D01*
X0303323Y0039287D01*
X0304130Y0038480D01*
X0311492Y0038480D01*
X0311492Y0021748D01*
X0062181Y0021748D01*
X0062181Y0022532D02*
X0311492Y0022532D01*
X0311492Y0023712D02*
X0062181Y0023712D01*
X0062181Y0024892D02*
X0311492Y0024892D01*
X0311492Y0026071D02*
X0062181Y0026071D01*
X0062181Y0027251D02*
X0311492Y0027251D01*
X0311492Y0028431D02*
X0062181Y0028431D01*
X0062181Y0029610D02*
X0196315Y0029610D01*
X0196382Y0029543D02*
X0231524Y0029543D01*
X0236524Y0029543D01*
X0237331Y0030350D01*
X0237331Y0041492D01*
X0236524Y0042299D01*
X0196382Y0042299D01*
X0195575Y0041492D01*
X0195575Y0030350D01*
X0196382Y0029543D01*
X0195575Y0030790D02*
X0111984Y0030790D01*
X0111984Y0030626D02*
X0111984Y0036492D01*
X0111177Y0037299D01*
X0105311Y0037299D01*
X0104504Y0036492D01*
X0104504Y0030626D01*
X0105311Y0029819D01*
X0111177Y0029819D01*
X0111984Y0030626D01*
X0111984Y0031969D02*
X0195575Y0031969D01*
X0195575Y0033149D02*
X0111984Y0033149D01*
X0111984Y0034329D02*
X0195575Y0034329D01*
X0195575Y0035508D02*
X0169948Y0035508D01*
X0169377Y0034937D02*
X0182586Y0048146D01*
X0182575Y0048103D01*
X0182575Y0046331D01*
X0188543Y0046331D01*
X0188543Y0045512D01*
X0182575Y0045512D01*
X0182575Y0043740D01*
X0182669Y0043389D01*
X0182850Y0043075D01*
X0183107Y0042819D01*
X0183421Y0042637D01*
X0183771Y0042543D01*
X0188543Y0042543D01*
X0188543Y0045512D01*
X0189362Y0045512D01*
X0189362Y0042543D01*
X0194134Y0042543D01*
X0194485Y0042637D01*
X0194799Y0042819D01*
X0195055Y0043075D01*
X0195237Y0043389D01*
X0195331Y0043740D01*
X0195331Y0045512D01*
X0189362Y0045512D01*
X0189362Y0046331D01*
X0195331Y0046331D01*
X0195331Y0048103D01*
X0195278Y0048298D01*
X0195331Y0048350D01*
X0195331Y0073492D01*
X0195278Y0073544D01*
X0195331Y0073740D01*
X0195331Y0075512D01*
X0189362Y0075512D01*
X0189362Y0076331D01*
X0188543Y0076331D01*
X0188543Y0079299D01*
X0183771Y0079299D01*
X0183421Y0079205D01*
X0183107Y0079024D01*
X0182850Y0078767D01*
X0182669Y0078453D01*
X0182575Y0078103D01*
X0182575Y0076331D01*
X0188543Y0076331D01*
X0188543Y0075512D01*
X0182575Y0075512D01*
X0182575Y0073740D01*
X0182627Y0073544D01*
X0182575Y0073492D01*
X0182575Y0063087D01*
X0181953Y0063087D01*
X0166512Y0047645D01*
X0166512Y0051650D01*
X0165705Y0052457D01*
X0165035Y0052457D01*
X0165035Y0056997D01*
X0165823Y0057784D01*
X0165823Y0063776D01*
X0165921Y0063776D01*
X0165921Y0066039D01*
X0165921Y0066039D01*
X0165921Y0063776D01*
X0166488Y0063776D01*
X0166870Y0063878D01*
X0166905Y0063899D01*
X0166941Y0063878D01*
X0167323Y0063776D01*
X0167890Y0063776D01*
X0168456Y0063776D01*
X0168838Y0063878D01*
X0169180Y0064075D01*
X0169460Y0064355D01*
X0169658Y0064697D01*
X0169760Y0065079D01*
X0169760Y0066039D01*
X0167890Y0066039D01*
X0167890Y0063776D01*
X0167890Y0066039D01*
X0167890Y0066039D01*
X0167890Y0066039D01*
X0169760Y0066039D01*
X0169760Y0066728D01*
X0169803Y0066728D01*
X0170154Y0066822D01*
X0170468Y0067004D01*
X0170725Y0067260D01*
X0170906Y0067574D01*
X0171000Y0067925D01*
X0171000Y0070764D01*
X0165528Y0070764D01*
X0165528Y0071945D01*
X0171000Y0071945D01*
X0171000Y0074784D01*
X0170906Y0075134D01*
X0170725Y0075448D01*
X0170468Y0075705D01*
X0170154Y0075886D01*
X0169803Y0075980D01*
X0169760Y0075980D01*
X0169760Y0080987D01*
X0167988Y0082759D01*
X0166893Y0083854D01*
X0162932Y0083854D01*
X0163119Y0083932D01*
X0163337Y0084150D01*
X0173398Y0084150D01*
X0174484Y0084599D01*
X0175314Y0085430D01*
X0177283Y0087398D01*
X0177732Y0088484D01*
X0177732Y0090309D01*
X0177945Y0090252D01*
X0179504Y0090252D01*
X0179504Y0095370D01*
X0179898Y0095370D01*
X0179898Y0095764D01*
X0182654Y0095764D01*
X0182654Y0099685D01*
X0182560Y0100036D01*
X0182378Y0100350D01*
X0182122Y0100607D01*
X0181807Y0100788D01*
X0181457Y0100882D01*
X0179898Y0100882D01*
X0179898Y0095764D01*
X0179504Y0095764D01*
X0179504Y0100882D01*
X0177945Y0100882D01*
X0177594Y0100788D01*
X0177280Y0100607D01*
X0177240Y0100567D01*
X0176925Y0100882D01*
X0172634Y0100882D01*
X0172319Y0100567D01*
X0172004Y0100882D01*
X0167713Y0100882D01*
X0166906Y0100075D01*
X0166906Y0091059D01*
X0167713Y0090252D01*
X0171785Y0090252D01*
X0171588Y0090055D01*
X0163337Y0090055D01*
X0163119Y0090273D01*
X0161744Y0090843D01*
X0160256Y0090843D01*
X0158881Y0090273D01*
X0157829Y0089221D01*
X0157260Y0087846D01*
X0157260Y0086358D01*
X0157829Y0084984D01*
X0158881Y0083932D01*
X0159068Y0083854D01*
X0137784Y0083854D01*
X0134720Y0080790D01*
X0134438Y0080508D01*
X0133454Y0079524D01*
X0132358Y0078428D01*
X0132358Y0071922D01*
X0132059Y0071623D01*
X0131669Y0070682D01*
X0131669Y0069664D01*
X0132059Y0068724D01*
X0132779Y0068004D01*
X0133719Y0067614D01*
X0134737Y0067614D01*
X0135678Y0068004D01*
X0136398Y0068724D01*
X0136787Y0069664D01*
X0136787Y0070682D01*
X0136398Y0071623D01*
X0136098Y0071922D01*
X0136098Y0076879D01*
X0137083Y0077863D01*
X0137365Y0078146D01*
X0139334Y0080114D01*
X0142312Y0080114D01*
X0142201Y0080003D01*
X0141229Y0079031D01*
X0140806Y0079031D01*
X0139865Y0078642D01*
X0139145Y0077922D01*
X0138756Y0076981D01*
X0138756Y0075963D01*
X0139145Y0075023D01*
X0139861Y0074307D01*
X0139625Y0074307D01*
X0138684Y0073917D01*
X0137964Y0073198D01*
X0137575Y0072257D01*
X0137575Y0071239D01*
X0137964Y0070298D01*
X0138684Y0069579D01*
X0139625Y0069189D01*
X0140643Y0069189D01*
X0141583Y0069579D01*
X0141883Y0069878D01*
X0142877Y0069878D01*
X0143972Y0070973D01*
X0147798Y0074799D01*
X0158878Y0074799D01*
X0158874Y0074784D01*
X0158874Y0071945D01*
X0164346Y0071945D01*
X0164346Y0070764D01*
X0158874Y0070764D01*
X0158874Y0067925D01*
X0158878Y0067909D01*
X0158847Y0067909D01*
X0158060Y0067122D01*
X0150370Y0067122D01*
X0150370Y0067791D01*
X0149563Y0068598D01*
X0144091Y0068598D01*
X0143283Y0067791D01*
X0143283Y0067417D01*
X0131779Y0067417D01*
X0123402Y0075795D01*
X0123402Y0080531D01*
X0123406Y0080535D01*
X0123795Y0081475D01*
X0123795Y0081481D01*
X0128039Y0085724D01*
X0128044Y0085724D01*
X0128985Y0086114D01*
X0129705Y0086834D01*
X0130094Y0087774D01*
X0130094Y0088792D01*
X0129705Y0089733D01*
X0128985Y0090453D01*
X0128044Y0090843D01*
X0127026Y0090843D01*
X0126086Y0090453D01*
X0125366Y0089733D01*
X0124976Y0088792D01*
X0124976Y0088787D01*
X0120733Y0084543D01*
X0120727Y0084543D01*
X0119787Y0084154D01*
X0119067Y0083434D01*
X0118677Y0082493D01*
X0118677Y0081475D01*
X0119067Y0080535D01*
X0119071Y0080531D01*
X0119071Y0076188D01*
X0107566Y0087693D01*
X0094749Y0087693D01*
X0093480Y0086424D01*
X0091512Y0084456D01*
X0091512Y0081863D01*
X0091508Y0081859D01*
X0091118Y0080918D01*
X0091118Y0079900D01*
X0091508Y0078960D01*
X0092228Y0078240D01*
X0093168Y0077850D01*
X0094186Y0077850D01*
X0095127Y0078240D01*
X0095334Y0078447D01*
X0096236Y0077544D01*
X0097505Y0076276D01*
X0104985Y0076276D01*
X0145055Y0036205D01*
X0146324Y0034937D01*
X0169377Y0034937D01*
X0171128Y0036688D02*
X0195575Y0036688D01*
X0195575Y0037867D02*
X0172308Y0037867D01*
X0173487Y0039047D02*
X0195575Y0039047D01*
X0195575Y0040227D02*
X0174667Y0040227D01*
X0175846Y0041406D02*
X0195575Y0041406D01*
X0194293Y0042586D02*
X0283612Y0042586D01*
X0282575Y0043766D02*
X0195331Y0043766D01*
X0195331Y0044945D02*
X0282575Y0044945D01*
X0288543Y0044945D02*
X0289362Y0044945D01*
X0289362Y0043766D02*
X0288543Y0043766D01*
X0288543Y0042586D02*
X0289362Y0042586D01*
X0289362Y0046125D02*
X0303323Y0046125D01*
X0303323Y0047304D02*
X0295331Y0047304D01*
X0295331Y0044945D02*
X0303323Y0044945D01*
X0303323Y0043766D02*
X0295331Y0043766D01*
X0294293Y0042586D02*
X0303323Y0042586D01*
X0303323Y0041406D02*
X0277331Y0041406D01*
X0277331Y0041492D02*
X0276524Y0042299D01*
X0251382Y0042299D01*
X0246382Y0042299D01*
X0245575Y0041492D01*
X0245575Y0030350D01*
X0246382Y0029543D01*
X0276524Y0029543D01*
X0277331Y0030350D01*
X0277331Y0041492D01*
X0277331Y0040227D02*
X0303323Y0040227D01*
X0303563Y0039047D02*
X0277331Y0039047D01*
X0277331Y0037867D02*
X0311492Y0037867D01*
X0311492Y0036688D02*
X0277331Y0036688D01*
X0277331Y0035508D02*
X0311492Y0035508D01*
X0311492Y0034329D02*
X0277331Y0034329D01*
X0277331Y0033149D02*
X0311492Y0033149D01*
X0311492Y0031969D02*
X0277331Y0031969D01*
X0277331Y0030790D02*
X0311492Y0030790D01*
X0311492Y0029610D02*
X0276590Y0029610D01*
X0246315Y0029610D02*
X0236590Y0029610D01*
X0237331Y0030790D02*
X0245575Y0030790D01*
X0245575Y0031969D02*
X0237331Y0031969D01*
X0237331Y0033149D02*
X0245575Y0033149D01*
X0245575Y0034329D02*
X0237331Y0034329D01*
X0237331Y0035508D02*
X0245575Y0035508D01*
X0245575Y0036688D02*
X0237331Y0036688D01*
X0237331Y0037867D02*
X0245575Y0037867D01*
X0245575Y0039047D02*
X0237331Y0039047D01*
X0237331Y0040227D02*
X0245575Y0040227D01*
X0245575Y0041406D02*
X0237331Y0041406D01*
X0195331Y0047304D02*
X0282575Y0047304D01*
X0282575Y0048484D02*
X0195331Y0048484D01*
X0195331Y0049664D02*
X0282575Y0049664D01*
X0282575Y0050843D02*
X0195331Y0050843D01*
X0195331Y0052023D02*
X0282575Y0052023D01*
X0282575Y0053202D02*
X0195331Y0053202D01*
X0195331Y0054382D02*
X0282575Y0054382D01*
X0282575Y0056741D02*
X0195331Y0056741D01*
X0195331Y0055562D02*
X0288543Y0055562D01*
X0289362Y0055562D02*
X0303323Y0055562D01*
X0303323Y0056741D02*
X0295331Y0056741D01*
X0295331Y0057921D02*
X0303323Y0057921D01*
X0303323Y0059100D02*
X0295331Y0059100D01*
X0295331Y0060280D02*
X0303323Y0060280D01*
X0303323Y0061460D02*
X0295331Y0061460D01*
X0295331Y0062639D02*
X0303880Y0062639D01*
X0311492Y0063819D02*
X0295331Y0063819D01*
X0295331Y0064999D02*
X0311492Y0064999D01*
X0311492Y0066178D02*
X0295331Y0066178D01*
X0295331Y0067358D02*
X0311492Y0067358D01*
X0311492Y0068537D02*
X0295331Y0068537D01*
X0295331Y0069717D02*
X0311492Y0069717D01*
X0311492Y0070897D02*
X0295331Y0070897D01*
X0295331Y0072076D02*
X0311492Y0072076D01*
X0311492Y0073256D02*
X0295331Y0073256D01*
X0295331Y0074435D02*
X0311492Y0074435D01*
X0311492Y0075615D02*
X0289362Y0075615D01*
X0289362Y0076331D02*
X0295331Y0076331D01*
X0295331Y0078103D01*
X0295237Y0078453D01*
X0295055Y0078767D01*
X0294799Y0079024D01*
X0294485Y0079205D01*
X0294134Y0079299D01*
X0289362Y0079299D01*
X0289362Y0076331D01*
X0289362Y0076795D02*
X0288543Y0076795D01*
X0288543Y0077974D02*
X0289362Y0077974D01*
X0289362Y0079154D02*
X0288543Y0079154D01*
X0283332Y0079154D02*
X0276157Y0079154D01*
X0276157Y0079543D02*
X0276157Y0077926D01*
X0276162Y0077922D01*
X0276551Y0076981D01*
X0276551Y0075963D01*
X0276162Y0075023D01*
X0275442Y0074303D01*
X0274501Y0073913D01*
X0273483Y0073913D01*
X0272543Y0074303D01*
X0271823Y0075023D01*
X0271433Y0075963D01*
X0271433Y0076981D01*
X0271823Y0077922D01*
X0271827Y0077926D01*
X0271827Y0079543D01*
X0246382Y0079543D01*
X0245575Y0080350D01*
X0245575Y0091492D01*
X0246382Y0092299D01*
X0276524Y0092299D01*
X0277331Y0091492D01*
X0277331Y0080350D01*
X0276524Y0079543D01*
X0276157Y0079543D01*
X0277314Y0080334D02*
X0413362Y0080334D01*
X0413362Y0081513D02*
X0277331Y0081513D01*
X0277331Y0082693D02*
X0413362Y0082693D01*
X0413362Y0083872D02*
X0277331Y0083872D01*
X0277331Y0085052D02*
X0413362Y0085052D01*
X0413362Y0086232D02*
X0277331Y0086232D01*
X0277331Y0087411D02*
X0413362Y0087411D01*
X0413362Y0088591D02*
X0277331Y0088591D01*
X0277331Y0089770D02*
X0413362Y0089770D01*
X0413362Y0090950D02*
X0277331Y0090950D01*
X0276693Y0092130D02*
X0413362Y0092130D01*
X0413362Y0093309D02*
X0182654Y0093309D01*
X0182654Y0092130D02*
X0196212Y0092130D01*
X0196382Y0092299D02*
X0195575Y0091492D01*
X0195575Y0080350D01*
X0196382Y0079543D01*
X0236524Y0079543D01*
X0237331Y0080350D01*
X0237331Y0091492D01*
X0236524Y0092299D01*
X0196382Y0092299D01*
X0195575Y0090950D02*
X0182474Y0090950D01*
X0182560Y0091098D02*
X0182654Y0091448D01*
X0182654Y0095370D01*
X0179898Y0095370D01*
X0179898Y0090252D01*
X0181457Y0090252D01*
X0181807Y0090346D01*
X0182122Y0090527D01*
X0182378Y0090784D01*
X0182560Y0091098D01*
X0179898Y0090950D02*
X0179504Y0090950D01*
X0179504Y0092130D02*
X0179898Y0092130D01*
X0179898Y0093309D02*
X0179504Y0093309D01*
X0179504Y0094489D02*
X0179898Y0094489D01*
X0179898Y0095669D02*
X0197057Y0095669D01*
X0196827Y0096848D02*
X0182654Y0096848D01*
X0182654Y0098028D02*
X0196827Y0098028D01*
X0196827Y0099207D02*
X0182654Y0099207D01*
X0182341Y0100387D02*
X0184349Y0100387D01*
X0184031Y0100705D02*
X0184839Y0099898D01*
X0194248Y0099898D01*
X0195055Y0100705D01*
X0195055Y0113657D01*
X0194248Y0114465D01*
X0184839Y0114465D01*
X0184031Y0113657D01*
X0184031Y0100705D01*
X0184031Y0101567D02*
X0165528Y0101567D01*
X0165528Y0101099D02*
X0165528Y0114051D01*
X0164720Y0114858D01*
X0155311Y0114858D01*
X0154504Y0114051D01*
X0154504Y0101099D01*
X0155311Y0100291D01*
X0164720Y0100291D01*
X0165528Y0101099D01*
X0164816Y0100387D02*
X0167218Y0100387D01*
X0166906Y0099207D02*
X0062181Y0099207D01*
X0062181Y0098028D02*
X0166906Y0098028D01*
X0166906Y0096848D02*
X0062181Y0096848D01*
X0062181Y0095669D02*
X0166906Y0095669D01*
X0166906Y0094489D02*
X0062181Y0094489D01*
X0062181Y0093309D02*
X0166906Y0093309D01*
X0166906Y0092130D02*
X0062181Y0092130D01*
X0062181Y0090950D02*
X0167015Y0090950D01*
X0158379Y0089770D02*
X0129667Y0089770D01*
X0130094Y0088591D02*
X0157568Y0088591D01*
X0157260Y0087411D02*
X0129944Y0087411D01*
X0129103Y0086232D02*
X0157312Y0086232D01*
X0157801Y0085052D02*
X0127366Y0085052D01*
X0126187Y0083872D02*
X0159024Y0083872D01*
X0162976Y0083872D02*
X0195575Y0083872D01*
X0195575Y0082693D02*
X0168054Y0082693D01*
X0169234Y0081513D02*
X0195575Y0081513D01*
X0195592Y0080334D02*
X0169760Y0080334D01*
X0169760Y0079154D02*
X0183332Y0079154D01*
X0182575Y0077974D02*
X0169760Y0077974D01*
X0169760Y0076795D02*
X0182575Y0076795D01*
X0188543Y0076795D02*
X0189362Y0076795D01*
X0189362Y0076331D02*
X0189362Y0079299D01*
X0194134Y0079299D01*
X0194485Y0079205D01*
X0194799Y0079024D01*
X0195055Y0078767D01*
X0195237Y0078453D01*
X0195331Y0078103D01*
X0195331Y0076331D01*
X0189362Y0076331D01*
X0189362Y0075615D02*
X0271577Y0075615D01*
X0271433Y0076795D02*
X0195331Y0076795D01*
X0195331Y0077974D02*
X0271827Y0077974D01*
X0271827Y0079154D02*
X0194574Y0079154D01*
X0189362Y0079154D02*
X0188543Y0079154D01*
X0188543Y0077974D02*
X0189362Y0077974D01*
X0188543Y0075615D02*
X0170558Y0075615D01*
X0171000Y0074435D02*
X0182575Y0074435D01*
X0182575Y0073256D02*
X0171000Y0073256D01*
X0171000Y0072076D02*
X0182575Y0072076D01*
X0182575Y0070897D02*
X0165528Y0070897D01*
X0164346Y0070897D02*
X0143896Y0070897D01*
X0145075Y0072076D02*
X0158874Y0072076D01*
X0158874Y0073256D02*
X0146255Y0073256D01*
X0147434Y0074435D02*
X0158874Y0074435D01*
X0165921Y0076669D02*
X0165921Y0078933D01*
X0165823Y0078933D01*
X0165823Y0079019D01*
X0164839Y0080003D01*
X0164727Y0080114D01*
X0165343Y0080114D01*
X0166020Y0079438D01*
X0166020Y0078933D01*
X0165921Y0078933D01*
X0165921Y0076669D01*
X0165921Y0076669D01*
X0165921Y0076795D02*
X0165921Y0076795D01*
X0165921Y0077974D02*
X0165921Y0077974D01*
X0166020Y0079154D02*
X0165688Y0079154D01*
X0174936Y0085052D02*
X0195575Y0085052D01*
X0195575Y0086232D02*
X0176116Y0086232D01*
X0177288Y0087411D02*
X0195575Y0087411D01*
X0195575Y0088591D02*
X0177732Y0088591D01*
X0177732Y0089770D02*
X0195575Y0089770D01*
X0182654Y0094489D02*
X0413362Y0094489D01*
X0413362Y0079154D02*
X0294574Y0079154D01*
X0295331Y0077974D02*
X0311758Y0077974D01*
X0311492Y0076795D02*
X0295331Y0076795D01*
X0288543Y0075615D02*
X0276407Y0075615D01*
X0276551Y0076795D02*
X0282575Y0076795D01*
X0282575Y0077974D02*
X0276157Y0077974D01*
X0275574Y0074435D02*
X0282575Y0074435D01*
X0282575Y0073256D02*
X0277894Y0073256D01*
X0275602Y0073256D02*
X0195331Y0073256D01*
X0195331Y0074435D02*
X0272410Y0074435D01*
X0274440Y0072076D02*
X0195331Y0072076D01*
X0195331Y0070897D02*
X0274189Y0070897D01*
X0274493Y0069717D02*
X0195331Y0069717D01*
X0195331Y0068537D02*
X0275911Y0068537D01*
X0277585Y0068537D02*
X0282575Y0068537D01*
X0277400Y0067358D02*
X0195331Y0067358D01*
X0195331Y0066178D02*
X0276945Y0066178D01*
X0277084Y0064999D02*
X0195331Y0064999D01*
X0195331Y0063819D02*
X0277908Y0063819D01*
X0282575Y0062639D02*
X0195331Y0062639D01*
X0195331Y0061460D02*
X0282575Y0061460D01*
X0282575Y0060280D02*
X0195331Y0060280D01*
X0195331Y0059100D02*
X0282575Y0059100D01*
X0282575Y0057921D02*
X0195331Y0057921D01*
X0182575Y0063819D02*
X0168618Y0063819D01*
X0167890Y0063819D02*
X0167890Y0063819D01*
X0167161Y0063819D02*
X0166650Y0063819D01*
X0165921Y0063819D02*
X0165921Y0063819D01*
X0165921Y0064999D02*
X0165921Y0064999D01*
X0165921Y0066039D02*
X0165921Y0066039D01*
X0166020Y0066039D01*
X0167890Y0066039D01*
X0167890Y0066039D01*
X0165921Y0066039D01*
X0167890Y0064999D02*
X0167890Y0064999D01*
X0169738Y0064999D02*
X0182575Y0064999D01*
X0182575Y0066178D02*
X0169760Y0066178D01*
X0170781Y0067358D02*
X0182575Y0067358D01*
X0182575Y0068537D02*
X0171000Y0068537D01*
X0171000Y0069717D02*
X0182575Y0069717D01*
X0181506Y0062639D02*
X0165823Y0062639D01*
X0165823Y0061460D02*
X0180327Y0061460D01*
X0179147Y0060280D02*
X0165823Y0060280D01*
X0165823Y0059100D02*
X0177967Y0059100D01*
X0176788Y0057921D02*
X0165823Y0057921D01*
X0165035Y0056741D02*
X0175608Y0056741D01*
X0174429Y0055562D02*
X0165035Y0055562D01*
X0165035Y0054382D02*
X0173249Y0054382D01*
X0172069Y0053202D02*
X0165035Y0053202D01*
X0166139Y0052023D02*
X0170890Y0052023D01*
X0169710Y0050843D02*
X0166512Y0050843D01*
X0166512Y0049664D02*
X0168530Y0049664D01*
X0167351Y0048484D02*
X0166512Y0048484D01*
X0164237Y0045370D02*
X0160626Y0045370D01*
X0159819Y0046177D01*
X0159819Y0051650D01*
X0159819Y0046177D01*
X0159012Y0045370D01*
X0153933Y0045370D01*
X0153126Y0046177D01*
X0153126Y0047043D01*
X0152351Y0047043D01*
X0151256Y0048139D01*
X0150027Y0049368D01*
X0149708Y0049500D01*
X0148988Y0050220D01*
X0148598Y0051160D01*
X0148598Y0052178D01*
X0148988Y0053119D01*
X0149708Y0053839D01*
X0150648Y0054228D01*
X0151667Y0054228D01*
X0152607Y0053839D01*
X0153327Y0053119D01*
X0153698Y0052222D01*
X0153933Y0052457D01*
X0154602Y0052457D01*
X0154602Y0055397D01*
X0155698Y0056492D01*
X0160114Y0060908D01*
X0160114Y0063887D01*
X0159609Y0063382D01*
X0150370Y0063382D01*
X0150370Y0062713D01*
X0149563Y0061906D01*
X0144091Y0061906D01*
X0143283Y0062713D01*
X0143283Y0063087D01*
X0132172Y0063087D01*
X0150480Y0044780D01*
X0163646Y0044780D01*
X0164237Y0045370D01*
X0163812Y0044945D02*
X0150314Y0044945D01*
X0149134Y0046125D02*
X0153179Y0046125D01*
X0152090Y0047304D02*
X0147955Y0047304D01*
X0146775Y0048484D02*
X0150911Y0048484D01*
X0149544Y0049664D02*
X0145596Y0049664D01*
X0144416Y0050843D02*
X0148730Y0050843D01*
X0148598Y0052023D02*
X0143236Y0052023D01*
X0142057Y0053202D02*
X0149072Y0053202D01*
X0149174Y0055213D02*
X0149524Y0055307D01*
X0149838Y0055488D01*
X0150095Y0055744D01*
X0150276Y0056059D01*
X0150370Y0056409D01*
X0150370Y0058165D01*
X0147221Y0058165D01*
X0147221Y0058953D01*
X0150370Y0058953D01*
X0150370Y0060709D01*
X0150276Y0061059D01*
X0150095Y0061374D01*
X0149838Y0061630D01*
X0149524Y0061812D01*
X0149174Y0061905D01*
X0147220Y0061905D01*
X0147220Y0058953D01*
X0146433Y0058953D01*
X0146433Y0061905D01*
X0144480Y0061905D01*
X0144130Y0061812D01*
X0143815Y0061630D01*
X0143559Y0061374D01*
X0143377Y0061059D01*
X0143283Y0060709D01*
X0143283Y0058953D01*
X0146433Y0058953D01*
X0146433Y0058165D01*
X0147220Y0058165D01*
X0147220Y0055213D01*
X0149174Y0055213D01*
X0149912Y0055562D02*
X0154767Y0055562D01*
X0154602Y0054382D02*
X0140877Y0054382D01*
X0139697Y0055562D02*
X0143742Y0055562D01*
X0143815Y0055488D02*
X0144130Y0055307D01*
X0144480Y0055213D01*
X0146433Y0055213D01*
X0146433Y0058165D01*
X0143283Y0058165D01*
X0143283Y0056409D01*
X0143377Y0056059D01*
X0143559Y0055744D01*
X0143815Y0055488D01*
X0143283Y0056741D02*
X0138518Y0056741D01*
X0137338Y0057921D02*
X0143283Y0057921D01*
X0143283Y0059100D02*
X0136159Y0059100D01*
X0134979Y0060280D02*
X0143283Y0060280D01*
X0143645Y0061460D02*
X0133799Y0061460D01*
X0132620Y0062639D02*
X0143357Y0062639D01*
X0146433Y0061460D02*
X0147220Y0061460D01*
X0147220Y0060280D02*
X0146433Y0060280D01*
X0146433Y0059100D02*
X0147220Y0059100D01*
X0147220Y0057921D02*
X0146433Y0057921D01*
X0146433Y0056741D02*
X0147220Y0056741D01*
X0147220Y0055562D02*
X0146433Y0055562D01*
X0150370Y0056741D02*
X0155947Y0056741D01*
X0157127Y0057921D02*
X0150370Y0057921D01*
X0150370Y0059100D02*
X0158306Y0059100D01*
X0159486Y0060280D02*
X0150370Y0060280D01*
X0150009Y0061460D02*
X0160114Y0061460D01*
X0160114Y0062639D02*
X0150297Y0062639D01*
X0150370Y0067358D02*
X0158296Y0067358D01*
X0158874Y0068537D02*
X0149624Y0068537D01*
X0144030Y0068537D02*
X0136212Y0068537D01*
X0136787Y0069717D02*
X0138546Y0069717D01*
X0137717Y0070897D02*
X0136699Y0070897D01*
X0136098Y0072076D02*
X0137575Y0072076D01*
X0138023Y0073256D02*
X0136098Y0073256D01*
X0136098Y0074435D02*
X0139733Y0074435D01*
X0138900Y0075615D02*
X0136098Y0075615D01*
X0136098Y0076795D02*
X0138756Y0076795D01*
X0139198Y0077974D02*
X0137194Y0077974D01*
X0138373Y0079154D02*
X0141352Y0079154D01*
X0142201Y0080003D02*
X0142201Y0080003D01*
X0135443Y0081513D02*
X0123827Y0081513D01*
X0123402Y0080334D02*
X0134264Y0080334D01*
X0133084Y0079154D02*
X0123402Y0079154D01*
X0123402Y0077974D02*
X0132358Y0077974D01*
X0132358Y0076795D02*
X0123402Y0076795D01*
X0123581Y0075615D02*
X0132358Y0075615D01*
X0132358Y0074435D02*
X0124761Y0074435D01*
X0125940Y0073256D02*
X0132358Y0073256D01*
X0132358Y0072076D02*
X0127120Y0072076D01*
X0128299Y0070897D02*
X0131758Y0070897D01*
X0131669Y0069717D02*
X0129479Y0069717D01*
X0130659Y0068537D02*
X0132245Y0068537D01*
X0141722Y0069717D02*
X0158874Y0069717D01*
X0160046Y0063819D02*
X0160114Y0063819D01*
X0161295Y0056800D02*
X0161295Y0052457D01*
X0160626Y0052457D01*
X0159819Y0051650D01*
X0159012Y0052457D01*
X0158343Y0052457D01*
X0158343Y0053847D01*
X0161295Y0056800D01*
X0161295Y0056741D02*
X0161236Y0056741D01*
X0161295Y0055562D02*
X0160057Y0055562D01*
X0158877Y0054382D02*
X0161295Y0054382D01*
X0161295Y0053202D02*
X0158343Y0053202D01*
X0159446Y0052023D02*
X0160192Y0052023D01*
X0159819Y0050843D02*
X0159819Y0050843D01*
X0159819Y0049664D02*
X0159819Y0049664D01*
X0159819Y0048484D02*
X0159819Y0048484D01*
X0159819Y0047304D02*
X0159819Y0047304D01*
X0159766Y0046125D02*
X0159871Y0046125D01*
X0177026Y0042586D02*
X0183612Y0042586D01*
X0182575Y0043766D02*
X0178206Y0043766D01*
X0179385Y0044945D02*
X0182575Y0044945D01*
X0180565Y0046125D02*
X0188543Y0046125D01*
X0189362Y0046125D02*
X0288543Y0046125D01*
X0295331Y0054382D02*
X0303323Y0054382D01*
X0245592Y0080334D02*
X0237314Y0080334D01*
X0237331Y0081513D02*
X0245575Y0081513D01*
X0245575Y0082693D02*
X0237331Y0082693D01*
X0237331Y0083872D02*
X0245575Y0083872D01*
X0245575Y0085052D02*
X0237331Y0085052D01*
X0237331Y0086232D02*
X0245575Y0086232D01*
X0245575Y0087411D02*
X0237331Y0087411D01*
X0237331Y0088591D02*
X0245575Y0088591D01*
X0245575Y0089770D02*
X0237331Y0089770D01*
X0237331Y0090950D02*
X0245575Y0090950D01*
X0246212Y0092130D02*
X0236693Y0092130D01*
X0196827Y0100387D02*
X0194737Y0100387D01*
X0195055Y0101567D02*
X0196827Y0101567D01*
X0196827Y0102746D02*
X0195055Y0102746D01*
X0195055Y0103926D02*
X0196827Y0103926D01*
X0196827Y0105105D02*
X0195055Y0105105D01*
X0195055Y0106285D02*
X0196827Y0106285D01*
X0196827Y0107465D02*
X0195055Y0107465D01*
X0195055Y0108644D02*
X0196827Y0108644D01*
X0196827Y0109824D02*
X0195055Y0109824D01*
X0195055Y0111003D02*
X0196827Y0111003D01*
X0196827Y0112183D02*
X0195055Y0112183D01*
X0195055Y0113363D02*
X0196827Y0113363D01*
X0196827Y0114542D02*
X0165036Y0114542D01*
X0165528Y0113363D02*
X0184031Y0113363D01*
X0184031Y0112183D02*
X0165528Y0112183D01*
X0165528Y0111003D02*
X0184031Y0111003D01*
X0184031Y0109824D02*
X0165528Y0109824D01*
X0165528Y0108644D02*
X0184031Y0108644D01*
X0184031Y0107465D02*
X0165528Y0107465D01*
X0165528Y0106285D02*
X0184031Y0106285D01*
X0184031Y0105105D02*
X0165528Y0105105D01*
X0165528Y0103926D02*
X0184031Y0103926D01*
X0184031Y0102746D02*
X0165528Y0102746D01*
X0155215Y0100387D02*
X0062181Y0100387D01*
X0062181Y0101567D02*
X0154504Y0101567D01*
X0154504Y0102746D02*
X0062181Y0102746D01*
X0062181Y0103926D02*
X0154504Y0103926D01*
X0154504Y0105105D02*
X0062181Y0105105D01*
X0062181Y0106285D02*
X0154504Y0106285D01*
X0154504Y0107465D02*
X0062181Y0107465D01*
X0062181Y0108644D02*
X0154504Y0108644D01*
X0154504Y0109824D02*
X0062181Y0109824D01*
X0062181Y0111003D02*
X0154504Y0111003D01*
X0154504Y0112183D02*
X0062181Y0112183D01*
X0062181Y0113363D02*
X0154504Y0113363D01*
X0154995Y0114542D02*
X0062181Y0114542D01*
X0062181Y0115722D02*
X0196827Y0115722D01*
X0196827Y0116902D02*
X0062181Y0116902D01*
X0062181Y0118081D02*
X0196827Y0118081D01*
X0196827Y0119261D02*
X0062181Y0119261D01*
X0062181Y0120440D02*
X0196827Y0120440D01*
X0179898Y0100387D02*
X0179504Y0100387D01*
X0179504Y0099207D02*
X0179898Y0099207D01*
X0179898Y0098028D02*
X0179504Y0098028D01*
X0179504Y0096848D02*
X0179898Y0096848D01*
X0136623Y0082693D02*
X0125007Y0082693D01*
X0121242Y0085052D02*
X0110207Y0085052D01*
X0109028Y0086232D02*
X0122421Y0086232D01*
X0123601Y0087411D02*
X0107848Y0087411D01*
X0111387Y0083872D02*
X0119505Y0083872D01*
X0118760Y0082693D02*
X0112566Y0082693D01*
X0113746Y0081513D02*
X0118677Y0081513D01*
X0119071Y0080334D02*
X0114926Y0080334D01*
X0116105Y0079154D02*
X0119071Y0079154D01*
X0119071Y0077974D02*
X0117285Y0077974D01*
X0118464Y0076795D02*
X0119071Y0076795D01*
X0109184Y0072076D02*
X0062181Y0072076D01*
X0062181Y0070897D02*
X0110364Y0070897D01*
X0111544Y0069717D02*
X0062181Y0069717D01*
X0062181Y0068537D02*
X0112723Y0068537D01*
X0113903Y0067358D02*
X0062181Y0067358D01*
X0062181Y0066178D02*
X0115082Y0066178D01*
X0116262Y0064999D02*
X0062181Y0064999D01*
X0062181Y0063819D02*
X0117442Y0063819D01*
X0118621Y0062639D02*
X0062181Y0062639D01*
X0062181Y0061460D02*
X0119801Y0061460D01*
X0120980Y0060280D02*
X0062181Y0060280D01*
X0062181Y0059100D02*
X0122160Y0059100D01*
X0123340Y0057921D02*
X0062181Y0057921D01*
X0062181Y0056741D02*
X0124519Y0056741D01*
X0125699Y0055562D02*
X0062181Y0055562D01*
X0062181Y0054382D02*
X0126879Y0054382D01*
X0128058Y0053202D02*
X0062181Y0053202D01*
X0062181Y0052023D02*
X0129238Y0052023D01*
X0130417Y0050843D02*
X0062181Y0050843D01*
X0062181Y0049664D02*
X0131597Y0049664D01*
X0132777Y0048484D02*
X0062181Y0048484D01*
X0062181Y0047304D02*
X0133956Y0047304D01*
X0135136Y0046125D02*
X0062181Y0046125D01*
X0062181Y0044945D02*
X0136315Y0044945D01*
X0137495Y0043766D02*
X0062181Y0043766D01*
X0062181Y0042586D02*
X0138675Y0042586D01*
X0139854Y0041406D02*
X0062181Y0041406D01*
X0062181Y0040227D02*
X0141034Y0040227D01*
X0142214Y0039047D02*
X0062181Y0039047D01*
X0062181Y0037867D02*
X0143393Y0037867D01*
X0144573Y0036688D02*
X0111788Y0036688D01*
X0111984Y0035508D02*
X0145752Y0035508D01*
X0181745Y0047304D02*
X0182575Y0047304D01*
X0188543Y0044945D02*
X0189362Y0044945D01*
X0189362Y0043766D02*
X0188543Y0043766D01*
X0188543Y0042586D02*
X0189362Y0042586D01*
X0154602Y0053202D02*
X0153243Y0053202D01*
X0104700Y0036688D02*
X0101788Y0036688D01*
X0101984Y0036492D02*
X0101177Y0037299D01*
X0095311Y0037299D01*
X0094504Y0036492D01*
X0094504Y0030626D01*
X0095311Y0029819D01*
X0101177Y0029819D01*
X0101984Y0030626D01*
X0101984Y0036492D01*
X0101984Y0035508D02*
X0104504Y0035508D01*
X0104504Y0034329D02*
X0101984Y0034329D01*
X0101984Y0033149D02*
X0104504Y0033149D01*
X0104504Y0031969D02*
X0101984Y0031969D01*
X0101984Y0030790D02*
X0104504Y0030790D01*
X0094504Y0030790D02*
X0091984Y0030790D01*
X0091984Y0030626D02*
X0091984Y0036492D01*
X0091177Y0037299D01*
X0085311Y0037299D01*
X0084504Y0036492D01*
X0084504Y0030626D01*
X0085311Y0029819D01*
X0091177Y0029819D01*
X0091984Y0030626D01*
X0091984Y0031969D02*
X0094504Y0031969D01*
X0094504Y0033149D02*
X0091984Y0033149D01*
X0091984Y0034329D02*
X0094504Y0034329D01*
X0094504Y0035508D02*
X0091984Y0035508D01*
X0091788Y0036688D02*
X0094700Y0036688D01*
X0084700Y0036688D02*
X0081788Y0036688D01*
X0081984Y0036492D02*
X0081177Y0037299D01*
X0075311Y0037299D01*
X0074504Y0036492D01*
X0074504Y0030626D01*
X0075311Y0029819D01*
X0081177Y0029819D01*
X0081984Y0030626D01*
X0081984Y0036492D01*
X0081984Y0035508D02*
X0084504Y0035508D01*
X0084504Y0034329D02*
X0081984Y0034329D01*
X0081984Y0033149D02*
X0084504Y0033149D01*
X0084504Y0031969D02*
X0081984Y0031969D01*
X0081984Y0030790D02*
X0084504Y0030790D01*
X0074504Y0030790D02*
X0071924Y0030790D01*
X0071890Y0030665D02*
X0071984Y0031015D01*
X0071984Y0033362D01*
X0068441Y0033362D01*
X0068441Y0029819D01*
X0070788Y0029819D01*
X0071138Y0029913D01*
X0071452Y0030094D01*
X0071709Y0030351D01*
X0071890Y0030665D01*
X0071984Y0031969D02*
X0074504Y0031969D01*
X0074504Y0033149D02*
X0071984Y0033149D01*
X0071984Y0033756D02*
X0071984Y0036103D01*
X0071890Y0036453D01*
X0071709Y0036767D01*
X0071452Y0037024D01*
X0071138Y0037205D01*
X0070788Y0037299D01*
X0068441Y0037299D01*
X0068441Y0033756D01*
X0068047Y0033756D01*
X0068047Y0033362D01*
X0064504Y0033362D01*
X0064504Y0031015D01*
X0064598Y0030665D01*
X0064779Y0030351D01*
X0065036Y0030094D01*
X0065350Y0029913D01*
X0065700Y0029819D01*
X0068047Y0029819D01*
X0068047Y0033362D01*
X0068441Y0033362D01*
X0068441Y0033756D01*
X0071984Y0033756D01*
X0071984Y0034329D02*
X0074504Y0034329D01*
X0074504Y0035508D02*
X0071984Y0035508D01*
X0071755Y0036688D02*
X0074700Y0036688D01*
X0068441Y0036688D02*
X0068047Y0036688D01*
X0068047Y0037299D02*
X0065700Y0037299D01*
X0065350Y0037205D01*
X0065036Y0037024D01*
X0064779Y0036767D01*
X0064598Y0036453D01*
X0064504Y0036103D01*
X0064504Y0033756D01*
X0068047Y0033756D01*
X0068047Y0037299D01*
X0068047Y0035508D02*
X0068441Y0035508D01*
X0068441Y0034329D02*
X0068047Y0034329D01*
X0068047Y0033149D02*
X0068441Y0033149D01*
X0068441Y0031969D02*
X0068047Y0031969D01*
X0068047Y0030790D02*
X0068441Y0030790D01*
X0064564Y0030790D02*
X0062181Y0030790D01*
X0062181Y0031969D02*
X0064504Y0031969D01*
X0064504Y0033149D02*
X0062181Y0033149D01*
X0062181Y0034329D02*
X0064504Y0034329D01*
X0064504Y0035508D02*
X0062181Y0035508D01*
X0062181Y0036688D02*
X0064733Y0036688D01*
X0062181Y0073256D02*
X0108005Y0073256D01*
X0106825Y0074435D02*
X0062181Y0074435D01*
X0062181Y0075615D02*
X0105645Y0075615D01*
X0096986Y0076795D02*
X0062181Y0076795D01*
X0062181Y0077974D02*
X0092869Y0077974D01*
X0094485Y0077974D02*
X0095806Y0077974D01*
X0091427Y0079154D02*
X0062181Y0079154D01*
X0062181Y0080334D02*
X0091118Y0080334D01*
X0091364Y0081513D02*
X0062181Y0081513D01*
X0062181Y0082693D02*
X0091512Y0082693D01*
X0091512Y0083872D02*
X0062181Y0083872D01*
X0062181Y0085052D02*
X0092108Y0085052D01*
X0093287Y0086232D02*
X0062181Y0086232D01*
X0062181Y0087411D02*
X0094467Y0087411D01*
X0124781Y0088591D02*
X0062181Y0088591D01*
X0062181Y0089770D02*
X0125403Y0089770D01*
D25*
X0113756Y0100882D03*
X0098008Y0100882D03*
X0066512Y0100882D03*
X0066512Y0116630D03*
X0082260Y0116630D03*
X0098008Y0116630D03*
X0113756Y0116630D03*
X0129504Y0116630D03*
X0145252Y0116630D03*
X0161000Y0116630D03*
X0176748Y0116630D03*
X0192496Y0116630D03*
X0283047Y0091039D03*
X0298795Y0091039D03*
X0314543Y0091039D03*
X0330291Y0091039D03*
X0346039Y0091039D03*
X0361787Y0091039D03*
X0377535Y0091039D03*
X0393283Y0091039D03*
X0409031Y0091039D03*
X0409031Y0083165D03*
X0403126Y0083165D03*
X0397220Y0083165D03*
X0391315Y0083165D03*
X0385409Y0083165D03*
X0379504Y0083165D03*
X0373598Y0083165D03*
X0367693Y0083165D03*
X0361787Y0083165D03*
X0355882Y0083165D03*
X0349976Y0083165D03*
X0344071Y0083165D03*
X0338165Y0083165D03*
X0332260Y0083165D03*
X0326354Y0083165D03*
X0320449Y0083165D03*
X0314543Y0083165D03*
X0308638Y0083165D03*
X0296827Y0079228D03*
X0306669Y0077260D03*
X0306669Y0071354D03*
X0296827Y0069386D03*
X0306669Y0065449D03*
X0301551Y0056787D03*
X0296827Y0056787D03*
X0296827Y0045764D03*
X0301551Y0045764D03*
X0306669Y0035921D03*
X0306669Y0030016D03*
X0302732Y0026079D03*
X0306669Y0024110D03*
X0286984Y0026079D03*
X0271236Y0026079D03*
X0255488Y0026079D03*
X0239740Y0026079D03*
X0223992Y0026079D03*
X0208244Y0026079D03*
X0192496Y0026079D03*
X0176748Y0026079D03*
X0161000Y0026079D03*
X0145252Y0026079D03*
X0129504Y0026079D03*
X0113756Y0026079D03*
X0098008Y0026079D03*
X0082260Y0026079D03*
X0066512Y0026079D03*
X0066512Y0041827D03*
X0097496Y0055094D03*
X0087654Y0062969D03*
X0103402Y0066906D03*
X0103402Y0072811D03*
X0095528Y0072811D03*
X0066512Y0085134D03*
X0136606Y0060923D03*
X0141356Y0060923D03*
X0147220Y0051669D03*
X0205685Y0066433D03*
X0211197Y0066433D03*
X0235606Y0073913D03*
D26*
X0161000Y0087102D03*
D27*
X0172811Y0087102D01*
X0174780Y0089071D01*
X0174780Y0095567D01*
D28*
X0288953Y0050921D02*
X0304685Y0050921D01*
X0304685Y0050685D01*
X0308638Y0050685D01*
M02*
