%
M48
M72
T01C0.01378
T02C0.02362
T03C0.03150
%
T01
X151157Y51669
X134228Y70173
X140134Y71748
X141315Y76472
X121236Y81984
X127535Y88283
X101945Y81984
X96827Y81984
X93677Y80409
X273992Y76472
X276748Y70961
X279504Y65843
T02
X66512Y26079
X82260Y26079
X98008Y26079
X113756Y26079
X129504Y26079
X145252Y26079
X161000Y26079
X176748Y26079
X192496Y26079
X208244Y26079
X223992Y26079
X239740Y26079
X255488Y26079
X271236Y26079
X286984Y26079
X302732Y26079
X306669Y24110
X306669Y30016
X306669Y35921
X301551Y45764
X296827Y45764
X296827Y56787
X301551Y56787
X306669Y65449
X296827Y69386
X306669Y71354
X306669Y77260
X296827Y79228
X308638Y83165
X314543Y83165
X320449Y83165
X326354Y83165
X332260Y83165
X338165Y83165
X344071Y83165
X349976Y83165
X355882Y83165
X361787Y83165
X367693Y83165
X373598Y83165
X379504Y83165
X385409Y83165
X391315Y83165
X397220Y83165
X403126Y83165
X409031Y83165
X409031Y91039
X393283Y91039
X377535Y91039
X361787Y91039
X346039Y91039
X330291Y91039
X314543Y91039
X298795Y91039
X283047Y91039
X235606Y73913
X211197Y66433
X205685Y66433
X147220Y51669
X141356Y60923
X136606Y60923
X103402Y66906
X87654Y62969
X97496Y55094
X66512Y41827
X95528Y72811
X103402Y72811
X66512Y85134
X66512Y100882
X98008Y100882
X113756Y100882
X113756Y116630
X129504Y116630
X145252Y116630
X161000Y116630
X176748Y116630
X192496Y116630
X98008Y116630
X82260Y116630
X66512Y116630
T03
X161000Y87102
X108244Y33559
X98244Y33559
X88244Y33559
X78244Y33559
X68244Y33559
M30
