G75*
%MOIN*%
%OFA0B0*%
%FSLAX25Y25*%
%IPPOS*%
%LPD*%
%AMOC8*
5,1,8,0,0,1.08239X$1,22.5*
%
%ADD10C,0.00200*%
%ADD11R,0.00300X0.00050*%
%ADD12R,0.00450X0.00050*%
%ADD13R,0.00150X0.00050*%
%ADD14R,0.01450X0.00050*%
%ADD15R,0.00550X0.00050*%
%ADD16R,0.02200X0.00050*%
%ADD17R,0.00600X0.00050*%
%ADD18R,0.02750X0.00050*%
%ADD19R,0.00700X0.00050*%
%ADD20R,0.00400X0.00050*%
%ADD21R,0.00650X0.00050*%
%ADD22R,0.03150X0.00050*%
%ADD23R,0.00500X0.00050*%
%ADD24R,0.03600X0.00050*%
%ADD25R,0.03950X0.00050*%
%ADD26R,0.00750X0.00050*%
%ADD27R,0.04300X0.00050*%
%ADD28R,0.01700X0.00050*%
%ADD29R,0.01600X0.00050*%
%ADD30R,0.01500X0.00050*%
%ADD31R,0.01400X0.00050*%
%ADD32R,0.01350X0.00050*%
%ADD33R,0.01250X0.00050*%
%ADD34R,0.01300X0.00050*%
%ADD35R,0.01150X0.00050*%
%ADD36R,0.01200X0.00050*%
%ADD37R,0.01100X0.00050*%
%ADD38R,0.01000X0.00050*%
%ADD39R,0.01050X0.00050*%
%ADD40R,0.00950X0.00050*%
%ADD41R,0.00900X0.00050*%
%ADD42R,0.00800X0.00050*%
%ADD43R,0.00850X0.00050*%
%ADD44R,0.00350X0.00050*%
%ADD45R,0.00200X0.00050*%
%ADD46R,0.00250X0.00050*%
%ADD47R,0.01850X0.00050*%
%ADD48R,0.00050X0.00050*%
%ADD49R,0.00100X0.00050*%
%ADD50R,0.01650X0.00050*%
%ADD51R,0.02300X0.00050*%
%ADD52R,0.02400X0.00050*%
%ADD53R,0.02550X0.00050*%
%ADD54R,0.02650X0.00050*%
%ADD55R,0.01950X0.00050*%
%ADD56R,0.01800X0.00050*%
%ADD57R,0.01550X0.00050*%
%ADD58R,0.01750X0.00050*%
%ADD59R,0.01900X0.00050*%
%ADD60R,0.02000X0.00050*%
%ADD61R,0.02150X0.00050*%
%ADD62R,0.02250X0.00050*%
%ADD63R,0.02100X0.00050*%
%ADD64R,0.02450X0.00050*%
%ADD65R,0.03850X0.00050*%
%ADD66R,0.03900X0.00050*%
%ADD67R,0.05000X0.00050*%
%ADD68R,0.06000X0.00050*%
%ADD69R,0.05950X0.00050*%
%ADD70R,0.05850X0.00050*%
%ADD71R,0.05800X0.00050*%
%ADD72R,0.05700X0.00050*%
%ADD73R,0.05600X0.00050*%
%ADD74R,0.05500X0.00050*%
%ADD75R,0.05450X0.00050*%
%ADD76R,0.05300X0.00050*%
%ADD77R,0.04250X0.00050*%
%ADD78R,0.03800X0.00050*%
%ADD79R,0.03750X0.00050*%
%ADD80R,0.04050X0.00050*%
%ADD81R,0.04100X0.00050*%
%ADD82R,0.04700X0.00050*%
%ADD83R,0.04750X0.00050*%
%ADD84R,0.04850X0.00050*%
%ADD85R,0.04900X0.00050*%
%ADD86R,0.05050X0.00050*%
%ADD87R,0.05100X0.00050*%
%ADD88R,0.05150X0.00050*%
%ADD89R,0.05200X0.00050*%
%ADD90R,0.05250X0.00050*%
%ADD91R,0.04800X0.00050*%
%ADD92R,0.04950X0.00050*%
%ADD93R,0.05350X0.00050*%
%ADD94R,0.05400X0.00050*%
%ADD95R,0.05550X0.00050*%
%ADD96R,0.05650X0.00050*%
%ADD97R,0.02800X0.00050*%
%ADD98R,0.05750X0.00050*%
%ADD99R,0.03250X0.00050*%
%ADD100R,0.03400X0.00050*%
%ADD101R,0.05900X0.00050*%
%ADD102R,0.03450X0.00050*%
%ADD103R,0.06050X0.00050*%
%ADD104R,0.06100X0.00050*%
%ADD105R,0.06200X0.00050*%
%ADD106R,0.06250X0.00050*%
%ADD107R,0.06350X0.00050*%
%ADD108R,0.06450X0.00050*%
%ADD109R,0.06500X0.00050*%
%ADD110R,0.06600X0.00050*%
%ADD111R,0.06700X0.00050*%
%ADD112R,0.06650X0.00050*%
%ADD113R,0.06800X0.00050*%
%ADD114R,0.06750X0.00050*%
%ADD115R,0.06900X0.00050*%
%ADD116R,0.06850X0.00050*%
%ADD117R,0.07050X0.00050*%
%ADD118R,0.07000X0.00050*%
%ADD119R,0.07150X0.00050*%
%ADD120R,0.07250X0.00050*%
%ADD121R,0.07400X0.00050*%
%ADD122R,0.07450X0.00050*%
%ADD123R,0.07600X0.00050*%
%ADD124R,0.07750X0.00050*%
%ADD125R,0.07900X0.00050*%
%ADD126R,0.08100X0.00050*%
%ADD127R,0.08150X0.00050*%
%ADD128R,0.08350X0.00050*%
%ADD129R,0.08650X0.00050*%
%ADD130R,0.08700X0.00050*%
%ADD131R,0.18850X0.00050*%
%ADD132R,0.11150X0.00050*%
%ADD133R,0.07650X0.00050*%
%ADD134R,0.10950X0.00050*%
%ADD135R,0.07550X0.00050*%
%ADD136R,0.10800X0.00050*%
%ADD137R,0.07500X0.00050*%
%ADD138R,0.10600X0.00050*%
%ADD139R,0.10500X0.00050*%
%ADD140R,0.10450X0.00050*%
%ADD141R,0.09200X0.00050*%
%ADD142R,0.07950X0.00050*%
%ADD143R,0.09150X0.00050*%
%ADD144R,0.09050X0.00050*%
%ADD145R,0.09100X0.00050*%
%ADD146R,0.09000X0.00050*%
%ADD147R,0.08950X0.00050*%
%ADD148R,0.08900X0.00050*%
%ADD149R,0.08850X0.00050*%
%ADD150R,0.08800X0.00050*%
%ADD151R,0.08450X0.00050*%
%ADD152R,0.08250X0.00050*%
%ADD153R,0.09250X0.00050*%
%ADD154R,0.06300X0.00050*%
%ADD155R,0.09300X0.00050*%
%ADD156R,0.06150X0.00050*%
%ADD157R,0.06550X0.00050*%
%ADD158R,0.06400X0.00050*%
%ADD159R,0.04400X0.00050*%
%ADD160R,0.04350X0.00050*%
%ADD161R,0.04450X0.00050*%
%ADD162R,0.04550X0.00050*%
%ADD163R,0.04600X0.00050*%
%ADD164R,0.04150X0.00050*%
%ADD165R,0.04000X0.00050*%
%ADD166R,0.03650X0.00050*%
%ADD167R,0.03200X0.00050*%
%ADD168R,0.02950X0.00050*%
%ADD169R,0.02350X0.00050*%
%ADD170R,0.03100X0.00050*%
%ADD171R,0.03550X0.00050*%
%ADD172R,0.03700X0.00050*%
%ADD173R,0.04650X0.00050*%
%ADD174R,0.04500X0.00050*%
%ADD175R,0.03350X0.00050*%
%ADD176R,0.02850X0.00050*%
D10*
X0066684Y0016517D02*
X0067151Y0016050D01*
X0068085Y0016050D01*
X0068552Y0016517D01*
X0066684Y0018385D01*
X0066684Y0016517D01*
X0066684Y0018385D02*
X0067151Y0018852D01*
X0068085Y0018852D01*
X0068552Y0018385D01*
X0068552Y0016517D01*
X0069466Y0016517D02*
X0069466Y0016050D01*
X0069934Y0016050D01*
X0069934Y0016517D01*
X0069466Y0016517D01*
X0070828Y0016050D02*
X0072696Y0016050D01*
X0071762Y0016050D02*
X0071762Y0018852D01*
X0072696Y0017918D01*
X0073590Y0016984D02*
X0073590Y0018852D01*
X0073590Y0016984D02*
X0074524Y0016050D01*
X0075458Y0016984D01*
X0075458Y0018852D01*
X0079115Y0018385D02*
X0079582Y0018852D01*
X0080516Y0018852D01*
X0080983Y0018385D01*
X0080983Y0017918D01*
X0080516Y0017451D01*
X0079582Y0017451D01*
X0079115Y0016984D01*
X0079115Y0016517D01*
X0079582Y0016050D01*
X0080516Y0016050D01*
X0080983Y0016517D01*
X0081877Y0016050D02*
X0083745Y0016050D01*
X0082811Y0016050D02*
X0082811Y0018852D01*
X0083745Y0017918D01*
X0086047Y0020550D02*
X0086047Y0022418D01*
X0086047Y0021484D02*
X0085113Y0022418D01*
X0084646Y0022418D01*
X0086941Y0021951D02*
X0086941Y0021484D01*
X0088810Y0021484D01*
X0088810Y0021017D02*
X0088810Y0021951D01*
X0088343Y0022418D01*
X0087408Y0022418D01*
X0086941Y0021951D01*
X0087408Y0020550D02*
X0088343Y0020550D01*
X0088810Y0021017D01*
X0089717Y0020550D02*
X0090651Y0020550D01*
X0090184Y0020550D02*
X0090184Y0023352D01*
X0090651Y0023352D01*
X0091545Y0023352D02*
X0091545Y0020550D01*
X0092946Y0020550D01*
X0093414Y0021017D01*
X0093414Y0021951D01*
X0092946Y0022418D01*
X0091545Y0022418D01*
X0094308Y0021951D02*
X0094308Y0020550D01*
X0094308Y0021951D02*
X0094775Y0022418D01*
X0096176Y0022418D01*
X0096176Y0020550D01*
X0097070Y0021484D02*
X0098938Y0021484D01*
X0098938Y0021017D02*
X0098938Y0021951D01*
X0098471Y0022418D01*
X0097537Y0022418D01*
X0097070Y0021951D01*
X0097070Y0021484D01*
X0097537Y0020550D02*
X0098471Y0020550D01*
X0098938Y0021017D01*
X0099832Y0020550D02*
X0099832Y0023352D01*
X0101701Y0023352D02*
X0101701Y0020550D01*
X0100766Y0021484D01*
X0099832Y0020550D01*
X0099859Y0018852D02*
X0099859Y0016050D01*
X0097991Y0016050D01*
X0097097Y0016517D02*
X0096630Y0016984D01*
X0095228Y0016984D01*
X0095228Y0017451D02*
X0095228Y0016050D01*
X0096630Y0016050D01*
X0097097Y0016517D01*
X0096630Y0017918D02*
X0095695Y0017918D01*
X0095228Y0017451D01*
X0094334Y0017451D02*
X0094334Y0016517D01*
X0093867Y0016050D01*
X0092466Y0016050D01*
X0092466Y0018852D01*
X0092466Y0017918D02*
X0093867Y0017918D01*
X0094334Y0017451D01*
X0091572Y0017451D02*
X0091572Y0016517D01*
X0091105Y0016050D01*
X0090171Y0016050D01*
X0089704Y0016984D02*
X0091572Y0016984D01*
X0091572Y0017451D02*
X0091105Y0017918D01*
X0090171Y0017918D01*
X0089704Y0017451D01*
X0089704Y0016984D01*
X0088810Y0016984D02*
X0087875Y0017918D01*
X0087408Y0017918D01*
X0088810Y0017918D02*
X0088810Y0016050D01*
X0089250Y0014352D02*
X0088783Y0013885D01*
X0088783Y0013418D01*
X0089250Y0012951D01*
X0090184Y0012951D01*
X0090651Y0013418D01*
X0090651Y0013885D01*
X0090184Y0014352D01*
X0089250Y0014352D01*
X0089250Y0012951D02*
X0088783Y0012484D01*
X0088783Y0012017D01*
X0089250Y0011550D01*
X0090184Y0011550D01*
X0090651Y0012017D01*
X0090651Y0012484D01*
X0090184Y0012951D01*
X0091545Y0011550D02*
X0093414Y0011550D01*
X0092479Y0011550D02*
X0092479Y0014352D01*
X0093414Y0013418D01*
X0094308Y0013885D02*
X0094308Y0012017D01*
X0094775Y0011550D01*
X0095709Y0011550D01*
X0096176Y0012017D01*
X0094308Y0013885D01*
X0094775Y0014352D01*
X0095709Y0014352D01*
X0096176Y0013885D01*
X0096176Y0012017D01*
X0097070Y0011550D02*
X0098938Y0011550D01*
X0097070Y0013418D01*
X0097070Y0013885D01*
X0097537Y0014352D01*
X0098471Y0014352D01*
X0098938Y0013885D01*
X0099852Y0012017D02*
X0099852Y0011550D01*
X0100319Y0011550D01*
X0100319Y0012017D01*
X0099852Y0012017D01*
X0101214Y0013885D02*
X0103082Y0012017D01*
X0103082Y0011550D01*
X0103976Y0012017D02*
X0104443Y0011550D01*
X0105377Y0011550D01*
X0105844Y0012017D01*
X0103976Y0013885D01*
X0103976Y0012017D01*
X0105844Y0012017D02*
X0105844Y0013885D01*
X0105377Y0014352D01*
X0104443Y0014352D01*
X0103976Y0013885D01*
X0103082Y0014352D02*
X0101214Y0014352D01*
X0101214Y0013885D01*
X0103515Y0016517D02*
X0103515Y0017451D01*
X0103983Y0017918D01*
X0104917Y0017918D01*
X0105384Y0017451D01*
X0105384Y0016517D01*
X0104917Y0016050D01*
X0103983Y0016050D01*
X0103515Y0016517D01*
X0106278Y0017451D02*
X0106745Y0016984D01*
X0108146Y0016984D01*
X0108146Y0016050D02*
X0108146Y0018852D01*
X0106745Y0018852D01*
X0106278Y0018385D01*
X0106278Y0017451D01*
X0105357Y0020550D02*
X0105357Y0021951D01*
X0105824Y0022418D01*
X0107225Y0022418D01*
X0107225Y0020550D01*
X0108119Y0020550D02*
X0108119Y0021951D01*
X0108586Y0022418D01*
X0109521Y0022418D01*
X0109521Y0021484D02*
X0108119Y0021484D01*
X0108119Y0020550D02*
X0109521Y0020550D01*
X0109988Y0021017D01*
X0109521Y0021484D01*
X0111349Y0021017D02*
X0111349Y0023352D01*
X0111816Y0023352D02*
X0110882Y0023352D01*
X0111349Y0021017D02*
X0111816Y0020550D01*
X0112283Y0020550D01*
X0112750Y0021017D01*
X0112750Y0018852D02*
X0112750Y0016050D01*
X0110882Y0016050D01*
X0109988Y0016050D02*
X0109054Y0016050D01*
X0109521Y0016050D02*
X0109521Y0017918D01*
X0109988Y0017918D01*
X0109521Y0018852D02*
X0109521Y0019319D01*
X0108586Y0014352D02*
X0109988Y0012951D01*
X0108119Y0012951D01*
X0107225Y0012017D02*
X0106758Y0012017D01*
X0106758Y0011550D01*
X0107225Y0011550D01*
X0107225Y0012017D01*
X0108586Y0011550D02*
X0108586Y0014352D01*
X0110882Y0013885D02*
X0110882Y0012017D01*
X0111349Y0011550D01*
X0112283Y0011550D01*
X0112750Y0012017D01*
X0110882Y0013885D01*
X0111349Y0014352D01*
X0112283Y0014352D01*
X0112750Y0013885D01*
X0112750Y0012017D01*
D11*
X0053725Y0020350D03*
X0053725Y0020400D03*
X0053825Y0021200D03*
X0053825Y0021250D03*
X0053775Y0021350D03*
X0053725Y0021500D03*
X0052975Y0019650D03*
X0053075Y0019450D03*
X0053125Y0019400D03*
X0052225Y0020650D03*
X0052225Y0020700D03*
X0051525Y0021300D03*
X0051525Y0021350D03*
X0051525Y0021400D03*
X0050825Y0021350D03*
X0050825Y0021300D03*
X0050825Y0021250D03*
X0050825Y0021200D03*
X0050775Y0020950D03*
X0050775Y0020900D03*
X0050775Y0020850D03*
X0050775Y0020800D03*
X0050775Y0020750D03*
X0050775Y0020700D03*
X0050725Y0020400D03*
X0050725Y0020350D03*
X0050625Y0019500D03*
X0050625Y0019450D03*
X0050625Y0019400D03*
X0050625Y0019350D03*
X0050625Y0019300D03*
X0050625Y0019250D03*
X0050625Y0019200D03*
X0050625Y0019150D03*
X0050625Y0019100D03*
X0050625Y0019050D03*
X0050625Y0019000D03*
X0050625Y0018950D03*
X0050625Y0018900D03*
X0049025Y0018400D03*
X0049025Y0018350D03*
X0049025Y0018300D03*
X0049075Y0018200D03*
X0049075Y0018150D03*
X0048975Y0018500D03*
X0048975Y0018550D03*
X0048975Y0018600D03*
X0049375Y0016750D03*
X0052275Y0023050D03*
X0052075Y0023700D03*
X0052075Y0023750D03*
X0052075Y0023800D03*
X0052075Y0023850D03*
X0051575Y0031750D03*
X0051575Y0031800D03*
X0051575Y0031850D03*
X0051575Y0031900D03*
X0051575Y0031950D03*
X0051575Y0032000D03*
X0051575Y0032050D03*
X0051575Y0032100D03*
X0051575Y0032150D03*
X0051575Y0032200D03*
X0051575Y0032250D03*
X0051575Y0032300D03*
X0051575Y0032350D03*
X0051575Y0032400D03*
X0051575Y0035100D03*
X0033625Y0020850D03*
X0033575Y0020800D03*
X0033525Y0020700D03*
X0033475Y0020650D03*
X0033425Y0020550D03*
X0033375Y0020500D03*
X0033375Y0020450D03*
X0033325Y0020400D03*
X0033275Y0020300D03*
X0033225Y0020200D03*
X0033125Y0020000D03*
X0032475Y0018200D03*
X0030525Y0018150D03*
X0030525Y0018350D03*
X0030275Y0018650D03*
X0030225Y0019700D03*
X0030725Y0019700D03*
X0030725Y0019650D03*
X0030725Y0019600D03*
X0030975Y0024450D03*
X0030975Y0025550D03*
D12*
X0028900Y0020750D03*
X0028950Y0020700D03*
X0030550Y0018050D03*
X0032400Y0018100D03*
X0032250Y0016900D03*
X0035150Y0020900D03*
X0035100Y0021000D03*
X0034750Y0023400D03*
X0030450Y0032150D03*
X0030500Y0038150D03*
X0045550Y0027200D03*
X0045600Y0027150D03*
X0045650Y0027100D03*
X0045700Y0027050D03*
X0045800Y0026900D03*
X0045850Y0026850D03*
X0045900Y0026800D03*
X0046450Y0026000D03*
X0046450Y0025950D03*
X0046500Y0025850D03*
X0049400Y0023550D03*
X0049400Y0023500D03*
X0049350Y0023450D03*
X0049300Y0023350D03*
X0049250Y0023250D03*
X0049200Y0023200D03*
X0049450Y0023600D03*
X0049500Y0023650D03*
X0049500Y0023700D03*
X0049550Y0023750D03*
X0049600Y0023800D03*
X0049600Y0023850D03*
X0049650Y0023900D03*
X0049700Y0024000D03*
X0049750Y0024050D03*
X0049800Y0024150D03*
X0049900Y0024300D03*
X0050000Y0024450D03*
X0051550Y0022350D03*
X0051550Y0021500D03*
X0053000Y0021950D03*
X0052950Y0022100D03*
X0052900Y0022250D03*
X0053050Y0021800D03*
X0052800Y0023100D03*
X0052800Y0023150D03*
X0053750Y0020150D03*
X0053750Y0020100D03*
X0054100Y0019150D03*
X0053550Y0019050D03*
X0053550Y0018800D03*
X0053650Y0017750D03*
X0049350Y0016800D03*
X0049200Y0017700D03*
X0049150Y0018000D03*
X0049000Y0018700D03*
X0047250Y0020000D03*
X0047300Y0020100D03*
X0047350Y0020150D03*
X0047050Y0019700D03*
X0046350Y0020050D03*
X0046300Y0020000D03*
X0046250Y0019950D03*
X0046200Y0019850D03*
X0046150Y0019800D03*
X0046150Y0019750D03*
X0046100Y0019700D03*
X0046050Y0019650D03*
X0046050Y0019600D03*
X0046000Y0019550D03*
X0045950Y0019500D03*
X0045900Y0019450D03*
X0045850Y0019350D03*
X0045800Y0019300D03*
X0045750Y0019250D03*
X0045550Y0019000D03*
X0045500Y0018950D03*
X0047100Y0022200D03*
X0051550Y0029000D03*
X0051550Y0029050D03*
X0051550Y0029100D03*
X0051600Y0034000D03*
X0051600Y0034950D03*
X0025250Y0019800D03*
D13*
X0029600Y0019700D03*
X0029600Y0019650D03*
X0029650Y0019750D03*
X0029650Y0019800D03*
X0032250Y0016850D03*
X0034350Y0022350D03*
X0032250Y0023250D03*
X0031050Y0027650D03*
X0031050Y0027700D03*
X0031050Y0027750D03*
X0031050Y0027800D03*
X0031050Y0027850D03*
X0031050Y0027900D03*
X0031100Y0028850D03*
X0031100Y0028900D03*
X0029650Y0031600D03*
X0029650Y0032100D03*
X0029650Y0032150D03*
X0051600Y0035900D03*
X0051600Y0035950D03*
X0051600Y0036000D03*
X0051600Y0036050D03*
X0051600Y0036100D03*
X0051600Y0036150D03*
X0051600Y0036200D03*
X0051600Y0036250D03*
X0051600Y0036300D03*
X0051600Y0036350D03*
X0051600Y0036400D03*
X0051600Y0036450D03*
X0051600Y0036500D03*
X0051600Y0036550D03*
X0051600Y0036600D03*
X0051600Y0036650D03*
X0051600Y0036700D03*
X0051600Y0036750D03*
X0051600Y0036800D03*
X0051600Y0036850D03*
X0051600Y0036900D03*
X0051600Y0036950D03*
X0051600Y0037000D03*
X0051600Y0037050D03*
X0051600Y0037100D03*
X0051600Y0037150D03*
X0054000Y0020800D03*
X0053850Y0020700D03*
X0053900Y0020600D03*
X0054000Y0020300D03*
X0053950Y0020250D03*
X0053550Y0020250D03*
X0053400Y0020400D03*
X0053350Y0020500D03*
X0053350Y0020600D03*
X0053600Y0020700D03*
X0052800Y0020000D03*
X0052850Y0019850D03*
X0052850Y0019800D03*
X0053050Y0019600D03*
X0053100Y0019550D03*
X0052300Y0019450D03*
X0052200Y0019300D03*
X0052200Y0019150D03*
X0052150Y0018950D03*
X0052350Y0018900D03*
D14*
X0053700Y0019350D03*
X0051450Y0021550D03*
X0051450Y0021600D03*
X0051400Y0021650D03*
X0051400Y0021700D03*
X0051900Y0022100D03*
X0052000Y0024750D03*
X0052000Y0024800D03*
X0051400Y0025650D03*
X0049300Y0019500D03*
X0040950Y0016850D03*
X0030300Y0019950D03*
D15*
X0031400Y0020550D03*
X0031700Y0020800D03*
X0031750Y0020850D03*
X0031800Y0020900D03*
X0031850Y0020950D03*
X0032000Y0021050D03*
X0032050Y0021100D03*
X0032100Y0021150D03*
X0032150Y0021200D03*
X0032400Y0021400D03*
X0032450Y0021450D03*
X0032500Y0021500D03*
X0032750Y0021700D03*
X0034900Y0021500D03*
X0032400Y0018050D03*
X0032250Y0016950D03*
X0030550Y0017100D03*
X0030550Y0017150D03*
X0030550Y0017200D03*
X0030550Y0017250D03*
X0030550Y0017300D03*
X0030550Y0017350D03*
X0030550Y0017400D03*
X0030550Y0017450D03*
X0030550Y0017500D03*
X0030550Y0017550D03*
X0030500Y0018500D03*
X0028850Y0020850D03*
X0028750Y0020900D03*
X0028700Y0020950D03*
X0028150Y0021400D03*
X0028100Y0021450D03*
X0028050Y0021500D03*
X0028000Y0021550D03*
X0027850Y0021650D03*
X0026900Y0021500D03*
X0026700Y0021300D03*
X0026600Y0021200D03*
X0026550Y0021150D03*
X0026500Y0021100D03*
X0026450Y0021050D03*
X0026400Y0021000D03*
X0026350Y0020950D03*
X0026300Y0020900D03*
X0026250Y0020850D03*
X0026200Y0020800D03*
X0026150Y0020750D03*
X0026100Y0020700D03*
X0026050Y0020650D03*
X0026000Y0020600D03*
X0025950Y0020550D03*
X0025900Y0020500D03*
X0025850Y0020450D03*
X0025800Y0020400D03*
X0025750Y0020350D03*
X0025700Y0020300D03*
X0025650Y0020250D03*
X0025600Y0020200D03*
X0025550Y0020150D03*
X0025500Y0020100D03*
X0025450Y0020050D03*
X0025400Y0020000D03*
X0025350Y0019950D03*
X0024950Y0019550D03*
X0030350Y0024400D03*
X0030350Y0024450D03*
X0030350Y0024500D03*
X0030350Y0024550D03*
X0030350Y0024600D03*
X0030350Y0024650D03*
X0030350Y0024700D03*
X0030350Y0024750D03*
X0030350Y0024800D03*
X0030350Y0024850D03*
X0030350Y0024900D03*
X0030350Y0024950D03*
X0030350Y0025000D03*
X0030350Y0025050D03*
X0030350Y0025100D03*
X0030350Y0025150D03*
X0030350Y0025200D03*
X0030350Y0025250D03*
X0030350Y0025300D03*
X0030350Y0025350D03*
X0030350Y0025400D03*
X0030350Y0025450D03*
X0030350Y0025500D03*
X0030350Y0025550D03*
X0030350Y0025600D03*
X0030350Y0025650D03*
X0030350Y0025700D03*
X0030350Y0025750D03*
X0030350Y0025800D03*
X0030350Y0025850D03*
X0030350Y0025900D03*
X0030350Y0025950D03*
X0030350Y0026000D03*
X0030350Y0026050D03*
X0030350Y0026100D03*
X0030350Y0026150D03*
X0030350Y0026200D03*
X0030350Y0026250D03*
X0030350Y0026300D03*
X0030350Y0026350D03*
X0030350Y0026400D03*
X0030350Y0026450D03*
X0030350Y0026500D03*
X0030350Y0026550D03*
X0030350Y0026600D03*
X0030350Y0026650D03*
X0030350Y0026700D03*
X0030350Y0026750D03*
X0030350Y0026800D03*
X0030350Y0026850D03*
X0030350Y0026900D03*
X0030350Y0026950D03*
X0030350Y0027000D03*
X0030350Y0027050D03*
X0030350Y0027100D03*
X0030350Y0027150D03*
X0030350Y0027200D03*
X0030350Y0027250D03*
X0030350Y0027300D03*
X0030400Y0031500D03*
X0030500Y0038200D03*
X0045100Y0027650D03*
X0045150Y0027600D03*
X0045200Y0027550D03*
X0045250Y0027500D03*
X0046400Y0026100D03*
X0049150Y0023050D03*
X0048800Y0022500D03*
X0048750Y0022450D03*
X0048750Y0022400D03*
X0048700Y0022350D03*
X0048650Y0022300D03*
X0048650Y0022250D03*
X0048600Y0022200D03*
X0048550Y0022150D03*
X0048550Y0022100D03*
X0048500Y0022050D03*
X0048450Y0021950D03*
X0048400Y0021900D03*
X0048350Y0021800D03*
X0048300Y0021750D03*
X0048250Y0021650D03*
X0048200Y0021600D03*
X0048100Y0021450D03*
X0048050Y0021400D03*
X0047150Y0022100D03*
X0046450Y0020150D03*
X0047000Y0019600D03*
X0045450Y0018900D03*
X0045300Y0018750D03*
X0045250Y0018700D03*
X0045200Y0018650D03*
X0045150Y0018600D03*
X0045100Y0018550D03*
X0045050Y0018500D03*
X0045000Y0018450D03*
X0049050Y0018750D03*
X0049150Y0017900D03*
X0049150Y0017850D03*
X0049250Y0017550D03*
X0049250Y0017500D03*
X0049350Y0016850D03*
X0053550Y0018450D03*
X0053550Y0018500D03*
X0053550Y0018550D03*
X0053550Y0018600D03*
X0053550Y0018650D03*
X0053550Y0018700D03*
X0051550Y0022900D03*
X0051550Y0022950D03*
X0051550Y0023000D03*
X0051550Y0023050D03*
X0051550Y0023100D03*
X0051550Y0023150D03*
X0051550Y0023200D03*
X0051550Y0023250D03*
X0051550Y0023300D03*
X0051550Y0023350D03*
X0051550Y0023400D03*
X0051550Y0023450D03*
X0051550Y0023500D03*
X0051550Y0023550D03*
X0051550Y0023600D03*
X0051550Y0023650D03*
X0051550Y0023700D03*
X0051550Y0023750D03*
X0051550Y0023800D03*
X0051550Y0023850D03*
X0051550Y0023900D03*
X0051550Y0023950D03*
X0051550Y0024000D03*
X0051550Y0024050D03*
X0051550Y0024100D03*
X0052750Y0023500D03*
X0052750Y0023450D03*
X0052750Y0023400D03*
X0051550Y0025950D03*
X0051550Y0026000D03*
X0051550Y0026050D03*
X0051550Y0026100D03*
X0051550Y0026150D03*
X0051550Y0026200D03*
X0051550Y0026250D03*
X0051550Y0026300D03*
X0051550Y0026350D03*
X0051550Y0026400D03*
X0051550Y0026450D03*
X0051550Y0026500D03*
X0051550Y0026550D03*
X0051550Y0026600D03*
X0051550Y0026650D03*
X0051550Y0026700D03*
X0051550Y0026750D03*
X0051550Y0026800D03*
X0051550Y0026850D03*
X0051550Y0026900D03*
X0051550Y0026950D03*
X0051550Y0027000D03*
X0051550Y0027050D03*
X0051550Y0027100D03*
X0051550Y0027150D03*
X0051550Y0027200D03*
X0051550Y0027250D03*
X0051550Y0027300D03*
X0051550Y0027350D03*
X0051550Y0027400D03*
X0051550Y0027450D03*
X0051550Y0027500D03*
X0051550Y0027550D03*
X0051550Y0027600D03*
X0051550Y0027650D03*
X0051550Y0027700D03*
X0051550Y0027750D03*
X0051550Y0027800D03*
X0051550Y0027850D03*
X0051550Y0027900D03*
X0051550Y0027950D03*
X0051550Y0028000D03*
X0051550Y0028050D03*
X0051550Y0028100D03*
X0051550Y0028150D03*
X0051550Y0028200D03*
X0051550Y0028250D03*
X0051550Y0028300D03*
X0051550Y0028350D03*
X0051550Y0028850D03*
X0051550Y0028900D03*
X0051600Y0032900D03*
D16*
X0040975Y0016900D03*
D17*
X0024675Y0018800D03*
X0024925Y0019500D03*
X0026675Y0021250D03*
X0026775Y0021350D03*
X0026825Y0021400D03*
X0026875Y0021450D03*
X0026975Y0021550D03*
X0027025Y0021600D03*
X0027075Y0021650D03*
X0027925Y0021600D03*
X0028225Y0021350D03*
X0028275Y0021300D03*
X0028325Y0021250D03*
X0028425Y0021200D03*
X0028625Y0021050D03*
X0028675Y0021000D03*
X0029075Y0020650D03*
X0029125Y0020600D03*
X0029375Y0020400D03*
X0031325Y0020500D03*
X0031475Y0020600D03*
X0031525Y0020650D03*
X0031575Y0020700D03*
X0031625Y0020750D03*
X0031925Y0021000D03*
X0032425Y0018000D03*
X0032425Y0017950D03*
X0032375Y0017850D03*
X0032375Y0017800D03*
X0032325Y0017700D03*
X0032325Y0017650D03*
X0036525Y0018800D03*
X0036575Y0018750D03*
X0036625Y0018700D03*
X0036675Y0018650D03*
X0044725Y0018250D03*
X0044875Y0018350D03*
X0044925Y0018400D03*
X0046825Y0018800D03*
X0047025Y0019500D03*
X0047025Y0019550D03*
X0048625Y0019900D03*
X0048675Y0019850D03*
X0049275Y0017450D03*
X0049375Y0016900D03*
X0053575Y0018200D03*
X0053575Y0018250D03*
X0053575Y0018300D03*
X0053575Y0018350D03*
X0053575Y0018400D03*
X0053625Y0017850D03*
X0053625Y0017800D03*
X0053475Y0019150D03*
X0052725Y0023550D03*
X0052725Y0023600D03*
X0052675Y0023650D03*
X0052675Y0023700D03*
X0049125Y0023000D03*
X0047175Y0022050D03*
X0046425Y0026150D03*
X0046575Y0026800D03*
X0045075Y0027700D03*
X0051625Y0032950D03*
X0051625Y0034850D03*
X0030375Y0031550D03*
D18*
X0033650Y0038050D03*
X0040950Y0016950D03*
D19*
X0037275Y0018150D03*
X0037125Y0018250D03*
X0037075Y0018300D03*
X0037025Y0018350D03*
X0036425Y0018850D03*
X0035625Y0019750D03*
X0034475Y0020850D03*
X0034425Y0020900D03*
X0034375Y0020950D03*
X0034625Y0023450D03*
X0032275Y0017400D03*
X0032275Y0017350D03*
X0032275Y0017300D03*
X0032275Y0017250D03*
X0032275Y0017200D03*
X0032275Y0017150D03*
X0032275Y0017100D03*
X0028575Y0021100D03*
X0028525Y0021150D03*
X0027525Y0022050D03*
X0027475Y0022000D03*
X0024875Y0019400D03*
X0024825Y0019350D03*
X0024825Y0019300D03*
X0029025Y0023550D03*
X0029075Y0023600D03*
X0029125Y0023650D03*
X0030325Y0031600D03*
X0030325Y0032100D03*
X0030575Y0038300D03*
X0046675Y0027100D03*
X0046675Y0027050D03*
X0046625Y0026950D03*
X0046425Y0026250D03*
X0046425Y0026200D03*
X0047225Y0021950D03*
X0046625Y0020300D03*
X0046975Y0019350D03*
X0046975Y0019300D03*
X0046975Y0019250D03*
X0048325Y0020200D03*
X0048375Y0020150D03*
X0048425Y0020100D03*
X0048475Y0020050D03*
X0050825Y0018700D03*
X0049325Y0017300D03*
X0049325Y0017250D03*
X0049375Y0017050D03*
X0049375Y0017000D03*
X0049375Y0016950D03*
X0044525Y0018100D03*
X0044475Y0018050D03*
X0052275Y0022250D03*
X0052625Y0023850D03*
X0051525Y0028650D03*
X0051525Y0028800D03*
X0051625Y0033000D03*
D20*
X0051575Y0032550D03*
X0051575Y0032500D03*
X0051575Y0032450D03*
X0051625Y0034100D03*
X0051625Y0035000D03*
X0051525Y0029700D03*
X0051525Y0029650D03*
X0051525Y0029600D03*
X0051525Y0029550D03*
X0051525Y0029500D03*
X0051525Y0029450D03*
X0051525Y0029400D03*
X0051525Y0029350D03*
X0051525Y0029300D03*
X0051525Y0029250D03*
X0051525Y0029200D03*
X0051525Y0029150D03*
X0050625Y0025350D03*
X0050575Y0025300D03*
X0050525Y0025200D03*
X0050475Y0025150D03*
X0050425Y0025100D03*
X0050375Y0025000D03*
X0050325Y0024950D03*
X0050275Y0024900D03*
X0050275Y0024850D03*
X0050225Y0024800D03*
X0050175Y0024750D03*
X0050175Y0024700D03*
X0050125Y0024650D03*
X0050075Y0024600D03*
X0050075Y0024550D03*
X0050025Y0024500D03*
X0049975Y0024400D03*
X0049925Y0024350D03*
X0049875Y0024250D03*
X0049825Y0024200D03*
X0049775Y0024100D03*
X0049675Y0023950D03*
X0050925Y0021500D03*
X0050875Y0021450D03*
X0050775Y0020250D03*
X0050625Y0019550D03*
X0050675Y0018800D03*
X0048975Y0018650D03*
X0047225Y0019950D03*
X0047275Y0020050D03*
X0046225Y0019900D03*
X0046775Y0018750D03*
X0047125Y0022250D03*
X0047125Y0022550D03*
X0047125Y0022600D03*
X0047125Y0023600D03*
X0047125Y0023650D03*
X0047125Y0023700D03*
X0047075Y0024000D03*
X0047075Y0024050D03*
X0047025Y0024300D03*
X0047025Y0024350D03*
X0046975Y0024550D03*
X0046925Y0024700D03*
X0046925Y0024750D03*
X0046875Y0024900D03*
X0046875Y0024950D03*
X0046825Y0025050D03*
X0046825Y0025100D03*
X0046775Y0025200D03*
X0046725Y0025300D03*
X0046725Y0025350D03*
X0046675Y0025450D03*
X0046625Y0025550D03*
X0046625Y0025600D03*
X0046575Y0025650D03*
X0046575Y0025700D03*
X0046525Y0025750D03*
X0046525Y0025800D03*
X0046475Y0025900D03*
X0052925Y0022200D03*
X0052925Y0022150D03*
X0052975Y0022050D03*
X0052975Y0022000D03*
X0053025Y0021900D03*
X0053025Y0021850D03*
X0053075Y0021750D03*
X0053075Y0021700D03*
X0053125Y0021600D03*
X0053125Y0021550D03*
X0053175Y0021400D03*
X0053225Y0021250D03*
X0053275Y0021100D03*
X0053325Y0021000D03*
X0053325Y0020950D03*
X0053375Y0020900D03*
X0053375Y0020850D03*
X0053725Y0020450D03*
X0053575Y0018850D03*
X0034825Y0022350D03*
X0034775Y0022800D03*
X0034775Y0022850D03*
X0034775Y0022900D03*
X0034775Y0022950D03*
X0034775Y0023000D03*
X0034775Y0023050D03*
X0034775Y0023100D03*
X0034775Y0023150D03*
X0034775Y0023200D03*
X0034775Y0023250D03*
X0034775Y0023300D03*
X0034775Y0023350D03*
X0030525Y0018400D03*
X0030525Y0018100D03*
X0030575Y0017000D03*
X0025225Y0019750D03*
X0030475Y0032200D03*
X0030475Y0038050D03*
X0030475Y0038100D03*
D21*
X0030550Y0038250D03*
X0030350Y0024350D03*
X0028950Y0023500D03*
X0028900Y0023450D03*
X0028850Y0023400D03*
X0028800Y0023350D03*
X0028750Y0023300D03*
X0028700Y0023250D03*
X0028650Y0023200D03*
X0028600Y0023150D03*
X0028550Y0023100D03*
X0028500Y0023050D03*
X0028450Y0023000D03*
X0028400Y0022950D03*
X0028350Y0022900D03*
X0028300Y0022850D03*
X0028250Y0022800D03*
X0028200Y0022750D03*
X0028150Y0022700D03*
X0028100Y0022650D03*
X0028050Y0022600D03*
X0028000Y0022550D03*
X0027950Y0022500D03*
X0027900Y0022450D03*
X0027850Y0022400D03*
X0027800Y0022350D03*
X0027750Y0022300D03*
X0027700Y0022250D03*
X0027650Y0022200D03*
X0027600Y0022150D03*
X0027550Y0022100D03*
X0029150Y0020550D03*
X0029200Y0020500D03*
X0029250Y0020450D03*
X0029450Y0020350D03*
X0030500Y0018600D03*
X0030500Y0018550D03*
X0032400Y0017900D03*
X0032350Y0017750D03*
X0032300Y0017600D03*
X0032300Y0017550D03*
X0032300Y0017500D03*
X0032300Y0017450D03*
X0032250Y0017050D03*
X0032250Y0017000D03*
X0036750Y0018600D03*
X0036800Y0018550D03*
X0036850Y0018500D03*
X0036900Y0018450D03*
X0036950Y0018400D03*
X0034850Y0021550D03*
X0024900Y0019450D03*
X0044600Y0018150D03*
X0044650Y0018200D03*
X0044800Y0018300D03*
X0046500Y0020200D03*
X0046550Y0020250D03*
X0047000Y0019450D03*
X0047000Y0019400D03*
X0046850Y0018850D03*
X0048500Y0020000D03*
X0048550Y0019950D03*
X0049100Y0018800D03*
X0049300Y0017400D03*
X0049300Y0017350D03*
X0052050Y0018700D03*
X0053600Y0018150D03*
X0053600Y0018100D03*
X0053600Y0018050D03*
X0053600Y0018000D03*
X0053600Y0017950D03*
X0053600Y0017900D03*
X0053850Y0020050D03*
X0052650Y0023750D03*
X0052650Y0023800D03*
X0051550Y0025900D03*
X0051550Y0028400D03*
X0051550Y0028450D03*
X0051550Y0028500D03*
X0051550Y0028550D03*
X0051550Y0028600D03*
X0049150Y0022950D03*
X0047200Y0022000D03*
X0046600Y0026850D03*
X0046600Y0026900D03*
X0046650Y0027000D03*
D22*
X0040950Y0017000D03*
D23*
X0045375Y0018800D03*
X0045425Y0018850D03*
X0045575Y0019050D03*
X0045625Y0019100D03*
X0045675Y0019150D03*
X0045725Y0019200D03*
X0045875Y0019400D03*
X0046375Y0020100D03*
X0047025Y0019650D03*
X0047375Y0020200D03*
X0047425Y0020250D03*
X0047475Y0020300D03*
X0048125Y0021500D03*
X0048175Y0021550D03*
X0048275Y0021700D03*
X0048375Y0021850D03*
X0048475Y0022000D03*
X0049175Y0023100D03*
X0049175Y0023150D03*
X0049275Y0023300D03*
X0049325Y0023400D03*
X0047125Y0022150D03*
X0049175Y0017950D03*
X0049175Y0017800D03*
X0049175Y0017750D03*
X0049225Y0017650D03*
X0049225Y0017600D03*
X0050725Y0018750D03*
X0052125Y0018750D03*
X0053525Y0018750D03*
X0053525Y0019100D03*
X0053725Y0020200D03*
X0053725Y0020500D03*
X0053725Y0020550D03*
X0051525Y0020300D03*
X0051525Y0022250D03*
X0051525Y0022300D03*
X0051525Y0022400D03*
X0051525Y0022450D03*
X0051525Y0022500D03*
X0051525Y0022550D03*
X0051525Y0022600D03*
X0051525Y0022650D03*
X0051525Y0022700D03*
X0051525Y0022750D03*
X0051525Y0022800D03*
X0051525Y0022850D03*
X0052775Y0023050D03*
X0052775Y0023200D03*
X0052775Y0023250D03*
X0052775Y0023300D03*
X0052775Y0023350D03*
X0051575Y0028950D03*
X0051575Y0032600D03*
X0051575Y0032650D03*
X0051575Y0032700D03*
X0051575Y0032750D03*
X0051575Y0032800D03*
X0051575Y0032850D03*
X0051625Y0034900D03*
X0045325Y0027450D03*
X0045375Y0027400D03*
X0045425Y0027350D03*
X0045475Y0027300D03*
X0045525Y0027250D03*
X0045725Y0027000D03*
X0045775Y0026950D03*
X0046425Y0026050D03*
X0034975Y0021400D03*
X0034975Y0021350D03*
X0034975Y0021300D03*
X0035025Y0021250D03*
X0035025Y0021200D03*
X0035025Y0021150D03*
X0035075Y0021100D03*
X0035075Y0021050D03*
X0035125Y0020950D03*
X0035175Y0020850D03*
X0034925Y0021450D03*
X0032675Y0021650D03*
X0032625Y0021600D03*
X0032575Y0021550D03*
X0032325Y0021350D03*
X0032275Y0021300D03*
X0032225Y0021250D03*
X0030525Y0018450D03*
X0030525Y0018000D03*
X0030525Y0017950D03*
X0030525Y0017900D03*
X0030525Y0017850D03*
X0030525Y0017800D03*
X0030525Y0017750D03*
X0030525Y0017700D03*
X0030525Y0017650D03*
X0030525Y0017600D03*
X0030575Y0017050D03*
X0028875Y0020800D03*
X0025275Y0019900D03*
X0025275Y0019850D03*
X0025075Y0019700D03*
X0025025Y0019650D03*
X0024975Y0019600D03*
X0030375Y0027350D03*
X0030375Y0027400D03*
X0030375Y0027450D03*
X0030375Y0027500D03*
X0030375Y0027550D03*
X0030375Y0027600D03*
X0030375Y0027650D03*
X0030375Y0027700D03*
X0030375Y0027750D03*
X0030375Y0027800D03*
X0030375Y0027850D03*
X0030375Y0027900D03*
X0030375Y0027950D03*
X0030375Y0028000D03*
X0030375Y0028050D03*
X0030375Y0028100D03*
X0030375Y0028150D03*
X0030375Y0028200D03*
X0030375Y0028250D03*
X0030375Y0028300D03*
X0030375Y0028350D03*
X0030375Y0028400D03*
X0030375Y0028450D03*
X0030375Y0028500D03*
X0030375Y0028550D03*
X0030375Y0028600D03*
X0030375Y0028650D03*
X0030375Y0028700D03*
X0030375Y0028750D03*
X0030375Y0028800D03*
X0030375Y0028850D03*
X0030375Y0028900D03*
X0030375Y0028950D03*
X0030375Y0029000D03*
X0030375Y0029050D03*
X0030375Y0029100D03*
X0030375Y0029150D03*
X0030375Y0029200D03*
X0030375Y0029250D03*
X0030375Y0029300D03*
X0030375Y0029350D03*
X0030375Y0029400D03*
X0030375Y0029450D03*
X0030375Y0029500D03*
X0030375Y0029550D03*
X0030375Y0029600D03*
X0030375Y0029650D03*
X0030375Y0029700D03*
X0030375Y0029750D03*
X0030375Y0029800D03*
X0030375Y0029850D03*
X0030375Y0029900D03*
X0030375Y0029950D03*
X0030375Y0030000D03*
X0030375Y0030050D03*
X0030375Y0030100D03*
X0030375Y0030150D03*
X0030375Y0030200D03*
X0030375Y0030250D03*
X0030375Y0030300D03*
X0030375Y0030350D03*
X0030375Y0030400D03*
X0030375Y0030450D03*
X0030375Y0030500D03*
X0030375Y0030550D03*
X0030375Y0030600D03*
X0030375Y0030650D03*
X0030375Y0030700D03*
X0030375Y0030750D03*
X0030375Y0030800D03*
X0030375Y0030850D03*
X0030375Y0030900D03*
X0030375Y0030950D03*
X0030375Y0031000D03*
X0030375Y0031050D03*
X0030375Y0031100D03*
X0030375Y0031150D03*
X0030375Y0031200D03*
X0030375Y0031250D03*
X0030375Y0031300D03*
X0030375Y0031350D03*
X0030375Y0031400D03*
X0030375Y0031450D03*
D24*
X0040925Y0017050D03*
X0046225Y0027950D03*
X0050975Y0034550D03*
X0053125Y0034150D03*
D25*
X0040900Y0017100D03*
X0033150Y0024450D03*
X0033400Y0025250D03*
X0033400Y0025300D03*
X0033400Y0025350D03*
D26*
X0031650Y0023300D03*
X0031700Y0023250D03*
X0032500Y0022750D03*
X0032550Y0022700D03*
X0032600Y0022650D03*
X0032650Y0022600D03*
X0032700Y0022550D03*
X0032750Y0022500D03*
X0032800Y0022450D03*
X0032850Y0022400D03*
X0032900Y0022350D03*
X0033050Y0022250D03*
X0033100Y0022200D03*
X0033150Y0022150D03*
X0033950Y0021350D03*
X0034000Y0021300D03*
X0035550Y0019850D03*
X0035600Y0019800D03*
X0035650Y0019700D03*
X0037200Y0018200D03*
X0037350Y0018100D03*
X0037400Y0018050D03*
X0037500Y0018000D03*
X0044150Y0017850D03*
X0044300Y0017950D03*
X0044400Y0018000D03*
X0046650Y0020350D03*
X0046950Y0019200D03*
X0046950Y0019150D03*
X0046950Y0019100D03*
X0046900Y0018950D03*
X0046850Y0018900D03*
X0048250Y0020300D03*
X0048300Y0020250D03*
X0049150Y0018850D03*
X0049350Y0017200D03*
X0049350Y0017150D03*
X0049350Y0017100D03*
X0051500Y0020250D03*
X0053850Y0020000D03*
X0053850Y0019950D03*
X0049150Y0022900D03*
X0046400Y0026300D03*
X0041700Y0030100D03*
X0034150Y0037700D03*
X0030300Y0031650D03*
X0030350Y0024300D03*
X0027450Y0021950D03*
X0024800Y0019250D03*
X0024650Y0018850D03*
D27*
X0033375Y0025600D03*
X0040875Y0017150D03*
X0029325Y0041350D03*
D28*
X0047375Y0020900D03*
X0047375Y0020850D03*
X0050675Y0019950D03*
X0051425Y0018600D03*
X0039425Y0017200D03*
D29*
X0042425Y0017200D03*
X0047375Y0020950D03*
X0047375Y0021000D03*
X0047375Y0021050D03*
X0047475Y0021300D03*
X0047475Y0021350D03*
X0051325Y0021850D03*
X0052075Y0024250D03*
X0052075Y0024300D03*
X0052075Y0024350D03*
X0052075Y0024400D03*
X0051425Y0018550D03*
X0046525Y0027650D03*
X0044975Y0036200D03*
X0032525Y0031800D03*
D30*
X0039225Y0017250D03*
X0047425Y0021200D03*
X0049325Y0022600D03*
X0051375Y0021750D03*
X0051025Y0020050D03*
X0052025Y0024600D03*
X0052025Y0024650D03*
X0052025Y0024700D03*
X0051625Y0034650D03*
D31*
X0046575Y0027600D03*
X0051675Y0025350D03*
X0051975Y0024900D03*
X0051975Y0024850D03*
X0051175Y0020150D03*
X0051125Y0020100D03*
X0053725Y0019300D03*
X0042675Y0017250D03*
X0033225Y0021750D03*
X0030275Y0019900D03*
D32*
X0039000Y0017300D03*
X0047950Y0020350D03*
X0049300Y0022650D03*
X0051950Y0022200D03*
X0051950Y0022150D03*
X0052700Y0022400D03*
X0051950Y0024950D03*
X0051950Y0025000D03*
X0051400Y0025700D03*
X0051200Y0020200D03*
X0051450Y0018500D03*
X0053750Y0019250D03*
X0054050Y0034050D03*
D33*
X0051400Y0025750D03*
X0051900Y0025150D03*
X0049250Y0022700D03*
X0053750Y0019200D03*
X0042850Y0017300D03*
X0034800Y0020800D03*
X0033250Y0021800D03*
X0027450Y0021700D03*
X0034050Y0037750D03*
D34*
X0046625Y0027550D03*
X0051775Y0025300D03*
X0051825Y0025250D03*
X0051875Y0025200D03*
X0051925Y0025100D03*
X0051925Y0025050D03*
X0052725Y0022450D03*
X0049225Y0019450D03*
X0047925Y0020400D03*
X0038825Y0017350D03*
X0051625Y0034700D03*
D35*
X0046300Y0026750D03*
X0046300Y0026700D03*
X0049250Y0022750D03*
X0043050Y0017350D03*
X0038550Y0017450D03*
X0036100Y0018950D03*
X0036050Y0019000D03*
X0036000Y0019050D03*
X0035950Y0019100D03*
X0034950Y0020600D03*
X0034900Y0020700D03*
X0033250Y0021850D03*
X0031700Y0023550D03*
X0027450Y0021750D03*
X0030150Y0031750D03*
X0030150Y0031800D03*
X0030150Y0031850D03*
X0030150Y0031900D03*
X0030150Y0031950D03*
X0030150Y0032000D03*
D36*
X0034825Y0020750D03*
X0038675Y0017400D03*
X0047925Y0020450D03*
X0052725Y0022500D03*
D37*
X0052725Y0022550D03*
X0052525Y0022350D03*
X0052525Y0022300D03*
X0051375Y0025800D03*
X0046675Y0027500D03*
X0051625Y0033200D03*
X0051625Y0033250D03*
X0051625Y0034750D03*
X0047925Y0020500D03*
X0049175Y0019400D03*
X0043325Y0017450D03*
X0043175Y0017400D03*
X0038425Y0017500D03*
X0035925Y0019150D03*
X0035875Y0019200D03*
X0034925Y0020650D03*
X0034125Y0021000D03*
X0033925Y0021550D03*
D38*
X0034625Y0021750D03*
X0034575Y0021900D03*
X0034575Y0021950D03*
X0034525Y0022050D03*
X0034525Y0022100D03*
X0035075Y0020450D03*
X0035125Y0020400D03*
X0035775Y0019400D03*
X0035825Y0019350D03*
X0035825Y0019300D03*
X0031875Y0023200D03*
X0031675Y0023350D03*
X0031625Y0023450D03*
X0031625Y0023500D03*
X0043475Y0017500D03*
X0047225Y0021400D03*
X0049225Y0022800D03*
X0050575Y0022100D03*
X0049125Y0019350D03*
X0049175Y0019100D03*
X0049175Y0019050D03*
X0052725Y0022650D03*
X0052425Y0024000D03*
X0053875Y0019650D03*
X0053875Y0019600D03*
X0053925Y0019500D03*
X0046325Y0026600D03*
X0046725Y0027450D03*
X0051625Y0033400D03*
X0051625Y0033450D03*
X0051675Y0033550D03*
D39*
X0051600Y0033350D03*
X0051600Y0033300D03*
X0051600Y0033150D03*
X0051600Y0033100D03*
X0046300Y0026650D03*
X0052400Y0024100D03*
X0052400Y0024050D03*
X0052450Y0023950D03*
X0052450Y0023900D03*
X0052750Y0022600D03*
X0053900Y0019450D03*
X0053900Y0019400D03*
X0051450Y0018450D03*
X0038300Y0017550D03*
X0035850Y0019250D03*
X0035050Y0020500D03*
X0035000Y0020550D03*
X0034100Y0021050D03*
X0034600Y0021700D03*
X0034550Y0022000D03*
X0033250Y0021900D03*
X0031650Y0023400D03*
X0027450Y0021800D03*
D40*
X0030550Y0023650D03*
X0031950Y0023150D03*
X0032000Y0023100D03*
X0033250Y0021950D03*
X0033900Y0021500D03*
X0034100Y0021100D03*
X0034600Y0021800D03*
X0034600Y0021850D03*
X0034550Y0022150D03*
X0034550Y0022200D03*
X0035150Y0020350D03*
X0035200Y0020300D03*
X0035750Y0019450D03*
X0038000Y0017700D03*
X0038100Y0017650D03*
X0038200Y0017600D03*
X0043550Y0017550D03*
X0047200Y0021450D03*
X0047200Y0021500D03*
X0049150Y0019150D03*
X0049200Y0019000D03*
X0052750Y0022700D03*
X0053850Y0019750D03*
X0053850Y0019700D03*
X0053900Y0019550D03*
X0051450Y0025850D03*
X0046700Y0027400D03*
X0046350Y0026550D03*
X0046350Y0026500D03*
X0051650Y0033500D03*
D41*
X0051625Y0034800D03*
X0051425Y0028750D03*
X0051425Y0028700D03*
X0052625Y0023000D03*
X0052675Y0022850D03*
X0052725Y0022750D03*
X0050425Y0022150D03*
X0050175Y0022300D03*
X0050075Y0022350D03*
X0049975Y0022400D03*
X0049825Y0022500D03*
X0049075Y0019300D03*
X0049075Y0019250D03*
X0049125Y0019200D03*
X0049175Y0018950D03*
X0046825Y0020500D03*
X0043875Y0017700D03*
X0043775Y0017650D03*
X0043675Y0017600D03*
X0037925Y0017750D03*
X0037825Y0017800D03*
X0035725Y0019500D03*
X0035675Y0019600D03*
X0035275Y0020200D03*
X0035225Y0020250D03*
X0034075Y0021150D03*
X0033925Y0021450D03*
X0033225Y0022000D03*
X0032325Y0022850D03*
X0032275Y0022900D03*
X0032225Y0022950D03*
X0030525Y0023200D03*
X0030525Y0023250D03*
X0030525Y0023300D03*
X0030525Y0023350D03*
X0030525Y0023400D03*
X0030525Y0023450D03*
X0030525Y0023500D03*
X0030525Y0023550D03*
X0030525Y0023600D03*
X0030475Y0020650D03*
X0030475Y0020600D03*
X0030475Y0020550D03*
X0030475Y0020500D03*
X0030475Y0019850D03*
X0027425Y0021850D03*
X0024725Y0019100D03*
X0024675Y0019000D03*
X0024675Y0018950D03*
X0034575Y0022250D03*
X0046375Y0026450D03*
X0046725Y0027350D03*
X0053825Y0019800D03*
X0028025Y0042400D03*
D42*
X0030275Y0032050D03*
X0029225Y0023700D03*
X0030475Y0022950D03*
X0030475Y0022900D03*
X0030475Y0022850D03*
X0030475Y0022800D03*
X0030475Y0022750D03*
X0030475Y0022700D03*
X0030475Y0022200D03*
X0030475Y0022150D03*
X0030475Y0022100D03*
X0030475Y0022050D03*
X0030475Y0022000D03*
X0030475Y0021950D03*
X0030475Y0021900D03*
X0030475Y0021850D03*
X0030475Y0021800D03*
X0030475Y0021750D03*
X0030475Y0021700D03*
X0030475Y0021650D03*
X0030475Y0021600D03*
X0030475Y0021550D03*
X0030475Y0021500D03*
X0030475Y0021450D03*
X0030475Y0021400D03*
X0030475Y0021350D03*
X0030475Y0021300D03*
X0030475Y0021250D03*
X0030475Y0021200D03*
X0030475Y0019750D03*
X0032975Y0022300D03*
X0033175Y0022100D03*
X0033625Y0021700D03*
X0033925Y0021400D03*
X0034025Y0021250D03*
X0035425Y0020000D03*
X0035475Y0019950D03*
X0035525Y0019900D03*
X0036325Y0018900D03*
X0037575Y0017950D03*
X0043975Y0017750D03*
X0044075Y0017800D03*
X0044225Y0017900D03*
X0046725Y0020400D03*
X0047175Y0021600D03*
X0047175Y0021650D03*
X0047175Y0021700D03*
X0047225Y0021750D03*
X0047225Y0021900D03*
X0046925Y0019050D03*
X0046925Y0019000D03*
X0046675Y0027150D03*
X0046675Y0027200D03*
X0032425Y0022800D03*
X0024775Y0019200D03*
D43*
X0024750Y0019150D03*
X0024700Y0019050D03*
X0024650Y0018900D03*
X0027450Y0021900D03*
X0029350Y0023750D03*
X0030500Y0023150D03*
X0030500Y0023100D03*
X0030500Y0023050D03*
X0030500Y0023000D03*
X0030500Y0022650D03*
X0030500Y0022600D03*
X0030500Y0022550D03*
X0030500Y0022500D03*
X0030500Y0022450D03*
X0030500Y0022400D03*
X0030500Y0022350D03*
X0030500Y0022300D03*
X0030500Y0022250D03*
X0030450Y0021150D03*
X0030450Y0021100D03*
X0030450Y0021050D03*
X0030450Y0021000D03*
X0030450Y0020950D03*
X0030450Y0020900D03*
X0030450Y0020850D03*
X0030450Y0020800D03*
X0030450Y0020750D03*
X0030450Y0020700D03*
X0030500Y0019800D03*
X0033200Y0022050D03*
X0034050Y0021200D03*
X0034600Y0022300D03*
X0035300Y0020150D03*
X0035350Y0020100D03*
X0035400Y0020050D03*
X0035650Y0019650D03*
X0035700Y0019550D03*
X0037650Y0017900D03*
X0037750Y0017850D03*
X0032150Y0023000D03*
X0032100Y0023050D03*
X0030300Y0031700D03*
X0030600Y0038350D03*
X0046700Y0027300D03*
X0046700Y0027250D03*
X0046400Y0026400D03*
X0046400Y0026350D03*
X0049200Y0022850D03*
X0049900Y0022450D03*
X0050250Y0022250D03*
X0050350Y0022200D03*
X0049150Y0018900D03*
X0046750Y0020450D03*
X0047200Y0021550D03*
X0047250Y0021800D03*
X0047250Y0021850D03*
X0052650Y0022900D03*
X0052650Y0022950D03*
X0052700Y0022800D03*
X0053850Y0019900D03*
X0053850Y0019850D03*
X0051600Y0033050D03*
D44*
X0051600Y0034050D03*
X0051600Y0035050D03*
X0051550Y0031700D03*
X0051550Y0031650D03*
X0051550Y0031600D03*
X0051550Y0031550D03*
X0051550Y0031500D03*
X0051550Y0031450D03*
X0051550Y0031400D03*
X0051550Y0031350D03*
X0051550Y0031300D03*
X0051550Y0031250D03*
X0051550Y0031200D03*
X0051550Y0031150D03*
X0051550Y0031100D03*
X0051550Y0031050D03*
X0051550Y0031000D03*
X0051550Y0030950D03*
X0051550Y0030900D03*
X0051550Y0030850D03*
X0051550Y0030800D03*
X0051550Y0030750D03*
X0051550Y0030700D03*
X0051550Y0030650D03*
X0051550Y0030600D03*
X0051550Y0030550D03*
X0051550Y0030500D03*
X0051550Y0030450D03*
X0051550Y0030400D03*
X0051550Y0030350D03*
X0051550Y0030300D03*
X0051550Y0030250D03*
X0051550Y0030200D03*
X0051550Y0030150D03*
X0051550Y0030100D03*
X0051550Y0030050D03*
X0051550Y0030000D03*
X0051550Y0029950D03*
X0051550Y0029900D03*
X0051550Y0029850D03*
X0051550Y0029800D03*
X0051550Y0029750D03*
X0050550Y0025250D03*
X0050400Y0025050D03*
X0047000Y0024500D03*
X0047000Y0024450D03*
X0047000Y0024400D03*
X0047050Y0024250D03*
X0047050Y0024200D03*
X0047050Y0024150D03*
X0047050Y0024100D03*
X0047100Y0023950D03*
X0047100Y0023900D03*
X0047100Y0023850D03*
X0047100Y0023800D03*
X0047100Y0023750D03*
X0047150Y0023550D03*
X0047150Y0023500D03*
X0047150Y0023450D03*
X0047150Y0023400D03*
X0047150Y0023350D03*
X0047150Y0023300D03*
X0047150Y0023250D03*
X0047150Y0023200D03*
X0047150Y0023150D03*
X0047150Y0023100D03*
X0047150Y0023050D03*
X0047150Y0023000D03*
X0047150Y0022950D03*
X0047150Y0022900D03*
X0047150Y0022850D03*
X0047150Y0022800D03*
X0047150Y0022750D03*
X0047150Y0022700D03*
X0047150Y0022650D03*
X0047100Y0022500D03*
X0047100Y0022450D03*
X0047100Y0022400D03*
X0047100Y0022350D03*
X0047100Y0022300D03*
X0047200Y0019900D03*
X0047150Y0019850D03*
X0047150Y0019800D03*
X0047100Y0019750D03*
X0049100Y0018100D03*
X0049100Y0018050D03*
X0050650Y0018850D03*
X0050750Y0020300D03*
X0051500Y0020350D03*
X0051550Y0021450D03*
X0050850Y0021400D03*
X0053100Y0021650D03*
X0053150Y0021500D03*
X0053150Y0021450D03*
X0053200Y0021350D03*
X0053200Y0021300D03*
X0053250Y0021200D03*
X0053250Y0021150D03*
X0053300Y0021050D03*
X0053350Y0020800D03*
X0053550Y0019000D03*
X0053550Y0018950D03*
X0053550Y0018900D03*
X0046950Y0024600D03*
X0046950Y0024650D03*
X0046900Y0024800D03*
X0046900Y0024850D03*
X0046850Y0025000D03*
X0046800Y0025150D03*
X0046750Y0025250D03*
X0046700Y0025400D03*
X0046650Y0025500D03*
X0034800Y0022750D03*
X0034800Y0022700D03*
X0034800Y0022650D03*
X0034800Y0022600D03*
X0034800Y0022550D03*
X0034800Y0022500D03*
X0034800Y0022450D03*
X0034800Y0022400D03*
X0033700Y0020950D03*
X0033650Y0020900D03*
X0033550Y0020750D03*
X0032450Y0018150D03*
X0031000Y0025600D03*
X0030450Y0032250D03*
X0030450Y0032300D03*
X0030450Y0032350D03*
X0030450Y0032400D03*
X0030450Y0032450D03*
X0030450Y0032500D03*
X0030450Y0032550D03*
X0030450Y0032600D03*
X0030450Y0032650D03*
X0030450Y0032700D03*
X0030450Y0032750D03*
X0030450Y0032800D03*
X0030450Y0032850D03*
X0030450Y0032900D03*
X0030450Y0032950D03*
X0030450Y0033000D03*
X0030450Y0033050D03*
X0030450Y0033100D03*
X0030450Y0033150D03*
X0030450Y0033200D03*
X0030450Y0033250D03*
X0030450Y0033300D03*
X0030450Y0033350D03*
X0030450Y0033400D03*
X0030450Y0033450D03*
X0030450Y0033500D03*
X0030450Y0033550D03*
X0030450Y0033600D03*
X0030450Y0033650D03*
X0030450Y0033700D03*
X0030450Y0033750D03*
X0030450Y0033800D03*
X0030450Y0033850D03*
X0030450Y0033900D03*
X0030450Y0033950D03*
X0030450Y0034000D03*
X0030450Y0034050D03*
X0030450Y0034100D03*
X0030450Y0034150D03*
X0030450Y0034200D03*
X0030450Y0034250D03*
X0030450Y0034300D03*
X0030450Y0034350D03*
X0030450Y0034400D03*
X0030450Y0034450D03*
X0030450Y0034500D03*
X0030450Y0034550D03*
X0030450Y0034600D03*
X0030450Y0034650D03*
X0030450Y0034700D03*
X0030450Y0034750D03*
X0030450Y0034800D03*
X0030450Y0034850D03*
X0030450Y0034900D03*
X0030450Y0034950D03*
X0030450Y0035000D03*
X0030450Y0035050D03*
X0030450Y0035100D03*
X0030450Y0035150D03*
X0030450Y0035200D03*
X0030450Y0035250D03*
X0030450Y0035300D03*
X0030450Y0035350D03*
X0030450Y0035400D03*
X0030450Y0035450D03*
X0030450Y0035500D03*
X0030450Y0035550D03*
X0030450Y0035600D03*
X0030450Y0035650D03*
X0030450Y0035700D03*
X0030450Y0035750D03*
X0030450Y0035800D03*
X0030450Y0035850D03*
X0030450Y0035900D03*
X0030450Y0035950D03*
X0030450Y0036000D03*
X0030450Y0036050D03*
X0030450Y0036100D03*
X0030450Y0036150D03*
X0030450Y0036200D03*
X0030450Y0036250D03*
X0030450Y0036300D03*
X0030450Y0036350D03*
X0030450Y0036400D03*
X0030450Y0036450D03*
X0030450Y0036500D03*
X0030450Y0036550D03*
X0030450Y0036600D03*
X0030450Y0036650D03*
X0030450Y0036700D03*
X0030450Y0036750D03*
X0030450Y0036800D03*
X0030450Y0036850D03*
X0030450Y0036900D03*
X0030450Y0036950D03*
X0030450Y0037000D03*
X0030450Y0037050D03*
X0030450Y0037100D03*
X0030450Y0037150D03*
X0030450Y0037200D03*
X0030450Y0037250D03*
X0030450Y0037300D03*
X0030450Y0037350D03*
X0030450Y0037400D03*
X0030450Y0037450D03*
X0030450Y0037500D03*
X0030450Y0037550D03*
X0030450Y0037600D03*
X0030450Y0037650D03*
X0030450Y0037700D03*
X0030450Y0037750D03*
X0030450Y0037800D03*
X0030450Y0037850D03*
X0030450Y0037900D03*
X0030450Y0037950D03*
X0030450Y0038000D03*
D45*
X0029275Y0042250D03*
X0029675Y0032050D03*
X0029675Y0031700D03*
X0029675Y0031650D03*
X0031075Y0028800D03*
X0031075Y0028750D03*
X0031075Y0028700D03*
X0031075Y0028650D03*
X0031075Y0028600D03*
X0031075Y0028550D03*
X0031075Y0028500D03*
X0031075Y0028450D03*
X0031075Y0028400D03*
X0031075Y0028350D03*
X0031075Y0028300D03*
X0031075Y0028250D03*
X0031075Y0028200D03*
X0031075Y0028150D03*
X0031075Y0028100D03*
X0031075Y0028050D03*
X0031075Y0028000D03*
X0031075Y0027950D03*
X0031025Y0027600D03*
X0031025Y0027550D03*
X0031025Y0027500D03*
X0031025Y0027450D03*
X0031025Y0027400D03*
X0031025Y0027350D03*
X0031025Y0027300D03*
X0031025Y0027250D03*
X0031025Y0027200D03*
X0031025Y0027150D03*
X0031025Y0027100D03*
X0031025Y0027050D03*
X0031025Y0027000D03*
X0031025Y0026950D03*
X0031025Y0026900D03*
X0031025Y0026850D03*
X0031025Y0026800D03*
X0030925Y0025100D03*
X0030925Y0025050D03*
X0030925Y0025000D03*
X0030925Y0024950D03*
X0030925Y0024900D03*
X0030925Y0024850D03*
X0030925Y0024800D03*
X0030925Y0024750D03*
X0030225Y0019600D03*
X0030225Y0019550D03*
X0030225Y0019500D03*
X0030225Y0019450D03*
X0030225Y0019400D03*
X0030225Y0019350D03*
X0030225Y0019300D03*
X0030225Y0019250D03*
X0030225Y0019200D03*
X0030225Y0019150D03*
X0030225Y0019100D03*
X0030225Y0019050D03*
X0030225Y0019000D03*
X0030225Y0018950D03*
X0030225Y0018900D03*
X0030225Y0018850D03*
X0030225Y0018800D03*
X0030725Y0018800D03*
X0030725Y0018850D03*
X0030725Y0018900D03*
X0030725Y0018950D03*
X0030725Y0019000D03*
X0030725Y0019050D03*
X0030725Y0019100D03*
X0030525Y0018250D03*
X0030525Y0018200D03*
X0029575Y0019200D03*
X0029625Y0019550D03*
X0029625Y0019600D03*
X0032675Y0018900D03*
X0032725Y0019050D03*
X0032775Y0019200D03*
X0032875Y0019450D03*
X0033025Y0019800D03*
X0032625Y0018700D03*
X0032575Y0018550D03*
X0051525Y0018400D03*
X0052175Y0019000D03*
X0052225Y0019050D03*
X0052225Y0019100D03*
X0052225Y0019200D03*
X0052225Y0019250D03*
X0052275Y0019500D03*
X0052275Y0019550D03*
X0052275Y0019600D03*
X0052875Y0019750D03*
X0052925Y0019700D03*
X0052775Y0020200D03*
X0053325Y0020650D03*
X0053625Y0020650D03*
X0053825Y0021000D03*
X0053975Y0020850D03*
X0053575Y0021850D03*
X0053525Y0021950D03*
X0053475Y0022050D03*
X0053425Y0022150D03*
X0053375Y0022250D03*
X0053325Y0022350D03*
X0052525Y0021950D03*
X0052575Y0021850D03*
X0052575Y0021800D03*
X0052575Y0021750D03*
X0052575Y0021700D03*
X0052575Y0021650D03*
X0052625Y0021450D03*
X0052625Y0021400D03*
X0052625Y0021350D03*
X0052675Y0021100D03*
X0052675Y0021050D03*
X0052175Y0021200D03*
X0052175Y0021250D03*
X0052125Y0021400D03*
X0051525Y0021250D03*
X0051525Y0021200D03*
X0051525Y0021150D03*
X0051525Y0021100D03*
X0051525Y0021050D03*
X0051525Y0021000D03*
X0051525Y0020950D03*
X0051525Y0020900D03*
X0051525Y0020850D03*
X0051525Y0020800D03*
X0052325Y0018850D03*
X0051575Y0035150D03*
X0051575Y0035200D03*
X0051575Y0035250D03*
X0051575Y0035300D03*
X0051575Y0035350D03*
X0051575Y0035400D03*
X0051575Y0035600D03*
X0051575Y0035650D03*
X0051575Y0035700D03*
X0051575Y0035750D03*
X0051575Y0035800D03*
X0051575Y0035850D03*
D46*
X0051600Y0035550D03*
X0051600Y0035500D03*
X0051600Y0035450D03*
X0052100Y0023650D03*
X0052100Y0023600D03*
X0052100Y0023550D03*
X0052100Y0023500D03*
X0052150Y0023450D03*
X0052150Y0023400D03*
X0052150Y0023350D03*
X0052150Y0023300D03*
X0052200Y0023250D03*
X0052200Y0023200D03*
X0052250Y0023150D03*
X0052250Y0023100D03*
X0052500Y0022000D03*
X0052550Y0021900D03*
X0052600Y0021600D03*
X0052600Y0021550D03*
X0052600Y0021500D03*
X0052650Y0021300D03*
X0052650Y0021250D03*
X0052650Y0021200D03*
X0052650Y0021150D03*
X0052700Y0021000D03*
X0052700Y0020950D03*
X0052700Y0020900D03*
X0052700Y0020850D03*
X0052700Y0020800D03*
X0052750Y0020750D03*
X0052750Y0020700D03*
X0052750Y0020650D03*
X0052750Y0020600D03*
X0052750Y0020550D03*
X0052750Y0020500D03*
X0052800Y0020450D03*
X0052800Y0020400D03*
X0052800Y0020350D03*
X0052800Y0020300D03*
X0052800Y0020250D03*
X0052250Y0020250D03*
X0052250Y0020300D03*
X0052250Y0020350D03*
X0052250Y0020400D03*
X0052250Y0020450D03*
X0052250Y0020500D03*
X0052250Y0020550D03*
X0052250Y0020600D03*
X0052200Y0020750D03*
X0052200Y0020800D03*
X0052200Y0020850D03*
X0052200Y0020900D03*
X0052200Y0020950D03*
X0052200Y0021000D03*
X0052200Y0021050D03*
X0052200Y0021100D03*
X0052200Y0021150D03*
X0052150Y0021300D03*
X0052150Y0021350D03*
X0052100Y0021450D03*
X0052100Y0021500D03*
X0051500Y0020750D03*
X0051500Y0020700D03*
X0051500Y0020650D03*
X0051500Y0020600D03*
X0051500Y0020550D03*
X0051500Y0020500D03*
X0051500Y0020450D03*
X0051500Y0020400D03*
X0050750Y0020450D03*
X0050750Y0020500D03*
X0050750Y0020550D03*
X0050750Y0020600D03*
X0050750Y0020650D03*
X0050800Y0021000D03*
X0050800Y0021050D03*
X0050800Y0021100D03*
X0050800Y0021150D03*
X0052250Y0020200D03*
X0052250Y0020150D03*
X0052250Y0020100D03*
X0052250Y0020050D03*
X0052250Y0020000D03*
X0052250Y0019950D03*
X0052250Y0019900D03*
X0052250Y0019850D03*
X0052250Y0019800D03*
X0052250Y0019750D03*
X0052250Y0019700D03*
X0052250Y0019650D03*
X0052300Y0018800D03*
X0053100Y0019500D03*
X0053600Y0020600D03*
X0053350Y0020700D03*
X0053350Y0020750D03*
X0053900Y0020900D03*
X0053900Y0020950D03*
X0053850Y0021050D03*
X0053850Y0021100D03*
X0053850Y0021150D03*
X0053800Y0021300D03*
X0053750Y0021400D03*
X0053750Y0021450D03*
X0053700Y0021550D03*
X0053700Y0021600D03*
X0053650Y0021650D03*
X0053650Y0021700D03*
X0053600Y0021750D03*
X0053600Y0021800D03*
X0053550Y0021900D03*
X0053500Y0022000D03*
X0053450Y0022100D03*
X0053400Y0022200D03*
X0053350Y0022300D03*
X0049000Y0018450D03*
X0049050Y0018250D03*
X0033450Y0020600D03*
X0033300Y0020350D03*
X0033250Y0020250D03*
X0033200Y0020150D03*
X0033150Y0020100D03*
X0033150Y0020050D03*
X0033100Y0019950D03*
X0033050Y0019900D03*
X0033050Y0019850D03*
X0033000Y0019750D03*
X0033000Y0019700D03*
X0032950Y0019650D03*
X0032950Y0019600D03*
X0032900Y0019550D03*
X0032900Y0019500D03*
X0032850Y0019400D03*
X0032850Y0019350D03*
X0032800Y0019300D03*
X0032800Y0019250D03*
X0032750Y0019150D03*
X0032750Y0019100D03*
X0032700Y0019000D03*
X0032700Y0018950D03*
X0032650Y0018850D03*
X0032650Y0018800D03*
X0032650Y0018750D03*
X0032600Y0018650D03*
X0032600Y0018600D03*
X0032550Y0018500D03*
X0032550Y0018450D03*
X0032550Y0018400D03*
X0032550Y0018350D03*
X0032500Y0018300D03*
X0032500Y0018250D03*
X0030700Y0018650D03*
X0030700Y0018700D03*
X0030700Y0018750D03*
X0030750Y0019150D03*
X0030750Y0019200D03*
X0030750Y0019250D03*
X0030750Y0019300D03*
X0030750Y0019350D03*
X0030750Y0019400D03*
X0030750Y0019450D03*
X0030750Y0019500D03*
X0030750Y0019550D03*
X0030250Y0019650D03*
X0029700Y0019850D03*
X0029600Y0019500D03*
X0029600Y0019450D03*
X0029600Y0019400D03*
X0029600Y0019350D03*
X0029600Y0019300D03*
X0029600Y0019250D03*
X0030250Y0018750D03*
X0030250Y0018700D03*
X0030550Y0018300D03*
X0030950Y0024500D03*
X0030950Y0024550D03*
X0030950Y0024600D03*
X0030950Y0024650D03*
X0030950Y0024700D03*
X0030950Y0025150D03*
X0030950Y0025200D03*
X0030950Y0025250D03*
X0030950Y0025300D03*
X0030950Y0025350D03*
X0030950Y0025400D03*
X0030950Y0025450D03*
X0030950Y0025500D03*
X0031050Y0026700D03*
X0031050Y0026750D03*
D47*
X0034200Y0021650D03*
X0047400Y0020750D03*
X0051450Y0018650D03*
X0033950Y0037850D03*
D48*
X0029650Y0032200D03*
X0029650Y0031550D03*
X0032150Y0023300D03*
X0032250Y0023300D03*
X0029250Y0020700D03*
X0029200Y0020750D03*
X0048250Y0033950D03*
X0051600Y0038000D03*
X0051600Y0038200D03*
X0051600Y0038250D03*
X0051600Y0038300D03*
X0051600Y0038350D03*
X0051600Y0038400D03*
X0051600Y0038450D03*
X0051600Y0038500D03*
X0051600Y0038550D03*
X0051600Y0038600D03*
X0051600Y0038650D03*
X0051600Y0038700D03*
X0051600Y0038750D03*
X0051600Y0038800D03*
X0051600Y0038850D03*
X0051600Y0038900D03*
X0051600Y0038950D03*
X0051600Y0039000D03*
X0051600Y0039050D03*
X0051600Y0039100D03*
X0051600Y0039150D03*
X0051600Y0039200D03*
X0051600Y0039250D03*
X0051600Y0039300D03*
X0051600Y0039350D03*
X0054000Y0021000D03*
X0053800Y0020850D03*
X0053850Y0020800D03*
X0053850Y0020750D03*
X0053950Y0020750D03*
X0054050Y0020750D03*
X0054100Y0020650D03*
X0054100Y0020600D03*
X0054100Y0020550D03*
X0054100Y0020500D03*
X0054100Y0020400D03*
X0054000Y0020650D03*
X0053600Y0020800D03*
X0053500Y0020350D03*
X0053500Y0020300D03*
X0053400Y0020300D03*
X0053400Y0020350D03*
X0053400Y0020250D03*
X0053400Y0020200D03*
X0053400Y0020150D03*
X0053000Y0019950D03*
X0053000Y0019900D03*
X0053000Y0019850D03*
X0053050Y0019800D03*
X0053050Y0019750D03*
X0052900Y0019950D03*
X0052800Y0019950D03*
X0052950Y0020100D03*
X0052950Y0020150D03*
X0052900Y0019550D03*
X0052350Y0019400D03*
X0052350Y0019150D03*
X0052400Y0019000D03*
X0052400Y0018950D03*
X0052150Y0018900D03*
X0052150Y0018850D03*
X0052050Y0018850D03*
X0052000Y0018800D03*
D49*
X0052175Y0019350D03*
X0052875Y0019600D03*
X0052825Y0019900D03*
X0052775Y0020050D03*
X0052775Y0020100D03*
X0052775Y0020150D03*
X0052975Y0020050D03*
X0052975Y0020000D03*
X0053425Y0020050D03*
X0053425Y0020100D03*
X0053375Y0020450D03*
X0053325Y0020550D03*
X0053725Y0020300D03*
X0054075Y0020350D03*
X0054075Y0020450D03*
X0054075Y0020700D03*
X0053875Y0020650D03*
X0051575Y0037200D03*
X0051575Y0037250D03*
X0051575Y0037300D03*
X0051575Y0037350D03*
X0051575Y0037400D03*
X0051575Y0037450D03*
X0051575Y0037500D03*
X0051575Y0037550D03*
X0051575Y0037600D03*
X0051575Y0037650D03*
X0051575Y0037700D03*
X0051575Y0037750D03*
X0051575Y0037800D03*
X0051575Y0037850D03*
X0051575Y0037900D03*
X0051575Y0037950D03*
X0051575Y0038050D03*
X0051575Y0038100D03*
X0051575Y0038150D03*
X0029575Y0019150D03*
D50*
X0030300Y0020050D03*
X0034150Y0023500D03*
X0034000Y0037800D03*
X0049350Y0022550D03*
X0050850Y0020000D03*
X0049400Y0019550D03*
X0052100Y0024150D03*
X0052100Y0024200D03*
X0051400Y0025550D03*
D51*
X0049675Y0019650D03*
X0049675Y0019600D03*
X0033825Y0023700D03*
D52*
X0033775Y0023550D03*
X0049675Y0019700D03*
D53*
X0049700Y0019750D03*
X0053650Y0034100D03*
X0033750Y0038000D03*
X0031300Y0023700D03*
D54*
X0028400Y0042150D03*
X0049750Y0019800D03*
D55*
X0050250Y0019850D03*
X0047400Y0020650D03*
X0028150Y0042250D03*
D56*
X0034225Y0021600D03*
X0046475Y0027700D03*
X0051425Y0025450D03*
X0050475Y0019900D03*
X0047375Y0020800D03*
D57*
X0047400Y0021100D03*
X0047400Y0021150D03*
X0047450Y0021250D03*
X0051350Y0021800D03*
X0052050Y0024450D03*
X0052050Y0024500D03*
X0052050Y0024550D03*
X0051400Y0025600D03*
X0030800Y0020450D03*
X0030750Y0020400D03*
X0030700Y0020350D03*
X0030300Y0020000D03*
X0028150Y0042350D03*
D58*
X0030300Y0020100D03*
X0051300Y0021900D03*
X0051400Y0025500D03*
D59*
X0051425Y0025400D03*
X0051275Y0021950D03*
X0047425Y0020700D03*
X0030275Y0020150D03*
X0028175Y0042300D03*
D60*
X0030275Y0020200D03*
X0047425Y0020600D03*
X0051275Y0022000D03*
X0051525Y0034600D03*
D61*
X0037350Y0036200D03*
X0033850Y0037900D03*
X0030300Y0020250D03*
D62*
X0030300Y0020300D03*
D63*
X0047425Y0020550D03*
X0052025Y0033600D03*
D64*
X0051400Y0022050D03*
X0028350Y0042200D03*
D65*
X0033350Y0025100D03*
X0033350Y0025050D03*
X0033350Y0025000D03*
X0033200Y0024500D03*
X0033050Y0023600D03*
D66*
X0033025Y0023650D03*
X0033375Y0025150D03*
X0033375Y0025200D03*
X0028975Y0041650D03*
D67*
X0030225Y0040600D03*
X0030275Y0040550D03*
X0031825Y0039400D03*
X0031875Y0039350D03*
X0033975Y0027050D03*
X0033225Y0026050D03*
X0033225Y0026000D03*
X0032475Y0023750D03*
D68*
X0031975Y0023800D03*
X0044475Y0035500D03*
X0044475Y0035550D03*
D69*
X0044500Y0035600D03*
X0044500Y0035650D03*
X0034500Y0027950D03*
X0032050Y0023900D03*
X0032000Y0023850D03*
D70*
X0032100Y0023950D03*
X0044500Y0035700D03*
D71*
X0037325Y0035900D03*
X0034425Y0027850D03*
X0032125Y0024000D03*
D72*
X0032175Y0024050D03*
X0034375Y0027750D03*
X0051175Y0034350D03*
D73*
X0044575Y0035800D03*
X0032225Y0024100D03*
D74*
X0032275Y0024150D03*
X0034275Y0027600D03*
X0037325Y0035950D03*
D75*
X0034250Y0027550D03*
X0034200Y0027500D03*
X0032350Y0024200D03*
X0050950Y0034400D03*
D76*
X0034125Y0027350D03*
X0032425Y0024250D03*
D77*
X0032950Y0024300D03*
X0032950Y0024350D03*
X0032950Y0024400D03*
X0029250Y0041400D03*
D78*
X0028925Y0041700D03*
X0033325Y0024950D03*
X0033325Y0024900D03*
X0033325Y0024850D03*
X0033275Y0024650D03*
X0033225Y0024550D03*
X0046275Y0028000D03*
D79*
X0033300Y0024800D03*
X0033300Y0024750D03*
X0033300Y0024700D03*
X0033250Y0024600D03*
D80*
X0033400Y0025400D03*
X0033400Y0025450D03*
D81*
X0033425Y0025500D03*
X0033425Y0025550D03*
X0029125Y0041500D03*
D82*
X0029725Y0041000D03*
X0033175Y0025650D03*
D83*
X0033200Y0025700D03*
X0033200Y0025750D03*
X0033800Y0026700D03*
X0029850Y0040900D03*
X0029800Y0040950D03*
D84*
X0029950Y0040800D03*
X0032200Y0039100D03*
X0032250Y0039050D03*
X0032500Y0038750D03*
X0032500Y0038700D03*
X0033900Y0026900D03*
X0033200Y0025850D03*
X0033200Y0025800D03*
X0050750Y0033950D03*
D85*
X0046725Y0028050D03*
X0033925Y0026950D03*
X0033225Y0025950D03*
X0033225Y0025900D03*
X0032625Y0038400D03*
X0032575Y0038450D03*
X0032575Y0038500D03*
X0032575Y0038550D03*
X0032525Y0038600D03*
X0032525Y0038650D03*
X0030025Y0040750D03*
D86*
X0030350Y0040500D03*
X0030400Y0040450D03*
X0030550Y0040350D03*
X0031550Y0039600D03*
X0031650Y0039550D03*
X0031700Y0039500D03*
X0031750Y0039450D03*
X0037300Y0036000D03*
X0034000Y0027100D03*
X0033250Y0026100D03*
D87*
X0033275Y0026150D03*
X0033275Y0026200D03*
X0034025Y0027150D03*
X0031475Y0039650D03*
X0031425Y0039700D03*
X0031375Y0039750D03*
X0031275Y0039800D03*
X0031225Y0039850D03*
X0031075Y0039950D03*
X0031025Y0040000D03*
X0030875Y0040100D03*
X0030825Y0040150D03*
X0030675Y0040250D03*
X0030625Y0040300D03*
X0030475Y0040400D03*
X0050825Y0034450D03*
D88*
X0052050Y0034250D03*
X0044650Y0035900D03*
X0034050Y0027250D03*
X0034050Y0027200D03*
X0033350Y0026350D03*
X0033300Y0026300D03*
X0033300Y0026250D03*
X0031150Y0039900D03*
X0030950Y0040050D03*
X0030750Y0040200D03*
D89*
X0033525Y0026650D03*
X0033425Y0026500D03*
X0033375Y0026450D03*
X0033375Y0026400D03*
D90*
X0033450Y0026550D03*
X0033500Y0026600D03*
X0034100Y0027300D03*
X0051650Y0033750D03*
D91*
X0033875Y0026850D03*
X0033875Y0026800D03*
X0033825Y0026750D03*
X0032475Y0038800D03*
X0032425Y0038850D03*
X0032425Y0038900D03*
X0032375Y0038950D03*
X0032325Y0039000D03*
X0029925Y0040850D03*
D92*
X0030100Y0040700D03*
X0030150Y0040650D03*
X0031950Y0039300D03*
X0032000Y0039250D03*
X0032100Y0039200D03*
X0032150Y0039150D03*
X0033950Y0027000D03*
X0044700Y0035950D03*
D93*
X0034150Y0027400D03*
D94*
X0034175Y0027450D03*
X0044575Y0035850D03*
D95*
X0047000Y0028100D03*
X0051550Y0034300D03*
X0034300Y0027650D03*
D96*
X0034350Y0027700D03*
D97*
X0046125Y0027750D03*
D98*
X0044500Y0035750D03*
X0034400Y0027800D03*
D99*
X0033450Y0038200D03*
X0028650Y0041950D03*
X0046250Y0027800D03*
D100*
X0046275Y0027850D03*
X0051875Y0033650D03*
X0033375Y0038250D03*
D101*
X0034475Y0027900D03*
X0047075Y0028150D03*
X0051625Y0033800D03*
D102*
X0046250Y0027900D03*
X0028750Y0041850D03*
D103*
X0037350Y0035850D03*
X0034550Y0028000D03*
X0044450Y0034400D03*
X0044450Y0034450D03*
X0044450Y0034500D03*
X0044450Y0034550D03*
D104*
X0044475Y0034350D03*
X0044475Y0034300D03*
X0044475Y0034250D03*
X0044475Y0034200D03*
X0044475Y0034150D03*
X0044475Y0034100D03*
X0044475Y0034050D03*
X0044475Y0034000D03*
X0044475Y0033950D03*
X0044475Y0033900D03*
X0044475Y0033850D03*
X0044475Y0033800D03*
X0044475Y0033750D03*
X0044475Y0033700D03*
X0044475Y0033650D03*
X0044475Y0033600D03*
X0044475Y0035200D03*
X0044425Y0035250D03*
X0044425Y0035300D03*
X0044425Y0035350D03*
X0044425Y0035400D03*
X0044425Y0035450D03*
X0044475Y0031850D03*
X0044475Y0031800D03*
X0047075Y0028200D03*
X0034575Y0028050D03*
D105*
X0034625Y0028100D03*
X0044475Y0031400D03*
X0044475Y0031450D03*
X0044475Y0031500D03*
X0044475Y0031550D03*
X0044475Y0031600D03*
X0044475Y0031650D03*
X0044425Y0032500D03*
X0044425Y0032550D03*
X0044425Y0033450D03*
X0044425Y0034700D03*
X0047075Y0028250D03*
D106*
X0044500Y0031300D03*
X0044400Y0032600D03*
X0044400Y0032650D03*
X0044400Y0033400D03*
X0044400Y0034750D03*
X0044500Y0035050D03*
X0037350Y0035800D03*
X0034650Y0028150D03*
D107*
X0034700Y0028200D03*
X0037400Y0035750D03*
X0044450Y0035000D03*
X0044450Y0034950D03*
X0044450Y0034900D03*
X0044350Y0033300D03*
X0044350Y0033250D03*
X0044350Y0032900D03*
X0044350Y0032850D03*
X0044350Y0032800D03*
X0047050Y0028300D03*
D108*
X0037400Y0035700D03*
X0034750Y0028250D03*
D109*
X0034775Y0028300D03*
X0037475Y0031900D03*
X0037475Y0031950D03*
X0037475Y0032000D03*
X0037475Y0032050D03*
X0037475Y0032100D03*
X0037475Y0032150D03*
X0037475Y0032200D03*
X0047025Y0028350D03*
D110*
X0051525Y0033900D03*
X0037475Y0033900D03*
X0037475Y0033950D03*
X0037475Y0034000D03*
X0037475Y0034050D03*
X0037475Y0034100D03*
X0037475Y0034150D03*
X0037475Y0034200D03*
X0037475Y0034250D03*
X0037475Y0033850D03*
X0037475Y0033800D03*
X0037475Y0033750D03*
X0037475Y0033700D03*
X0037475Y0033650D03*
X0037475Y0033600D03*
X0037475Y0033550D03*
X0037475Y0032700D03*
X0037475Y0032650D03*
X0037475Y0032600D03*
X0037425Y0031800D03*
X0037475Y0035550D03*
X0037475Y0035600D03*
X0034825Y0028350D03*
D111*
X0034875Y0028400D03*
X0037525Y0032800D03*
X0037525Y0033450D03*
X0037475Y0034600D03*
X0037475Y0034650D03*
X0037525Y0035450D03*
D112*
X0037500Y0035500D03*
X0037450Y0034550D03*
X0037450Y0034500D03*
X0037450Y0034450D03*
X0037450Y0034400D03*
X0037450Y0034350D03*
X0037450Y0034300D03*
X0037500Y0033500D03*
X0037500Y0032750D03*
X0047000Y0028400D03*
D113*
X0037575Y0032950D03*
X0037575Y0033000D03*
X0037575Y0033050D03*
X0037575Y0033100D03*
X0037575Y0033150D03*
X0037575Y0033200D03*
X0037575Y0033250D03*
X0037575Y0033300D03*
X0037525Y0034700D03*
X0037525Y0035350D03*
X0037525Y0035400D03*
X0034925Y0028450D03*
D114*
X0037550Y0032850D03*
X0037550Y0032900D03*
X0037550Y0033350D03*
X0037550Y0033400D03*
X0046950Y0028450D03*
D115*
X0037575Y0034800D03*
X0037575Y0034850D03*
X0037575Y0034900D03*
X0037575Y0034950D03*
X0037525Y0035000D03*
X0037425Y0035100D03*
X0037425Y0035150D03*
X0037425Y0035200D03*
X0037475Y0035250D03*
X0034975Y0028500D03*
D116*
X0037550Y0034750D03*
X0037450Y0035050D03*
X0037500Y0035300D03*
X0046900Y0028500D03*
D117*
X0035050Y0028550D03*
D118*
X0046875Y0028550D03*
D119*
X0046800Y0028600D03*
X0035100Y0028600D03*
D120*
X0035150Y0028650D03*
X0046750Y0028650D03*
D121*
X0035225Y0028700D03*
D122*
X0046700Y0028700D03*
D123*
X0046625Y0028750D03*
X0035325Y0028750D03*
D124*
X0035400Y0028800D03*
X0046550Y0028800D03*
D125*
X0046475Y0028850D03*
X0045325Y0031200D03*
X0035475Y0028850D03*
D126*
X0035575Y0028900D03*
D127*
X0046350Y0028900D03*
D128*
X0046250Y0028950D03*
X0035700Y0028950D03*
D129*
X0035850Y0029000D03*
X0045700Y0031050D03*
D130*
X0045725Y0031000D03*
X0046075Y0029000D03*
D131*
X0041000Y0029050D03*
X0041000Y0029100D03*
X0041000Y0029150D03*
X0041000Y0029200D03*
X0041000Y0029250D03*
X0041000Y0029300D03*
X0041000Y0029350D03*
X0041000Y0029400D03*
D132*
X0037150Y0029450D03*
D133*
X0046600Y0029450D03*
X0046600Y0030050D03*
D134*
X0037050Y0029500D03*
D135*
X0046650Y0029500D03*
X0046650Y0030000D03*
D136*
X0036975Y0029550D03*
D137*
X0046675Y0029550D03*
X0046675Y0029600D03*
X0046675Y0029650D03*
X0046675Y0029700D03*
X0046675Y0029750D03*
X0046675Y0029800D03*
X0046675Y0029850D03*
X0046675Y0029900D03*
X0046675Y0029950D03*
D138*
X0036875Y0029600D03*
D139*
X0036825Y0029650D03*
X0036825Y0029700D03*
D140*
X0036800Y0029750D03*
X0036800Y0029800D03*
X0036800Y0029850D03*
X0036800Y0029900D03*
X0036800Y0029950D03*
X0036800Y0030000D03*
X0036800Y0030050D03*
D141*
X0036175Y0030100D03*
X0036175Y0030350D03*
X0036125Y0031150D03*
X0036125Y0031200D03*
X0036125Y0031500D03*
X0036125Y0031550D03*
D142*
X0046450Y0030100D03*
D143*
X0036150Y0030150D03*
X0036150Y0030200D03*
X0036150Y0030250D03*
X0036150Y0030300D03*
X0036150Y0030400D03*
X0036150Y0030450D03*
X0036150Y0030500D03*
X0036150Y0031050D03*
X0036150Y0031100D03*
X0036150Y0031600D03*
X0036150Y0031650D03*
D144*
X0045900Y0030550D03*
X0045900Y0030500D03*
X0045900Y0030450D03*
X0045900Y0030400D03*
X0045900Y0030350D03*
X0045900Y0030300D03*
X0045900Y0030250D03*
X0045900Y0030200D03*
X0045900Y0030150D03*
D145*
X0036175Y0030550D03*
X0036175Y0030600D03*
X0036175Y0030650D03*
X0036175Y0030700D03*
X0036175Y0030750D03*
X0036175Y0030800D03*
X0036175Y0030850D03*
X0036175Y0030900D03*
X0036175Y0030950D03*
X0036175Y0031000D03*
X0036175Y0031700D03*
X0036175Y0031750D03*
D146*
X0045875Y0030700D03*
X0045875Y0030650D03*
X0045875Y0030600D03*
D147*
X0045850Y0030750D03*
X0045850Y0030800D03*
D148*
X0045825Y0030850D03*
D149*
X0045800Y0030900D03*
D150*
X0045775Y0030950D03*
D151*
X0045650Y0031100D03*
D152*
X0045550Y0031150D03*
D153*
X0036100Y0031250D03*
X0036100Y0031450D03*
D154*
X0044375Y0032700D03*
X0044375Y0032750D03*
X0044375Y0033350D03*
X0044425Y0034800D03*
X0044425Y0034850D03*
X0044525Y0031250D03*
D155*
X0036075Y0031300D03*
X0036075Y0031350D03*
X0036075Y0031400D03*
D156*
X0044450Y0031900D03*
X0044450Y0031950D03*
X0044450Y0032000D03*
X0044450Y0032050D03*
X0044450Y0032100D03*
X0044450Y0032150D03*
X0044450Y0032200D03*
X0044450Y0032250D03*
X0044450Y0032300D03*
X0044450Y0032350D03*
X0044450Y0032400D03*
X0044450Y0032450D03*
X0044500Y0031750D03*
X0044500Y0031700D03*
X0044500Y0031350D03*
X0044450Y0033500D03*
X0044450Y0033550D03*
X0044450Y0034600D03*
X0044450Y0034650D03*
X0044500Y0035100D03*
X0044500Y0035150D03*
D157*
X0037450Y0035650D03*
X0037450Y0032550D03*
X0037450Y0032500D03*
X0037450Y0032450D03*
X0037450Y0032400D03*
X0037450Y0032350D03*
X0037450Y0032300D03*
X0037450Y0032250D03*
X0037450Y0031850D03*
D158*
X0044325Y0032950D03*
X0044325Y0033000D03*
X0044325Y0033050D03*
X0044325Y0033100D03*
X0044325Y0033150D03*
X0044325Y0033200D03*
X0051625Y0033850D03*
D159*
X0051725Y0033700D03*
X0029425Y0041250D03*
X0029375Y0041300D03*
D160*
X0052650Y0034200D03*
D161*
X0050850Y0034500D03*
D162*
X0044750Y0036000D03*
X0029550Y0041150D03*
D163*
X0037325Y0036050D03*
D164*
X0044800Y0036050D03*
X0029200Y0041450D03*
D165*
X0029075Y0041550D03*
X0029025Y0041600D03*
X0037325Y0036100D03*
D166*
X0044850Y0036100D03*
X0028850Y0041750D03*
D167*
X0037325Y0036150D03*
D168*
X0033600Y0038100D03*
X0028500Y0042050D03*
X0044900Y0036150D03*
D169*
X0033800Y0037950D03*
D170*
X0033525Y0038150D03*
X0028575Y0042000D03*
D171*
X0028800Y0041800D03*
X0033300Y0038300D03*
D172*
X0033225Y0038350D03*
D173*
X0029650Y0041050D03*
X0029600Y0041100D03*
D174*
X0029475Y0041200D03*
D175*
X0028700Y0041900D03*
D176*
X0028450Y0042100D03*
M02*
