G75*
%MOIN*%
%OFA0B0*%
%FSLAX25Y25*%
%IPPOS*%
%LPD*%
%AMOC8*
5,1,8,0,0,1.08239X$1,22.5*
%
%ADD10R,0.03937X0.00984*%
%ADD11R,0.04331X0.03937*%
%ADD12R,0.03937X0.04331*%
%ADD13R,0.07874X0.03150*%
%ADD14R,0.11811X0.08268*%
%ADD15R,0.11811X0.11811*%
%ADD16C,0.03000*%
%ADD17C,0.00900*%
%ADD18C,0.03937*%
D10*
X0056681Y0030063D03*
X0056681Y0032031D03*
X0056681Y0034000D03*
X0056681Y0035969D03*
X0056681Y0037937D03*
X0073319Y0037937D03*
X0073319Y0035969D03*
X0073319Y0034000D03*
X0073319Y0032031D03*
X0073319Y0030063D03*
D11*
X0086000Y0047154D03*
X0086000Y0053846D03*
X0044000Y0053846D03*
X0044000Y0047154D03*
D12*
X0043346Y0029000D03*
X0036654Y0029000D03*
X0036654Y0019000D03*
X0043346Y0019000D03*
X0028346Y0019000D03*
X0021654Y0019000D03*
X0021654Y0029000D03*
X0028346Y0029000D03*
X0061654Y0019000D03*
X0068346Y0019000D03*
X0086654Y0019000D03*
X0093346Y0019000D03*
X0093346Y0029000D03*
X0086654Y0029000D03*
X0101654Y0019000D03*
X0108346Y0019000D03*
D13*
X0106079Y0044079D03*
X0106079Y0049000D03*
X0106079Y0053921D03*
D14*
X0117693Y0063764D03*
X0117693Y0034236D03*
D15*
X0015500Y0043000D03*
X0015500Y0061000D03*
D16*
X0028346Y0029000D02*
X0036654Y0029000D01*
X0036654Y0019000D02*
X0028346Y0019000D01*
X0021654Y0019000D02*
X0021654Y0012846D01*
X0024500Y0010000D01*
X0105500Y0010000D01*
X0108346Y0012846D01*
X0108346Y0019000D01*
X0101654Y0019000D02*
X0093346Y0019000D01*
X0093346Y0029000D02*
X0100000Y0029000D01*
X0106079Y0044079D02*
X0113421Y0044079D01*
X0113500Y0044000D01*
D17*
X0020000Y0025597D02*
X0020000Y0022403D01*
X0021204Y0022403D01*
X0021204Y0019450D01*
X0022104Y0019450D01*
X0022104Y0022403D01*
X0023000Y0022403D01*
X0023000Y0025597D01*
X0022104Y0025597D01*
X0022104Y0028550D01*
X0021204Y0028550D01*
X0021204Y0025597D01*
X0020000Y0025597D01*
X0020000Y0025015D02*
X0023000Y0025015D01*
X0023000Y0024116D02*
X0020000Y0024116D01*
X0020000Y0023218D02*
X0023000Y0023218D01*
X0022104Y0022319D02*
X0021204Y0022319D01*
X0021204Y0021421D02*
X0022104Y0021421D01*
X0022104Y0020522D02*
X0021204Y0020522D01*
X0021204Y0019624D02*
X0022104Y0019624D01*
X0022104Y0025913D02*
X0021204Y0025913D01*
X0021204Y0026812D02*
X0022104Y0026812D01*
X0022104Y0027710D02*
X0021204Y0027710D01*
X0021204Y0029450D02*
X0021204Y0032403D01*
X0020000Y0032403D01*
X0020000Y0035857D01*
X0021568Y0035857D01*
X0021883Y0035941D01*
X0022165Y0036104D01*
X0022396Y0036335D01*
X0022559Y0036617D01*
X0022643Y0036932D01*
X0022643Y0042550D01*
X0015950Y0042550D01*
X0015950Y0043450D01*
X0022643Y0043450D01*
X0022643Y0049068D01*
X0022559Y0049383D01*
X0022396Y0049665D01*
X0022165Y0049896D01*
X0021883Y0050059D01*
X0021568Y0050143D01*
X0015950Y0050143D01*
X0015950Y0043450D01*
X0015050Y0043450D01*
X0015050Y0050143D01*
X0009432Y0050143D01*
X0009117Y0050059D01*
X0008835Y0049896D01*
X0008604Y0049665D01*
X0008441Y0049383D01*
X0008357Y0049068D01*
X0008357Y0043450D01*
X0015050Y0043450D01*
X0015050Y0042550D01*
X0015950Y0042550D01*
X0015950Y0035857D01*
X0021568Y0035857D01*
X0021883Y0035941D01*
X0022165Y0036104D01*
X0022396Y0036335D01*
X0022559Y0036617D01*
X0022643Y0036932D01*
X0022643Y0042550D01*
X0020000Y0042550D01*
X0020000Y0043450D01*
X0022643Y0043450D01*
X0022643Y0049068D01*
X0022559Y0049383D01*
X0022396Y0049665D01*
X0022165Y0049896D01*
X0021883Y0050059D01*
X0021568Y0050143D01*
X0020000Y0050143D01*
X0020000Y0050500D01*
X0058500Y0050500D01*
X0058500Y0039667D01*
X0056681Y0039667D01*
X0056681Y0037937D01*
X0056681Y0037937D01*
X0056681Y0035969D01*
X0056681Y0035969D01*
X0056681Y0037698D01*
X0056681Y0037937D01*
X0056681Y0037937D01*
X0056681Y0039667D01*
X0054549Y0039667D01*
X0054235Y0039582D01*
X0053952Y0039419D01*
X0053722Y0039189D01*
X0053559Y0038907D01*
X0053475Y0038592D01*
X0053475Y0037937D01*
X0053475Y0037282D01*
X0053559Y0036967D01*
X0053568Y0036953D01*
X0053559Y0036938D01*
X0053475Y0036624D01*
X0053475Y0035969D01*
X0056681Y0035969D01*
X0056681Y0035968D01*
X0053475Y0035968D01*
X0053475Y0035500D01*
X0023000Y0035500D01*
X0007000Y0035500D01*
X0007000Y0050500D01*
X0023000Y0050500D01*
X0023000Y0035500D01*
X0023000Y0032403D01*
X0022104Y0032403D01*
X0022104Y0029450D01*
X0021204Y0029450D01*
X0021204Y0029507D02*
X0022104Y0029507D01*
X0022104Y0030406D02*
X0021204Y0030406D01*
X0021204Y0031304D02*
X0022104Y0031304D01*
X0022104Y0032203D02*
X0021204Y0032203D01*
X0020000Y0033101D02*
X0023000Y0033101D01*
X0023000Y0034000D02*
X0020000Y0034000D01*
X0020000Y0034899D02*
X0023000Y0034899D01*
X0023000Y0035797D02*
X0007000Y0035797D01*
X0007000Y0036696D02*
X0008420Y0036696D01*
X0008441Y0036617D02*
X0008604Y0036335D01*
X0008835Y0036104D01*
X0009117Y0035941D01*
X0009432Y0035857D01*
X0015050Y0035857D01*
X0015050Y0042550D01*
X0008357Y0042550D01*
X0008357Y0036932D01*
X0008441Y0036617D01*
X0008357Y0037594D02*
X0007000Y0037594D01*
X0007000Y0038493D02*
X0008357Y0038493D01*
X0008357Y0039391D02*
X0007000Y0039391D01*
X0007000Y0040290D02*
X0008357Y0040290D01*
X0008357Y0041188D02*
X0007000Y0041188D01*
X0007000Y0042087D02*
X0008357Y0042087D01*
X0007000Y0042985D02*
X0015050Y0042985D01*
X0015050Y0042087D02*
X0015950Y0042087D01*
X0015950Y0042985D02*
X0023000Y0042985D01*
X0023000Y0042087D02*
X0022643Y0042087D01*
X0058500Y0042087D01*
X0058500Y0042985D02*
X0020000Y0042985D01*
X0022643Y0043884D02*
X0023000Y0043884D01*
X0022643Y0043884D02*
X0058500Y0043884D01*
X0058500Y0044782D02*
X0047338Y0044782D01*
X0047318Y0044707D02*
X0047403Y0045022D01*
X0047403Y0046704D01*
X0044450Y0046704D01*
X0044450Y0047604D01*
X0043550Y0047604D01*
X0043550Y0050359D01*
X0041672Y0050359D01*
X0041357Y0050275D01*
X0041075Y0050112D01*
X0040844Y0049882D01*
X0040682Y0049600D01*
X0040597Y0049285D01*
X0040597Y0047604D01*
X0043550Y0047604D01*
X0043550Y0046704D01*
X0040597Y0046704D01*
X0040597Y0045022D01*
X0040682Y0044707D01*
X0040844Y0044425D01*
X0041075Y0044195D01*
X0041357Y0044032D01*
X0041672Y0043948D01*
X0043550Y0043948D01*
X0043550Y0046703D01*
X0044450Y0046703D01*
X0044450Y0043948D01*
X0046328Y0043948D01*
X0046643Y0044032D01*
X0046925Y0044195D01*
X0047156Y0044425D01*
X0047318Y0044707D01*
X0047403Y0045681D02*
X0058500Y0045681D01*
X0058500Y0046579D02*
X0047403Y0046579D01*
X0047403Y0047604D02*
X0047403Y0049285D01*
X0047318Y0049600D01*
X0047156Y0049882D01*
X0046925Y0050112D01*
X0046643Y0050275D01*
X0046328Y0050359D01*
X0044450Y0050359D01*
X0044450Y0047604D01*
X0047403Y0047604D01*
X0047403Y0048376D02*
X0058500Y0048376D01*
X0058500Y0047478D02*
X0044450Y0047478D01*
X0044450Y0048376D02*
X0043550Y0048376D01*
X0043550Y0047478D02*
X0022643Y0047478D01*
X0023000Y0047478D01*
X0023000Y0048376D02*
X0022643Y0048376D01*
X0040597Y0048376D01*
X0040597Y0049275D02*
X0022588Y0049275D01*
X0023000Y0049275D01*
X0023000Y0050173D02*
X0007000Y0050173D01*
X0007000Y0049275D02*
X0008412Y0049275D01*
X0008357Y0048376D02*
X0007000Y0048376D01*
X0007000Y0047478D02*
X0008357Y0047478D01*
X0008357Y0046579D02*
X0007000Y0046579D01*
X0007000Y0045681D02*
X0008357Y0045681D01*
X0008357Y0044782D02*
X0007000Y0044782D01*
X0007000Y0043884D02*
X0008357Y0043884D01*
X0015050Y0043884D02*
X0015950Y0043884D01*
X0015950Y0044782D02*
X0015050Y0044782D01*
X0015050Y0045681D02*
X0015950Y0045681D01*
X0015950Y0046579D02*
X0015050Y0046579D01*
X0015050Y0047478D02*
X0015950Y0047478D01*
X0015950Y0048376D02*
X0015050Y0048376D01*
X0015050Y0049275D02*
X0015950Y0049275D01*
X0020000Y0050173D02*
X0041181Y0050173D01*
X0040597Y0053000D02*
X0007000Y0053000D01*
X0007000Y0068770D01*
X0110000Y0068770D01*
X0110000Y0056946D01*
X0101541Y0056946D01*
X0100692Y0056097D01*
X0100692Y0053000D01*
X0089403Y0053000D01*
X0089403Y0053396D01*
X0086450Y0053396D01*
X0086450Y0054296D01*
X0089403Y0054296D01*
X0089403Y0055978D01*
X0089318Y0056293D01*
X0089156Y0056575D01*
X0088925Y0056805D01*
X0088643Y0056968D01*
X0088328Y0057052D01*
X0086450Y0057052D01*
X0086450Y0054296D01*
X0085550Y0054296D01*
X0085550Y0053396D01*
X0082597Y0053396D01*
X0082597Y0053000D01*
X0069000Y0053000D01*
X0069000Y0023000D01*
X0063000Y0023000D01*
X0063000Y0022403D01*
X0062104Y0022403D01*
X0062104Y0019450D01*
X0061204Y0019450D01*
X0061204Y0022403D01*
X0060000Y0022403D01*
X0060000Y0027000D01*
X0061000Y0027000D01*
X0061000Y0053000D01*
X0047403Y0053000D01*
X0047403Y0053396D01*
X0044450Y0053396D01*
X0044450Y0054296D01*
X0047403Y0054296D01*
X0047403Y0055978D01*
X0047318Y0056293D01*
X0047156Y0056575D01*
X0046925Y0056805D01*
X0046643Y0056968D01*
X0046328Y0057052D01*
X0044450Y0057052D01*
X0044450Y0054296D01*
X0043550Y0054296D01*
X0043550Y0053396D01*
X0040597Y0053396D01*
X0040597Y0053000D01*
X0040597Y0054296D02*
X0043550Y0054296D01*
X0043550Y0057052D01*
X0041672Y0057052D01*
X0041357Y0056968D01*
X0041075Y0056805D01*
X0040844Y0056575D01*
X0040682Y0056293D01*
X0040597Y0055978D01*
X0040597Y0054296D01*
X0040597Y0054666D02*
X0022572Y0054666D01*
X0022559Y0054617D02*
X0022643Y0054932D01*
X0022643Y0060550D01*
X0015950Y0060550D01*
X0015950Y0061450D01*
X0022643Y0061450D01*
X0022643Y0067068D01*
X0022559Y0067383D01*
X0022396Y0067665D01*
X0022165Y0067896D01*
X0021883Y0068059D01*
X0021568Y0068143D01*
X0015950Y0068143D01*
X0015950Y0061450D01*
X0015050Y0061450D01*
X0015050Y0068143D01*
X0009432Y0068143D01*
X0009117Y0068059D01*
X0008835Y0067896D01*
X0008604Y0067665D01*
X0008441Y0067383D01*
X0008357Y0067068D01*
X0008357Y0061450D01*
X0015050Y0061450D01*
X0015050Y0060550D01*
X0015950Y0060550D01*
X0015950Y0053857D01*
X0021568Y0053857D01*
X0021883Y0053941D01*
X0022165Y0054104D01*
X0022396Y0054335D01*
X0022559Y0054617D01*
X0022643Y0055564D02*
X0040597Y0055564D01*
X0040780Y0056463D02*
X0022643Y0056463D01*
X0022643Y0057361D02*
X0110000Y0057361D01*
X0110000Y0058260D02*
X0022643Y0058260D01*
X0022643Y0059158D02*
X0110000Y0059158D01*
X0110000Y0060057D02*
X0022643Y0060057D01*
X0022643Y0061854D02*
X0110000Y0061854D01*
X0110000Y0062752D02*
X0022643Y0062752D01*
X0022643Y0063651D02*
X0110000Y0063651D01*
X0110000Y0064549D02*
X0022643Y0064549D01*
X0022643Y0065448D02*
X0110000Y0065448D01*
X0110000Y0066346D02*
X0022643Y0066346D01*
X0022596Y0067245D02*
X0110000Y0067245D01*
X0110000Y0068143D02*
X0007000Y0068143D01*
X0007000Y0067245D02*
X0008404Y0067245D01*
X0008357Y0066346D02*
X0007000Y0066346D01*
X0007000Y0065448D02*
X0008357Y0065448D01*
X0008357Y0064549D02*
X0007000Y0064549D01*
X0007000Y0063651D02*
X0008357Y0063651D01*
X0008357Y0062752D02*
X0007000Y0062752D01*
X0007000Y0061854D02*
X0008357Y0061854D01*
X0008357Y0060550D02*
X0008357Y0054932D01*
X0008441Y0054617D01*
X0008604Y0054335D01*
X0008835Y0054104D01*
X0009117Y0053941D01*
X0009432Y0053857D01*
X0015050Y0053857D01*
X0015050Y0060550D01*
X0008357Y0060550D01*
X0008357Y0060057D02*
X0007000Y0060057D01*
X0007000Y0060955D02*
X0015050Y0060955D01*
X0015050Y0060057D02*
X0015950Y0060057D01*
X0015950Y0060955D02*
X0110000Y0060955D01*
X0101058Y0056463D02*
X0089220Y0056463D01*
X0089403Y0055564D02*
X0100692Y0055564D01*
X0100692Y0054666D02*
X0089403Y0054666D01*
X0088328Y0050359D02*
X0086450Y0050359D01*
X0086450Y0047604D01*
X0085550Y0047604D01*
X0085550Y0050359D01*
X0083672Y0050359D01*
X0083357Y0050275D01*
X0083075Y0050112D01*
X0082844Y0049882D01*
X0082682Y0049600D01*
X0082597Y0049285D01*
X0082597Y0047604D01*
X0085550Y0047604D01*
X0085550Y0046704D01*
X0082597Y0046704D01*
X0082597Y0045022D01*
X0082682Y0044707D01*
X0082844Y0044425D01*
X0083075Y0044195D01*
X0083357Y0044032D01*
X0083672Y0043948D01*
X0085550Y0043948D01*
X0085550Y0046703D01*
X0086450Y0046703D01*
X0086450Y0043948D01*
X0088328Y0043948D01*
X0088643Y0044032D01*
X0088925Y0044195D01*
X0089156Y0044425D01*
X0089318Y0044707D01*
X0089403Y0045022D01*
X0089403Y0046704D01*
X0086450Y0046704D01*
X0086450Y0047604D01*
X0089403Y0047604D01*
X0089403Y0049285D01*
X0089318Y0049600D01*
X0089156Y0049882D01*
X0088925Y0050112D01*
X0088643Y0050275D01*
X0088328Y0050359D01*
X0088819Y0050173D02*
X0100904Y0050173D01*
X0100904Y0050500D02*
X0100904Y0049337D01*
X0105741Y0049337D01*
X0105741Y0048663D01*
X0100904Y0048663D01*
X0100904Y0047262D01*
X0100989Y0046948D01*
X0101152Y0046665D01*
X0101382Y0046435D01*
X0101426Y0046410D01*
X0101101Y0046085D01*
X0101101Y0042073D01*
X0101711Y0041463D01*
X0110000Y0041463D01*
X0110000Y0035500D01*
X0076525Y0035500D01*
X0076525Y0035968D01*
X0073319Y0035968D01*
X0073319Y0035969D01*
X0073319Y0037937D01*
X0073319Y0037937D01*
X0073319Y0039667D01*
X0071500Y0039667D01*
X0071500Y0050500D01*
X0100904Y0050500D01*
X0100904Y0048376D02*
X0089403Y0048376D01*
X0089403Y0049275D02*
X0105741Y0049275D01*
X0100904Y0047478D02*
X0086450Y0047478D01*
X0086450Y0048376D02*
X0085550Y0048376D01*
X0085550Y0047478D02*
X0071500Y0047478D01*
X0071500Y0048376D02*
X0082597Y0048376D01*
X0082597Y0049275D02*
X0071500Y0049275D01*
X0071500Y0050173D02*
X0083181Y0050173D01*
X0085550Y0050173D02*
X0086450Y0050173D01*
X0086450Y0049275D02*
X0085550Y0049275D01*
X0085550Y0046579D02*
X0086450Y0046579D01*
X0086450Y0045681D02*
X0085550Y0045681D01*
X0085550Y0044782D02*
X0086450Y0044782D01*
X0089338Y0044782D02*
X0101101Y0044782D01*
X0101101Y0043884D02*
X0071500Y0043884D01*
X0071500Y0044782D02*
X0082662Y0044782D01*
X0082597Y0045681D02*
X0071500Y0045681D01*
X0071500Y0046579D02*
X0082597Y0046579D01*
X0082597Y0054296D02*
X0085550Y0054296D01*
X0085550Y0057052D01*
X0083672Y0057052D01*
X0083357Y0056968D01*
X0083075Y0056805D01*
X0082844Y0056575D01*
X0082682Y0056293D01*
X0082597Y0055978D01*
X0082597Y0054296D01*
X0082597Y0054666D02*
X0047403Y0054666D01*
X0047403Y0055564D02*
X0082597Y0055564D01*
X0082780Y0056463D02*
X0047220Y0056463D01*
X0044450Y0056463D02*
X0043550Y0056463D01*
X0043550Y0055564D02*
X0044450Y0055564D01*
X0044450Y0054666D02*
X0043550Y0054666D01*
X0043550Y0053767D02*
X0007000Y0053767D01*
X0007000Y0054666D02*
X0008428Y0054666D01*
X0008357Y0055564D02*
X0007000Y0055564D01*
X0007000Y0056463D02*
X0008357Y0056463D01*
X0008357Y0057361D02*
X0007000Y0057361D01*
X0007000Y0058260D02*
X0008357Y0058260D01*
X0008357Y0059158D02*
X0007000Y0059158D01*
X0015050Y0059158D02*
X0015950Y0059158D01*
X0015950Y0058260D02*
X0015050Y0058260D01*
X0015050Y0057361D02*
X0015950Y0057361D01*
X0015950Y0056463D02*
X0015050Y0056463D01*
X0015050Y0055564D02*
X0015950Y0055564D01*
X0015950Y0054666D02*
X0015050Y0054666D01*
X0015050Y0061854D02*
X0015950Y0061854D01*
X0015950Y0062752D02*
X0015050Y0062752D01*
X0015050Y0063651D02*
X0015950Y0063651D01*
X0015950Y0064549D02*
X0015050Y0064549D01*
X0015050Y0065448D02*
X0015950Y0065448D01*
X0015950Y0066346D02*
X0015050Y0066346D01*
X0015050Y0067245D02*
X0015950Y0067245D01*
X0022643Y0046579D02*
X0023000Y0046579D01*
X0022643Y0046579D02*
X0040597Y0046579D01*
X0040597Y0045681D02*
X0022643Y0045681D01*
X0023000Y0045681D01*
X0023000Y0044782D02*
X0022643Y0044782D01*
X0040662Y0044782D01*
X0043550Y0044782D02*
X0044450Y0044782D01*
X0044450Y0045681D02*
X0043550Y0045681D01*
X0043550Y0046579D02*
X0044450Y0046579D01*
X0044450Y0049275D02*
X0043550Y0049275D01*
X0043550Y0050173D02*
X0044450Y0050173D01*
X0046819Y0050173D02*
X0058500Y0050173D01*
X0058500Y0049275D02*
X0047403Y0049275D01*
X0044450Y0053767D02*
X0085550Y0053767D01*
X0085550Y0054666D02*
X0086450Y0054666D01*
X0086450Y0055564D02*
X0085550Y0055564D01*
X0085550Y0056463D02*
X0086450Y0056463D01*
X0086450Y0053767D02*
X0100692Y0053767D01*
X0101238Y0046579D02*
X0089403Y0046579D01*
X0089403Y0045681D02*
X0101101Y0045681D01*
X0101101Y0042985D02*
X0071500Y0042985D01*
X0071500Y0042087D02*
X0101101Y0042087D01*
X0110000Y0041188D02*
X0071500Y0041188D01*
X0071500Y0040290D02*
X0110000Y0040290D01*
X0110000Y0039391D02*
X0076076Y0039391D01*
X0076048Y0039419D02*
X0075765Y0039582D01*
X0075451Y0039667D01*
X0073319Y0039667D01*
X0073319Y0037937D01*
X0073319Y0037937D01*
X0073319Y0036207D01*
X0073319Y0035969D01*
X0073319Y0035969D01*
X0076525Y0035969D01*
X0076525Y0036624D01*
X0076441Y0036938D01*
X0076432Y0036953D01*
X0076441Y0036967D01*
X0076525Y0037282D01*
X0076525Y0037937D01*
X0073319Y0037937D01*
X0076525Y0037937D01*
X0076525Y0038592D01*
X0076441Y0038907D01*
X0076278Y0039189D01*
X0076048Y0039419D01*
X0076525Y0038493D02*
X0110000Y0038493D01*
X0110000Y0037594D02*
X0076525Y0037594D01*
X0076506Y0036696D02*
X0110000Y0036696D01*
X0110000Y0035797D02*
X0076525Y0035797D01*
X0077500Y0034000D02*
X0082500Y0029000D01*
X0086654Y0029000D01*
X0086654Y0019000D02*
X0082000Y0019000D01*
X0079000Y0022000D01*
X0079000Y0030000D01*
X0076969Y0032031D01*
X0073319Y0032031D01*
X0073319Y0030063D02*
X0073319Y0020819D01*
X0071500Y0019000D01*
X0068346Y0019000D01*
X0069000Y0023218D02*
X0060000Y0023218D01*
X0060000Y0024116D02*
X0069000Y0024116D01*
X0069000Y0025015D02*
X0060000Y0025015D01*
X0060000Y0025913D02*
X0069000Y0025913D01*
X0069000Y0026812D02*
X0060000Y0026812D01*
X0061000Y0027710D02*
X0069000Y0027710D01*
X0069000Y0028609D02*
X0061000Y0028609D01*
X0061000Y0029507D02*
X0069000Y0029507D01*
X0069000Y0030406D02*
X0061000Y0030406D01*
X0061000Y0031304D02*
X0069000Y0031304D01*
X0069000Y0032203D02*
X0061000Y0032203D01*
X0061000Y0033101D02*
X0069000Y0033101D01*
X0069000Y0034000D02*
X0061000Y0034000D01*
X0061000Y0034899D02*
X0069000Y0034899D01*
X0069000Y0035797D02*
X0061000Y0035797D01*
X0061000Y0036696D02*
X0069000Y0036696D01*
X0069000Y0037594D02*
X0061000Y0037594D01*
X0061000Y0038493D02*
X0069000Y0038493D01*
X0069000Y0039391D02*
X0061000Y0039391D01*
X0061000Y0040290D02*
X0069000Y0040290D01*
X0069000Y0041188D02*
X0061000Y0041188D01*
X0061000Y0042087D02*
X0069000Y0042087D01*
X0069000Y0042985D02*
X0061000Y0042985D01*
X0061000Y0043884D02*
X0069000Y0043884D01*
X0069000Y0044782D02*
X0061000Y0044782D01*
X0061000Y0045681D02*
X0069000Y0045681D01*
X0069000Y0046579D02*
X0061000Y0046579D01*
X0061000Y0047478D02*
X0069000Y0047478D01*
X0069000Y0048376D02*
X0061000Y0048376D01*
X0061000Y0049275D02*
X0069000Y0049275D01*
X0069000Y0050173D02*
X0061000Y0050173D01*
X0061000Y0051072D02*
X0069000Y0051072D01*
X0069000Y0051970D02*
X0061000Y0051970D01*
X0061000Y0052869D02*
X0069000Y0052869D01*
X0073319Y0039391D02*
X0073319Y0039391D01*
X0073319Y0038493D02*
X0073319Y0038493D01*
X0073319Y0037937D02*
X0073319Y0037937D01*
X0073319Y0037594D02*
X0073319Y0037594D01*
X0073319Y0036696D02*
X0073319Y0036696D01*
X0073319Y0034000D02*
X0077500Y0034000D01*
X0062000Y0030000D02*
X0061937Y0030063D01*
X0056681Y0030063D01*
X0056681Y0032031D02*
X0053531Y0032031D01*
X0051000Y0029500D01*
X0051000Y0022000D01*
X0048000Y0019000D01*
X0043346Y0019000D01*
X0043346Y0029000D02*
X0047500Y0029000D01*
X0052500Y0034000D01*
X0056681Y0034000D01*
X0056681Y0036696D02*
X0056681Y0036696D01*
X0056681Y0037594D02*
X0056681Y0037594D01*
X0056681Y0037937D02*
X0053475Y0037937D01*
X0056681Y0037937D01*
X0056681Y0037937D01*
X0056681Y0038493D02*
X0056681Y0038493D01*
X0056681Y0039391D02*
X0056681Y0039391D01*
X0058500Y0040290D02*
X0022643Y0040290D01*
X0023000Y0040290D01*
X0023000Y0041188D02*
X0022643Y0041188D01*
X0058500Y0041188D01*
X0053924Y0039391D02*
X0022643Y0039391D01*
X0023000Y0039391D01*
X0023000Y0038493D02*
X0022643Y0038493D01*
X0053475Y0038493D01*
X0053475Y0037594D02*
X0022643Y0037594D01*
X0023000Y0037594D01*
X0023000Y0036696D02*
X0022580Y0036696D01*
X0053494Y0036696D01*
X0053475Y0035797D02*
X0020000Y0035797D01*
X0015950Y0036696D02*
X0015050Y0036696D01*
X0015050Y0037594D02*
X0015950Y0037594D01*
X0015950Y0038493D02*
X0015050Y0038493D01*
X0015050Y0039391D02*
X0015950Y0039391D01*
X0015950Y0040290D02*
X0015050Y0040290D01*
X0015050Y0041188D02*
X0015950Y0041188D01*
X0061204Y0022319D02*
X0062104Y0022319D01*
X0062104Y0021421D02*
X0061204Y0021421D01*
X0061204Y0020522D02*
X0062104Y0020522D01*
X0062104Y0019624D02*
X0061204Y0019624D01*
D18*
X0063000Y0025500D03*
X0067000Y0025500D03*
X0067000Y0034000D03*
X0063000Y0034000D03*
X0063000Y0050500D03*
X0067000Y0050500D03*
X0093500Y0058000D03*
X0093500Y0063500D03*
X0099000Y0063500D03*
X0099000Y0058000D03*
X0113500Y0044000D03*
X0100000Y0029000D03*
X0036500Y0058000D03*
X0036500Y0063500D03*
X0031000Y0063500D03*
X0031000Y0058000D03*
M02*
